<?xml version="1.0" standalone="no"?>
<!DOCTYPE svg PUBLIC "-//W3C//DTD SVG 20010904//EN"
 "http://www.w3.org/TR/2001/REC-SVG-20010904/DTD/svg10.dtd">
<svg version="1.0" xmlns="http://www.w3.org/2000/svg"
 width="2938.000000pt" height="2560.000000pt" viewBox="0 0 2938.000000 2560.000000"
 preserveAspectRatio="xMidYMid meet">

<g transform="translate(0.000000,2560.000000) scale(0.100000,-0.100000)"
fill="#000000" stroke="none">
<path d="M10915 25522 c-88 -43 -165 -85 -171 -93 -6 -8 -44 -111 -83 -230
l-72 -216 -243 -354 c-134 -195 -303 -440 -377 -546 l-134 -192 -115 -81
c-177 -126 -217 -171 -370 -414 -93 -149 -143 -219 -164 -232 -39 -22 -46 -32
-46 -69 0 -19 9 -39 25 -53 23 -23 528 -212 564 -212 9 0 79 25 156 55 l140
56 135 -67 135 -66 55 -247 c29 -135 55 -253 57 -261 3 -10 -106 -89 -346
-250 -197 -132 -354 -245 -360 -257 -6 -12 -51 -165 -102 -340 -50 -175 -96
-323 -102 -330 -7 -6 -196 -120 -422 -253 -225 -133 -419 -250 -430 -261 -19
-19 -20 -33 -20 -344 0 -311 1 -325 20 -344 15 -16 132 -46 504 -130 276 -63
488 -116 492 -123 5 -7 77 -132 161 -276 84 -145 162 -268 173 -274 10 -6 125
-26 255 -44 l235 -33 505 -187 c278 -102 519 -188 536 -190 39 -5 69 15 234
155 69 58 132 112 141 119 14 10 69 -7 335 -103 175 -64 331 -121 347 -127
l27 -10 0 -107 c0 -58 4 -112 9 -120 5 -7 105 -75 222 -150 l214 -136 52 -100
c80 -151 52 -139 336 -146 l242 -5 254 -117 c145 -67 267 -117 284 -117 28 0
177 71 372 176 l80 43 69 -187 c129 -349 126 -341 156 -357 19 -10 59 -15 112
-15 l83 0 105 -167 c58 -91 106 -169 108 -173 2 -4 -25 -52 -60 -106 -69 -110
-80 -157 -43 -193 15 -15 137 -48 472 -127 l452 -107 182 102 c100 55 186 101
192 101 6 0 83 -27 171 -60 l161 -61 50 -96 c28 -53 58 -105 68 -115 21 -22
60 -23 77 -3 7 8 19 15 27 15 7 0 62 -47 121 -104 59 -57 116 -106 127 -109
66 -20 649 -147 674 -147 17 0 40 10 54 23 19 17 204 240 260 314 10 14 77
324 77 359 0 16 -59 102 -127 183 -2 3 -106 46 -231 95 l-227 91 -32 124 c-35
136 -56 171 -106 171 -17 0 -138 -39 -270 -86 l-240 -86 -88 12 c-51 7 -89 18
-89 24 1 62 71 681 77 685 5 3 62 39 126 80 65 40 122 82 127 92 6 10 10 74
10 143 l0 126 -106 264 -106 265 -124 112 c-68 61 -124 117 -124 124 0 12 128
356 135 363 2 2 80 -49 174 -112 224 -152 210 -152 348 -8 57 59 106 117 109
129 4 14 -39 193 -108 450 l-115 428 113 116 c75 76 114 123 114 138 0 38
-208 1189 -219 1209 -5 10 -150 110 -320 221 -171 112 -314 208 -318 214 -5 7
-21 68 -38 136 -25 101 -35 127 -55 142 -25 19 -475 119 -533 119 -15 0 -47
-13 -71 -29 l-42 -29 -203 28 c-112 15 -207 32 -212 37 -5 5 -119 216 -254
468 -135 253 -254 467 -264 476 -11 9 -113 51 -228 94 -114 42 -226 86 -248
96 -56 25 -90 32 -114 24 -11 -3 -69 -46 -127 -95 l-107 -89 -56 5 c-93 8
-785 44 -848 44 -53 0 -69 -6 -188 -71 l-130 -71 -466 -5 -466 -6 -111 84
-112 84 0 81 0 81 -80 106 -80 106 0 78 0 78 -105 184 -105 183 0 150 0 150
-151 326 c-83 180 -158 335 -167 345 -31 35 -86 22 -257 -61z m3965 -4387 l0
-275 -40 0 -40 0 0 275 0 275 40 0 40 0 0 -275z m-1180 240 c0 -24 2 -25 75
-25 l75 0 0 -30 0 -30 -72 0 -73 -1 27 -24 c17 -14 52 -29 87 -36 l59 -11 -10
-29 c-8 -22 -16 -29 -37 -29 -43 0 -126 28 -145 49 -17 19 -18 19 -53 -5 -67
-45 -155 -58 -173 -25 -17 32 -12 39 33 46 48 8 117 41 117 55 0 6 -31 10 -70
10 l-70 0 0 30 0 30 75 0 c73 0 75 1 75 25 0 23 4 25 40 25 36 0 40 -2 40 -25z
m670 -30 l0 -35 -70 0 c-39 0 -70 -4 -70 -10 0 -23 59 -71 107 -88 l51 -17
-14 -33 c-13 -31 -16 -33 -46 -27 -47 10 -99 39 -127 69 l-25 26 -30 -29 c-36
-33 -78 -56 -124 -66 -30 -6 -33 -4 -46 27 l-14 33 51 18 c52 18 107 61 107
84 0 9 -19 13 -70 13 l-70 0 0 35 0 35 195 0 195 0 0 -35z m292 -62 c4 -106
31 -171 89 -212 l38 -28 -22 -31 c-12 -18 -26 -32 -30 -32 -21 0 -69 45 -94
87 l-26 45 -20 -38 c-23 -46 -42 -69 -79 -95 l-27 -20 -25 38 -25 37 28 17
c62 37 99 120 108 242 l6 77 37 0 38 0 4 -87z m-762 -173 l0 -30 -100 0 c-91
0 -100 -2 -100 -19 0 -14 10 -20 42 -24 64 -9 93 -35 93 -87 0 -63 -30 -82
-139 -88 -47 -2 -101 -1 -120 2 -50 10 -96 51 -96 86 0 37 48 78 101 86 29 5
39 11 39 25 0 17 -9 19 -95 19 l-95 0 0 30 0 30 235 0 235 0 0 -30z m510 -35
l0 -35 -100 0 -100 0 0 -95 0 -95 -40 0 -40 0 0 95 0 95 -95 0 -95 0 0 35 0
35 235 0 235 0 0 -35z"/>
<path d="M13593 20970 c-56 -23 1 -54 90 -48 63 5 89 20 69 40 -15 15 -129 21
-159 8z"/>
</g>
</svg>
