<?xml version="1.0" standalone="no"?>
<!DOCTYPE svg PUBLIC "-//W3C//DTD SVG 20010904//EN"
 "http://www.w3.org/TR/2001/REC-SVG-20010904/DTD/svg10.dtd">
<svg version="1.0" xmlns="http://www.w3.org/2000/svg"
 width="2938.000000pt" height="2560.000000pt" viewBox="0 0 2938.000000 2560.000000"
 preserveAspectRatio="xMidYMid meet">

<g transform="translate(0.000000,2560.000000) scale(0.100000,-0.100000)"
fill="#000000" stroke="none">
<path d="M1176 17426 c6 -15 81 -52 89 -44 13 13 -9 36 -44 47 -49 14 -51 14
-45 -3z"/>
<path d="M4488 15557 c-269 -138 -281 -145 -403 -250 l-125 -108 -342 147
c-189 81 -353 153 -366 162 -19 13 -96 14 -545 13 l-523 -2 -128 30 c-127 31
-171 36 -199 25 -8 -3 -68 -62 -133 -131 l-118 -125 -38 -167 c-21 -91 -41
-173 -44 -182 -3 -13 -49 -24 -211 -50 -138 -23 -214 -39 -228 -51 -15 -11
-43 -77 -85 -195 -64 -177 -64 -178 -160 -303 -53 -69 -126 -165 -163 -213
l-67 -88 0 -277 0 -277 -183 -122 c-133 -89 -204 -144 -260 -201 l-77 -80 0
-74 c0 -73 -1 -76 -45 -134 l-44 -59 -1 -103 c0 -90 2 -104 20 -120 11 -9 136
-58 277 -107 l256 -90 35 -103 34 -102 -31 -81 c-17 -44 -31 -93 -31 -107 0
-40 136 -241 169 -249 14 -3 163 3 331 15 l305 22 120 -82 c66 -46 143 -98
171 -118 l51 -35 13 -117 c9 -85 17 -121 30 -135 9 -10 157 -88 329 -173 279
-139 311 -157 311 -179 0 -16 -28 -53 -92 -120 -51 -53 -113 -117 -137 -143
l-44 -47 1 -78 c2 -72 25 -335 38 -410 4 -30 1 -33 -71 -78 -42 -26 -80 -56
-85 -66 -6 -10 -10 -86 -10 -169 0 -147 1 -152 25 -175 13 -14 32 -25 42 -25
49 -1 724 -78 729 -83 4 -3 39 -130 80 -282 40 -152 78 -283 85 -291 17 -20
41 -25 520 -109 l437 -75 128 45 c165 58 174 66 174 178 l0 83 63 59 c132 127
141 135 163 129 18 -5 20 -11 16 -52 -3 -41 3 -62 55 -172 33 -69 67 -131 76
-139 10 -8 95 -23 214 -38 109 -13 200 -26 202 -29 2 -2 12 -77 21 -166 l17
-162 -71 -109 c-49 -77 -70 -118 -70 -141 0 -46 230 -417 267 -430 26 -10 198
8 243 25 19 7 220 224 256 277 15 22 13 32 -33 170 -27 80 -49 149 -49 153 0
4 229 224 510 490 280 266 513 491 516 499 4 8 39 195 80 414 l73 399 38 41
c247 262 396 420 536 568 l167 177 0 178 1 178 171 115 c94 63 184 125 199
138 31 26 39 48 64 195 l17 97 283 0 283 0 284 -163 c346 -200 340 -197 379
-197 26 0 46 14 116 83 l84 82 438 -34 439 -34 143 70 144 70 65 119 c78 142
82 154 63 190 -8 16 -213 198 -454 404 -242 206 -465 398 -496 425 l-56 51 66
247 c37 137 67 256 67 265 0 41 6 37 -1058 784 -222 156 -259 178 -292 178
-46 0 -54 -9 -209 -232 -95 -136 -104 -147 -129 -143 -15 3 -137 19 -272 36
-134 16 -246 31 -248 33 -2 2 -30 171 -62 375 -33 205 -62 376 -65 381 -10 15
-142 50 -385 101 l-105 21 -90 236 c-49 130 -100 248 -112 262 l-21 25 -276 3
-276 3 -290 -112 -290 -111 -94 33 c-84 29 -107 43 -188 112 -51 44 -111 92
-132 108 l-39 29 -201 0 -201 0 -277 -143z m322 -4677 c0 -29 1 -30 50 -30 47
0 50 -2 50 -25 0 -23 -3 -25 -50 -25 -45 0 -50 -2 -50 -22 0 -36 34 -83 74
-102 31 -15 35 -20 26 -37 -6 -10 -16 -19 -23 -19 -17 0 -87 49 -87 60 0 21
-32 9 -57 -20 -14 -17 -38 -37 -54 -45 -26 -14 -29 -14 -39 4 -14 27 -14 29
20 46 37 19 70 70 70 108 0 25 -3 27 -45 27 -41 0 -45 2 -45 25 0 23 3 25 50
25 49 0 50 1 50 30 0 27 3 30 30 30 27 0 30 -3 30 -30z m240 -125 l0 -155 -30
0 c-30 0 -30 1 -30 55 l0 55 -40 0 c-36 0 -40 3 -40 25 0 23 4 25 40 25 l40 0
0 75 0 75 30 0 30 0 0 -155z m510 -45 l0 -200 -30 0 c-23 0 -30 4 -30 20 0 17
-7 20 -50 20 -43 0 -50 3 -50 20 0 17 7 20 50 20 l50 0 0 160 0 160 30 0 30 0
0 -200z m-200 165 c55 -28 66 -85 26 -132 -22 -25 -30 -28 -91 -28 -61 0 -69
3 -91 28 -41 48 -28 108 29 132 42 19 91 18 127 0z m695 -95 l-7 -100 31 0
c26 0 31 -4 31 -25 0 -25 0 -25 -95 -25 l-95 0 0 -55 c0 -54 0 -55 -30 -55
-30 0 -30 1 -30 55 l0 55 -100 0 -100 0 0 25 0 25 165 0 165 0 0 29 c0 15 3
49 6 75 l7 46 -142 0 -141 0 0 25 0 25 171 0 171 0 -7 -100z m-605 -119 c0
-21 -19 -31 -60 -31 -52 0 -60 -8 -60 -61 l0 -49 -35 0 c-35 0 -35 0 -35 -45
l0 -45 155 0 155 0 0 -25 0 -25 -185 0 -185 0 0 75 0 75 35 0 c35 0 35 0 35
45 l0 44 -62 3 c-56 3 -63 5 -66 25 -3 22 -1 22 125 26 70 1 140 4 156 5 21 1
27 -2 27 -17z m-464 -110 c51 -23 68 -62 49 -108 -36 -85 -274 -85 -310 0 -31
74 34 127 155 127 42 0 79 -7 106 -19z m784 -61 l0 -60 145 0 145 0 0 -25 0
-25 -175 0 -175 0 0 85 0 85 30 0 30 0 0 -60z"/>
<path d="M5259 10819 c-20 -20 -20 -22 -3 -40 9 -10 27 -19 39 -19 12 0 30 9
39 19 17 18 17 20 -3 40 -12 12 -28 21 -36 21 -8 0 -24 -9 -36 -21z"/>
<path d="M4826 10510 c-58 -18 -55 -54 6 -71 71 -19 156 9 142 46 -6 15 -65
35 -99 34 -11 0 -33 -5 -49 -9z"/>
</g>
</svg>
