<?xml version="1.0" standalone="no"?>
<!DOCTYPE svg PUBLIC "-//W3C//DTD SVG 20010904//EN"
 "http://www.w3.org/TR/2001/REC-SVG-20010904/DTD/svg10.dtd">
<svg version="1.0" xmlns="http://www.w3.org/2000/svg"
 width="2938.000000pt" height="2560.000000pt" viewBox="0 0 2938.000000 2560.000000"
 preserveAspectRatio="xMidYMid meet">

<g transform="translate(0.000000,2560.000000) scale(0.100000,-0.100000)"
fill="#000000" stroke="none">
<path d="M23594 23547 l-109 -53 -310 13 c-170 7 -319 11 -331 8 -12 -2 -115
-79 -230 -170 l-209 -166 -250 7 c-137 4 -263 8 -280 9 -41 3 -72 -18 -77 -54
-3 -17 -1 -31 4 -31 4 0 8 -7 8 -15 0 -8 57 -143 126 -300 70 -157 125 -287
123 -289 -2 -2 -73 -40 -156 -86 l-153 -82 -260 91 c-144 50 -273 91 -288 91
-57 0 -66 -16 -153 -284 l-82 -255 -387 -241 c-213 -132 -395 -249 -404 -258
-9 -10 -16 -34 -16 -52 0 -53 110 -473 129 -493 10 -10 102 -53 205 -97 104
-44 191 -81 193 -83 2 -3 36 -127 75 -276 l71 -272 -37 -78 c-20 -42 -36 -83
-36 -91 0 -8 36 -156 81 -328 45 -172 80 -314 78 -315 -2 -2 -97 -85 -211
-185 -199 -175 -207 -184 -212 -225 -3 -23 -10 -152 -16 -287 l-11 -245 -101
-344 -101 -344 48 -161 c54 -183 82 -235 126 -236 9 0 61 43 117 96 l101 95
136 -93 135 -92 0 -121 0 -121 106 -170 c58 -93 112 -176 121 -186 10 -11 103
-33 312 -74 l297 -57 90 -146 c54 -89 99 -150 114 -158 18 -9 86 -13 238 -13
l212 0 287 -115 288 -115 140 0 c167 0 136 -21 299 198 59 79 113 141 119 139
7 -3 109 -48 228 -101 118 -53 225 -96 237 -96 12 0 160 72 328 160 l306 160
77 0 c109 0 114 7 149 191 26 141 28 147 99 273 51 89 73 139 73 162 0 25 -37
100 -142 287 -78 138 -147 268 -154 287 -6 19 -15 76 -18 126 l-7 91 59 49
c33 27 65 58 70 70 6 11 16 89 23 173 l12 152 191 282 191 281 106 26 106 25
115 108 115 107 221 0 c194 0 222 2 241 18 12 9 99 148 194 307 l173 290 285
5 285 5 33 28 c19 15 98 84 177 153 l143 125 46 107 c25 59 97 224 158 367
l113 260 124 5 125 5 92 58 c111 68 66 66 558 33 193 -13 360 -20 371 -15 12
4 89 95 173 202 136 175 151 199 151 234 0 22 -6 46 -12 55 -7 9 -175 132
-373 274 l-360 259 -473 5 -473 5 -330 305 c-182 168 -336 308 -343 312 -6 3
-182 21 -391 39 l-380 32 -31 33 c-53 57 -71 52 -340 -98 l-237 -131 -515 -44
-515 -43 -167 172 -167 173 -98 34 -97 34 6 51 c4 28 9 79 13 113 l6 61 -157
250 c-154 245 -177 272 -225 272 -10 0 -67 -24 -127 -53z m106 -3232 l0 -75
35 0 c33 0 35 -2 35 -35 0 -33 -2 -35 -35 -35 l-35 0 0 -90 0 -90 -40 0 -40 0
0 200 0 200 40 0 40 0 0 -75z m510 40 c0 -33 2 -35 35 -35 33 0 35 -2 35 -35
0 -33 -2 -35 -35 -35 -31 0 -35 -3 -35 -25 0 -22 4 -25 35 -25 33 0 35 -2 35
-35 0 -33 -2 -35 -35 -35 -33 0 -35 -2 -35 -35 0 -34 -1 -35 -40 -35 l-40 0 0
165 0 165 40 0 c39 0 40 -1 40 -35z m-206 -9 c51 -21 76 -60 76 -118 0 -91
-46 -138 -135 -138 -88 0 -139 49 -139 133 0 101 101 164 198 123z m722 -86
l-7 -100 31 0 c28 0 30 -3 30 -35 l0 -35 -95 0 -95 0 0 -55 0 -55 -40 0 -40 0
0 55 0 55 -100 0 -100 0 0 35 0 35 165 0 165 0 0 34 c0 18 3 48 6 65 l7 31
-142 0 -141 0 0 35 0 35 181 0 182 0 -7 -100z m-1176 45 l0 -35 -80 0 -80 0 0
-61 0 -62 99 6 99 5 6 -31 c3 -16 4 -33 0 -36 -3 -3 -68 -7 -145 -9 l-139 -4
0 131 0 131 120 0 120 0 0 -35z m617 -281 c69 -51 64 -127 -10 -166 -56 -29
-175 -31 -231 -3 -85 41 -81 140 9 181 48 22 196 15 232 -12z m-727 -49 l0
-65 140 0 140 0 0 -35 0 -35 -180 0 -180 0 0 100 0 100 40 0 40 0 0 -65z
m1000 -5 l0 -60 145 0 145 0 0 -35 0 -35 -185 0 -185 0 0 95 0 95 40 0 40 0 0
-60z"/>
<path d="M23917 20279 c-44 -26 -38 -103 9 -115 76 -19 112 88 39 116 -31 12
-26 12 -48 -1z"/>
<path d="M23986 19980 c-58 -18 -55 -54 4 -70 45 -12 115 -3 135 17 16 15 11
39 -9 46 -30 12 -103 15 -130 7z"/>
</g>
</svg>
