<?xml version="1.0" standalone="no"?>
<!DOCTYPE svg PUBLIC "-//W3C//DTD SVG 20010904//EN"
 "http://www.w3.org/TR/2001/REC-SVG-20010904/DTD/svg10.dtd">
<svg version="1.0" xmlns="http://www.w3.org/2000/svg"
 width="2938.000000pt" height="2560.000000pt" viewBox="0 0 2938.000000 2560.000000"
 preserveAspectRatio="xMidYMid meet">

<g transform="translate(0.000000,2560.000000) scale(0.100000,-0.100000)"
fill="#000000" stroke="none">
<path d="M11845 19068 c-11 -6 -92 -72 -180 -147 -88 -74 -162 -136 -164 -137
-2 -2 -7 -34 -11 -71 -7 -65 -5 -75 45 -218 l53 -150 -215 -317 -214 -318
-807 0 c-721 0 -810 -2 -830 -16 -17 -12 -318 -363 -387 -451 -8 -10 -85 8
-370 87 -198 55 -371 100 -384 100 -15 0 -136 -73 -310 -186 l-286 -186 -91 4
c-51 3 -99 1 -107 -4 -9 -4 -21 -25 -28 -46 -6 -20 -84 -181 -172 -357 l-160
-320 -48 -445 c-27 -245 -46 -454 -42 -465 3 -10 45 -76 93 -145 93 -133 97
-142 106 -241 3 -35 10 -84 15 -109 6 -25 37 -208 68 -408 49 -309 61 -366 79
-384 18 -18 60 -26 319 -59 164 -21 316 -38 339 -39 50 0 59 9 193 202 56 81
107 150 111 153 7 4 1155 -792 1202 -834 5 -4 -21 -115 -57 -248 -67 -248 -73
-287 -52 -313 7 -9 221 -195 477 -414 256 -220 488 -421 517 -449 60 -58 40
-57 267 -3 114 28 156 34 180 27 17 -5 132 -41 255 -80 123 -39 234 -71 247
-71 22 0 23 3 23 66 -1 36 2 68 5 71 2 3 94 31 203 62 l198 57 110 -32 c184
-54 203 -47 238 86 21 78 31 96 122 217 86 114 109 138 171 178 l72 45 118
-70 c96 -57 125 -70 160 -70 42 0 49 -6 276 -212 129 -117 253 -230 277 -252
l44 -38 126 4 c69 3 133 8 141 12 13 5 265 347 323 436 17 27 17 44 -3 442
-18 358 -24 416 -39 438 -13 19 -62 41 -192 90 -148 55 -183 64 -236 64 -35
-1 -63 1 -63 3 0 2 22 48 49 102 56 111 56 111 188 111 73 0 54 -14 296 216
l149 142 76 7 c43 4 85 11 94 16 10 5 101 108 203 229 102 121 191 217 198
215 6 -2 90 -29 186 -59 l174 -56 451 0 451 0 130 -121 c72 -66 144 -129 160
-140 28 -18 50 -19 322 -19 186 0 301 4 316 11 29 13 117 158 117 194 0 42
-15 60 -98 119 -43 30 -170 132 -282 227 -139 116 -223 180 -262 197 -63 28
-59 18 -84 177 l-17 110 103 253 c56 138 108 256 114 260 6 5 65 23 130 40 66
17 128 39 138 49 12 12 32 85 62 227 40 191 47 211 75 240 37 38 38 48 6 106
-13 25 -43 80 -65 122 -22 43 -49 82 -59 88 -53 28 -390 150 -415 150 -17 0
-96 -38 -207 -101 l-179 -100 -388 91 c-213 51 -388 93 -390 94 -1 2 22 43 53
91 37 59 55 99 55 120 0 23 -33 84 -126 231 -69 109 -133 207 -141 216 -12 14
-36 18 -110 20 l-95 3 -97 263 c-54 146 -106 272 -118 283 -39 39 -73 29 -310
-93 l-221 -114 -263 120 -264 121 -220 3 -220 3 -48 93 c-26 51 -55 101 -66
110 -10 9 -105 72 -212 140 l-194 123 -5 109 c-5 111 -16 146 -47 158 -156 60
-767 276 -780 276 -10 0 -27 -6 -38 -12z m-515 -3253 l0 -275 -40 0 -40 0 0
275 0 275 40 0 40 0 0 -275z m480 190 l0 -75 35 0 c33 0 35 -2 35 -35 0 -33
-2 -35 -35 -35 l-35 0 0 -90 0 -90 -40 0 -40 0 0 200 0 200 40 0 40 0 0 -75z
m516 -45 l-7 -100 31 0 c28 0 30 -3 30 -35 l0 -35 -95 0 -95 0 0 -55 0 -55
-40 0 -40 0 0 55 0 55 -100 0 -100 0 0 35 0 35 165 0 165 0 0 34 c0 18 3 48 6
65 l7 31 -142 0 -141 0 0 35 0 35 181 0 182 0 -7 -100z m-726 38 c0 -67 32
-125 82 -153 l37 -21 -19 -32 c-11 -18 -22 -32 -25 -32 -17 0 -66 33 -89 60
l-26 31 -31 -36 c-18 -20 -46 -43 -62 -52 -28 -14 -32 -14 -45 3 -30 42 -33
52 -13 59 61 19 98 76 108 165 l6 60 38 0 39 0 0 -52z m-404 -85 c-4 -65 -11
-121 -14 -125 -4 -4 -24 -5 -45 -1 -31 5 -36 9 -32 27 2 11 7 49 10 84 l6 62
-101 0 -100 0 0 35 0 35 141 0 142 0 -7 -117z m-126 -124 l0 -72 80 6 80 6 0
-33 0 -34 -62 -6 c-259 -24 -277 -22 -278 32 0 20 5 22 50 22 l50 0 0 75 0 75
40 0 40 0 0 -71z m480 -119 l0 -60 140 0 140 0 0 -35 0 -35 -180 0 -180 0 0
95 0 95 40 0 40 0 0 -60z m490 0 l0 -60 145 0 145 0 0 -35 0 -35 -185 0 -185
0 0 95 0 95 40 0 40 0 0 -60z"/>
</g>
</svg>
