<?xml version="1.0" standalone="no"?>
<!DOCTYPE svg PUBLIC "-//W3C//DTD SVG 20010904//EN"
 "http://www.w3.org/TR/2001/REC-SVG-20010904/DTD/svg10.dtd">
<svg version="1.0" xmlns="http://www.w3.org/2000/svg"
 width="2938.000000pt" height="2560.000000pt" viewBox="0 0 2938.000000 2560.000000"
 preserveAspectRatio="xMidYMid meet">

<g transform="translate(0.000000,2560.000000) scale(0.100000,-0.100000)"
fill="#000000" stroke="none">
<path d="M9312 23317 c-24 -32 -23 -36 8 -26 16 6 30 15 30 19 0 14 -28 19
-38 7z"/>
<path d="M8285 23103 c-45 -24 -17 -26 61 -4 l69 20 -50 0 c-28 0 -63 -7 -80
-16z"/>
<path d="M6659 17182 c-24 -3 -28 -9 -38 -60 -6 -31 -18 -149 -26 -262 -9
-112 -19 -207 -23 -211 -4 -3 -86 -57 -182 -119 -96 -62 -188 -125 -203 -139
l-28 -26 143 -5 143 -5 0 -25 c0 -24 -3 -25 -73 -28 -51 -2 -72 -6 -69 -15 7
-21 64 -48 116 -54 28 -3 51 -9 51 -12 -1 -18 -30 -41 -52 -41 -29 0 -128 28
-144 41 -7 6 -28 2 -55 -10 -24 -11 -66 -23 -92 -26 -40 -6 -50 -4 -62 11 -14
18 -14 18 -15 -1 0 -43 7 -44 220 -47 l205 -3 0 -25 0 -25 -192 -3 -192 -2 11
-26 c8 -17 17 -23 27 -19 52 21 134 28 193 17 71 -13 109 -37 122 -75 8 -23 6
-31 -18 -56 -36 -38 -98 -54 -189 -50 l-74 4 -22 -160 c-12 -88 -19 -168 -15
-178 3 -10 15 -22 25 -27 10 -6 128 -10 278 -10 l259 0 50 -127 c27 -71 69
-179 92 -242 27 -69 52 -118 64 -126 26 -17 461 -117 534 -123 43 -3 52 -1 52
12 0 35 -43 292 -51 308 -5 9 -46 69 -91 134 l-81 116 21 196 c12 109 25 207
28 220 6 22 6 22 -103 22 -71 0 -113 4 -121 12 -7 7 -12 40 -12 80 l0 68 40 0
40 0 0 -50 0 -50 84 0 84 0 4 41 c5 53 -2 109 -13 109 -5 0 -9 -22 -9 -50 l0
-50 -40 0 -40 0 0 50 0 50 -85 0 -85 0 0 30 0 30 140 0 139 0 5 33 c3 17 7 47
9 65 l4 32 -139 0 -138 0 0 30 0 30 155 0 155 0 147 293 c81 160 151 305 154
321 12 51 -5 71 -118 139 l-108 65 -385 4 c-212 1 -397 2 -411 0z m296 -952
l0 -135 -37 -3 -38 -3 0 45 c0 44 -1 46 -30 46 -27 0 -30 3 -30 30 0 27 3 30
30 30 38 0 40 18 3 22 -20 2 -29 9 -31 25 -2 14 -8 20 -18 16 -10 -4 -14 -23
-14 -69 l0 -64 30 0 c27 0 30 -3 30 -30 l0 -30 -155 0 -155 0 0 30 c0 23 4 30
20 30 18 0 20 7 20 65 0 58 -2 65 -20 65 -16 0 -20 7 -20 30 l0 30 136 0 c127
0 136 -1 141 -20 4 -14 14 -20 34 -20 24 0 29 4 29 26 0 23 3 25 38 22 l37 -3
0 -135z m-65 -172 c25 -13 52 -35 60 -50 13 -25 13 -31 0 -55 -32 -58 -169
-90 -267 -64 -94 25 -131 96 -78 145 34 32 78 44 165 45 60 1 85 -4 120 -21z"/>
<path d="M6660 16235 c0 -63 1 -65 25 -65 24 0 25 2 25 65 0 63 -1 65 -25 65
-24 0 -25 -2 -25 -65z"/>
<path d="M6683 16010 c-31 -12 -29 -44 2 -58 34 -16 134 -15 165 1 34 17 36
41 5 55 -30 14 -140 15 -172 2z"/>
<path d="M6084 16263 l-27 -36 46 6 c55 8 102 30 110 52 5 12 -3 15 -47 15
-50 0 -56 -3 -82 -37z"/>
<path d="M6183 15999 c-19 -5 -33 -16 -33 -25 0 -21 42 -34 110 -34 68 0 110
13 110 34 0 30 -116 45 -187 25z"/>
</g>
</svg>
