<?xml version="1.0" standalone="no"?>
<!DOCTYPE svg PUBLIC "-//W3C//DTD SVG 20010904//EN"
 "http://www.w3.org/TR/2001/REC-SVG-20010904/DTD/svg10.dtd">
<svg version="1.0" xmlns="http://www.w3.org/2000/svg"
 width="2938.000000pt" height="2560.000000pt" viewBox="0 0 2938.000000 2560.000000"
 preserveAspectRatio="xMidYMid meet">

<g transform="translate(0.000000,2560.000000) scale(0.100000,-0.100000)"
fill="#000000" stroke="none">
<path d="M14815 25391 c-736 -249 -699 -235 -714 -267 -14 -31 -15 -357 -1
-384 7 -13 349 -330 433 -400 10 -8 -38 -465 -52 -504 -6 -15 -11 -47 -11 -71
0 -52 -18 -42 287 -155 l222 -83 251 -471 c138 -259 259 -478 269 -487 13 -11
92 -25 252 -47 129 -18 248 -32 264 -32 17 0 46 13 68 29 l37 28 158 -33 c86
-19 185 -39 218 -45 l61 -12 28 -121 c15 -67 31 -128 35 -136 5 -8 151 -108
327 -223 l318 -207 99 -555 99 -554 -112 -119 c-92 -100 -111 -125 -111 -151
0 -17 50 -219 111 -447 l111 -417 -67 -67 -67 -68 -185 125 c-165 111 -189
124 -217 119 -17 -4 -39 -14 -48 -24 -10 -9 -58 -125 -108 -257 -68 -178 -89
-246 -85 -267 5 -19 49 -66 144 -152 l137 -125 97 -244 98 -244 -3 -84 -3 -84
-115 -72 c-63 -40 -123 -82 -132 -95 -14 -18 -26 -103 -57 -412 -23 -228 -36
-398 -31 -410 16 -42 43 -54 177 -75 l133 -21 232 84 233 83 31 -119 c17 -65
37 -125 45 -133 8 -8 115 -54 239 -102 l224 -88 59 -73 c53 -66 62 -72 95 -72
20 0 73 11 117 25 44 14 81 25 83 25 1 0 2 -51 2 -114 0 -161 -5 -157 221
-204 l177 -37 34 -45 c18 -24 44 -47 56 -50 13 -3 124 1 247 9 l223 14 139
-52 c155 -58 163 -58 358 -36 172 21 165 13 204 224 30 163 31 165 71 206 l40
41 0 109 0 110 100 63 c65 41 102 71 105 85 3 12 7 123 9 247 l4 225 -41 137
-40 137 96 328 97 328 11 250 c6 138 12 260 15 271 2 13 90 97 206 199 202
177 227 203 228 238 0 10 -37 160 -82 333 l-82 315 37 75 c20 41 37 81 37 90
0 8 -36 153 -80 322 -62 237 -86 312 -103 328 -12 12 -106 56 -208 98 l-186
78 -49 193 c-27 107 -46 195 -44 198 3 2 177 111 388 241 210 131 387 246 392
255 4 9 43 121 85 248 l76 232 42 -15 c342 -124 474 -165 503 -157 17 4 113
53 214 108 191 105 219 129 206 181 -7 27 -247 578 -276 634 -23 45 -52 60
-116 60 l-52 0 -141 185 c-78 102 -144 191 -147 199 -3 8 92 73 283 191 158
98 320 205 359 237 69 56 72 58 130 58 68 0 52 -9 354 184 102 65 193 127 203
138 10 12 17 36 17 58 0 35 -9 46 -127 162 -285 277 -309 298 -340 304 -25 5
-81 -16 -294 -106 l-264 -112 -228 35 -229 35 -66 72 -67 72 -145 29 c-80 16
-155 31 -167 34 -12 3 -53 34 -91 69 -65 60 -77 66 -197 106 -70 23 -211 83
-313 132 l-186 89 -331 -46 c-181 -25 -342 -48 -357 -51 -14 -3 -121 -66 -237
-140 l-212 -134 -282 0 c-237 0 -286 -2 -304 -15 -12 -9 -111 -118 -219 -243
-109 -125 -202 -232 -208 -239 -10 -10 -1072 -141 -1291 -158 l-80 -7 -75 104
-75 103 -5 175 -5 175 -159 250 c-87 138 -168 260 -180 272 -27 29 -548 184
-610 182 -24 -1 -293 -87 -651 -208z m4225 -2956 l0 -275 -35 0 -35 0 0 275 0
275 35 0 35 0 0 -275z m510 70 l0 -205 -40 0 -40 0 0 90 0 90 -40 0 c-39 0
-40 1 -40 35 0 34 1 35 40 35 l40 0 0 80 0 80 40 0 40 0 0 -205z m510 -70 l0
-275 -40 0 -40 0 0 275 0 275 40 0 40 0 0 -275z m-1120 5 l0 -260 -35 0 -35 0
0 73 -1 72 -22 -27 c-21 -26 -24 -27 -45 -12 -12 8 -33 36 -47 62 -13 26 -24
40 -25 31 0 -22 -57 -106 -76 -113 -16 -6 -53 29 -54 50 0 6 9 19 21 30 31 28
56 82 68 149 16 86 17 85 -34 85 -45 0 -45 0 -45 35 l0 35 115 0 115 0 0 -35
c0 -33 -2 -35 -36 -35 l-35 0 6 -57 c9 -71 34 -130 69 -162 l26 -24 0 56 0 57
-35 0 c-33 0 -35 2 -35 35 0 33 2 35 35 35 l35 0 0 90 0 90 35 0 35 0 0 -260z
m370 230 c0 -29 1 -30 50 -30 49 0 50 -1 50 -30 0 -29 -1 -30 -50 -30 -46 0
-50 -2 -50 -24 0 -33 40 -87 81 -111 l36 -20 -15 -32 c-9 -18 -20 -33 -26 -33
-19 0 -80 41 -101 67 l-21 25 -14 -27 c-8 -15 -34 -38 -58 -52 -46 -28 -46
-28 -73 20 -6 10 -9 20 -7 21 65 40 98 81 112 139 6 27 6 27 -44 27 -49 0 -50
1 -50 30 0 29 1 30 50 30 49 0 50 1 50 30 0 28 2 30 40 30 38 0 40 -2 40 -30z
m532 -87 c4 -106 31 -171 89 -212 l38 -28 -22 -31 c-12 -18 -26 -32 -30 -32
-21 0 -69 45 -94 87 l-26 45 -20 -38 c-23 -46 -42 -69 -79 -95 l-27 -20 -25
38 -25 37 28 17 c62 37 99 120 108 242 l6 77 37 0 38 0 4 -87z m-562 -298 l0
-55 140 0 140 0 0 -35 0 -35 -180 0 -180 0 0 90 0 90 40 0 40 0 0 -55z"/>
</g>
</svg>
