<?xml version="1.0" standalone="no"?>
<!DOCTYPE svg PUBLIC "-//W3C//DTD SVG 20010904//EN"
 "http://www.w3.org/TR/2001/REC-SVG-20010904/DTD/svg10.dtd">
<svg version="1.0" xmlns="http://www.w3.org/2000/svg"
 width="2938.000000pt" height="2560.000000pt" viewBox="0 0 2938.000000 2560.000000"
 preserveAspectRatio="xMidYMid meet">

<g transform="translate(0.000000,2560.000000) scale(0.100000,-0.100000)"
fill="#000000" stroke="none">
<path d="M3965 20315 c-47 -15 -564 -262 -584 -278 -7 -6 -103 -190 -212 -409
-109 -219 -200 -398 -202 -398 -2 0 -147 -29 -322 -65 -276 -55 -419 -92
-1044 -268 -542 -154 -729 -210 -745 -226 -18 -19 -22 -36 -26 -144 l-5 -122
-79 -110 c-172 -241 -174 -265 -35 -388 58 -51 338 -274 389 -310 15 -10 33
-56 65 -167 25 -85 52 -161 61 -171 8 -9 90 -45 180 -80 l165 -63 105 -186
c58 -102 113 -193 122 -202 9 -10 89 -39 177 -66 l160 -50 53 -123 c29 -68 58
-130 65 -137 6 -8 126 -97 267 -198 l256 -183 187 -222 187 -221 0 -54 c0 -45
4 -56 23 -68 47 -31 773 -336 799 -336 27 0 46 14 230 171 74 63 123 93 346
207 l259 132 157 0 158 0 122 -103 123 -103 129 -44 130 -44 284 110 c176 67
295 119 312 134 23 21 28 35 33 95 3 39 12 113 20 165 19 121 19 194 1 212
-21 21 -47 78 -41 88 3 5 1 11 -5 15 -5 3 -10 18 -11 33 0 15 -3 21 -6 13 -4
-10 -9 -8 -18 9 -11 20 -10 28 8 52 11 15 25 24 30 21 6 -3 7 -1 4 4 -14 22
44 70 239 199 112 73 207 142 213 152 5 10 18 120 27 245 10 125 21 227 26
227 4 0 10 23 14 50 4 28 11 53 15 56 5 3 7 9 4 14 -3 5 24 85 60 177 70 182
78 228 44 259 -11 10 -113 62 -226 115 l-206 97 -97 174 c-63 112 -105 177
-121 185 -17 9 -93 13 -260 13 l-236 0 -79 267 c-49 167 -86 275 -99 289 -15
17 -161 65 -594 198 -316 97 -576 177 -577 179 -1 1 20 178 48 392 32 249 47
398 41 412 -4 12 -90 106 -191 208 l-183 185 -47 -1 c-26 0 -65 -6 -87 -14z
m-255 -2810 l0 -205 -40 0 -40 0 0 205 0 205 40 0 40 0 0 -205z m530 0 l0
-205 -40 0 -40 0 0 90 0 90 -40 0 c-39 0 -40 1 -40 35 0 34 1 35 40 35 l40 0
0 80 0 80 40 0 40 0 0 -205z m-240 165 c0 -29 1 -30 50 -30 49 0 50 -1 50 -30
0 -29 -1 -30 -50 -30 -46 0 -50 -2 -50 -24 0 -33 40 -87 81 -111 l36 -20 -15
-32 c-9 -18 -20 -33 -26 -33 -19 0 -80 41 -101 67 l-21 25 -14 -27 c-8 -15
-34 -38 -58 -52 -46 -28 -46 -28 -73 20 -6 10 -9 20 -7 21 65 40 98 81 112
139 6 27 6 27 -44 27 -49 0 -50 1 -50 30 0 29 1 30 50 30 49 0 50 1 50 30 0
28 2 30 40 30 38 0 40 -2 40 -30z m726 -90 l-7 -100 31 0 c28 0 30 -3 30 -35
l0 -35 -95 0 -95 0 0 -55 0 -55 -40 0 -40 0 0 55 0 55 -100 0 -100 0 0 35 0
35 165 0 165 0 0 34 c0 18 3 48 6 65 l7 31 -142 0 -141 0 0 35 0 35 181 0 182
0 -7 -100z m-1136 55 l0 -35 -50 0 c-44 0 -50 -3 -50 -20 0 -38 39 -98 79
-122 l40 -24 -21 -32 c-11 -18 -22 -32 -25 -32 -14 0 -75 44 -92 66 l-20 25
-43 -44 c-59 -59 -82 -64 -107 -24 l-20 31 39 23 c43 26 74 71 83 121 l7 32
-55 0 -55 0 0 35 0 35 145 0 145 0 0 -35z m-140 -345 l0 -60 140 0 140 0 0
-35 0 -35 -180 0 -180 0 0 95 0 95 40 0 40 0 0 -60z m990 0 l0 -60 145 0 145
0 0 -35 0 -35 -185 0 -185 0 0 95 0 95 40 0 40 0 0 -60z m-470 -5 l0 -55 140
0 140 0 0 -35 0 -35 -180 0 -180 0 0 90 0 90 40 0 40 0 0 -55z"/>
</g>
</svg>
