<?xml version="1.0" standalone="no"?>
<!DOCTYPE svg PUBLIC "-//W3C//DTD SVG 20010904//EN"
 "http://www.w3.org/TR/2001/REC-SVG-20010904/DTD/svg10.dtd">
<svg version="1.0" xmlns="http://www.w3.org/2000/svg"
 width="2938.000000pt" height="2560.000000pt" viewBox="0 0 2938.000000 2560.000000"
 preserveAspectRatio="xMidYMid meet">

<g transform="translate(0.000000,2560.000000) scale(0.100000,-0.100000)"
fill="#000000" stroke="none">
<path d="M7820 8676 l-155 -104 -209 -246 c-191 -227 -210 -247 -235 -242 -70
14 -470 76 -492 76 -13 0 -145 -67 -292 -150 -148 -82 -296 -163 -330 -180
-54 -26 -65 -37 -83 -78 l-21 -48 -158 -44 c-87 -24 -167 -51 -178 -60 -14
-12 -55 -146 -157 -514 -76 -274 -143 -503 -148 -508 -5 -5 -94 -55 -197 -111
-105 -57 -196 -113 -206 -127 -16 -22 -19 -59 -24 -320 l-7 -295 -52 -75 -51
-75 -5 -175 -5 -175 -83 -113 c-46 -63 -88 -127 -94 -142 -8 -26 3 -59 93
-277 57 -136 113 -257 124 -270 18 -20 44 -26 261 -55 l241 -31 56 22 57 23
273 -106 c150 -58 286 -106 302 -106 17 1 100 18 185 39 l155 37 149 -135 c82
-75 166 -152 187 -171 l38 -35 -14 -200 c-8 -110 -14 -221 -15 -247 l0 -48
341 0 341 0 75 -45 c50 -31 85 -45 108 -45 20 0 117 18 218 41 136 31 187 46
204 63 24 24 103 265 103 316 0 34 -9 52 -122 246 l-65 110 81 88 81 88 318
-18 c223 -12 325 -14 341 -6 15 7 89 127 227 372 125 223 212 366 224 371 11
5 216 45 455 90 239 45 444 86 454 91 11 6 112 91 226 189 l207 179 290 0
c230 0 293 3 308 14 11 8 85 122 165 255 l145 240 400 0 c220 0 425 -4 455 -8
30 -4 62 -6 72 -3 16 4 309 313 354 374 17 22 24 50 29 116 l7 87 230 150
c127 83 236 159 244 170 28 39 20 66 -90 297 -15 32 -32 44 -105 80 -101 49
-48 48 -551 4 l-375 -32 -271 153 -272 153 -255 0 c-252 0 -255 0 -313 26 -56
25 -81 27 -619 65 l-560 39 -265 264 c-146 145 -275 269 -287 275 -14 7 -105
11 -255 11 l-233 0 -50 122 c-27 67 -56 129 -65 138 -23 23 -634 250 -673 250
-24 0 -70 -25 -187 -104z m640 -2371 l0 -205 -40 0 -40 0 0 90 0 90 -40 0
c-39 0 -40 1 -40 35 0 34 1 35 40 35 l40 0 0 80 0 80 40 0 40 0 0 -205z m-240
165 c0 -29 1 -30 50 -30 49 0 50 -1 50 -30 0 -29 -1 -30 -50 -30 -46 0 -50 -2
-50 -24 0 -33 40 -87 81 -111 l36 -20 -15 -32 c-9 -18 -20 -33 -26 -33 -19 0
-80 41 -101 67 l-21 25 -14 -27 c-8 -15 -34 -38 -58 -52 -46 -28 -46 -28 -73
20 -6 10 -9 20 -7 21 65 40 98 81 112 139 6 27 6 27 -44 27 -49 0 -50 1 -50
30 0 29 1 30 50 30 49 0 50 1 50 30 0 28 2 30 40 30 38 0 40 -2 40 -30z m-353
1 c45 -21 63 -45 63 -86 0 -14 -5 -35 -11 -47 -12 -22 -82 -57 -116 -58 -16 0
-23 -6 -23 -20 0 -19 7 -20 100 -20 l100 0 0 -35 0 -35 -235 0 -235 0 0 35 0
35 95 0 c86 0 95 2 95 19 0 14 -10 20 -39 25 -53 8 -101 54 -101 96 0 75 59
110 185 110 57 0 92 -6 122 -19z m1079 -91 l-7 -100 31 0 c28 0 30 -3 30 -35
l0 -35 -95 0 -95 0 0 -55 0 -55 -40 0 -40 0 0 55 0 55 -100 0 -100 0 0 35 0
35 165 0 165 0 0 34 c0 18 3 48 6 65 l7 31 -142 0 -141 0 0 35 0 35 181 0 182
0 -7 -100z m-286 -290 l0 -60 145 0 145 0 0 -35 0 -35 -185 0 -185 0 0 95 0
95 40 0 40 0 0 -60z m-740 -40 l0 -90 -40 0 -40 0 0 55 0 55 -140 0 -140 0 0
35 0 35 180 0 180 0 0 -90z m270 35 l0 -55 140 0 140 0 0 -35 0 -35 -180 0
-180 0 0 90 0 90 40 0 40 0 0 -55z"/>
<path d="M7694 6421 c-41 -10 -54 -19 -54 -36 0 -23 41 -39 105 -39 127 0 147
63 25 77 -25 3 -59 2 -76 -2z"/>
</g>
</svg>
