<?xml version="1.0" standalone="no"?>
<!DOCTYPE svg PUBLIC "-//W3C//DTD SVG 20010904//EN"
 "http://www.w3.org/TR/2001/REC-SVG-20010904/DTD/svg10.dtd">
<svg version="1.0" xmlns="http://www.w3.org/2000/svg"
 width="2938.000000pt" height="2560.000000pt" viewBox="0 0 2938.000000 2560.000000"
 preserveAspectRatio="xMidYMid meet">

<g transform="translate(0.000000,2560.000000) scale(0.100000,-0.100000)"
fill="#000000" stroke="none">
<path d="M4488 15557 c-269 -138 -281 -145 -403 -250 l-125 -108 -342 147
c-189 81 -353 153 -366 162 -19 13 -96 14 -545 13 l-523 -2 -128 30 c-127 31
-171 36 -199 25 -8 -3 -68 -62 -133 -131 l-118 -125 -38 -167 c-21 -91 -41
-173 -44 -182 -3 -13 -49 -24 -211 -50 -138 -23 -214 -39 -228 -51 -15 -11
-43 -77 -85 -195 -64 -177 -64 -178 -160 -303 -53 -69 -126 -165 -163 -213
l-67 -88 0 -277 0 -277 -183 -122 c-133 -89 -204 -144 -260 -201 l-77 -80 0
-74 c0 -73 -1 -76 -45 -134 l-44 -59 -1 -103 c0 -90 2 -104 20 -120 11 -9 136
-58 277 -107 l256 -90 35 -103 34 -102 -31 -81 c-17 -44 -31 -93 -31 -107 0
-40 136 -241 169 -249 14 -3 163 3 331 15 l305 22 120 -82 c66 -46 143 -98
171 -118 l51 -35 13 -117 c9 -85 17 -121 30 -135 9 -10 157 -88 329 -173 279
-139 311 -157 311 -179 0 -16 -28 -53 -92 -120 -51 -53 -113 -117 -137 -143
l-44 -47 1 -78 c2 -72 25 -335 38 -410 4 -30 1 -33 -71 -78 -42 -26 -80 -56
-85 -66 -6 -10 -10 -86 -10 -169 0 -147 1 -152 25 -175 13 -14 32 -25 42 -25
49 -1 724 -78 729 -83 4 -3 39 -130 80 -282 40 -152 78 -283 85 -291 17 -20
41 -25 520 -109 l437 -75 128 45 c165 58 174 66 174 178 l0 83 63 59 c132 127
141 135 163 129 18 -5 20 -11 16 -52 -3 -41 3 -62 55 -172 33 -69 67 -131 76
-139 10 -8 95 -23 214 -38 109 -13 200 -26 202 -29 2 -2 12 -77 21 -166 l17
-162 -71 -109 c-49 -77 -70 -118 -70 -141 0 -46 230 -417 267 -430 26 -10 198
8 243 25 19 7 220 224 256 277 15 22 13 32 -33 170 -27 80 -49 149 -49 153 0
4 229 224 510 490 280 266 513 491 516 499 4 8 39 195 80 414 l73 399 38 41
c247 262 396 420 536 568 l167 177 0 178 1 178 171 115 c94 63 184 125 199
138 31 26 39 48 64 195 l17 97 283 0 283 0 284 -163 c346 -200 340 -197 379
-197 26 0 46 14 116 83 l84 82 438 -34 439 -34 143 70 144 70 65 119 c78 142
82 154 63 190 -8 16 -213 198 -454 404 -242 206 -465 398 -496 425 l-56 51 66
247 c37 137 67 256 67 265 0 41 6 37 -1058 784 -222 156 -259 178 -292 178
-46 0 -54 -9 -209 -232 -95 -136 -104 -147 -129 -143 -15 3 -137 19 -272 36
-134 16 -246 31 -248 33 -2 2 -30 171 -62 375 -33 205 -62 376 -65 381 -10 15
-142 50 -385 101 l-105 21 -90 236 c-49 130 -100 248 -112 262 l-21 25 -276 3
-276 3 -290 -112 -290 -111 -94 33 c-84 29 -107 43 -188 112 -51 44 -111 92
-132 108 l-39 29 -201 0 -201 0 -277 -143z m-168 -2877 c0 -29 1 -30 50 -30
l50 0 0 -35 0 -35 -50 0 c-33 0 -50 -4 -50 -12 0 -28 40 -76 79 -94 l41 -19
-20 -32 c-18 -30 -21 -31 -50 -22 -16 6 -44 24 -61 40 l-31 29 -25 -31 c-25
-29 -71 -59 -92 -59 -10 0 -46 59 -39 65 2 1 18 10 36 19 35 18 72 69 72 99 0
14 -9 17 -45 17 -45 0 -45 0 -45 35 l0 35 50 0 c49 0 50 1 50 30 0 28 2 30 40
30 38 0 40 -2 40 -30z m240 -135 l0 -165 -40 0 -40 0 0 55 0 55 -40 0 c-39 0
-40 1 -40 35 0 34 1 35 40 35 l40 0 0 75 0 75 40 0 40 0 0 -165z m1020 -110
l0 -275 -40 0 -40 0 0 275 0 275 40 0 40 0 0 -275z m-510 210 l0 -35 -70 0
c-39 0 -70 -4 -70 -10 0 -23 59 -71 107 -88 l51 -17 -14 -33 c-13 -31 -16 -33
-46 -27 -47 10 -99 39 -127 69 l-25 26 -30 -29 c-36 -33 -78 -56 -124 -66 -30
-6 -33 -4 -46 27 l-14 33 51 18 c52 18 107 61 107 84 0 9 -19 13 -70 13 l-70
0 0 35 0 35 195 0 195 0 0 -35z m292 -62 c4 -106 31 -171 89 -212 l38 -28 -22
-31 c-12 -18 -26 -32 -30 -32 -21 0 -69 45 -94 87 l-26 45 -20 -38 c-23 -46
-42 -69 -79 -95 l-27 -20 -25 38 -25 37 28 17 c62 37 99 120 108 242 l6 77 37
0 38 0 4 -87z m-252 -208 l0 -35 -100 0 -100 0 0 -95 0 -95 -40 0 -40 0 0 95
0 95 -95 0 -95 0 0 35 0 35 235 0 235 0 0 -35z m-614 -24 c54 -24 73 -71 51
-124 -19 -45 -74 -67 -167 -67 -93 0 -148 22 -167 67 -11 28 -12 42 -2 70 16
49 70 73 169 73 52 0 88 -6 116 -19z"/>
<path d="M4326 12300 c-58 -18 -55 -54 6 -71 71 -19 156 9 142 46 -6 15 -65
35 -99 34 -11 0 -33 -5 -49 -9z"/>
</g>
</svg>
