<?xml version="1.0" standalone="no"?>
<!DOCTYPE svg PUBLIC "-//W3C//DTD SVG 20010904//EN"
 "http://www.w3.org/TR/2001/REC-SVG-20010904/DTD/svg10.dtd">
<svg version="1.0" xmlns="http://www.w3.org/2000/svg"
 width="1164.000000pt" height="1068.000000pt" viewBox="0 0 1164.000000 1068.000000"
 preserveAspectRatio="xMidYMid meet">

<g transform="translate(0.000000,1068.000000) scale(0.100000,-0.100000)"
fill="#000000" stroke="none">
<path d="M3764 3657 c-16 -18 -63 -79 -104 -135 -41 -56 -79 -102 -84 -102 -5
0 -65 23 -133 51 -87 35 -128 47 -137 40 -6 -5 -41 -52 -76 -104 l-65 -94
-109 96 -110 96 -123 3 -123 4 -25 -54 c-14 -29 -25 -60 -25 -68 0 -8 16 -51
36 -95 75 -171 77 -181 70 -349 l-7 -151 147 -157 c145 -156 146 -157 202
-168 148 -28 132 -18 158 -89 45 -120 60 -120 174 -6 l85 85 57 0 c55 0 58 -1
64 -27 3 -16 18 -71 33 -123 l26 -95 73 -18 c41 -10 80 -16 88 -13 13 5 30 38
119 232 l32 71 -19 93 c-19 90 -19 93 -1 111 17 18 19 18 62 -1 65 -30 104
-24 211 28 93 46 96 49 153 132 32 47 72 108 88 135 l29 50 0 223 c0 197 -2
223 -16 229 -10 4 -62 -16 -131 -50 -62 -32 -127 -57 -143 -57 l-30 0 0 133
c0 197 24 177 -215 177 l-203 0 -28 -33z m-274 -487 c0 -5 9 -10 20 -10 15 0
20 -7 20 -25 0 -19 -5 -25 -22 -25 -22 -1 -23 -1 -4 -15 31 -23 36 -18 36 36
0 49 1 50 28 47 l27 -3 3 -112 3 -113 -68 -2 -68 -2 68 -3 c59 -3 67 -6 67
-23 0 -18 -7 -20 -90 -20 l-90 0 0 40 0 40 63 2 62 2 -62 3 c-55 3 -63 7 -63
23 0 17 7 20 42 20 38 0 40 1 23 14 -17 12 -23 12 -47 0 -35 -18 -44 -18 -52
3 -5 11 2 24 21 39 27 23 27 23 6 24 -18 0 -23 6 -23 25 0 18 5 25 20 25 11 0
20 5 20 10 0 6 14 10 30 10 17 0 30 -4 30 -10z m330 -59 c0 -34 4 -51 15 -55
8 -3 15 -15 15 -26 0 -19 -6 -20 -115 -20 l-115 0 0 25 c0 23 4 25 40 25 33 0
40 3 40 20 0 13 7 20 20 20 13 0 20 -7 20 -20 0 -24 15 -27 24 -4 15 39 8 44
-59 44 -58 0 -65 2 -65 20 0 19 7 20 90 20 l90 0 0 -49z m250 4 c0 -25 5 -45
10 -45 6 0 10 -11 10 -25 0 -23 -4 -25 -45 -25 -41 0 -45 -2 -45 -25 0 -20 -5
-25 -25 -25 -20 0 -25 5 -25 25 0 23 -4 25 -45 25 -41 0 -45 2 -45 25 0 24 2
25 75 25 68 0 75 2 75 20 0 16 -8 19 -62 22 -57 3 -63 5 -66 26 -3 21 -1 22
92 22 l96 0 0 -45z m-250 -165 c0 -47 -2 -50 -25 -50 -21 0 -25 5 -25 30 l0
30 -65 0 c-58 0 -65 2 -65 20 0 19 7 20 90 20 l90 0 0 -50z m120 25 c0 -24 2
-25 65 -25 58 0 65 -2 65 -20 0 -19 -7 -20 -95 -20 l-95 0 0 45 c0 43 1 45 30
45 25 0 30 -4 30 -25z"/>
<path d="M7361 1814 c0 -11 3 -14 6 -6 3 7 2 16 -1 19 -3 4 -6 -2 -5 -13z"/>
</g>
</svg>
