<?xml version="1.0" standalone="no"?>
<!DOCTYPE svg PUBLIC "-//W3C//DTD SVG 20010904//EN"
 "http://www.w3.org/TR/2001/REC-SVG-20010904/DTD/svg10.dtd">
<svg version="1.0" xmlns="http://www.w3.org/2000/svg"
 width="1164.000000pt" height="1068.000000pt" viewBox="0 0 1164.000000 1068.000000"
 preserveAspectRatio="xMidYMid meet">

<g transform="translate(0.000000,1068.000000) scale(0.100000,-0.100000)"
fill="#000000" stroke="none">
<path d="M398 7171 c-46 -29 -51 -39 -63 -122 l-7 -47 -131 -48 c-207 -75
-197 -69 -197 -101 0 -27 36 -76 136 -185 33 -36 38 -38 97 -39 34 0 82 -4
106 -7 l45 -7 25 -83 25 -84 78 -60 79 -60 -3 -65 -3 -66 -72 -40 -73 -41 0
-190 c0 -186 1 -192 26 -235 l25 -45 -46 -66 c-25 -37 -45 -77 -45 -89 0 -12
26 -53 60 -93 l60 -72 0 -74 0 -74 -120 -128 c-70 -75 -120 -136 -120 -147 0
-11 28 -73 61 -137 59 -111 64 -116 103 -127 93 -25 96 -24 145 73 l44 87 135
-129 135 -130 51 0 c74 0 92 8 120 51 l26 39 85 0 85 0 41 -45 c23 -25 50 -63
61 -85 11 -22 24 -40 29 -40 5 0 28 -14 53 -31 l44 -32 84 23 c88 25 109 27
173 15 l41 -7 27 55 c15 31 27 60 27 66 0 5 6 16 13 23 6 7 36 63 66 125 63
129 39 116 251 134 74 6 140 15 145 20 6 4 33 80 60 168 47 155 50 162 88 187
l38 25 66 -30 c78 -37 103 -38 130 -8 22 23 239 355 248 379 3 8 -30 78 -74
157 -44 79 -82 159 -86 179 -3 19 -12 40 -18 46 -7 7 -58 27 -114 46 l-103 35
0 181 0 182 -75 11 c-42 6 -96 11 -120 11 -38 0 -45 3 -50 23 -2 12 -14 69
-25 127 -39 195 -6 160 -283 309 -134 72 -248 131 -254 131 -6 0 -41 -22 -79
-50 -60 -44 -75 -50 -119 -50 -50 -1 -51 -1 -112 -73 l-62 -72 -1 -78 0 -78
-47 -55 -47 -54 -109 0 -109 0 -72 -75 -71 -75 -52 33 -53 32 0 139 0 140 -47
124 c-47 122 -48 125 -161 253 -129 146 -136 149 -214 100z m852 -1321 c0 -20
5 -30 15 -30 8 0 15 -9 15 -20 0 -11 -7 -23 -15 -26 -8 -4 -15 -17 -15 -30 0
-18 -5 -24 -22 -24 l-22 0 22 -16 c12 -8 22 -26 22 -39 0 -33 -36 -55 -90 -55
-54 0 -90 22 -90 55 0 28 34 55 69 55 l25 0 -22 16 c-21 15 -25 15 -41 0 -22
-20 -41 -20 -56 0 -9 13 -6 21 17 44 19 19 28 39 28 60 0 28 3 31 28 28 22 -2
28 -8 30 -34 2 -18 12 -40 23 -50 19 -17 19 -16 19 39 0 57 0 57 30 57 27 0
30 -3 30 -30z m490 -105 l0 -135 -25 0 c-23 0 -25 4 -25 43 -1 37 -2 40 -14
24 -13 -17 -15 -17 -42 6 l-28 24 -19 -23 c-21 -27 -45 -31 -53 -9 -5 11 -21
15 -60 15 l-54 0 0 -40 c0 -36 -2 -40 -25 -40 -22 0 -25 4 -25 40 l0 40 -45 0
c-41 0 -45 2 -45 25 0 14 5 25 11 25 7 0 9 10 5 25 -5 19 -2 25 9 25 9 0 26 5
38 12 22 12 21 12 -8 18 -21 4 -31 12 -33 28 -3 22 -1 22 98 22 99 0 101 0 98
-22 -2 -16 -12 -24 -33 -28 -29 -6 -30 -6 -8 -18 12 -7 29 -12 37 -12 19 0 20
-5 6 -31 -8 -15 -7 -19 5 -19 8 0 15 -7 15 -16 0 -9 6 -14 13 -12 20 7 47 70
47 111 0 32 3 37 24 37 21 0 25 -6 31 -51 4 -31 16 -60 31 -77 l23 -27 1 88
c0 86 0 87 25 87 l25 0 0 -135z"/>
<path d="M1136 5671 c-8 -12 20 -22 39 -15 19 8 9 24 -15 24 -10 0 -21 -4 -24
-9z"/>
<path d="M1371 5759 l-23 -19 53 0 c29 0 50 1 48 3 -45 33 -55 35 -78 16z"/>
</g>
</svg>
