<?xml version="1.0" standalone="no"?>
<!DOCTYPE svg PUBLIC "-//W3C//DTD SVG 20010904//EN"
 "http://www.w3.org/TR/2001/REC-SVG-20010904/DTD/svg10.dtd">
<svg version="1.0" xmlns="http://www.w3.org/2000/svg"
 width="1164.000000pt" height="1068.000000pt" viewBox="0 0 1164.000000 1068.000000"
 preserveAspectRatio="xMidYMid meet">

<g transform="translate(0.000000,1068.000000) scale(0.100000,-0.100000)"
fill="#000000" stroke="none">
<path d="M7905 3493 c-16 -1 -53 -6 -81 -9 l-51 -5 -24 -78 -23 -77 -101 -37
c-55 -20 -104 -37 -109 -37 -4 0 -37 31 -72 69 -64 69 -64 69 -124 73 -33 1
-60 1 -60 -2 0 -3 -10 -10 -22 -15 -21 -9 -23 -18 -26 -94 -3 -77 4 -113 36
-200 4 -11 -12 -13 -96 -7 l-102 8 0 -64 c0 -35 5 -123 10 -197 l10 -133 85
-103 84 -103 -42 -16 c-24 -9 -46 -16 -51 -16 -5 0 -26 20 -48 45 -58 65 -65
68 -183 60 l-104 -7 -69 -107 c-39 -58 -72 -115 -75 -126 -3 -11 -11 -96 -17
-190 -10 -150 -15 -178 -40 -240 -59 -142 -210 -559 -210 -579 0 -12 25 -82
56 -156 30 -74 67 -165 81 -202 23 -62 30 -70 76 -95 l51 -28 38 -150 c20 -82
41 -157 46 -165 5 -8 27 -18 48 -21 21 -3 55 -9 75 -13 30 -6 40 -3 67 19 38
32 40 57 9 99 -29 38 -48 91 -37 102 4 5 29 51 56 103 51 99 57 103 144 122
25 5 90 34 144 64 67 37 103 52 110 45 12 -9 81 -23 382 -76 l151 -27 23 -144
c13 -79 29 -148 35 -153 6 -5 54 -14 106 -20 52 -5 106 -13 120 -16 21 -4 47
11 142 81 l115 85 211 -76 210 -77 78 58 c43 32 99 76 126 98 l47 39 0 145 c0
143 0 145 33 217 32 69 34 78 41 235 l7 162 60 77 60 76 -7 76 c-3 41 -8 78
-11 82 -2 4 -68 41 -146 82 -139 73 -144 77 -222 168 -44 51 -84 96 -90 101
-5 4 -28 6 -50 5 -39 -3 -40 -4 -66 -68 l-26 -65 -119 0 -119 0 -10 75 -10 75
-50 27 -51 27 -53 238 c-30 131 -57 247 -61 258 -5 12 -48 70 -97 130 -48 61
-101 126 -115 146 l-27 35 36 94 37 94 -12 94 c-7 52 -15 98 -18 103 -5 9 -57
10 -119 2z m-335 -1623 c0 -66 -3 -80 -16 -80 -14 0 -14 -1 0 -16 42 -41 0
-89 -79 -89 -61 0 -85 16 -85 56 0 36 32 59 85 60 30 2 33 3 13 6 -16 2 -28 9
-28 14 0 5 -12 1 -27 -10 -34 -24 -73 -36 -73 -22 0 5 -3 17 -6 25 -5 12 3 19
25 27 17 6 36 20 42 30 9 17 6 19 -26 19 -32 0 -36 3 -33 23 3 20 9 22 66 25
51 2 62 0 62 -13 0 -8 5 -15 10 -15 6 0 10 9 10 20 0 16 7 20 30 20 l30 0 0
-80z m470 -55 l0 -135 -25 0 c-23 0 -25 4 -25 42 0 36 -2 40 -13 24 -12 -16
-14 -16 -39 7 l-27 25 -22 -24 c-26 -27 -44 -31 -53 -9 -4 11 -20 15 -56 15
l-50 0 0 -40 c0 -36 -2 -40 -25 -40 -22 0 -25 4 -25 40 l0 40 -45 0 c-41 0
-45 2 -45 25 0 14 4 25 9 25 4 0 6 11 3 25 -3 18 0 25 11 25 8 0 25 9 38 20
l24 19 -32 1 c-26 0 -33 4 -33 20 0 19 7 20 95 20 88 0 95 -1 95 -20 0 -16 -7
-20 -31 -20 -40 0 -34 -21 10 -34 27 -8 31 -13 26 -33 -3 -13 -1 -23 5 -23 5
0 10 -7 10 -15 0 -19 9 -19 32 1 10 10 23 43 30 75 10 51 15 59 35 59 20 0 23
-5 23 -35 0 -41 24 -105 39 -105 7 0 11 31 11 80 0 79 0 80 25 80 l25 0 0
-135z"/>
<path d="M7498 1863 c7 -3 16 -2 19 1 4 3 -2 6 -13 5 -11 0 -14 -3 -6 -6z"/>
<path d="M7463 1753 c-24 -8 -13 -23 17 -23 17 0 30 4 30 9 0 11 -30 19 -47
14z"/>
<path d="M7675 1828 l-30 -18 59 0 c33 0 57 1 55 3 -44 32 -54 34 -84 15z"/>
</g>
</svg>
