<?xml version="1.0" standalone="no"?>
<!DOCTYPE svg PUBLIC "-//W3C//DTD SVG 20010904//EN"
 "http://www.w3.org/TR/2001/REC-SVG-20010904/DTD/svg10.dtd">
<svg version="1.0" xmlns="http://www.w3.org/2000/svg"
 width="1164.000000pt" height="1068.000000pt" viewBox="0 0 1164.000000 1068.000000"
 preserveAspectRatio="xMidYMid meet">

<g transform="translate(0.000000,1068.000000) scale(0.100000,-0.100000)"
fill="#000000" stroke="none">
<path d="M8036 10615 l-49 -65 -91 0 -91 0 -104 -111 c-117 -124 -120 -131
-121 -280 l0 -87 -107 -7 c-66 -4 -116 -13 -129 -22 -13 -8 -40 -41 -61 -74
-45 -69 -66 -74 -123 -29 -21 17 -44 30 -52 30 -14 0 -266 -134 -282 -151 -6
-5 -1 -56 12 -132 l22 -124 -30 -88 c-34 -101 -37 -137 -13 -156 9 -8 73 -44
142 -80 l126 -66 53 -144 c29 -79 57 -148 62 -152 4 -5 28 -10 51 -12 185 -11
183 -11 296 -96 57 -44 110 -79 118 -79 9 0 31 25 50 55 30 46 40 55 65 55
l30 0 0 -102 0 -101 99 -153 100 -152 -90 -130 c-114 -166 -115 -181 -34 -288
l55 -72 -40 -123 c-45 -140 -50 -183 -21 -199 11 -5 59 -10 107 -10 l87 0 58
-55 c32 -30 66 -55 76 -55 10 0 43 20 73 43 l56 44 169 7 c94 5 185 9 204 10
29 1 46 15 128 103 l95 103 -11 132 c-6 73 -16 183 -21 243 -6 61 -15 164 -20
230 -6 66 -13 133 -17 150 -3 16 -55 107 -114 202 l-109 172 0 352 0 351 -31
39 -31 39 31 57 c17 31 31 66 31 78 0 12 -11 88 -25 169 -30 179 -30 174 -2
178 20 3 22 9 25 84 l3 81 -133 100 -133 100 -39 126 -39 127 -106 0 -106 0
-49 -65z m-217 -966 c25 -9 31 -17 31 -38 0 -19 -7 -31 -22 -39 -22 -10 -21
-11 10 -11 25 -1 32 -5 32 -21 0 -17 -7 -20 -42 -22 -37 -1 -39 -2 -10 -5 29
-4 32 -7 32 -39 l0 -34 -67 -2 -68 -2 68 -3 c59 -3 67 -6 67 -23 0 -18 -7 -20
-90 -20 l-90 0 0 40 0 40 63 2 62 2 -62 3 c-45 3 -63 8 -63 18 0 8 13 15 33
18 24 3 21 4 -15 5 -41 2 -48 5 -48 22 0 16 7 20 32 20 l32 0 -22 16 c-29 20
-25 54 8 71 31 16 87 17 129 2z m281 -89 l0 -100 -25 0 c-21 0 -25 5 -25 33
-1 30 -1 31 -15 13 -15 -20 -15 -19 -44 2 -29 21 -29 21 -46 1 -17 -18 -17
-19 3 -19 17 0 22 -6 22 -25 0 -24 2 -25 71 -25 67 0 70 -1 67 -22 -3 -22 -8
-23 -95 -26 l-93 -3 0 46 c0 32 -6 51 -21 66 l-21 21 26 25 c31 28 34 53 6 53
-13 0 -20 7 -20 20 0 18 7 20 75 20 67 0 75 -2 75 -19 0 -14 -8 -21 -26 -23
l-26 -3 22 -27 c12 -16 26 -28 31 -28 5 0 9 27 9 60 0 57 1 60 25 60 l25 0 0
-100z m230 40 c0 -27 5 -50 10 -50 6 0 10 -9 10 -20 0 -17 -7 -20 -40 -20 -36
0 -40 -2 -40 -25 0 -21 -5 -25 -30 -25 -25 0 -30 4 -30 25 0 23 -4 25 -45 25
-38 0 -45 3 -45 20 0 18 7 20 75 20 73 0 75 1 75 25 0 24 -3 25 -60 25 -57 0
-60 1 -60 25 0 25 1 25 90 25 l90 0 0 -50z m-130 -135 c0 -24 2 -25 65 -25 63
0 65 -1 65 -25 0 -25 -1 -25 -90 -25 l-90 0 0 50 c0 47 2 50 25 50 20 0 25 -5
25 -25z"/>
<path d="M7730 9610 c0 -5 11 -10 25 -10 14 0 25 5 25 10 0 6 -11 10 -25 10
-14 0 -25 -4 -25 -10z"/>
</g>
</svg>
