<?xml version="1.0" standalone="no"?>
<!DOCTYPE svg PUBLIC "-//W3C//DTD SVG 20010904//EN"
 "http://www.w3.org/TR/2001/REC-SVG-20010904/DTD/svg10.dtd">
<svg version="1.0" xmlns="http://www.w3.org/2000/svg"
 width="1164.000000pt" height="1068.000000pt" viewBox="0 0 1164.000000 1068.000000"
 preserveAspectRatio="xMidYMid meet">

<g transform="translate(0.000000,1068.000000) scale(0.100000,-0.100000)"
fill="#000000" stroke="none">
<path d="M6391 6830 l-51 -61 0 -78 0 -79 -45 -36 c-25 -21 -45 -43 -45 -49 1
-12 9 -22 93 -120 l48 -55 -22 -53 c-11 -30 -43 -115 -70 -189 -44 -121 -49
-143 -49 -218 0 -81 1 -85 40 -142 22 -32 40 -65 40 -73 0 -8 -25 -67 -55
-133 l-55 -119 0 -135 0 -135 -114 -114 -114 -114 -64 -1 c-41 -1 -77 -8 -103
-21 -39 -19 -40 -22 -43 -75 l-3 -55 -82 -50 c-116 -72 -115 -80 20 -140 59
-26 110 -49 111 -51 2 -1 -6 -16 -19 -33 l-23 -31 37 -72 c31 -62 37 -83 37
-138 0 -62 26 -156 52 -187 7 -9 40 -13 95 -13 78 0 98 -5 238 -55 83 -30 159
-55 168 -55 9 0 59 26 111 57 l95 57 60 141 60 140 48 5 c48 5 48 5 80 70 50
104 50 105 -23 180 -35 37 -64 70 -64 74 0 5 44 6 98 4 122 -6 280 -43 305
-72 54 -62 202 -206 211 -206 6 0 67 82 135 182 124 180 125 182 137 262 27
179 18 161 91 191 73 32 93 48 93 77 0 11 -38 69 -85 130 l-85 111 0 120 0
119 -77 124 c-81 128 -87 134 -159 134 -22 0 -47 6 -56 13 -9 6 -37 50 -62 96
l-46 83 0 154 0 154 -60 0 -60 0 0 56 c0 52 -3 60 -62 137 -34 45 -63 84 -65
87 -3 3 -48 7 -101 10 l-96 5 -86 120 -86 120 -111 3 -112 3 -50 -61z m279
-1510 c0 -5 9 -10 20 -10 13 0 20 -7 20 -20 0 -11 5 -20 10 -20 6 0 10 14 10
30 0 25 4 30 25 30 l25 0 -1 -120 c-2 -136 -4 -141 -77 -147 -59 -5 -96 13
-100 49 -3 29 28 58 62 58 19 0 19 0 1 14 -16 11 -22 11 -46 -3 -26 -15 -30
-15 -46 2 -17 18 -17 19 10 38 32 24 35 39 7 39 -15 0 -20 7 -20 25 0 20 5 25
25 25 14 0 25 5 25 10 0 6 11 10 25 10 14 0 25 -4 25 -10z m282 -12 c2 -15 15
-28 36 -38 27 -11 32 -18 27 -37 -4 -16 -1 -23 10 -23 8 0 15 5 15 10 0 6 33
10 80 10 73 0 80 2 80 20 0 18 -7 20 -65 20 -63 0 -65 1 -65 25 0 25 1 25 90
25 l90 0 0 -44 c0 -30 5 -46 15 -50 8 -3 15 -15 15 -26 0 -17 -6 -20 -45 -20
-41 0 -45 -2 -45 -25 0 -21 -5 -25 -30 -25 -25 0 -30 4 -30 25 0 22 -4 25 -37
24 -50 -1 -154 -16 -127 -18 49 -3 59 -66 14 -88 -32 -16 -88 -16 -120 0 -18
9 -25 21 -25 42 0 21 7 33 25 42 24 12 23 13 -17 13 -36 0 -43 3 -43 20 0 11
7 20 15 20 13 0 14 4 5 21 -13 24 -15 22 28 39 20 8 35 22 38 36 9 34 61 35
66 2z m168 -173 c0 -24 2 -25 70 -25 63 0 70 -2 70 -20 0 -19 -7 -20 -95 -20
l-95 0 0 45 c0 41 2 45 25 45 20 0 25 -5 25 -25z"/>
<path d="M6670 5256 c0 -2 7 -9 15 -16 12 -10 15 -10 15 4 0 9 -7 16 -15 16
-8 0 -15 -2 -15 -4z"/>
<path d="M6718 5200 c-7 -24 -3 -38 8 -28 3 4 4 17 2 30 l-3 23 -7 -25z"/>
<path d="M6665 5120 c-8 -13 20 -24 41 -16 20 8 9 26 -16 26 -10 0 -22 -5 -25
-10z"/>
<path d="M6905 5250 c-3 -5 1 -10 10 -10 9 0 13 5 10 10 -3 6 -8 10 -10 10 -2
0 -7 -4 -10 -10z"/>
<path d="M6870 5220 c-13 -8 -12 -10 3 -10 9 0 17 5 17 10 0 12 -1 12 -20 0z"/>
<path d="M6940 5219 c0 -5 9 -9 20 -9 11 0 20 2 20 4 0 2 -9 6 -20 9 -11 3
-20 1 -20 -4z"/>
<path d="M6891 5121 c-11 -7 -9 -10 8 -16 29 -9 69 4 50 16 -8 5 -21 9 -29 9
-8 0 -21 -4 -29 -9z"/>
</g>
</svg>
