<?xml version="1.0" standalone="no"?>
<!DOCTYPE svg PUBLIC "-//W3C//DTD SVG 20010904//EN"
 "http://www.w3.org/TR/2001/REC-SVG-20010904/DTD/svg10.dtd">
<svg version="1.0" xmlns="http://www.w3.org/2000/svg"
 width="1164.000000pt" height="1068.000000pt" viewBox="0 0 1164.000000 1068.000000"
 preserveAspectRatio="xMidYMid meet">

<g transform="translate(0.000000,1068.000000) scale(0.100000,-0.100000)"
fill="#000000" stroke="none">
<path d="M5914 4085 c-4 -9 0 -65 8 -126 7 -60 14 -109 13 -109 0 -1 -69 -7
-154 -14 -136 -11 -156 -15 -171 -34 -10 -12 -50 -80 -90 -152 -40 -71 -75
-130 -79 -130 -4 0 -78 25 -165 55 -86 30 -166 55 -177 55 -26 0 -43 -19 -137
-155 l-82 -119 0 -176 c0 -202 -8 -185 105 -218 l60 -18 26 -78 c15 -42 29
-79 30 -81 2 -2 54 -7 114 -10 l110 -8 79 -71 80 -71 113 -4 113 -3 0 -123 c0
-119 1 -124 35 -198 32 -69 35 -83 35 -169 l0 -94 109 -107 c59 -59 114 -107
122 -107 8 0 43 -5 79 -10 83 -13 263 -39 315 -46 36 -5 46 -1 108 46 38 29
74 53 81 54 20 3 75 46 87 68 6 11 17 100 24 198 l12 178 64 93 64 94 87 3 86
3 48 -56 c30 -35 56 -55 69 -55 32 0 157 53 169 72 8 13 -9 40 -86 135 l-96
118 -6 100 c-4 55 -9 127 -12 159 -5 49 -4 58 8 53 8 -3 43 -8 79 -12 58 -5
67 -4 94 18 l29 25 -21 68 c-15 45 -24 110 -29 186 l-6 118 -82 60 c-81 61
-81 61 -112 148 l-32 87 -63 3 -64 3 -35 66 c-19 36 -47 86 -62 110 l-28 43
-139 0 c-139 0 -198 11 -218 42 -4 7 -64 33 -133 58 -118 42 -132 45 -248 48
-105 3 -123 1 -128 -13z m276 -925 c0 -76 -1 -80 -22 -80 l-22 0 22 -16 c12
-8 22 -26 22 -39 0 -33 -36 -55 -90 -55 -54 0 -90 22 -90 55 0 33 36 55 87 55
24 0 43 5 43 11 0 7 -21 8 -64 4 -57 -6 -66 -5 -85 14 -28 28 -26 66 5 98 19
19 32 24 52 19 90 -19 92 -19 92 -2 0 10 9 16 25 16 25 0 25 -1 25 -80z m130
65 c0 -8 9 -15 20 -15 13 0 20 -7 20 -20 0 -11 5 -20 10 -20 6 0 10 16 10 35
0 31 3 35 25 35 l25 0 0 -100 0 -100 -25 0 c-22 0 -25 4 -25 40 0 22 -4 40
-10 40 -5 0 -7 -6 -4 -13 2 -7 -1 -21 -9 -30 -12 -17 -14 -17 -39 2 -25 20
-26 20 -43 1 -23 -25 -37 -25 -53 1 -11 18 -10 23 12 40 31 25 33 35 6 42 -31
8 -27 47 5 47 16 0 25 6 25 15 0 9 9 15 25 15 16 0 25 -6 25 -15z m350 -120
l0 -135 -25 0 c-23 0 -25 4 -25 42 0 37 -2 40 -13 24 -13 -17 -15 -17 -42 7
l-29 24 -19 -23 c-23 -30 -43 -31 -58 -3 -9 18 -8 24 6 31 23 13 45 69 45 113
0 30 3 35 24 35 21 0 25 -6 31 -51 4 -31 16 -60 31 -77 l23 -27 1 88 c0 86 0
87 25 87 l25 0 0 -135z m-360 -65 c0 -18 7 -20 65 -20 63 0 65 -1 65 -25 0
-25 -1 -25 -90 -25 l-90 0 0 45 c0 41 2 45 25 45 18 0 25 -5 25 -20z"/>
<path d="M6036 3173 c-12 -12 -6 -33 9 -33 8 0 15 6 15 14 0 17 -14 28 -24 19z"/>
<path d="M6118 3153 c7 -3 16 -2 19 1 4 3 -2 6 -13 5 -11 0 -14 -3 -6 -6z"/>
<path d="M6072 3031 c-10 -6 -9 -10 7 -14 30 -7 67 3 49 14 -7 5 -20 9 -28 9
-8 0 -21 -4 -28 -9z"/>
</g>
</svg>
