<?xml version="1.0" standalone="no"?>
<!DOCTYPE svg PUBLIC "-//W3C//DTD SVG 20010904//EN"
 "http://www.w3.org/TR/2001/REC-SVG-20010904/DTD/svg10.dtd">
<svg version="1.0" xmlns="http://www.w3.org/2000/svg"
 width="1164.000000pt" height="1068.000000pt" viewBox="0 0 1164.000000 1068.000000"
 preserveAspectRatio="xMidYMid meet">

<g transform="translate(0.000000,1068.000000) scale(0.100000,-0.100000)"
fill="#000000" stroke="none">
<path d="M7738 5088 c-54 -26 -98 -51 -98 -55 0 -4 -9 -62 -20 -128 l-20 -120
-106 -157 -106 -157 -99 103 -98 103 -98 24 c-78 19 -124 24 -228 24 l-129 0
-15 -27 c-15 -26 -14 -28 56 -105 l71 -78 -21 -52 c-20 -48 -23 -51 -64 -56
-24 -2 -49 -9 -56 -15 -7 -6 -40 -74 -73 -151 l-59 -140 -73 -41 c-75 -43
-112 -75 -112 -96 0 -6 18 -23 40 -38 38 -25 45 -26 179 -26 l140 0 61 -110
61 -109 61 -3 61 -3 14 -40 c39 -116 41 -120 123 -180 71 -52 83 -66 79 -91
-2 -15 30 -24 86 -24 l60 -1 64 -74 c36 -41 73 -75 83 -75 14 0 97 28 241 82
23 8 30 22 48 83 24 82 29 85 135 85 59 0 58 2 68 -89 4 -35 -4 -66 -35 -148
-21 -57 -39 -105 -39 -108 0 -2 56 -74 125 -160 69 -86 127 -166 130 -178 3
-12 14 -62 25 -112 11 -49 35 -155 53 -235 l33 -145 40 -22 c58 -32 61 -37 69
-105 12 -104 2 -99 183 -96 l157 3 21 60 c30 86 43 83 136 -28 76 -91 80 -93
218 -165 79 -42 149 -72 161 -70 18 2 29 22 56 98 39 108 40 85 -12 400 l-23
145 88 85 88 85 12 80 c7 50 36 144 76 249 35 93 64 177 64 185 0 32 -90 335
-103 348 -19 19 -84 28 -100 15 -8 -7 -58 -81 -113 -166 -80 -125 -106 -158
-134 -171 -24 -11 -66 -55 -130 -136 -52 -65 -100 -119 -106 -119 -17 0 -404
369 -404 385 0 7 65 95 145 196 79 101 145 191 145 201 0 9 -43 56 -95 105
l-95 88 -16 125 -16 125 -64 67 c-35 36 -64 70 -64 75 0 5 22 25 49 45 47 35
48 38 54 99 5 56 2 69 -24 120 -25 50 -29 68 -27 128 1 39 -1 74 -6 78 -4 4
-112 10 -239 13 -128 3 -231 9 -231 13 1 4 14 49 28 100 l28 92 -24 65 -23 65
-110 5 -109 5 -98 -47z m212 -988 c0 -5 11 -10 25 -10 14 0 25 5 25 10 0 6 11
10 25 10 21 0 25 -5 25 -30 0 -20 5 -30 15 -30 9 0 15 -9 15 -25 0 -16 -6 -25
-15 -25 -10 0 -15 -10 -15 -30 0 -17 -5 -30 -12 -30 -9 0 -9 -3 0 -12 19 -19
15 -66 -7 -78 -11 -5 -41 -10 -66 -10 -25 0 -55 5 -66 10 -23 13 -26 65 -3 78
13 7 12 11 -10 26 -27 17 -35 59 -14 72 7 5 4 10 -10 15 -13 5 -22 17 -22 29
0 16 7 20 30 20 17 0 30 5 30 10 0 6 11 10 25 10 14 0 25 -4 25 -10z m360
-125 l0 -135 -30 0 c-28 0 -30 3 -30 36 0 29 -3 34 -13 25 -11 -8 -19 -5 -37
14 l-23 25 -24 -26 c-25 -27 -40 -28 -57 -2 -7 12 -3 23 16 47 17 19 29 49 33
81 6 44 10 50 31 50 21 0 24 -5 24 -37 0 -22 10 -53 23 -73 l22 -35 3 83 3 82
29 0 30 0 0 -135z m-480 94 c0 -12 -8 -23 -20 -26 -28 -7 -27 -49 1 -56 36
-10 20 -42 -24 -45 -24 -2 -37 -8 -37 -18 0 -10 13 -14 45 -14 38 0 45 -3 45
-20 0 -19 -7 -20 -115 -20 -108 0 -115 1 -115 20 0 17 7 20 45 20 33 0 45 4
45 15 0 11 -11 15 -40 15 -36 0 -40 3 -40 25 0 16 6 25 15 25 9 0 15 9 15 25
0 16 -6 25 -15 25 -9 0 -15 9 -15 25 l0 25 105 0 c100 0 105 -1 105 -21z"/>
<path d="M7978 4028 c17 -17 15 -57 -3 -64 -22 -9 -18 -24 5 -24 17 0 20 7 20
50 0 40 -3 50 -17 50 -13 0 -14 -3 -5 -12z"/>
<path d="M7903 4014 c-8 -21 13 -42 28 -27 13 13 5 43 -11 43 -6 0 -13 -7 -17
-16z"/>
<path d="M7935 3901 c-7 -13 17 -24 40 -19 9 1 16 8 16 13 0 14 -48 19 -56 6z"/>
<path d="M7710 4015 c0 -16 6 -25 15 -25 9 0 15 9 15 25 0 16 -6 25 -15 25 -9
0 -15 -9 -15 -25z"/>
</g>
</svg>
