<?xml version="1.0" standalone="no"?>
<!DOCTYPE svg PUBLIC "-//W3C//DTD SVG 20010904//EN"
 "http://www.w3.org/TR/2001/REC-SVG-20010904/DTD/svg10.dtd">
<svg version="1.0" xmlns="http://www.w3.org/2000/svg"
 width="1164.000000pt" height="1068.000000pt" viewBox="0 0 1164.000000 1068.000000"
 preserveAspectRatio="xMidYMid meet">

<g transform="translate(0.000000,1068.000000) scale(0.100000,-0.100000)"
fill="#000000" stroke="none">
<path d="M3462 8587 c-6 -7 -28 -53 -50 -102 l-39 -90 -76 3 -77 3 -85 -52
c-46 -28 -92 -60 -100 -69 -14 -15 -16 -46 -15 -203 l0 -184 -50 -5 c-28 -3
-56 -10 -62 -16 -9 -9 -67 -197 -113 -365 l-13 -47 69 -90 c38 -49 69 -96 69
-104 0 -18 -23 -31 -71 -40 -30 -5 -56 -29 -165 -148 -109 -120 -129 -146
-128 -172 1 -17 22 -97 47 -177 26 -80 47 -151 47 -157 0 -6 -17 -14 -37 -17
-21 -4 -52 -11 -69 -16 l-31 -9 -1 -265 c-2 -243 -1 -265 15 -274 33 -17 230
-81 250 -81 14 0 41 32 96 119 l77 118 0 92 0 91 84 0 85 0 7 -47 c7 -52 20
-83 34 -83 5 0 57 36 115 81 l107 81 52 -6 c29 -4 59 -4 68 -1 9 4 40 64 69
136 l53 129 66 42 c36 24 68 47 72 53 4 5 8 49 8 96 l0 86 63 12 c34 7 79 17
100 22 l37 10 0 72 1 72 192 85 192 85 3 163 2 162 -42 56 c-24 31 -47 64 -53
72 -5 9 -63 87 -128 174 l-117 158 -141 0 -140 0 -46 31 -46 32 6 56 c4 31 12
114 18 185 l12 129 -26 21 c-69 56 -147 106 -165 106 -11 0 -24 -6 -30 -13z
m-14 -1229 c2 -107 0 -138 -10 -138 -7 0 -30 3 -50 6 -36 6 -38 8 -38 45 0 45
-3 46 -30 19 -49 -49 -90 -9 -90 87 0 65 20 103 55 103 8 0 24 -9 35 -20 26
-26 30 -25 30 4 0 19 6 26 28 29 69 11 67 16 70 -135z m230 35 l3 -103 -26 0
c-23 0 -25 4 -25 43 l-1 42 -15 -27 c-17 -32 -23 -33 -49 -14 -16 12 -23 11
-49 -5 -29 -18 -30 -18 -44 3 -14 19 -13 22 11 40 32 23 35 48 7 48 -13 0 -20
7 -20 20 0 15 7 20 25 20 16 0 25 6 25 15 0 9 9 15 25 15 16 0 25 -6 25 -15 0
-8 9 -15 20 -15 13 0 20 -7 20 -20 0 -11 5 -20 10 -20 6 0 10 18 10 41 0 36 2
40 23 37 21 -3 22 -8 25 -105z m242 42 c0 -25 5 -45 10 -45 6 0 10 -11 10 -25
0 -23 -4 -25 -45 -25 -41 0 -45 -2 -45 -25 0 -20 -5 -25 -25 -25 -20 0 -25 5
-25 25 0 23 -4 25 -45 25 -41 0 -45 2 -45 25 0 24 2 25 75 25 68 0 75 2 75 20
0 16 -8 19 -62 22 -57 3 -63 5 -66 26 -3 21 -1 22 92 22 l96 0 0 -45z m-360
-140 c0 -24 2 -25 65 -25 58 0 65 -2 65 -20 0 -19 -7 -20 -95 -20 l-95 0 0 38
c0 45 5 52 37 52 18 0 23 -5 23 -25z m230 0 c0 -24 2 -25 65 -25 58 0 65 -2
65 -20 0 -19 -7 -20 -95 -20 l-95 0 0 45 c0 43 1 45 30 45 25 0 30 -4 30 -25z"/>
<path d="M3275 7408 c-9 -22 -2 -68 10 -71 14 -3 19 63 6 76 -7 7 -12 5 -16
-5z"/>
<path d="M3341 7374 c0 -11 3 -14 6 -6 3 7 2 16 -1 19 -3 4 -6 -2 -5 -13z"/>
<path d="M3574 7404 c3 -9 6 -18 6 -20 0 -2 5 -4 10 -4 6 0 10 9 10 20 0 12
-7 20 -16 20 -11 0 -14 -5 -10 -16z"/>
</g>
</svg>
