<?xml version="1.0" standalone="no"?>
<!DOCTYPE svg PUBLIC "-//W3C//DTD SVG 20010904//EN"
 "http://www.w3.org/TR/2001/REC-SVG-20010904/DTD/svg10.dtd">
<svg version="1.0" xmlns="http://www.w3.org/2000/svg"
 width="1164.000000pt" height="1068.000000pt" viewBox="0 0 1164.000000 1068.000000"
 preserveAspectRatio="xMidYMid meet">

<g transform="translate(0.000000,1068.000000) scale(0.100000,-0.100000)"
fill="#000000" stroke="none">
<path d="M4504 9980 l-79 -69 -119 -3 -119 -3 -108 -170 c-85 -133 -115 -172
-137 -180 -32 -11 -46 -23 -318 -277 l-181 -168 -31 -83 -32 -82 51 -103 c48
-99 51 -108 53 -192 2 -100 5 -105 87 -161 55 -37 57 -40 53 -76 -3 -21 -11
-103 -19 -183 -16 -164 -19 -156 65 -210 46 -30 49 -30 182 -30 l136 0 115
-154 116 -153 53 -6 c29 -4 99 -7 156 -7 l102 0 99 -66 98 -65 134 36 c73 20
139 41 147 47 20 17 14 685 -7 698 -12 7 -10 23 12 104 l26 97 -52 77 -52 77
-100 13 c-55 7 -120 11 -145 10 -42 -3 -45 -5 -55 -40 l-10 -36 -29 40 -29 41
31 121 c18 67 52 195 77 286 86 314 155 653 155 759 0 41 0 41 -107 111 -60
38 -115 70 -124 70 -9 0 -52 -31 -95 -70z m-474 -1280 c0 -68 -3 -80 -17 -80
-15 0 -14 -2 2 -20 23 -26 13 -68 -21 -80 -38 -15 -97 -12 -122 6 -33 23 -30
69 6 88 l27 15 -27 1 c-30 0 -68 41 -68 72 0 10 12 30 26 45 19 19 32 24 52
19 90 -19 92 -19 92 -2 0 10 9 16 25 16 25 0 25 -1 25 -80z m480 -55 l0 -135
-25 0 c-23 0 -25 4 -25 41 0 35 -2 40 -14 30 -16 -14 -51 -1 -59 21 -3 9 -13
4 -30 -14 -31 -33 -38 -34 -55 -8 -9 15 -23 20 -57 20 l-45 0 0 -45 c0 -43 -1
-45 -30 -45 -29 0 -30 2 -30 45 l0 45 -45 0 c-38 0 -45 3 -45 20 0 11 7 20 15
20 13 0 14 4 5 21 -13 24 -15 22 28 38 40 17 41 31 2 31 -23 0 -30 4 -30 20 0
19 7 20 100 20 93 0 100 -1 100 -20 0 -16 -7 -20 -30 -20 -39 0 -38 -14 3 -31
42 -16 40 -14 27 -38 -9 -17 -8 -21 5 -21 8 0 15 -8 15 -17 0 -14 5 -13 26 9
20 19 28 40 32 77 4 45 7 51 27 51 18 0 24 -7 29 -37 10 -54 26 -91 42 -97 11
-4 14 10 14 74 0 79 0 80 25 80 l25 0 0 -135z"/>
<path d="M3870 8700 c0 -11 7 -20 15 -20 8 0 15 9 15 20 0 11 -7 20 -15 20 -8
0 -15 -9 -15 -20z"/>
<path d="M3926 8641 c-3 -5 8 -11 24 -13 20 -3 30 0 30 9 0 14 -46 18 -54 4z"/>
<path d="M3905 8570 c-4 -6 8 -10 29 -10 20 0 36 5 36 10 0 6 -13 10 -29 10
-17 0 -33 -4 -36 -10z"/>
<path d="M4130 8659 l-35 -19 75 0 74 0 -39 20 c-22 11 -39 19 -40 19 0 -1
-16 -10 -35 -20z"/>
</g>
</svg>
