<?xml version="1.0" standalone="no"?>
<!DOCTYPE svg PUBLIC "-//W3C//DTD SVG 20010904//EN"
 "http://www.w3.org/TR/2001/REC-SVG-20010904/DTD/svg10.dtd">
<svg version="1.0" xmlns="http://www.w3.org/2000/svg"
 width="1164.000000pt" height="1068.000000pt" viewBox="0 0 1164.000000 1068.000000"
 preserveAspectRatio="xMidYMid meet">

<g transform="translate(0.000000,1068.000000) scale(0.100000,-0.100000)"
fill="#000000" stroke="none">
<path d="M2353 8716 c-56 -11 -107 -26 -112 -31 -6 -6 -15 -56 -21 -110 -18
-184 -12 -170 -88 -190 l-67 -18 -127 66 c-70 37 -132 67 -138 67 -6 0 -60
-47 -121 -105 -61 -58 -115 -105 -119 -105 -4 0 -13 7 -20 15 -16 19 -94 20
-113 1 -8 -8 -26 -58 -41 -112 -15 -54 -50 -146 -77 -206 -34 -72 -48 -112
-42 -122 5 -9 52 -60 106 -114 53 -55 97 -102 97 -106 0 -4 -20 -15 -45 -26
l-46 -20 -109 55 c-60 30 -119 55 -130 55 -10 0 -29 -13 -41 -29 l-22 -30 -79
40 c-47 24 -90 39 -105 37 -21 -2 -40 -25 -97 -115 l-71 -111 -60 -7 c-72 -9
-95 -26 -95 -73 0 -35 29 -67 179 -199 l34 -30 -46 -132 c-26 -73 -47 -144
-47 -159 0 -15 18 -73 40 -130 l40 -103 0 -144 0 -145 33 -20 c17 -11 56 -32
85 -48 l54 -27 72 78 72 77 108 0 109 0 63 68 63 67 1 80 0 80 53 64 c51 62
53 63 94 58 38 -4 49 0 110 44 37 27 71 48 74 47 4 -2 106 -56 226 -122 l220
-118 32 -161 c17 -88 34 -163 36 -167 3 -4 40 -11 82 -14 43 -4 106 -9 141
-12 l62 -6 0 69 0 70 72 17 c40 10 76 22 79 28 7 11 -6 59 -65 246 -20 63 -36
120 -36 127 0 8 55 72 122 144 94 101 128 131 147 131 48 0 68 11 85 46 9 19
16 42 16 51 0 8 -31 57 -70 107 l-69 91 24 80 c13 44 37 123 52 175 l29 95 59
5 60 5 3 217 2 217 -37 19 c-21 11 -77 34 -125 52 l-87 32 -143 171 c-79 94
-149 176 -156 184 -17 17 -46 15 -169 -11z m-133 -946 c0 -66 -3 -80 -16 -80
-14 0 -14 -1 0 -16 23 -22 20 -60 -6 -78 -25 -18 -100 -21 -129 -6 -13 8 -19
21 -19 45 0 29 5 37 31 51 18 9 45 14 60 12 16 -3 29 -1 29 4 0 4 -11 8 -25 8
-14 0 -25 4 -25 10 0 5 -16 -2 -36 -15 -45 -31 -62 -31 -73 -2 -7 19 -4 24 25
35 45 18 53 42 14 42 -25 0 -30 4 -30 25 0 24 3 25 60 25 33 0 60 -4 60 -10 0
-5 7 -10 15 -10 8 0 15 9 15 20 0 15 7 20 25 20 25 0 25 -1 25 -80z m-252 13
l3 -53 -90 0 -91 0 0 55 0 56 88 -3 87 -3 3 -52z m492 -73 l0 -130 -25 0 c-21
0 -25 5 -25 31 0 26 -3 29 -19 24 -13 -4 -27 1 -41 15 l-22 22 -27 -26 c-27
-26 -28 -26 -44 -8 -21 23 -22 38 -2 46 21 8 45 67 45 111 0 30 3 35 24 35 21
0 25 -6 31 -47 7 -50 28 -93 45 -93 6 0 10 33 10 75 0 73 1 75 25 75 l25 0 0
-130z m-470 -10 c0 -17 -7 -20 -39 -20 -33 0 -39 -3 -43 -25 -5 -23 -2 -25 28
-25 30 0 34 -3 34 -25 0 -25 -1 -25 -91 -25 l-91 0 4 50 c2 42 0 50 -14 50
-11 0 -18 8 -18 20 0 19 7 20 115 20 108 0 115 -1 115 -20z"/>
<path d="M2138 7753 c6 -2 18 -2 25 0 6 3 1 5 -13 5 -14 0 -19 -2 -12 -5z"/>
<path d="M2106 7641 c-3 -5 1 -12 10 -15 21 -8 56 3 49 15 -8 12 -52 12 -59 0z"/>
<path d="M1840 7780 c0 -5 16 -10 35 -10 19 0 35 5 35 10 0 6 -16 10 -35 10
-19 0 -35 -4 -35 -10z"/>
<path d="M1833 7655 c15 -32 27 -32 27 0 0 18 -5 25 -19 25 -17 0 -18 -3 -8
-25z"/>
</g>
</svg>
