<?xml version="1.0" standalone="no"?>
<!DOCTYPE svg PUBLIC "-//W3C//DTD SVG 20010904//EN"
 "http://www.w3.org/TR/2001/REC-SVG-20010904/DTD/svg10.dtd">
<svg version="1.0" xmlns="http://www.w3.org/2000/svg"
 width="1164.000000pt" height="1068.000000pt" viewBox="0 0 1164.000000 1068.000000"
 preserveAspectRatio="xMidYMid meet">

<g transform="translate(0.000000,1068.000000) scale(0.100000,-0.100000)"
fill="#000000" stroke="none">
<path d="M3421 4920 c-56 -66 -105 -130 -109 -143 -5 -12 -9 -69 -11 -127 l-3
-105 69 -72 c37 -40 76 -83 85 -96 18 -26 33 -29 169 -43 l65 -6 43 -130 c24
-71 49 -132 57 -135 13 -5 37 9 111 63 21 15 25 13 102 -42 45 -33 81 -64 81
-70 0 -6 -11 -39 -25 -73 l-26 -63 47 -86 c26 -48 54 -95 63 -106 14 -15 15
-42 12 -177 -2 -116 0 -163 9 -174 8 -10 31 -15 64 -15 43 0 69 9 148 50 53
28 99 50 102 50 3 0 6 -94 6 -210 l0 -209 33 -6 c46 -9 394 -2 404 8 4 5 10
81 11 169 l4 161 84 123 85 123 137 -49 c75 -26 150 -53 165 -59 64 -25 67
-22 161 143 l87 155 67 6 c143 13 257 27 266 32 18 12 -14 237 -51 347 -18 57
-42 80 -162 153 -77 47 -92 53 -142 53 -53 0 -60 -3 -142 -65 l-86 -65 -176 0
-175 0 -131 66 c-163 81 -203 88 -280 48 -29 -16 -57 -30 -60 -32 -3 -1 -9 45
-13 103 -4 58 -9 111 -12 118 -5 11 -172 141 -257 200 -35 24 -49 27 -117 27
-94 0 -108 9 -112 75 l-3 50 -155 3 -155 4 -65 74 -65 74 -51 0 -52 0 -101
-120z m1379 -1075 l0 -135 -30 0 c-29 0 -30 1 -30 51 0 43 -3 50 -16 45 -9 -3
-20 -6 -25 -6 -5 0 -9 -20 -9 -45 0 -41 -2 -45 -25 -45 -23 0 -25 4 -25 45 0
43 -1 45 -30 45 -23 0 -30 4 -30 20 0 15 7 20 27 20 l26 0 -21 23 c-59 62 24
141 96 91 25 -17 30 -71 10 -93 -11 -11 -10 -13 2 -9 11 3 16 22 18 66 3 61 3
62 32 62 l30 0 0 -135z m-252 75 c-2 -35 1 -50 10 -50 6 0 12 -11 12 -25 0
-23 -4 -25 -45 -25 -41 0 -45 -2 -45 -25 0 -20 -5 -25 -25 -25 -20 0 -25 5
-25 25 0 23 -4 25 -45 25 -41 0 -45 2 -45 25 0 24 2 25 75 25 73 0 75 1 75 25
0 24 -2 25 -65 25 -63 0 -65 1 -65 25 0 25 0 25 96 25 l96 0 -4 -50z m480 0
c-2 -35 1 -50 10 -50 6 0 12 -11 12 -25 0 -23 -4 -25 -45 -25 -41 0 -45 -2
-45 -25 0 -20 -5 -25 -25 -25 -20 0 -25 5 -25 25 0 23 -4 25 -45 25 -41 0 -45
2 -45 25 0 24 2 25 75 25 73 0 75 1 75 25 0 24 -2 25 -65 25 -63 0 -65 1 -65
25 0 25 0 25 96 25 l96 0 -4 -50z m-618 -140 c0 -18 7 -20 70 -20 68 0 70 -1
70 -25 0 -25 -1 -25 -90 -25 l-90 0 0 45 c0 38 3 45 20 45 13 0 20 -7 20 -20z
m480 0 c0 -18 7 -20 70 -20 68 0 70 -1 70 -25 0 -25 -1 -25 -90 -25 l-90 0 0
45 c0 38 3 45 20 45 13 0 20 -7 20 -20z"/>
<path d="M4645 3911 c-3 -5 -1 -12 5 -16 12 -7 30 2 30 16 0 12 -27 12 -35 0z"/>
</g>
</svg>
