<?xml version="1.0" standalone="no"?>
<!DOCTYPE svg PUBLIC "-//W3C//DTD SVG 20010904//EN"
 "http://www.w3.org/TR/2001/REC-SVG-20010904/DTD/svg10.dtd">
<svg version="1.0" xmlns="http://www.w3.org/2000/svg"
 width="1164.000000pt" height="1068.000000pt" viewBox="0 0 1164.000000 1068.000000"
 preserveAspectRatio="xMidYMid meet">

<g transform="translate(0.000000,1068.000000) scale(0.100000,-0.100000)"
fill="#000000" stroke="none">
<path d="M7656 7437 c-31 -21 -56 -44 -56 -51 0 -8 14 -57 30 -111 17 -54 30
-102 30 -107 0 -5 -29 -57 -65 -116 -36 -58 -65 -112 -65 -119 0 -7 33 -50 74
-95 l73 -83 -12 -45 c-7 -25 -36 -131 -65 -236 l-53 -191 -77 23 c-42 13 -96
31 -120 39 -23 8 -60 15 -81 15 l-39 0 0 -170 0 -170 56 -105 57 -104 46 -7
c103 -14 101 -12 174 -129 l67 -110 0 -120 0 -120 83 -107 c45 -58 94 -113
109 -122 18 -11 51 -16 110 -16 l83 0 13 -40 c16 -53 16 -51 -18 -159 -17 -51
-30 -97 -30 -102 0 -5 18 -18 41 -29 38 -20 54 -21 264 -18 123 2 227 7 232
11 4 5 10 120 13 255 l5 247 94 180 c52 99 105 199 118 223 22 41 23 52 23
242 0 176 3 219 30 372 17 95 37 217 47 270 l16 97 -107 143 -108 143 6 50 c4
28 13 97 21 155 28 201 39 306 32 325 -7 17 -19 18 -203 12 l-196 -6 -55 -42
-55 -41 -54 53 -55 54 -189 0 -188 0 -56 -38z m392 -1094 c2 -73 1 -83 -14
-83 -16 0 -16 -1 -1 -18 35 -38 6 -80 -61 -89 -55 -7 -102 18 -102 56 0 37 20
52 75 59 25 2 45 9 45 14 0 10 -21 8 -80 -7 -18 -5 -34 0 -53 15 -33 27 -36
71 -6 101 19 19 29 21 79 15 48 -6 59 -4 64 9 3 10 15 15 28 13 21 -3 23 -9
26 -85z m237 -53 l0 -135 -25 0 c-20 0 -26 6 -28 28 -3 26 -5 27 -63 27 -56 0
-59 1 -59 25 0 16 -6 25 -15 25 -12 0 -15 15 -15 75 l0 75 60 0 c57 0 60 -1
60 -25 0 -16 6 -25 15 -25 10 0 15 10 15 28 0 35 8 44 35 40 19 -3 20 -10 20
-138z m233 78 c2 -27 7 -48 13 -48 5 0 9 -11 9 -25 0 -23 -4 -25 -45 -25 -41
0 -45 -2 -45 -25 0 -20 -5 -25 -25 -25 -20 0 -25 5 -25 25 0 23 -4 25 -45 25
-41 0 -45 2 -45 25 0 24 2 25 74 25 71 0 74 1 78 25 5 25 4 25 -63 25 -60 0
-69 2 -69 18 0 30 10 33 100 30 l85 -3 3 -47z m-128 -138 c0 -18 7 -20 65 -20
63 0 65 -1 65 -25 0 -25 0 -25 -95 -25 l-95 0 0 45 c0 43 1 45 30 45 23 0 30
-4 30 -20z"/>
<path d="M7885 6350 c-4 -7 -3 -16 3 -22 14 -14 45 -2 40 15 -6 16 -34 21 -43
7z"/>
<path d="M7925 6210 c3 -5 19 -10 36 -10 16 0 29 5 29 10 0 6 -16 10 -36 10
-21 0 -33 -4 -29 -10z"/>
<path d="M8140 6335 c0 -22 4 -25 35 -25 28 0 35 -4 35 -19 0 -11 -6 -22 -12
-24 -7 -3 -3 -6 10 -6 18 -1 22 4 22 29 0 25 -4 30 -25 30 -18 0 -25 5 -25 20
0 13 -7 20 -20 20 -15 0 -20 -7 -20 -25z"/>
</g>
</svg>
