<?xml version="1.0" standalone="no"?>
<!DOCTYPE svg PUBLIC "-//W3C//DTD SVG 20010904//EN"
 "http://www.w3.org/TR/2001/REC-SVG-20010904/DTD/svg10.dtd">
<svg version="1.0" xmlns="http://www.w3.org/2000/svg"
 width="1164.000000pt" height="1068.000000pt" viewBox="0 0 1164.000000 1068.000000"
 preserveAspectRatio="xMidYMid meet">

<g transform="translate(0.000000,1068.000000) scale(0.100000,-0.100000)"
fill="#000000" stroke="none">
<path d="M2250 3171 c-38 -43 -63 -62 -94 -70 -22 -7 -60 -19 -83 -28 l-43
-16 0 -123 0 -123 -77 -93 c-42 -51 -77 -94 -78 -96 -1 -1 -31 -7 -66 -14 -35
-6 -70 -15 -76 -20 -8 -7 -13 -36 -13 -77 l0 -67 -40 -23 -41 -23 -52 36 c-29
20 -58 36 -65 36 -21 0 -93 -40 -98 -55 -4 -8 33 -105 81 -217 l87 -201 -51
-118 c-28 -64 -51 -124 -51 -131 0 -30 38 -48 156 -74 l120 -27 40 -115 39
-115 68 -43 c78 -51 113 -55 148 -18 20 21 25 39 29 101 l5 76 90 18 c50 10
95 19 102 19 7 0 35 -34 63 -75 30 -44 58 -75 68 -75 9 0 62 47 117 106 l100
106 199 -82 c110 -44 209 -80 220 -78 14 2 44 46 104 151 l85 149 5 171 5 172
38 77 c23 45 39 92 39 112 0 40 -46 170 -65 186 -8 6 -53 17 -102 24 l-88 13
-93 99 c-51 55 -113 122 -136 149 l-43 50 9 142 c8 136 7 145 -15 200 l-23 58
-236 3 -237 2 -51 -59z m60 -801 c0 -68 -3 -80 -17 -80 -15 0 -15 -1 0 -18 36
-40 5 -82 -65 -89 -62 -6 -93 14 -93 57 0 29 5 37 33 50 24 12 30 18 21 27 -9
9 -19 6 -40 -9 -23 -18 -31 -19 -44 -8 -21 17 -19 25 10 54 16 16 25 36 25 56
0 26 3 30 28 30 25 0 29 -5 38 -42 5 -27 15 -43 24 -44 9 -1 10 1 3 3 -19 6
-16 53 2 53 8 0 15 9 15 20 0 16 7 20 30 20 l30 0 0 -80z m230 50 c0 -16 -7
-20 -31 -20 -26 0 -29 -3 -20 -14 7 -8 23 -17 37 -20 20 -5 25 -12 21 -26 -3
-11 -1 -20 4 -20 5 0 9 -11 9 -25 0 -23 -4 -25 -45 -25 l-45 0 0 -45 c0 -41
-2 -45 -25 -45 -23 0 -25 4 -25 45 l0 45 -45 0 c-41 0 -45 2 -45 25 0 14 4 25
9 25 5 0 7 9 4 20 -4 14 1 21 21 26 14 3 30 12 37 20 9 11 6 14 -20 14 -24 0
-31 4 -31 20 0 19 7 20 95 20 88 0 95 -1 95 -20z m240 -25 c0 -25 5 -45 10
-45 6 0 10 -11 10 -25 0 -23 -4 -25 -45 -25 -41 0 -45 -2 -45 -25 0 -20 -5
-25 -25 -25 -20 0 -25 5 -25 25 0 23 -4 25 -45 25 -41 0 -45 2 -45 25 0 24 2
25 75 25 68 0 75 2 75 20 0 16 -8 19 -62 22 -57 3 -63 5 -66 26 -3 21 -1 22
92 22 l96 0 0 -45z m-130 -140 c0 -24 2 -25 65 -25 58 0 65 -2 65 -20 0 -19
-7 -20 -95 -20 l-95 0 0 45 c0 43 1 45 30 45 25 0 30 -4 30 -25z"/>
<path d="M2236 2315 c-3 -8 -1 -15 4 -15 6 0 10 7 10 15 0 8 -2 15 -4 15 -2 0
-6 -7 -10 -15z"/>
<path d="M2185 2240 c-4 -6 8 -10 29 -10 20 0 36 5 36 10 0 6 -13 10 -29 10
-17 0 -33 -4 -36 -10z"/>
<path d="M2420 2335 c-11 -13 -7 -15 26 -15 35 0 37 1 18 15 -24 18 -29 18
-44 0z"/>
<path d="M7361 1814 c0 -11 3 -14 6 -6 3 7 2 16 -1 19 -3 4 -6 -2 -5 -13z"/>
</g>
</svg>
