<?xml version="1.0" standalone="no"?>
<!DOCTYPE svg PUBLIC "-//W3C//DTD SVG 20010904//EN"
 "http://www.w3.org/TR/2001/REC-SVG-20010904/DTD/svg10.dtd">
<svg version="1.0" xmlns="http://www.w3.org/2000/svg"
 width="1164.000000pt" height="1068.000000pt" viewBox="0 0 1164.000000 1068.000000"
 preserveAspectRatio="xMidYMid meet">

<g transform="translate(0.000000,1068.000000) scale(0.100000,-0.100000)"
fill="#000000" stroke="none">
<path d="M3330 1845 c-84 -11 -140 -30 -140 -47 0 -11 -141 -257 -151 -264 -4
-2 -96 32 -204 76 -108 44 -202 80 -210 80 -7 0 -56 -46 -108 -101 l-95 -102
-48 72 c-26 39 -53 71 -61 71 -8 0 -33 -4 -56 -10 -23 -5 -80 -16 -127 -25
-47 -9 -88 -22 -92 -28 -4 -7 -8 -45 -8 -85 0 -59 -4 -79 -20 -99 -11 -14 -20
-29 -20 -34 0 -5 39 -51 88 -104 l87 -95 47 -153 46 -152 -124 -124 c-171
-172 -175 -157 67 -260 105 -45 201 -81 213 -81 11 0 48 21 81 46 l60 45 175
-7 c96 -3 180 -9 187 -13 7 -3 70 -61 142 -129 l129 -122 60 0 c71 0 87 13 78
65 -4 19 -1 72 5 117 l13 81 -117 113 -117 113 0 61 0 60 38 -5 c172 -26 317
-43 327 -38 13 4 26 65 41 183 l7 54 -112 106 -113 106 34 74 c19 41 56 126
84 188 l49 112 122 0 122 0 10 38 c6 20 11 51 11 68 0 29 -5 33 -136 97 -74
37 -145 66 -157 66 -12 -1 -60 -7 -107 -14z m-412 -762 c2 -73 1 -83 -14 -83
-16 0 -16 -1 1 -20 24 -26 13 -68 -23 -81 -32 -13 -106 -6 -127 11 -21 17 -19
67 3 79 14 9 11 10 -15 11 -33 0 -33 0 -33 50 l0 50 38 2 37 1 -37 4 c-30 3
-38 9 -38 24 0 17 7 19 60 19 33 0 60 -4 60 -10 0 -5 9 -10 20 -10 14 0 20 7
20 21 0 15 5 20 23 17 20 -3 22 -9 25 -85z m-248 -18 c0 -88 -4 -95 -44 -79
-13 5 -15 16 -10 60 l7 54 -72 0 c-62 0 -71 2 -71 18 0 29 8 32 102 32 l88 0
0 -85z m480 40 c0 -25 5 -45 10 -45 6 0 10 -11 10 -25 0 -23 -4 -25 -45 -25
-41 0 -45 -2 -45 -25 0 -20 -5 -25 -25 -25 -20 0 -25 5 -25 25 0 23 -4 25 -45
25 -41 0 -45 2 -45 25 0 24 2 25 74 25 71 0 74 1 78 25 5 25 4 25 -58 25 -57
0 -64 2 -64 20 0 19 7 20 90 20 l90 0 0 -45z m-560 -90 l0 -45 50 0 c47 0 50
-2 50 -25 l0 -25 -115 0 -115 0 0 25 c0 23 4 25 40 25 l40 0 0 45 c0 41 2 45
25 45 23 0 25 -4 25 -45z m430 -45 c0 -18 7 -20 65 -20 63 0 65 -1 65 -25 0
-25 -1 -25 -90 -25 l-90 0 0 45 c0 41 2 45 25 45 18 0 25 -5 25 -20z"/>
<path d="M2838 1083 c6 -2 18 -2 25 0 6 3 1 5 -13 5 -14 0 -19 -2 -12 -5z"/>
<path d="M2778 1053 c12 -2 30 -2 40 0 9 3 -1 5 -23 4 -22 0 -30 -2 -17 -4z"/>
<path d="M2836 1015 c-4 -10 1 -15 14 -15 11 0 20 7 20 15 0 8 -6 15 -14 15
-8 0 -16 -7 -20 -15z"/>
<path d="M2800 950 c-11 -7 -5 -10 23 -10 23 0 36 4 32 10 -8 13 -35 13 -55 0z"/>
</g>
</svg>
