<?xml version="1.0" standalone="no"?>
<!DOCTYPE svg PUBLIC "-//W3C//DTD SVG 20010904//EN"
 "http://www.w3.org/TR/2001/REC-SVG-20010904/DTD/svg10.dtd">
<svg version="1.0" xmlns="http://www.w3.org/2000/svg"
 width="1164.000000pt" height="1068.000000pt" viewBox="0 0 1164.000000 1068.000000"
 preserveAspectRatio="xMidYMid meet">

<g transform="translate(0.000000,1068.000000) scale(0.100000,-0.100000)"
fill="#000000" stroke="none">
<path d="M1788 4534 c-20 -40 -25 -45 -48 -39 -42 12 -72 9 -153 -15 l-78 -23
-44 31 c-63 45 -90 50 -108 20 -35 -56 -31 -85 37 -230 36 -76 61 -140 58
-142 -4 -2 -21 -7 -38 -10 -24 -5 -58 4 -154 44 -67 27 -127 50 -133 50 -19 0
-97 -65 -102 -85 -3 -12 16 -74 45 -148 27 -71 50 -130 50 -131 0 -2 -28 -39
-63 -84 l-63 -80 -45 -211 -44 -210 -192 -107 c-106 -58 -197 -111 -202 -118
-5 -6 -14 -47 -20 -91 -6 -44 -14 -94 -17 -111 -5 -27 6 -46 111 -178 64 -81
115 -154 113 -163 -2 -9 -39 -31 -86 -52 -46 -20 -88 -43 -92 -52 -5 -9 -5
-45 1 -85 6 -38 14 -96 19 -128 5 -32 13 -63 18 -68 5 -5 47 -19 92 -31 l84
-22 30 -86 c44 -122 40 -119 159 -119 l100 0 94 -87 95 -87 86 12 c48 6 119
14 157 18 39 3 72 7 75 9 3 2 32 64 64 138 l58 135 -85 195 c-61 140 -82 198
-74 206 17 17 25 14 83 -24 29 -19 57 -35 62 -35 5 0 36 15 68 33 l59 33 3 71
3 71 52 7 c29 4 59 10 68 14 9 3 56 54 103 112 l86 106 0 116 0 115 78 26 c67
23 83 33 125 82 l49 55 204 -3 c112 -2 204 0 204 5 0 4 6 7 14 7 26 0 24 25
-10 105 -18 44 -33 86 -34 93 0 7 13 40 30 73 16 33 27 66 24 73 -3 8 -30 27
-60 43 -36 19 -52 33 -49 43 2 8 16 67 29 130 14 63 28 125 31 137 4 17 -21
61 -96 173 l-101 150 -54 0 -54 0 0 64 c0 39 -5 67 -12 74 -7 5 -111 60 -230
121 -216 110 -217 111 -288 111 l-70 0 -22 -46z m37 -1025 c4 -6 4 -64 0 -130
l-7 -119 -84 0 -84 0 0 50 c0 36 -4 50 -14 50 -13 0 -26 20 -26 41 0 5 6 9 14
9 8 0 28 11 43 25 l28 24 -37 1 c-34 0 -38 3 -38 25 0 24 2 25 65 25 l65 0 0
-30 c0 -20 -12 -43 -36 -70 l-36 -40 51 0 51 0 0 75 c0 68 2 75 19 75 11 0 23
-5 26 -11z m125 -4 c0 -9 9 -15 24 -15 18 0 26 -7 29 -22 3 -14 5 -9 6 15 1
34 3 37 31 37 l30 0 0 -100 0 -100 -30 0 c-27 0 -30 3 -30 33 -1 26 -2 29 -11
15 -13 -22 -27 -23 -51 -1 -17 16 -20 16 -35 0 -16 -16 -16 -17 5 -17 17 0 22
-6 22 -25 0 -24 2 -25 65 -25 63 0 65 -1 65 -25 0 -25 -1 -25 -90 -25 l-90 0
0 39 c0 29 -7 48 -25 67 -24 26 -24 28 -8 37 20 11 43 37 43 49 0 4 -9 8 -20
8 -13 0 -20 7 -20 20 0 13 7 20 20 20 11 0 20 7 20 15 0 9 9 15 25 15 16 0 25
-6 25 -15z m350 -120 l0 -135 -25 0 c-23 0 -25 4 -26 43 0 23 -3 36 -6 30 -7
-19 -27 -16 -48 7 -18 20 -18 20 -47 -7 l-28 -27 -23 22 c-20 21 -21 24 -4 33
23 13 43 55 52 107 6 35 11 42 30 42 20 0 23 -6 27 -51 4 -34 12 -58 27 -72
l21 -21 0 82 c0 81 0 82 25 82 l25 0 0 -135z"/>
<path d="M1700 3310 c0 -5 16 -10 35 -10 19 0 35 5 35 10 0 6 -16 10 -35 10
-19 0 -35 -4 -35 -10z"/>
<path d="M1960 3443 c0 -5 5 -15 10 -23 8 -12 10 -11 10 8 0 12 -4 22 -10 22
-5 0 -10 -3 -10 -7z"/>
<path d="M7361 1814 c0 -11 3 -14 6 -6 3 7 2 16 -1 19 -3 4 -6 -2 -5 -13z"/>
</g>
</svg>
