<?xml version="1.0" standalone="no"?>
<!DOCTYPE svg PUBLIC "-//W3C//DTD SVG 20010904//EN"
 "http://www.w3.org/TR/2001/REC-SVG-20010904/DTD/svg10.dtd">
<svg version="1.0" xmlns="http://www.w3.org/2000/svg"
 width="1164.000000pt" height="1068.000000pt" viewBox="0 0 1164.000000 1068.000000"
 preserveAspectRatio="xMidYMid meet">

<g transform="translate(0.000000,1068.000000) scale(0.100000,-0.100000)"
fill="#000000" stroke="none">
<path d="M2452 5259 c-29 -17 -57 -39 -62 -50 -9 -16 -100 -305 -100 -316 0
-1 -19 -3 -42 -3 -69 -1 -282 -25 -297 -34 -7 -5 -29 -43 -48 -85 -19 -42 -48
-102 -64 -134 l-30 -57 26 -24 c14 -13 44 -27 69 -30 25 -4 129 -51 249 -112
l206 -105 3 -72 3 -72 60 -3 60 -3 88 -130 88 -129 -30 -141 c-42 -190 -42
-184 24 -216 43 -21 55 -32 55 -50 0 -13 1 -23 3 -24 1 0 48 -4 103 -8 l101
-7 119 -102 c64 -56 126 -102 135 -102 12 0 44 38 90 104 l71 104 130 -54 130
-54 27 29 c14 16 64 81 111 145 l85 115 165 1 c91 0 175 3 188 6 35 10 28 46
-28 146 l-51 89 26 65 c14 36 25 75 23 87 -3 25 -192 166 -221 167 -10 0 -38
-16 -63 -36 l-44 -36 -9 23 c-4 13 -20 63 -35 110 -15 48 -33 94 -39 103 -10
13 -38 20 -115 26 -57 5 -106 12 -111 14 -5 3 -41 44 -80 90 l-72 84 7 90 c8
105 26 71 -184 336 -79 100 -150 182 -158 184 -7 2 -52 -18 -99 -43 l-85 -46
-58 45 c-32 25 -63 46 -69 46 -6 0 -16 6 -22 14 -12 14 -118 67 -158 80 -10 3
-39 -7 -71 -25z m743 -954 c0 -127 0 -130 -22 -133 -23 -3 -23 -3 -23 133 0
136 0 136 23 133 22 -3 22 -6 22 -133z m-245 71 c0 -39 4 -55 15 -60 8 -3 15
-15 15 -26 0 -17 -6 -20 -50 -20 l-50 0 0 -50 c0 -47 -2 -50 -25 -50 -23 0
-25 3 -25 50 l0 50 -45 0 c-41 0 -45 2 -45 25 0 23 3 24 78 27 76 3 77 3 80
31 l3 27 -70 0 c-62 0 -71 2 -71 18 0 29 8 32 102 32 l88 0 0 -54z m490 -76
l0 -130 -30 0 c-28 0 -30 3 -30 38 0 24 -3 32 -9 24 -6 -11 -14 -8 -37 11
l-28 24 -19 -23 c-23 -30 -43 -31 -58 -3 -9 17 -7 24 11 41 27 25 40 59 40
104 0 29 3 34 24 34 21 0 25 -6 31 -50 4 -28 15 -60 26 -73 18 -22 18 -22 19
56 l0 77 30 0 30 0 0 -130z m-315 25 l0 -90 -65 0 -65 0 -3 79 c-2 44 -1 85 2
93 4 10 22 13 68 11 l63 -3 0 -90z"/>
<path d="M3050 4320 c0 -27 5 -50 10 -50 6 0 10 23 10 50 0 28 -4 50 -10 50
-5 0 -10 -22 -10 -50z"/>
<path d="M7361 1814 c0 -11 3 -14 6 -6 3 7 2 16 -1 19 -3 4 -6 -2 -5 -13z"/>
</g>
</svg>
