<?xml version="1.0" standalone="no"?>
<!DOCTYPE svg PUBLIC "-//W3C//DTD SVG 20010904//EN"
 "http://www.w3.org/TR/2001/REC-SVG-20010904/DTD/svg10.dtd">
<svg version="1.0" xmlns="http://www.w3.org/2000/svg"
 width="1164.000000pt" height="1068.000000pt" viewBox="0 0 1164.000000 1068.000000"
 preserveAspectRatio="xMidYMid meet">

<g transform="translate(0.000000,1068.000000) scale(0.100000,-0.100000)"
fill="#000000" stroke="none">
<path d="M6580 1929 c-47 -34 -98 -72 -113 -85 -31 -26 -73 -30 -142 -14 -22
5 -40 8 -41 7 -1 -1 -5 -22 -8 -47 -17 -124 -32 -176 -88 -305 -33 -77 -66
-145 -72 -151 -6 -6 -99 -26 -206 -44 -107 -18 -258 -43 -335 -56 -77 -13
-143 -24 -147 -24 -4 0 -50 -66 -103 -146 -68 -102 -100 -143 -108 -136 -7 4
-70 56 -142 113 -149 120 -182 142 -199 136 -7 -3 -29 -45 -50 -95 -33 -78
-42 -90 -69 -99 -18 -6 -83 -29 -146 -52 l-113 -41 7 79 c6 72 5 80 -12 85
-22 7 -220 36 -249 36 -24 0 -219 -141 -232 -167 -4 -10 -3 -119 2 -243 l11
-226 43 -71 c39 -64 59 -83 204 -194 225 -172 202 -160 279 -148 42 6 78 19
105 38 29 20 59 31 100 35 52 6 74 2 184 -34 144 -47 274 -69 411 -70 l96 0
52 80 52 80 115 0 115 0 55 117 c31 65 57 119 59 121 5 5 237 52 258 52 10 0
79 -41 155 -90 75 -50 144 -90 154 -90 19 0 297 174 316 198 19 25 14 67 -28
230 -22 85 -40 155 -40 156 0 2 -22 13 -49 26 -27 12 -53 32 -58 44 -41 90
-147 364 -146 376 1 14 52 153 184 507 50 135 58 173 37 173 -7 0 -51 -28 -98
-61z m-1590 -1194 c0 -9 9 -15 24 -15 15 0 26 -7 29 -17 3 -10 5 -3 6 15 1 27
5 32 26 32 25 0 25 -1 25 -85 0 -59 -4 -85 -12 -85 -9 0 -9 -3 0 -12 19 -19
14 -55 -10 -72 -29 -21 -107 -20 -136 0 -34 23 -26 64 15 85 23 12 29 19 21
27 -8 8 -18 6 -36 -8 -31 -25 -39 -25 -52 1 -10 17 -7 23 14 40 31 24 33 39 6
39 -13 0 -20 7 -20 20 0 15 7 20 25 20 16 0 25 6 25 15 0 9 9 15 25 15 16 0
25 -6 25 -15z m340 -20 c0 -24 -2 -25 -65 -25 -63 0 -65 -1 -65 -25 0 -24 2
-25 70 -25 68 0 70 -1 70 -25 0 -22 -4 -25 -35 -25 -28 0 -35 -4 -35 -20 0
-17 7 -20 45 -20 38 0 45 -3 45 -20 0 -19 -7 -20 -120 -20 -113 0 -120 1 -120
20 0 17 7 20 45 20 38 0 45 3 45 20 0 16 -7 20 -30 20 l-30 0 0 75 0 75 90 0
c89 0 90 0 90 -25z m240 -25 c0 -39 4 -50 16 -50 10 0 14 -7 12 -22 -2 -19
-10 -24 -45 -26 -34 -3 -42 -7 -45 -25 -4 -31 -52 -31 -56 0 -3 18 -11 22 -45
25 -35 2 -43 7 -45 25 -3 21 1 22 75 25 72 3 78 5 81 26 3 21 0 22 -62 22 -64
0 -66 1 -66 25 0 25 1 25 90 25 l90 0 0 -50z m-130 -135 c0 -24 2 -25 70 -25
68 0 70 -1 70 -25 0 -25 0 -25 -95 -25 l-95 0 0 50 c0 47 2 50 25 50 20 0 25
-5 25 -25z"/>
<path d="M4996 665 c4 -8 10 -15 15 -15 5 0 9 7 9 15 0 8 -7 15 -15 15 -9 0
-12 -6 -9 -15z"/>
<path d="M5038 620 c-7 -24 -3 -38 8 -28 3 4 4 17 2 30 l-3 23 -7 -25z"/>
<path d="M4985 530 c8 -13 35 -13 55 0 11 7 5 10 -23 10 -23 0 -36 -4 -32 -10z"/>
</g>
</svg>
