<?xml version="1.0" standalone="no"?>
<!DOCTYPE svg PUBLIC "-//W3C//DTD SVG 20010904//EN"
 "http://www.w3.org/TR/2001/REC-SVG-20010904/DTD/svg10.dtd">
<svg version="1.0" xmlns="http://www.w3.org/2000/svg"
 width="1164.000000pt" height="1068.000000pt" viewBox="0 0 1164.000000 1068.000000"
 preserveAspectRatio="xMidYMid meet">

<g transform="translate(0.000000,1068.000000) scale(0.100000,-0.100000)"
fill="#000000" stroke="none">
<path d="M7098 8800 c-93 -68 -95 -70 -108 -126 -15 -63 -28 -75 -221 -201
-79 -52 -90 -64 -133 -137 -25 -45 -50 -87 -54 -94 -5 -7 -64 -22 -133 -33
-68 -11 -130 -26 -137 -33 -11 -11 -9 -28 9 -97 23 -90 24 -91 33 -364 21
-607 27 -697 53 -772 14 -40 31 -77 37 -82 7 -6 50 -11 96 -13 l84 -3 91 -125
91 -125 94 -3 95 -3 53 -71 c47 -65 52 -77 52 -124 0 -83 1 -84 94 -84 69 0
104 -7 229 -46 97 -31 152 -43 158 -37 9 9 42 121 120 411 38 142 41 129 -54
235 l-57 64 66 108 66 108 -32 109 c-18 60 -30 111 -29 112 54 43 88 56 146
56 54 0 65 3 77 23 12 18 69 184 100 292 4 15 -10 42 -54 99 -33 43 -60 86
-60 95 0 9 43 79 95 156 52 76 95 142 95 145 0 4 -47 80 -105 169 l-105 162 0
102 c0 56 -4 107 -8 113 -8 13 -114 25 -129 16 -5 -4 -22 -26 -37 -49 -14 -24
-29 -43 -32 -43 -3 0 -44 30 -91 67 -85 66 -86 67 -177 79 -168 24 -171 23
-278 -56z m12 -1060 c0 -68 -3 -80 -17 -80 -15 0 -15 -1 0 -18 24 -26 21 -47
-9 -71 -32 -25 -100 -28 -132 -5 -25 17 -30 65 -8 83 7 6 34 14 60 17 25 4 46
11 46 17 0 5 -12 6 -27 2 -73 -18 -91 -17 -112 4 -47 47 -10 128 52 118 18 -3
44 -9 60 -12 21 -6 27 -4 27 9 0 11 9 16 30 16 l30 0 0 -80z m220 70 c0 -5 7
-10 15 -10 22 0 20 -50 -2 -51 -17 -1 -17 -2 0 -6 21 -5 24 -53 3 -53 -18 0
-26 -32 -14 -54 15 -27 0 -66 -28 -76 -38 -15 -97 -12 -122 6 -28 20 -30 69
-2 86 18 12 18 13 -10 24 -34 15 -48 53 -34 93 19 52 105 53 131 1 12 -24 13
-24 13 13 0 33 3 37 25 37 14 0 25 -4 25 -10z m250 -45 c0 -25 5 -45 10 -45 6
0 10 -11 10 -25 0 -22 -4 -25 -40 -25 -36 0 -40 -2 -40 -25 0 -21 -5 -25 -30
-25 -25 0 -30 4 -30 25 0 23 -4 25 -45 25 -41 0 -45 2 -45 25 0 25 1 25 80 25
73 0 80 2 80 20 0 18 -7 20 -65 20 -63 0 -65 1 -65 25 0 25 1 25 90 25 l90 0
0 -45z m-130 -140 c0 -24 2 -25 71 -25 67 0 70 -1 67 -22 -3 -22 -8 -23 -95
-26 l-93 -3 0 51 c0 47 2 50 25 50 20 0 25 -5 25 -25z"/>
<path d="M6944 7749 c-10 -17 13 -36 27 -22 12 12 4 33 -11 33 -5 0 -12 -5
-16 -11z"/>
<path d="M7010 7740 c0 -5 11 -10 25 -10 14 0 25 5 25 10 0 6 -11 10 -25 10
-14 0 -25 -4 -25 -10z"/>
<path d="M6985 7610 c-4 -6 8 -10 29 -10 20 0 36 5 36 10 0 6 -13 10 -29 10
-17 0 -33 -4 -36 -10z"/>
<path d="M7184 7749 c-10 -17 13 -36 27 -22 12 12 4 33 -11 33 -5 0 -12 -5
-16 -11z"/>
<path d="M7253 7694 l-22 -24 24 0 c20 0 25 5 25 25 0 29 1 29 -27 -1z"/>
<path d="M7215 7610 c3 -5 19 -10 36 -10 16 0 29 5 29 10 0 6 -16 10 -36 10
-21 0 -33 -4 -29 -10z"/>
</g>
</svg>
