<?xml version="1.0" standalone="no"?>
<!DOCTYPE svg PUBLIC "-//W3C//DTD SVG 20010904//EN"
 "http://www.w3.org/TR/2001/REC-SVG-20010904/DTD/svg10.dtd">
<svg version="1.0" xmlns="http://www.w3.org/2000/svg"
 width="1164.000000pt" height="1068.000000pt" viewBox="0 0 1164.000000 1068.000000"
 preserveAspectRatio="xMidYMid meet">

<g transform="translate(0.000000,1068.000000) scale(0.100000,-0.100000)"
fill="#000000" stroke="none">
<path d="M5140 8363 c-80 -36 -152 -69 -160 -73 -13 -6 -16 -55 -20 -320 l-5
-314 -109 -28 -108 -29 -100 66 -101 65 -111 0 c-130 0 -216 -9 -216 -22 0 -5
23 -42 50 -82 l50 -72 0 -130 0 -129 -193 -86 -192 -86 -3 -70 -3 -70 -52 -11
c-29 -6 -70 -14 -92 -18 -62 -10 -65 -16 -65 -120 l0 -94 -64 -40 -64 -41 -53
-124 -52 -125 -42 0 c-41 0 -43 -1 -49 -37 -3 -21 -6 -57 -6 -80 0 -40 2 -43
70 -88 44 -29 76 -44 87 -41 10 3 35 31 56 61 28 40 44 54 55 51 10 -3 91 -35
182 -70 l165 -64 60 -133 c33 -74 63 -135 68 -137 4 -2 7 -9 7 -15 0 -25 218
-267 241 -267 16 0 472 171 514 193 32 16 35 26 35 140 l0 107 41 0 c29 0 57
9 91 30 28 17 57 28 66 25 9 -3 95 -54 191 -113 l174 -107 18 -86 c16 -79 25
-98 105 -219 89 -136 98 -156 158 -320 96 -267 111 -305 118 -308 4 -2 8 -9 8
-17 0 -24 31 -38 82 -37 l52 1 128 128 128 128 0 145 0 145 55 118 c30 66 55
128 55 138 0 11 -20 50 -45 87 -67 99 -65 132 25 374 39 104 70 199 70 212 0
13 -26 53 -61 95 l-61 72 41 38 41 38 0 79 c0 78 1 80 40 128 47 56 48 73 16
169 -23 69 -25 94 -40 531 -9 252 -19 463 -22 467 -3 5 -45 9 -94 9 l-88 0
-52 70 -52 70 -125 0 -124 0 -160 125 c-88 69 -166 128 -174 131 -7 3 -35 -4
-61 -15 -25 -12 -50 -21 -54 -21 -5 0 -14 17 -21 38 -6 20 -17 40 -23 44 -28
19 -89 3 -226 -59z m-120 -1338 c0 -24 5 -35 15 -35 9 0 15 -9 15 -25 0 -16
-6 -25 -15 -25 -11 0 -15 -11 -15 -40 0 -36 -2 -40 -25 -40 -23 0 -25 3 -26
53 0 40 -2 47 -9 30 -17 -42 -77 -56 -118 -27 -33 23 -31 86 4 113 42 33 84
24 112 -24 10 -18 11 -16 12 18 0 33 3 37 25 37 22 0 25 -4 25 -35z m490 -100
l0 -135 -25 0 c-23 0 -25 4 -25 42 0 38 -1 40 -14 23 -13 -18 -14 -18 -39 7
l-26 26 -22 -24 c-28 -30 -40 -30 -58 -2 -11 18 -11 22 3 30 25 14 46 63 46
108 0 38 2 40 30 40 28 0 30 -2 30 -40 0 -43 23 -100 40 -100 6 0 10 35 10 80
0 79 0 80 25 80 l25 0 0 -135z m-240 105 c0 -18 -7 -20 -65 -20 -37 0 -65 -4
-65 -10 0 -6 28 -10 65 -10 58 0 65 -2 65 -19 0 -15 -8 -21 -37 -24 -35 -3
-34 -4 10 -5 43 -2 47 -4 47 -27 0 -20 -5 -25 -27 -25 -21 0 -24 -3 -15 -12
19 -19 15 -66 -7 -78 -30 -15 -113 -12 -139 6 -26 18 -28 46 -6 68 14 15 13
16 -10 16 -21 0 -26 5 -26 25 0 23 4 25 48 27 43 1 44 2 10 5 l-38 4 0 50 0
49 95 0 c88 0 95 -1 95 -20z m-370 -165 c0 -24 2 -25 65 -25 63 0 65 -1 65
-25 0 -25 -1 -25 -90 -25 l-90 0 0 50 c0 47 2 50 25 50 20 0 25 -5 25 -25z"/>
<path d="M4872 6973 c2 -10 10 -18 18 -18 8 0 16 8 18 18 2 12 -3 17 -18 17
-15 0 -20 -5 -18 -17z"/>
<path d="M5145 6840 c8 -13 35 -13 55 0 11 7 5 10 -23 10 -23 0 -36 -4 -32
-10z"/>
</g>
</svg>
