<?xml version="1.0" standalone="no"?>
<!DOCTYPE svg PUBLIC "-//W3C//DTD SVG 20010904//EN"
 "http://www.w3.org/TR/2001/REC-SVG-20010904/DTD/svg10.dtd">
<svg version="1.0" xmlns="http://www.w3.org/2000/svg"
 width="1164.000000pt" height="1068.000000pt" viewBox="0 0 1164.000000 1068.000000"
 preserveAspectRatio="xMidYMid meet">

<g transform="translate(0.000000,1068.000000) scale(0.100000,-0.100000)"
fill="#000000" stroke="none">
<path d="M6775 10322 l-70 -37 -6 -58 c-4 -32 -9 -60 -12 -63 -3 -3 -56 11
-119 31 -120 40 -164 43 -353 29 l-81 -6 -67 46 c-105 72 -107 70 -178 -104
-23 -58 -45 -108 -49 -113 -3 -4 -63 -14 -132 -23 l-125 -15 -178 106 c-99 59
-187 105 -198 103 -12 -2 -46 -44 -90 -112 -64 -97 -71 -115 -75 -167 -3 -33
-8 -62 -13 -64 -4 -3 -38 1 -74 10 -93 21 -152 20 -164 -4 -6 -10 -26 -110
-46 -222 -33 -194 -45 -246 -130 -559 -77 -286 -95 -360 -95 -395 0 -29 11
-52 53 -105 28 -38 60 -69 69 -70 16 0 27 25 43 93 5 24 10 28 28 23 12 -3 59
-8 105 -12 l83 -7 39 -57 39 -57 -27 -101 c-30 -114 -27 -125 42 -150 34 -12
41 -10 181 54 161 74 155 74 176 1 5 -21 16 -40 23 -43 8 -3 41 6 75 21 l62
26 161 -126 160 -125 122 0 122 0 51 -69 52 -70 86 -3 c47 -2 85 0 85 5 0 4 9
7 20 7 32 0 34 24 12 113 -12 45 -20 82 -19 84 1 1 49 9 107 18 58 9 114 20
126 25 11 4 44 50 73 101 52 93 55 95 163 168 192 130 186 124 204 190 16 55
21 61 100 121 46 35 86 72 90 82 5 16 -69 235 -102 299 -9 18 -49 44 -128 85
-64 32 -125 66 -136 75 l-21 15 30 84 c36 97 37 112 14 238 l-17 94 22 17 c13
9 65 38 117 66 l95 49 33 -32 c28 -27 41 -32 80 -32 l47 0 56 84 c31 46 54 92
52 102 -3 20 -29 40 -303 242 -98 72 -188 132 -200 131 -11 0 -51 -17 -90 -37z
m-1005 -877 c0 -10 10 -15 30 -15 20 0 30 5 30 15 0 9 9 15 25 15 23 0 25 -3
25 -49 0 -59 4 -61 106 -61 72 0 74 1 74 25 0 23 -4 24 -62 27 -57 3 -63 5
-66 26 -3 22 -1 22 93 22 l97 0 -4 -50 c-2 -35 1 -50 10 -50 6 0 12 -11 12
-25 0 -23 -4 -25 -45 -25 -41 0 -45 -2 -45 -25 0 -20 -5 -25 -25 -25 -20 0
-25 5 -25 25 0 22 -4 25 -37 25 -21 0 -48 3 -60 6 -22 6 -23 4 -23 -55 0 -58
-1 -61 -25 -61 -19 0 -25 5 -25 23 0 21 -3 22 -79 19 -72 -4 -79 -2 -83 16 -7
26 -1 32 31 32 l25 0 -22 16 c-26 18 -28 50 -5 76 15 17 15 18 -5 18 -15 0
-22 6 -22 20 0 15 7 20 25 20 16 0 25 6 25 15 0 9 9 15 25 15 16 0 25 -6 25
-15z m-260 -5 c0 -5 16 -10 35 -10 19 0 35 5 35 10 0 6 11 10 25 10 23 0 25
-3 25 -49 0 -49 -1 -50 -32 -54 -25 -3 -22 -4 15 -5 43 -2 47 -4 47 -27 0 -20
-5 -25 -27 -25 -21 0 -24 -3 -15 -12 19 -19 15 -66 -7 -78 -30 -15 -113 -12
-139 6 -26 18 -28 41 -5 66 15 17 15 18 -10 18 -22 0 -27 5 -27 25 0 22 4 25
43 27 36 1 38 2 10 5 -32 4 -33 5 -33 54 0 48 1 49 30 49 17 0 30 -4 30 -10z
m480 -175 c0 -24 2 -25 65 -25 63 0 65 -1 65 -25 l0 -26 -92 3 -93 3 -3 33
c-5 47 3 62 33 62 20 0 25 -5 25 -25z"/>
<path d="M5800 9370 c11 -11 20 -26 20 -33 0 -17 -21 -43 -40 -50 -8 -3 0 -6
18 -6 l32 -1 0 55 c0 52 -1 55 -25 55 l-25 0 20 -20z"/>
<path d="M5740 9340 c0 -5 5 -10 10 -10 6 0 10 5 10 10 0 6 -4 10 -10 10 -5 0
-10 -4 -10 -10z"/>
<path d="M5523 9383 c15 -2 37 -2 50 0 12 2 0 4 -28 4 -27 0 -38 -2 -22 -4z"/>
<path d="M5515 9240 c3 -5 17 -10 30 -10 13 0 27 5 30 10 4 6 -8 10 -30 10
-22 0 -34 -4 -30 -10z"/>
</g>
</svg>
