<?xml version="1.0" standalone="no"?>
<!DOCTYPE svg PUBLIC "-//W3C//DTD SVG 20010904//EN"
 "http://www.w3.org/TR/2001/REC-SVG-20010904/DTD/svg10.dtd">
<svg version="1.0" xmlns="http://www.w3.org/2000/svg"
 width="1164.000000pt" height="1068.000000pt" viewBox="0 0 1164.000000 1068.000000"
 preserveAspectRatio="xMidYMid meet">

<g transform="translate(0.000000,1068.000000) scale(0.100000,-0.100000)"
fill="#000000" stroke="none">
<path d="M5196 2823 l-99 -4 7 -147 c12 -262 11 -259 73 -323 l53 -56 0 -141
0 -141 -72 -42 c-96 -55 -106 -65 -114 -108 -3 -20 -17 -92 -30 -160 -13 -69
-24 -126 -24 -128 0 -1 -18 -12 -40 -23 l-40 -20 0 -131 c0 -110 -3 -136 -20
-169 -11 -22 -20 -48 -20 -58 0 -24 27 -78 37 -75 5 2 37 -21 73 -50 187 -152
246 -197 257 -197 7 0 58 70 114 155 56 85 105 155 109 155 5 0 75 11 157 26
81 14 229 39 328 55 99 16 187 32 196 35 21 6 148 289 165 369 7 33 13 88 14
122 0 57 -2 63 -22 67 -52 10 -235 36 -253 36 -12 0 -59 38 -118 98 l-97 97 0
93 c0 82 -3 99 -27 145 -26 48 -28 63 -33 204 -3 83 -8 155 -13 159 -4 4 -63
10 -132 13 l-125 6 -74 68 c-84 75 -84 75 -230 70z m254 -1103 c0 -66 -3 -80
-16 -80 -14 0 -14 -1 0 -16 36 -36 9 -83 -52 -91 -49 -7 -99 11 -107 38 -15
46 22 78 93 80 30 2 32 3 10 6 -16 2 -28 11 -28 19 0 10 -6 8 -20 -6 -12 -12
-33 -25 -48 -31 -21 -8 -29 -7 -39 7 -18 25 -17 27 24 49 48 26 54 45 14 45
-26 0 -31 4 -31 25 0 24 3 25 55 25 40 0 57 -4 61 -15 9 -22 34 -18 34 5 0 15
7 20 25 20 25 0 25 -1 25 -80z m230 45 c0 -24 5 -35 15 -35 9 0 15 -9 15 -25
0 -16 -6 -25 -15 -25 -11 0 -15 -11 -15 -40 0 -38 -2 -40 -30 -40 -23 0 -30 4
-30 20 0 13 -7 20 -20 20 -10 0 -25 6 -32 14 -11 11 -17 10 -40 -7 -22 -17
-30 -18 -43 -7 -21 17 -19 35 6 52 13 8 24 29 28 53 5 34 10 40 31 40 21 0 26
-5 28 -31 2 -18 12 -40 23 -50 19 -17 19 -16 19 39 0 57 0 57 30 57 28 0 30
-3 30 -35z m250 -100 l0 -135 -30 0 c-28 0 -30 3 -30 36 0 29 -3 34 -13 25
-11 -8 -19 -5 -37 14 l-23 25 -24 -26 c-25 -27 -40 -28 -57 -2 -7 12 -3 23 16
47 17 19 29 49 33 81 6 44 10 50 31 50 21 0 24 -5 24 -37 0 -22 10 -53 23 -73
l22 -35 3 83 3 82 29 0 30 0 0 -135z m-370 -60 c0 -24 2 -25 66 -25 62 0 65
-1 62 -22 -3 -22 -7 -23 -93 -23 l-90 0 -3 33 c-5 47 3 62 33 62 20 0 25 -5
25 -25z"/>
<path d="M5373 1713 c9 -2 23 -2 30 0 6 3 -1 5 -18 5 -16 0 -22 -2 -12 -5z"/>
<path d="M5340 1600 c-13 -9 -13 -11 0 -20 8 -5 22 -10 30 -10 8 0 22 5 30 10
13 9 13 11 0 20 -8 5 -22 10 -30 10 -8 0 -22 -5 -30 -10z"/>
</g>
</svg>
