<?xml version="1.0" standalone="no"?>
<!DOCTYPE svg PUBLIC "-//W3C//DTD SVG 20010904//EN"
 "http://www.w3.org/TR/2001/REC-SVG-20010904/DTD/svg10.dtd">
<svg version="1.0" xmlns="http://www.w3.org/2000/svg"
 width="1164.000000pt" height="1068.000000pt" viewBox="0 0 1164.000000 1068.000000"
 preserveAspectRatio="xMidYMid meet">

<g transform="translate(0.000000,1068.000000) scale(0.100000,-0.100000)"
fill="#000000" stroke="none">
<path d="M3269 6346 l-84 -65 -7 41 c-4 23 -11 45 -16 50 -5 5 -65 7 -133 6
l-124 -3 -3 -103 -3 -103 -71 -107 c-102 -153 -102 -166 -7 -337 40 -71 72
-134 72 -140 0 -7 -52 -93 -116 -192 -69 -107 -117 -190 -117 -205 0 -19 18
-39 78 -86 42 -34 84 -62 92 -62 8 1 51 20 94 44 l79 44 144 -181 c149 -189
171 -211 194 -202 8 4 58 60 112 126 71 86 105 119 121 119 14 0 44 -25 89
-75 l68 -75 145 0 144 0 0 -44 c0 -39 4 -48 33 -68 25 -18 49 -24 118 -28 l85
-5 126 -94 125 -93 6 -102 c8 -131 16 -166 35 -166 8 0 48 18 89 40 70 39 75
40 116 29 23 -6 92 -38 153 -70 l111 -59 205 0 205 0 79 60 c70 53 84 60 125
60 39 0 61 -9 135 -54 49 -30 101 -58 117 -61 l27 -7 0 86 c0 76 -4 94 -29
145 l-30 58 30 29 c48 46 38 61 -84 114 l-108 47 63 38 c35 21 66 43 70 49 4
6 8 32 8 57 0 46 1 47 42 64 46 18 58 30 58 59 0 10 -41 131 -92 270 -86 238
-95 258 -179 386 -68 103 -91 148 -99 190 -27 137 -13 121 -234 257 -110 68
-207 123 -215 123 -9 0 -42 -16 -74 -35 -45 -27 -69 -35 -106 -35 -28 0 -53
-6 -59 -13 -6 -7 -13 -64 -14 -126 l-3 -114 -230 -88 c-126 -49 -235 -88 -241
-89 -20 0 -231 249 -237 280 -4 15 -31 80 -60 143 l-55 115 -53 20 c-30 11
-118 45 -197 76 -79 31 -150 56 -157 56 -8 0 -33 -25 -56 -55 -23 -30 -45 -55
-50 -55 -4 0 -23 10 -42 23 -32 20 -35 27 -41 90 l-7 67 -38 0 c-32 0 -53 -11
-122 -64z m781 -1016 l0 -140 -25 0 c-21 0 -25 5 -25 30 l0 30 -79 -6 -78 -7
-5 27 c-5 25 -4 26 41 26 25 0 63 3 84 6 l37 7 0 83 c0 83 0 84 25 84 l25 0 0
-140z m240 55 c0 -59 -4 -85 -12 -85 -9 0 -9 -3 0 -12 7 -7 12 -24 12 -40 0
-47 -69 -71 -138 -47 -57 20 -54 80 4 99 32 11 34 13 17 25 -15 11 -21 10 -42
-6 -30 -24 -33 -24 -48 0 -11 17 -8 24 17 50 18 17 30 40 30 55 0 21 5 26 24
26 17 0 26 -8 34 -32 5 -18 10 -25 11 -15 1 10 9 17 21 17 15 0 20 7 20 25 0
20 5 25 25 25 25 0 25 -1 25 -85z m-322 45 c26 -25 29 -76 5 -102 -19 -21 -81
-24 -106 -5 -9 6 -20 26 -23 44 -13 65 74 109 124 63z m552 -25 c0 -33 4 -45
15 -45 9 0 15 -9 15 -25 0 -23 -4 -25 -45 -25 -41 0 -45 -2 -45 -25 0 -20 -5
-25 -25 -25 -20 0 -25 5 -25 25 0 23 -3 25 -50 25 -47 0 -50 2 -50 25 0 25 1
25 80 25 79 0 80 0 80 25 0 24 -2 25 -65 25 -58 0 -65 2 -65 20 0 19 7 20 90
20 l90 0 0 -45z m-130 -135 c0 -17 8 -19 68 -22 61 -3 67 -5 70 -25 3 -22 1
-23 -92 -23 l-96 0 0 45 c0 41 2 45 25 45 18 0 25 -5 25 -20z"/>
<path d="M4213 5365 c13 -9 17 -20 12 -34 -4 -12 -2 -21 4 -21 6 0 11 16 11
35 0 30 -3 35 -22 35 -22 -1 -22 -1 -5 -15z"/>
<path d="M4180 5260 c-13 -9 -13 -11 0 -20 21 -14 55 -8 55 10 0 18 -34 24
-55 10z"/>
<path d="M3903 5384 c-8 -21 13 -42 28 -27 13 13 5 43 -11 43 -6 0 -13 -7 -17
-16z"/>
</g>
</svg>
