<?xml version="1.0" standalone="no"?>
<!DOCTYPE svg PUBLIC "-//W3C//DTD SVG 20010904//EN"
 "http://www.w3.org/TR/2001/REC-SVG-20010904/DTD/svg10.dtd">
<svg version="1.0" xmlns="http://www.w3.org/2000/svg"
 width="992.000000pt" height="1100.000000pt" viewBox="0 0 992.000000 1100.000000"
 preserveAspectRatio="xMidYMid meet">

<g transform="translate(0.000000,1100.000000) scale(0.100000,-0.100000)"
fill="#000000" stroke="none">
<path d="M3671 4694 c-41 -34 -78 -56 -100 -60 -45 -8 -61 -21 -61 -47 0 -11
-9 -35 -21 -54 -28 -45 -20 -63 29 -63 l39 0 7 -77 c3 -42 6 -92 6 -112 0 -20
19 -82 45 -141 43 -102 45 -105 82 -113 21 -4 54 -7 73 -5 31 3 35 6 35 31 -1
24 5 29 44 41 45 13 45 13 73 96 15 46 32 88 38 94 17 17 11 47 -20 98 -16 26
-30 57 -30 67 0 10 -7 21 -14 24 -22 9 -42 54 -66 148 -22 84 -49 130 -79 128
-9 0 -45 -25 -80 -55z m13 -256 c8 -6 8 -10 0 -15 -6 -5 -14 -15 -17 -23 -3
-8 -5 5 -5 30 0 25 2 38 5 30 3 -8 11 -18 17 -22z m106 -8 c0 -22 -4 -40 -10
-40 -5 0 -10 4 -10 9 0 6 -16 7 -35 4 -34 -5 -35 -5 -35 27 0 31 1 32 35 28
19 -2 35 0 35 4 0 4 5 8 10 8 6 0 10 -18 10 -40z m-151 8 c-1 -16 -3 -18 -6
-6 -2 9 -14 19 -26 21 -18 4 -17 5 6 6 22 1 27 -3 26 -21z m217 -3 c-3 -8 2
-19 9 -25 8 -7 12 -16 9 -21 -3 -5 0 -9 7 -9 7 0 9 -3 6 -6 -4 -4 -13 -1 -22
6 -13 11 -19 10 -35 -5 -11 -10 -20 -13 -20 -8 0 6 7 16 15 23 8 7 15 26 15
42 0 18 4 27 11 23 6 -4 8 -13 5 -20z m-242 -20 c3 -9 0 -15 -8 -15 -7 0 -13
7 -13 15 0 8 4 15 8 15 4 0 9 -7 13 -15z m298 -45 c3 -16 1 -30 -4 -30 -4 0
-8 14 -8 30 0 17 2 30 4 30 2 0 6 -13 8 -30z m-255 9 c6 -6 9 -18 6 -25 -7
-20 -62 -18 -70 2 -10 28 41 46 64 23z m122 2 c23 -15 5 -41 -29 -41 -19 0
-33 6 -37 16 -6 17 12 34 37 34 8 0 21 -4 29 -9z"/>
<path d="M3723 4443 c-18 -7 -16 -23 2 -23 8 0 15 7 15 15 0 8 -1 15 -2 14 -2
0 -9 -3 -15 -6z"/>
<path d="M3610 4360 c0 -5 9 -10 19 -10 11 0 23 5 26 10 4 6 -5 10 -19 10 -14
0 -26 -4 -26 -10z"/>
<path d="M3730 4360 c0 -5 9 -10 20 -10 11 0 20 5 20 10 0 6 -9 10 -20 10 -11
0 -20 -4 -20 -10z"/>
</g>
</svg>
