<?xml version="1.0" standalone="no"?>
<!DOCTYPE svg PUBLIC "-//W3C//DTD SVG 20010904//EN"
 "http://www.w3.org/TR/2001/REC-SVG-20010904/DTD/svg10.dtd">
<svg version="1.0" xmlns="http://www.w3.org/2000/svg"
 width="992.000000pt" height="1100.000000pt" viewBox="0 0 992.000000 1100.000000"
 preserveAspectRatio="xMidYMid meet">

<g transform="translate(0.000000,1100.000000) scale(0.100000,-0.100000)"
fill="#000000" stroke="none">
<path d="M4023 3791 c-38 -45 -67 -70 -83 -73 -21 -2 -38 -27 -98 -134 -64
-116 -72 -136 -67 -167 l7 -35 97 -7 97 -7 29 -54 c27 -50 32 -54 66 -54 73 0
99 10 100 39 1 44 14 64 50 76 33 11 34 13 40 78 5 56 11 72 42 110 29 36 38
57 43 102 l7 57 -69 69 -68 69 -67 0 -67 0 -59 -69z m-53 -214 c0 -13 5 -28
12 -35 9 -9 6 -12 -15 -12 -17 0 -27 -5 -27 -15 0 -8 -4 -15 -10 -15 -5 0 -10
7 -10 15 0 8 -9 15 -20 15 -11 0 -20 5 -20 10 0 6 16 10 35 10 24 0 35 5 35
15 0 9 -9 15 -25 15 -14 0 -25 5 -25 10 0 6 16 10 35 10 30 0 35 -3 35 -23z
m240 -42 c0 -37 -4 -65 -10 -65 -5 0 -10 5 -10 11 0 6 -7 18 -16 26 -13 13
-20 14 -35 5 -10 -7 -19 -8 -19 -3 0 6 5 13 10 16 6 3 10 19 10 36 0 16 5 29
10 29 6 0 10 -8 10 -18 0 -10 7 -27 15 -38 13 -18 14 -16 15 24 0 23 5 42 10
42 6 0 10 -28 10 -65z m-124 20 c0 -23 -4 -35 -13 -35 -22 0 -15 -18 10 -23
12 -2 -3 -4 -33 -4 -30 0 -45 2 -32 4 12 2 22 8 22 13 0 4 -10 11 -22 15 -14
4 -18 8 -10 12 6 2 12 13 12 23 0 10 -6 21 -12 23 -7 3 7 6 32 6 45 1 45 1 46
-34z m-176 -50 c0 -10 10 -15 30 -15 17 0 30 -4 30 -10 0 -5 -18 -10 -40 -10
-36 0 -40 3 -40 25 0 14 5 25 10 25 6 0 10 -7 10 -15z"/>
<path d="M4040 3560 c0 -11 5 -20 10 -20 6 0 10 9 10 20 0 11 -4 20 -10 20 -5
0 -10 -9 -10 -20z"/>
</g>
</svg>
