<?xml version="1.0" standalone="no"?>
<!DOCTYPE svg PUBLIC "-//W3C//DTD SVG 20010904//EN"
 "http://www.w3.org/TR/2001/REC-SVG-20010904/DTD/svg10.dtd">
<svg version="1.0" xmlns="http://www.w3.org/2000/svg"
 width="992.000000pt" height="1100.000000pt" viewBox="0 0 992.000000 1100.000000"
 preserveAspectRatio="xMidYMid meet">

<g transform="translate(0.000000,1100.000000) scale(0.100000,-0.100000)"
fill="#000000" stroke="none">
<path d="M5424 4602 c-12 -2 -36 -19 -54 -38 -31 -31 -39 -34 -92 -34 l-57 0
-62 -80 c-50 -64 -68 -81 -96 -86 -36 -7 -53 -28 -53 -68 0 -25 -2 -26 -70
-26 -88 0 -105 -16 -115 -103 -15 -146 -25 -179 -67 -229 -36 -44 -40 -53 -35
-89 3 -22 14 -50 24 -61 20 -23 172 -101 216 -112 16 -4 42 -22 59 -41 24 -28
38 -35 65 -35 28 0 54 -14 122 -63 47 -35 91 -67 97 -70 6 -4 42 4 80 17 l69
23 0 71 0 71 48 22 c41 20 53 33 88 95 27 50 51 80 77 95 51 32 54 38 26 74
l-24 32 21 62 c16 47 34 74 70 109 l48 47 7 116 7 117 -48 80 c-54 91 -77 109
-120 92 -21 -8 -49 -8 -104 0 -42 6 -83 12 -91 13 -8 2 -24 1 -36 -1z m-246
-564 c-3 -79 -11 -87 -65 -73 -20 5 -24 11 -21 30 3 15 1 22 -5 18 -7 -4 -7 3
-3 18 4 13 10 34 13 47 6 24 28 30 37 10 3 -9 8 -8 16 5 22 34 31 17 28 -55z
m127 45 c12 -18 14 -28 7 -31 -7 -2 -12 -23 -12 -48 l0 -45 -47 3 -48 3 -3 68
c-2 42 1 67 8 67 5 0 10 -12 10 -26 0 -21 4 -25 23 -22 16 2 23 11 25 31 4 34
15 34 37 0z m115 -53 c0 -40 -4 -70 -10 -70 -6 0 -10 30 -10 70 0 40 4 70 10
70 6 0 10 -30 10 -70z m-50 34 c0 -14 5 -34 11 -46 14 -26 1 -38 -16 -15 -11
15 -13 16 -19 2 -5 -15 -36 -22 -36 -7 0 4 7 16 15 26 8 11 15 30 15 43 0 14
6 23 15 23 9 0 15 -10 15 -26z"/>
<path d="M5128 3993 c7 -3 16 -2 19 1 4 3 -2 6 -13 5 -11 0 -14 -3 -6 -6z"/>
<path d="M5230 3990 c0 -5 9 -10 20 -10 11 0 20 5 20 10 0 6 -9 10 -20 10 -11
0 -20 -4 -20 -10z"/>
</g>
</svg>
