<?xml version="1.0" standalone="no"?>
<!DOCTYPE svg PUBLIC "-//W3C//DTD SVG 20010904//EN"
 "http://www.w3.org/TR/2001/REC-SVG-20010904/DTD/svg10.dtd">
<svg version="1.0" xmlns="http://www.w3.org/2000/svg"
 width="992.000000pt" height="1100.000000pt" viewBox="0 0 992.000000 1100.000000"
 preserveAspectRatio="xMidYMid meet">

<g transform="translate(0.000000,1100.000000) scale(0.100000,-0.100000)"
fill="#000000" stroke="none">
<path d="M5137 10974 l-77 -25 -30 -59 c-23 -46 -36 -60 -53 -61 -12 0 -42 -6
-66 -12 -39 -11 -47 -18 -80 -77 -33 -57 -41 -66 -82 -78 -44 -14 -47 -18 -93
-109 l-47 -95 -37 7 c-37 6 -40 4 -130 -86 -51 -50 -92 -95 -92 -100 0 -4 11
-21 24 -36 l25 -28 -50 -93 c-27 -51 -49 -99 -49 -107 0 -8 22 -33 49 -56 l49
-42 -15 -32 c-14 -29 -22 -33 -78 -43 -57 -9 -74 -19 -178 -97 -86 -65 -119
-96 -132 -126 -20 -44 -22 -45 -72 -24 -19 8 -41 15 -47 15 -20 0 -106 -190
-106 -232 0 -27 -11 -52 -41 -95 -41 -58 -41 -58 -35 -130 6 -71 5 -72 -25
-97 -17 -15 -43 -26 -59 -26 -26 0 -34 -9 -70 -72 -22 -40 -40 -83 -40 -95 0
-12 -3 -29 -6 -38 -11 -28 -85 -59 -153 -65 l-65 -5 -23 -60 c-38 -99 -25
-124 40 -73 l37 30 14 -34 c7 -18 17 -45 22 -60 11 -32 104 -148 120 -148 25
0 103 62 115 93 20 49 58 107 75 114 9 3 38 -17 79 -56 63 -61 63 -61 123 -61
70 0 72 2 72 98 1 43 6 74 15 87 15 19 16 19 48 1 17 -11 59 -37 92 -58 52
-34 65 -39 98 -34 60 10 141 62 191 123 43 52 46 59 46 114 0 45 4 61 16 66
23 9 54 -31 54 -71 0 -32 6 -39 75 -88 69 -49 74 -55 69 -83 -13 -72 -26 -95
-75 -129 -27 -20 -49 -42 -49 -50 0 -7 -27 -49 -60 -92 -33 -43 -60 -82 -60
-86 0 -4 10 -14 23 -22 37 -24 213 -96 233 -95 27 1 124 118 124 149 0 32 6
40 62 79 35 25 48 41 53 68 15 81 14 80 102 71 72 -8 155 -36 168 -59 16 -24
25 -3 25 56 0 65 0 65 35 79 33 14 38 13 90 -10 l55 -25 77 54 78 54 -2 87
c-2 73 -7 95 -28 133 -16 29 -25 61 -25 89 0 47 4 43 -88 64 l-53 12 3 56 c3
55 3 56 43 69 26 8 49 26 64 49 35 50 65 44 69 -13 2 -24 6 -43 10 -43 4 0 32
8 62 17 30 9 93 19 140 22 l85 6 3 77 c2 63 -1 85 -18 118 -17 34 -21 57 -19
126 l2 85 -38 39 -37 38 7 208 c7 213 7 212 49 269 7 9 0 24 -22 49 -26 30
-32 45 -32 84 0 37 -7 58 -34 98 -25 38 -37 69 -46 128 -19 114 -49 128 -181
80 -113 -41 -129 -23 -129 150 0 76 -2 82 -41 143 -23 35 -46 63 -53 62 -6 0
-46 -12 -89 -25z m-389 -1262 c3 -67 1 -72 -18 -72 -15 0 -20 6 -20 25 0 28
-3 29 -31 15 -10 -6 -19 -20 -19 -30 0 -17 7 -20 45 -20 33 0 45 -4 45 -15 0
-12 -13 -15 -60 -15 l-60 0 0 37 c0 20 -7 45 -17 55 -13 15 -15 25 -7 46 9 24
14 27 54 26 29 -1 48 4 53 13 18 31 32 5 35 -65z m82 63 c0 -8 7 -15 15 -15 8
0 15 -4 15 -10 0 -5 5 -10 10 -10 6 0 10 9 10 20 0 11 5 20 10 20 6 0 10 -30
10 -70 0 -40 -4 -70 -10 -70 -5 0 -10 14 -10 30 0 41 -1 43 -19 57 -23 18 -26
16 -29 -13 -2 -22 1 -24 21 -19 21 7 21 6 5 -11 -14 -14 -20 -15 -33 -4 -8 7
-19 9 -23 5 -4 -4 -1 -10 6 -12 6 -3 12 -13 12 -24 0 -16 7 -19 45 -19 33 0
45 -4 45 -15 0 -12 -13 -15 -60 -15 l-60 0 0 36 c0 19 -4 33 -9 29 -5 -3 -13
0 -17 6 -4 6 1 16 10 21 20 11 21 34 1 42 -22 8 -18 26 5 26 11 0 20 7 20 15
0 8 7 15 15 15 8 0 15 -7 15 -15z m220 -30 c0 -19 5 -35 10 -35 6 0 10 -7 10
-15 0 -10 -10 -15 -30 -15 -23 0 -30 -4 -30 -20 0 -11 -7 -20 -15 -20 -8 0
-15 9 -15 20 0 16 -7 20 -30 20 -20 0 -30 5 -30 15 0 11 12 15 50 15 43 0 50
3 50 20 0 17 -7 20 -40 20 -29 0 -40 4 -40 15 0 12 13 15 55 15 l55 0 0 -35z
m-90 -94 c0 -17 8 -20 48 -23 64 -4 55 -22 -13 -26 l-55 -3 0 36 c0 19 5 35
10 35 6 0 10 -9 10 -19z m-340 -866 c19 -23 8 -26 -19 -4 -16 13 -18 19 -8 19
8 0 20 -7 27 -15z m-1295 -75 c-3 -5 -10 -10 -16 -10 -5 0 -9 5 -9 10 0 6 7
10 16 10 8 0 12 -4 9 -10z"/>
<path d="M4640 9726 c0 -9 7 -16 16 -16 17 0 14 22 -4 28 -7 2 -12 -3 -12 -12z"/>
</g>
</svg>
