<?xml version="1.0" standalone="no"?>
<!DOCTYPE svg PUBLIC "-//W3C//DTD SVG 20010904//EN"
 "http://www.w3.org/TR/2001/REC-SVG-20010904/DTD/svg10.dtd">
<svg version="1.0" xmlns="http://www.w3.org/2000/svg"
 width="992.000000pt" height="1100.000000pt" viewBox="0 0 992.000000 1100.000000"
 preserveAspectRatio="xMidYMid meet">

<g transform="translate(0.000000,1100.000000) scale(0.100000,-0.100000)"
fill="#000000" stroke="none">
<path d="M4896 8589 c-3 -8 -12 -39 -21 -70 -14 -49 -22 -61 -64 -90 -41 -27
-50 -39 -55 -72 -5 -28 -22 -57 -56 -97 l-50 -58 25 -110 c14 -61 25 -113 25
-115 0 -2 38 -21 85 -42 l85 -38 47 -89 47 -88 85 0 c86 0 87 0 153 -45 37
-25 72 -45 77 -45 6 0 40 21 78 48 37 26 89 58 117 72 46 23 51 30 77 97 l29
73 -27 62 c-31 75 -40 83 -96 92 -23 4 -52 14 -64 21 -22 15 -22 15 -26 -63
l-3 -77 -1 87 0 86 -70 91 -70 92 -14 110 -13 111 -51 22 c-28 13 -84 26 -125
30 -41 4 -85 10 -97 13 -14 3 -25 0 -27 -8z m244 -475 c0 -11 6 -15 20 -11 11
3 18 1 14 -4 -3 -5 -12 -9 -20 -9 -22 0 -17 -27 8 -44 l22 -16 -22 0 c-12 0
-22 5 -22 12 0 6 -9 3 -20 -7 -11 -10 -23 -15 -27 -11 -5 4 0 12 10 17 22 13
22 49 0 50 -17 1 -17 2 0 6 9 2 17 11 17 19 0 8 5 14 10 14 6 0 10 -7 10 -16z
m80 -48 c0 -36 -4 -68 -10 -71 -6 -4 -10 8 -10 29 0 27 -4 36 -17 37 -17 1
-17 2 0 6 11 3 17 14 17 34 0 16 5 29 10 29 6 0 10 -28 10 -64z m-320 44 c0
-5 -20 -10 -45 -10 -25 0 -45 -4 -45 -10 0 -5 21 -10 46 -10 27 0 43 -4 39
-10 -3 -5 -15 -10 -26 -10 -10 0 -19 -5 -19 -11 0 -7 11 -9 30 -6 16 4 32 2
35 -3 4 -6 -23 -10 -69 -10 -43 0 -76 4 -76 10 0 5 13 7 30 4 19 -4 30 -2 30
5 0 6 -9 11 -20 11 -16 0 -20 7 -20 30 0 30 1 30 55 30 30 0 55 -4 55 -10z
m150 0 c0 -5 -18 -10 -40 -10 -29 0 -40 -4 -40 -15 0 -11 11 -15 40 -15 22 0
40 -4 40 -10 0 -5 -25 -10 -55 -10 l-55 0 0 35 0 35 55 0 c30 0 55 -4 55 -10z
m250 -30 c0 -21 9 -39 26 -55 20 -18 23 -25 11 -25 -8 0 -22 7 -30 15 -13 13
-17 12 -30 -8 -21 -32 -34 -12 -14 22 9 16 17 41 17 55 0 14 5 26 10 26 6 0
10 -14 10 -30z m-230 -60 c0 -5 -13 -10 -30 -10 -25 0 -30 -4 -30 -25 0 -14
-4 -25 -10 -25 -5 0 -10 11 -10 25 0 21 -5 25 -30 25 -16 0 -30 5 -30 10 0 6
30 10 70 10 40 0 70 -4 70 -10z m-195 -14 c26 -19 13 -46 -24 -46 -56 0 -77
20 -49 48 16 16 50 15 73 -2z m255 -11 c0 -11 12 -15 45 -15 25 0 45 -4 45
-10 0 -5 -25 -10 -55 -10 -52 0 -55 1 -55 25 0 14 5 25 10 25 6 0 10 -7 10
-15z"/>
<path d="M4806 7992 c-7 -12 17 -22 51 -22 36 0 24 24 -14 28 -17 2 -34 -1
-37 -6z"/>
</g>
</svg>
