<?xml version="1.0" standalone="no"?>
<!DOCTYPE svg PUBLIC "-//W3C//DTD SVG 20010904//EN"
 "http://www.w3.org/TR/2001/REC-SVG-20010904/DTD/svg10.dtd">
<svg version="1.0" xmlns="http://www.w3.org/2000/svg"
 width="992.000000pt" height="1100.000000pt" viewBox="0 0 992.000000 1100.000000"
 preserveAspectRatio="xMidYMid meet">

<g transform="translate(0.000000,1100.000000) scale(0.100000,-0.100000)"
fill="#000000" stroke="none">
<path d="M4690 2416 c-62 -28 -79 -42 -98 -75 -13 -23 -29 -41 -37 -41 -7 0
-16 -7 -19 -16 -16 -41 -6 -53 94 -113 56 -34 103 -61 105 -61 12 0 3 29 -10
34 -8 3 -15 17 -15 31 0 24 3 26 38 23 33 -3 37 -6 38 -30 1 -17 -4 -28 -12
-28 -23 0 -16 -28 9 -34 12 -3 -4 -3 -35 -1 -32 2 -58 -1 -58 -6 0 -5 9 -9 19
-9 15 0 24 -15 40 -69 12 -38 21 -73 21 -78 0 -14 66 -83 79 -83 7 0 24 6 40
14 25 13 31 13 70 -10 34 -19 57 -24 111 -24 70 0 80 6 80 48 0 9 16 33 36 53
35 36 36 39 30 92 -4 30 -13 61 -19 69 -7 8 -42 27 -79 43 l-66 27 -7 69 c-4
39 -13 73 -21 80 -8 6 -14 17 -14 23 0 6 -5 28 -11 49 l-10 37 -77 -1 c-42 0
-93 4 -112 10 -19 6 -35 11 -35 11 0 0 -34 -16 -75 -34z m172 -246 c4 -36 22
-31 26 8 4 36 21 44 23 10 3 -57 -8 -99 -18 -70 -3 6 -11 12 -18 12 -18 0 -42
41 -37 64 5 23 19 9 24 -24z m116 1 c-1 -16 4 -37 12 -47 14 -16 13 -16 -8 -5
-20 11 -26 10 -38 -6 -10 -14 -13 -15 -13 -3 0 8 6 24 14 34 8 11 15 28 15 38
0 10 5 18 10 18 6 0 9 -13 8 -29z m39 -63 c-2 -18 -4 -4 -4 32 0 36 2 50 4 33
2 -18 2 -48 0 -65z m-182 42 c-3 -5 -11 -10 -16 -10 -6 0 -7 5 -4 10 3 6 11
10 16 10 6 0 7 -4 4 -10z m12 -43 c-3 -9 5 -12 29 -9 21 3 34 0 34 -7 0 -6
-17 -11 -40 -11 -33 0 -40 3 -40 20 0 11 5 20 11 20 6 0 9 -6 6 -13z"/>
<path d="M4727 2184 c-16 -16 -6 -34 19 -34 19 0 25 5 22 17 -3 19 -29 29 -41
17z"/>
</g>
</svg>
