<?xml version="1.0" standalone="no"?>
<!DOCTYPE svg PUBLIC "-//W3C//DTD SVG 20010904//EN"
 "http://www.w3.org/TR/2001/REC-SVG-20010904/DTD/svg10.dtd">
<svg version="1.0" xmlns="http://www.w3.org/2000/svg"
 width="992.000000pt" height="1100.000000pt" viewBox="0 0 992.000000 1100.000000"
 preserveAspectRatio="xMidYMid meet">

<g transform="translate(0.000000,1100.000000) scale(0.100000,-0.100000)"
fill="#000000" stroke="none">
<path d="M4340 4392 c-16 -20 -42 -37 -70 -45 -45 -13 -45 -13 -97 25 -29 21
-56 38 -60 38 -4 0 -32 -23 -62 -50 -44 -42 -59 -50 -91 -50 l-38 0 -28 -82
c-15 -46 -32 -86 -38 -90 -6 -4 -28 -10 -48 -13 -25 -5 -38 -12 -38 -22 0 -38
43 -269 52 -280 6 -7 16 -13 23 -13 8 0 21 -21 31 -47 24 -62 35 -73 77 -73
31 0 41 8 88 64 l54 65 54 0 c53 1 56 0 117 -59 72 -69 113 -81 115 -32 1 44
5 58 59 192 l52 129 -20 29 c-12 15 -39 50 -61 77 l-40 49 -3 110 -3 111 -25
-33z m-273 -292 c5 -20 6 -20 25 -3 16 14 23 15 39 5 11 -7 19 -8 19 -2 0 15
19 12 36 -4 16 -17 19 -56 4 -56 -5 0 -10 -13 -10 -30 0 -24 -5 -31 -27 -36
-35 -9 -58 7 -58 41 0 35 -24 47 -27 13 0 -12 -1 -31 0 -40 1 -15 -6 -18 -43
-18 -43 0 -45 1 -45 29 0 17 -4 33 -10 36 -18 11 -11 54 11 65 16 9 25 8 40
-6 18 -16 19 -16 19 4 0 28 20 29 27 2z m241 -58 c2 -60 0 -72 -13 -72 -8 0
-15 6 -15 13 0 6 -11 17 -25 23 -19 9 -27 9 -36 -3 -20 -24 -34 2 -15 28 9 13
16 34 16 46 0 14 6 23 15 23 8 0 15 -8 15 -18 0 -10 7 -27 15 -38 13 -18 14
-15 15 29 0 34 4 47 13 45 8 -3 13 -30 15 -76z"/>
<path d="M3982 4068 c6 -18 28 -21 28 -4 0 9 -7 16 -16 16 -9 0 -14 -5 -12
-12z"/>
<path d="M4143 4055 c-9 -20 -8 -25 3 -25 8 0 14 10 14 25 0 31 -2 31 -17 0z"/>
<path d="M4018 4031 c-23 -23 -23 -31 2 -31 15 0 20 7 20 25 0 29 0 29 -22 6z"/>
</g>
</svg>
