<?xml version="1.0" standalone="no"?>
<!DOCTYPE svg PUBLIC "-//W3C//DTD SVG 20010904//EN"
 "http://www.w3.org/TR/2001/REC-SVG-20010904/DTD/svg10.dtd">
<svg version="1.0" xmlns="http://www.w3.org/2000/svg"
 width="992.000000pt" height="1100.000000pt" viewBox="0 0 992.000000 1100.000000"
 preserveAspectRatio="xMidYMid meet">

<g transform="translate(0.000000,1100.000000) scale(0.100000,-0.100000)"
fill="#000000" stroke="none">
<path d="M6251 7028 c-34 -90 -36 -92 -135 -147 l-98 -53 -55 53 c-52 52 -55
53 -69 35 -11 -16 -30 -21 -102 -24 l-88 -4 -29 -52 c-15 -28 -29 -52 -29 -53
-1 -1 -30 7 -65 17 -79 25 -79 25 -92 -3 -7 -16 -29 -30 -64 -42 l-53 -18 -16
-82 c-12 -68 -22 -92 -56 -138 -35 -46 -53 -60 -115 -87 -40 -17 -85 -45 -101
-61 l-27 -28 41 -38 41 -38 5 -149 c3 -104 9 -153 18 -161 7 -7 36 -24 64 -39
l51 -27 82 21 c76 19 85 20 107 5 27 -17 29 -32 13 -88 -10 -37 3 -136 21
-162 4 -5 13 -26 19 -45 7 -22 25 -44 47 -58 26 -17 34 -28 29 -40 -9 -23 -9
-22 0 -59 4 -18 12 -33 17 -33 5 0 34 21 64 46 l53 46 68 -16 c62 -14 73 -20
123 -73 36 -38 72 -94 104 -157 41 -83 55 -103 92 -125 24 -14 89 -57 145 -96
101 -70 102 -70 129 -140 23 -62 29 -70 51 -68 25 3 108 87 109 111 0 6 -10
12 -21 12 -21 0 -22 3 -15 77 8 86 17 109 47 118 13 4 18 12 15 22 -19 50 -16
60 73 204 l90 146 7 93 7 93 103 141 104 141 0 93 c0 81 -3 97 -25 132 -14 22
-25 50 -25 63 0 15 -14 35 -39 55 -37 30 -38 33 -45 109 -10 111 -14 122 -51
137 -28 12 -36 25 -74 127 -23 63 -50 122 -59 132 -9 10 -55 47 -103 83 l-88
65 -58 -6 c-56 -7 -59 -5 -87 24 -35 37 -44 38 -55 9z m-331 -848 c0 -24 13
-26 34 -5 20 20 63 19 75 -2 9 -16 10 -16 11 5 0 13 6 22 15 22 8 0 15 -7 15
-15 0 -8 7 -15 15 -15 21 0 19 -20 -2 -21 -17 -1 -17 -2 0 -6 22 -6 23 -33 1
-33 -13 0 -15 -7 -11 -34 6 -40 -15 -66 -54 -66 -40 0 -63 22 -57 55 4 19 0
33 -13 46 -11 11 -21 19 -24 19 -2 0 -5 -26 -7 -57 l-3 -58 -57 -3 c-55 -3
-58 -2 -58 20 0 13 -3 53 -7 91 -5 58 -4 67 11 67 11 0 16 -9 16 -31 0 -28 3
-31 23 -25 12 3 25 6 30 6 4 0 7 14 7 30 0 23 4 30 20 30 13 0 20 -7 20 -20z
m478 -72 c-2 -75 -6 -93 -18 -93 -8 0 -16 9 -18 20 -1 11 -15 26 -29 32 -22
11 -28 10 -39 -5 -11 -14 -16 -15 -33 -4 -12 6 -32 12 -46 12 -20 0 -25 -5
-25 -25 0 -16 -6 -25 -15 -25 -9 0 -15 9 -15 25 0 21 -5 25 -31 25 -28 0 -31
3 -25 23 3 12 6 25 6 30 0 4 12 13 28 19 l27 12 -27 4 c-16 2 -28 10 -28 18 0
11 15 14 65 14 51 0 65 -3 65 -15 0 -10 -10 -15 -27 -15 l-28 -1 26 -14 c15
-8 30 -27 34 -42 l7 -28 19 24 c10 13 19 36 19 52 0 41 26 37 34 -5 4 -19 13
-39 21 -46 13 -11 15 -5 15 37 0 52 5 63 27 63 11 0 13 -19 11 -92z"/>
<path d="M5974 6149 c-3 -6 -2 -15 2 -19 12 -12 38 5 30 19 -9 14 -23 14 -32
0z"/>
<path d="M6022 6105 c-11 -12 -10 -15 3 -15 8 0 15 7 15 15 0 18 -2 18 -18 0z"/>
<path d="M5843 6053 c9 -2 23 -2 30 0 6 3 -1 5 -18 5 -16 0 -22 -2 -12 -5z"/>
<path d="M5995 6050 c3 -5 12 -10 20 -10 8 0 17 5 20 10 4 6 -5 10 -20 10 -15
0 -24 -4 -20 -10z"/>
<path d="M6152 6115 c-11 -13 -7 -15 25 -15 34 0 36 1 17 15 -24 18 -26 18
-42 0z"/>
</g>
</svg>
