<?xml version="1.0" standalone="no"?>
<!DOCTYPE svg PUBLIC "-//W3C//DTD SVG 20010904//EN"
 "http://www.w3.org/TR/2001/REC-SVG-20010904/DTD/svg10.dtd">
<svg version="1.0" xmlns="http://www.w3.org/2000/svg"
 width="992.000000pt" height="1100.000000pt" viewBox="0 0 992.000000 1100.000000"
 preserveAspectRatio="xMidYMid meet">

<g transform="translate(0.000000,1100.000000) scale(0.100000,-0.100000)"
fill="#000000" stroke="none">
<path d="M4391 8279 c-12 -17 -28 -49 -35 -72 -10 -35 -17 -43 -48 -52 -20 -5
-39 -13 -43 -17 -3 -3 3 -25 15 -49 l22 -43 -21 -42 c-13 -29 -24 -81 -32
-156 -9 -89 -20 -136 -52 -221 -44 -119 -37 -113 -113 -91 -17 5 -29 -5 -63
-53 -41 -57 -42 -59 -35 -113 5 -30 9 -104 9 -165 l1 -110 85 -21 c57 -15 85
-27 87 -37 2 -9 -6 -59 -17 -111 -12 -53 -21 -125 -21 -160 0 -45 -6 -75 -19
-98 -14 -25 -20 -61 -24 -158 -6 -115 -9 -130 -40 -195 -57 -120 -61 -133 -48
-162 11 -24 15 -25 64 -19 29 3 80 6 114 6 l63 0 35 69 c51 103 47 102 205 29
57 -26 71 -29 110 -22 43 9 46 12 83 82 50 96 51 154 5 297 -29 87 -33 111
-30 183 l4 82 35 15 c55 23 148 20 185 -7 53 -37 102 -28 260 54 108 56 143
79 155 102 30 58 73 201 85 280 11 78 10 84 -20 181 -17 55 -34 111 -37 125
-9 38 -34 63 -106 109 -63 39 -70 41 -145 41 l-79 0 -42 83 c-38 74 -47 85
-85 101 -126 52 -124 50 -137 119 -18 92 -32 135 -50 151 -23 20 -210 96 -236
96 -12 0 -31 -13 -44 -31z m574 -919 c0 -66 -4 -95 -12 -97 -8 -3 -13 5 -13
22 0 16 -4 24 -11 20 -5 -4 -19 1 -29 10 -18 16 -20 16 -35 1 -20 -20 -31 -20
-38 -2 -3 8 3 22 13 31 10 9 22 34 25 56 8 47 35 55 35 10 0 -37 16 -81 30
-81 6 0 10 28 10 66 0 48 3 65 13 62 8 -3 12 -32 12 -98z m-315 73 c25 -21 25
-30 3 -35 -16 -3 -15 -5 2 -9 12 -3 32 -1 45 4 l25 10 -22 4 c-13 3 -23 11
-23 19 0 11 15 14 65 14 50 0 65 -3 65 -14 0 -8 -10 -16 -22 -19 -22 -3 -22
-4 5 -15 19 -8 27 -19 27 -37 0 -21 -5 -25 -30 -25 -28 0 -30 -3 -30 -35 0
-24 -5 -35 -15 -35 -10 0 -15 11 -15 35 0 33 -2 35 -31 35 -26 0 -31 3 -26 20
6 24 -6 26 -27 5 -13 -13 -13 -20 -3 -36 10 -17 9 -23 -12 -40 -26 -22 -39
-23 -75 -9 -31 11 -36 54 -9 64 15 6 14 9 -7 19 -28 14 -38 51 -20 73 15 17
61 19 78 2 9 -9 12 -8 12 5 0 22 14 22 40 0z"/>
<path d="M4550 7401 c0 -11 4 -21 9 -21 18 0 21 18 6 30 -13 10 -15 9 -15 -9z"/>
<path d="M4736 7371 c-4 -5 -2 -12 3 -15 5 -4 12 -2 15 3 4 5 2 12 -3 15 -5 4
-12 2 -15 -3z"/>
<path d="M4595 7360 c-3 -5 -1 -10 4 -10 6 0 11 5 11 10 0 6 -2 10 -4 10 -3 0
-8 -4 -11 -10z"/>
<path d="M4573 7303 c9 -2 23 -2 30 0 6 3 -1 5 -18 5 -16 0 -22 -2 -12 -5z"/>
</g>
</svg>
