<?xml version="1.0" standalone="no"?>
<!DOCTYPE svg PUBLIC "-//W3C//DTD SVG 20010904//EN"
 "http://www.w3.org/TR/2001/REC-SVG-20010904/DTD/svg10.dtd">
<svg version="1.0" xmlns="http://www.w3.org/2000/svg"
 width="992.000000pt" height="1100.000000pt" viewBox="0 0 992.000000 1100.000000"
 preserveAspectRatio="xMidYMid meet">

<g transform="translate(0.000000,1100.000000) scale(0.100000,-0.100000)"
fill="#000000" stroke="none">
<path d="M6192 2060 l-51 -41 -3 -92 -3 -91 -130 -52 c-140 -56 -119 -40 -252
-198 l-24 -29 -167 18 c-217 22 -223 22 -237 -32 -12 -51 -20 -59 -65 -70 -34
-9 -35 -11 -35 -59 l0 -49 68 -19 c37 -11 67 -24 67 -28 0 -5 -31 -46 -70 -90
-38 -45 -70 -86 -70 -93 0 -6 15 -26 34 -44 l33 -32 36 17 c33 16 42 16 99 3
58 -13 63 -17 66 -43 2 -18 -4 -36 -18 -51 l-21 -23 25 -51 c14 -27 26 -54 26
-59 0 -5 -31 -26 -70 -47 -72 -40 -82 -55 -56 -90 12 -17 10 -22 -31 -53 -24
-19 -42 -39 -40 -45 2 -7 32 -21 68 -31 54 -16 72 -17 117 -8 l54 11 148 -81
148 -81 16 -56 16 -57 108 -52 c80 -39 118 -52 152 -52 38 0 53 -7 103 -46 32
-26 76 -73 98 -105 22 -33 44 -59 49 -59 5 0 23 12 38 28 37 35 71 126 61 167
-18 77 -18 77 89 115 77 28 108 45 148 82 l50 47 92 5 93 4 74 67 c41 37 75
68 75 69 0 1 -11 39 -24 84 l-25 82 20 45 20 45 92 0 92 0 95 73 95 72 7 104
c8 102 9 105 40 133 29 25 38 27 83 22 47 -5 54 -3 119 43 61 43 71 55 98 116
29 67 29 71 22 183 -6 109 -8 115 -32 128 -15 8 -34 36 -52 77 l-27 63 -109
23 -109 23 -55 60 -55 60 -61 2 c-34 0 -66 -2 -73 -6 -14 -9 -111 -200 -111
-220 0 -8 16 -28 36 -45 32 -29 35 -35 29 -69 -3 -20 -14 -48 -24 -61 -16 -21
-21 -22 -42 -11 -13 7 -43 33 -65 58 l-42 47 -48 -13 c-42 -11 -52 -11 -81 5
-31 17 -34 17 -82 -4 l-50 -21 -58 66 -59 65 -72 -43 c-40 -23 -74 -41 -76
-39 -1 2 -26 43 -55 91 -40 68 -58 89 -79 94 -59 12 -67 20 -92 93 -14 40 -30
77 -36 82 -7 6 -28 -5 -62 -31z m128 -734 c0 -13 6 -26 13 -29 10 -3 10 -9 0
-26 -7 -11 -13 -30 -13 -41 0 -11 -7 -20 -15 -20 -11 0 -15 11 -16 38 0 30 -2
33 -9 16 -4 -12 -15 -24 -24 -27 -9 -4 -16 -16 -16 -27 0 -17 6 -20 45 -20 25
0 45 -4 45 -10 0 -5 -20 -10 -44 -10 -24 0 -51 -3 -60 -6 -13 -5 -16 1 -16 29
0 19 -6 47 -14 62 -33 62 39 119 78 63 l16 -22 0 27 c0 17 5 27 15 27 9 0 15
-9 15 -24z m162 -53 c2 -43 2 -84 0 -91 -6 -18 -50 -26 -81 -16 -34 12 -36 53
-3 70 16 8 19 13 10 17 -7 2 -21 -3 -31 -11 -13 -12 -20 -13 -29 -4 -9 9 -7
17 10 32 12 12 22 32 22 45 0 36 30 33 31 -2 0 -16 3 -22 6 -15 2 6 13 12 24
12 12 0 19 7 19 20 0 11 4 20 9 20 5 0 11 -35 13 -77z m158 -18 c0 -78 -3 -95
-15 -95 -8 0 -15 9 -15 20 0 11 -6 20 -14 20 -8 0 -21 9 -28 19 -14 20 -14 20
-26 0 -13 -20 -42 -26 -42 -8 0 6 9 22 20 36 11 14 20 39 20 54 0 19 5 29 15
29 10 0 15 -10 15 -27 0 -16 9 -41 20 -58 l20 -30 0 68 c0 53 3 67 15 67 12 0
15 -17 15 -95z"/>
<path d="M6226 1303 c-12 -12 -6 -33 9 -33 8 0 15 6 15 14 0 17 -14 28 -24 19z"/>
<path d="M6405 1200 c3 -5 12 -10 20 -10 8 0 17 5 20 10 4 6 -5 10 -20 10 -15
0 -24 -4 -20 -10z"/>
</g>
</svg>
