<?xml version="1.0" standalone="no"?>
<!DOCTYPE svg PUBLIC "-//W3C//DTD SVG 20010904//EN"
 "http://www.w3.org/TR/2001/REC-SVG-20010904/DTD/svg10.dtd">
<svg version="1.0" xmlns="http://www.w3.org/2000/svg"
 width="992.000000pt" height="1100.000000pt" viewBox="0 0 992.000000 1100.000000"
 preserveAspectRatio="xMidYMid meet">

<g transform="translate(0.000000,1100.000000) scale(0.100000,-0.100000)"
fill="#000000" stroke="none">
<path d="M5345 5942 c-38 -9 -73 -20 -77 -26 -3 -5 -14 -39 -23 -74 -16 -64
-16 -65 6 -88 l21 -22 -24 -5 c-12 -2 1 -5 30 -6 l52 -1 0 -34 c0 -19 6 -37
13 -39 6 -3 0 -6 -14 -6 -23 -1 -28 -7 -34 -38 -5 -21 -9 -42 -11 -48 -1 -5
-16 -46 -34 -90 -22 -55 -32 -99 -33 -140 l-2 -60 42 -3 c35 -3 52 4 115 44
40 26 114 65 163 87 109 48 113 51 97 78 -11 17 -11 25 3 45 15 24 14 25 -30
56 -25 17 -45 36 -45 41 0 4 -5 5 -12 1 -6 -4 -8 -3 -5 3 4 6 -3 42 -14 79
-21 67 -22 128 -3 191 5 17 -2 26 -32 47 -43 29 -51 30 -149 8z m152 -334 c-2
-24 -4 -5 -4 42 0 47 2 66 4 43 2 -24 2 -62 0 -85z m-47 82 c0 -27 -3 -30 -30
-30 -23 0 -30 -5 -30 -19 0 -16 8 -21 43 -24 l42 -4 -47 -1 c-47 -2 -48 -1
-48 28 0 27 3 30 30 30 23 0 30 5 30 19 0 15 -8 21 -32 24 -32 4 -32 4 5 5 35
2 37 0 37 -28z"/>
<path d="M5308 5680 c-3 -16 -1 -30 4 -30 4 0 8 14 8 30 0 17 -2 30 -4 30 -2
0 -6 -13 -8 -30z"/>
<path d="M5613 5615 c0 -8 4 -12 9 -9 5 3 6 10 3 15 -9 13 -12 11 -12 -6z"/>
</g>
</svg>
