<?xml version="1.0" standalone="no"?>
<!DOCTYPE svg PUBLIC "-//W3C//DTD SVG 20010904//EN"
 "http://www.w3.org/TR/2001/REC-SVG-20010904/DTD/svg10.dtd">
<svg version="1.0" xmlns="http://www.w3.org/2000/svg"
 width="992.000000pt" height="1100.000000pt" viewBox="0 0 992.000000 1100.000000"
 preserveAspectRatio="xMidYMid meet">

<g transform="translate(0.000000,1100.000000) scale(0.100000,-0.100000)"
fill="#000000" stroke="none">
<path d="M7183 6080 c-95 -66 -105 -70 -155 -70 -65 0 -61 4 -187 -170 l-91
-125 0 -92 c0 -73 -4 -99 -19 -125 -17 -28 -164 -362 -192 -436 -7 -19 -5 -24
18 -33 17 -6 28 -6 32 0 10 16 52 28 108 30 39 2 67 -4 107 -22 65 -30 84 -51
143 -154 l44 -77 -32 -27 -32 -26 32 -53 c31 -50 32 -56 26 -120 -8 -76 -9
-80 -50 -100 -18 -10 -33 -27 -38 -47 -9 -31 -6 -37 85 -140 115 -132 130
-137 198 -68 41 42 47 45 97 45 42 0 76 -10 164 -50 61 -28 116 -50 123 -50 7
0 34 16 60 36 75 57 235 102 271 76 23 -16 45 -81 47 -137 l3 -60 45 3 c25 1
81 3 125 5 84 2 157 21 176 44 21 24 68 14 130 -28 57 -38 63 -40 112 -34 46
6 55 4 72 -15 16 -17 26 -20 60 -14 22 3 49 14 60 24 17 15 30 16 89 10 71 -8
86 -18 86 -57 0 -29 13 -29 66 2 35 21 44 22 54 11 9 -11 7 -24 -10 -56 -17
-33 -20 -55 -18 -123 l3 -82 110 0 c94 0 122 -4 191 -28 l82 -28 51 38 c51 38
52 39 49 88 -2 45 7 68 91 234 l93 184 -11 81 c-5 45 -13 115 -17 156 l-6 74
-67 73 c-60 67 -72 75 -134 94 -58 17 -66 22 -58 37 5 9 76 83 158 164 l148
146 96 16 c53 9 100 16 103 16 11 0 36 66 36 92 -1 18 -20 34 -96 78 -52 30
-100 63 -108 75 -7 11 -32 44 -55 73 l-42 53 -45 -25 -44 -25 -97 45 -98 44
-160 0 -160 0 -115 115 c-76 76 -124 116 -144 121 -16 3 -108 58 -203 120 -95
63 -176 114 -180 114 -3 0 -38 -23 -76 -51 -38 -28 -95 -60 -126 -72 -31 -12
-59 -26 -63 -32 -14 -19 -8 -67 12 -100 l20 -32 -23 -104 -24 -104 -103 -3
-104 -3 -66 -53 -66 -53 -82 21 -82 21 0 153 0 153 -52 57 c-29 31 -81 87
-116 123 l-64 67 17 26 c17 26 17 26 -30 81 -25 30 -48 55 -49 55 -1 0 -48
-31 -103 -70z m1067 -1040 c0 -78 -2 -91 -19 -100 -29 -15 -56 -12 -82 9 -21
17 -22 22 -11 40 11 19 10 21 -8 21 -11 0 -20 7 -20 15 0 8 5 15 10 15 6 0 10
9 10 21 0 15 -4 19 -16 15 -9 -3 -19 -6 -22 -6 -4 0 -1 -4 7 -9 13 -8 13 -12
1 -26 -8 -9 -13 -30 -12 -46 3 -40 -36 -65 -81 -53 -33 10 -49 46 -28 67 7 7
3 15 -12 27 -31 25 -14 74 26 78 41 5 60 -15 54 -55 -3 -18 -2 -33 4 -33 5 0
9 23 9 50 0 53 12 64 36 33 8 -11 13 -13 14 -5 0 8 17 12 50 12 33 0 50 -4 51
-12 0 -7 4 -3 9 10 19 46 30 22 30 -68z m158 40 c-3 -16 -1 -30 4 -30 4 0 8
-7 8 -15 0 -10 -10 -15 -30 -15 -23 0 -30 -4 -30 -20 0 -11 -7 -20 -15 -20 -8
0 -15 9 -15 20 0 16 -7 20 -30 20 -20 0 -30 5 -30 15 0 11 12 15 50 15 38 0
50 4 50 15 0 11 -12 15 -45 15 -33 0 -45 4 -45 15 0 12 14 15 66 15 l66 0 -4
-30z m-98 -90 c0 -17 7 -20 50 -20 38 0 50 -4 50 -15 0 -12 -14 -15 -65 -15
l-65 0 0 35 c0 24 5 35 15 35 8 0 15 -9 15 -20z"/>
<path d="M7990 5066 c0 -9 7 -16 16 -16 17 0 14 22 -4 28 -7 2 -12 -3 -12 -12z"/>
<path d="M8162 5060 c0 -14 2 -19 5 -12 2 6 2 18 0 25 -3 6 -5 1 -5 -13z"/>
<path d="M8160 5010 c0 -5 14 -10 30 -10 17 0 30 5 30 10 0 6 -13 10 -30 10
-16 0 -30 -4 -30 -10z"/>
<path d="M8005 4980 c-8 -13 20 -24 41 -16 20 8 9 26 -16 26 -10 0 -22 -5 -25
-10z"/>
<path d="M8183 4973 c9 -2 23 -2 30 0 6 3 -1 5 -18 5 -16 0 -22 -2 -12 -5z"/>
</g>
</svg>
