<?xml version="1.0" standalone="no"?>
<!DOCTYPE svg PUBLIC "-//W3C//DTD SVG 20010904//EN"
 "http://www.w3.org/TR/2001/REC-SVG-20010904/DTD/svg10.dtd">
<svg version="1.0" xmlns="http://www.w3.org/2000/svg"
 width="992.000000pt" height="1100.000000pt" viewBox="0 0 992.000000 1100.000000"
 preserveAspectRatio="xMidYMid meet">

<g transform="translate(0.000000,1100.000000) scale(0.100000,-0.100000)"
fill="#000000" stroke="none">
<path d="M4716 3766 c-20 -35 -26 -58 -26 -104 0 -55 2 -61 33 -84 27 -22 36
-39 56 -116 13 -50 28 -95 35 -100 6 -5 37 -19 68 -32 l57 -23 11 -56 c16 -84
17 -85 87 -82 54 2 61 0 66 -19 4 -18 -6 -29 -64 -66 l-69 -44 31 -63 c39 -77
36 -74 61 -58 19 12 20 11 15 -11 -4 -12 -7 -30 -7 -38 0 -9 -22 -33 -50 -54
-40 -31 -50 -44 -50 -68 0 -44 23 -80 88 -137 l60 -51 189 0 190 0 12 -67 c7
-36 21 -80 33 -96 19 -26 19 -34 9 -85 -14 -73 -46 -102 -111 -102 l-46 0 -37
-109 c-20 -60 -37 -122 -37 -137 0 -50 -11 -72 -41 -84 -15 -7 -33 -17 -38
-24 -9 -11 84 -275 104 -295 10 -9 39 -14 200 -30 50 -6 115 -13 146 -17 l57
-6 77 94 78 94 137 53 137 53 7 96 c5 67 12 102 23 114 9 10 19 18 22 18 4 0
17 -31 30 -69 l23 -69 51 -13 c50 -14 52 -16 106 -106 30 -51 61 -93 69 -93 9
0 44 16 80 36 l64 36 62 -60 61 -61 44 19 c52 24 65 25 94 5 18 -11 31 -12 57
-5 53 15 63 13 85 -20 11 -16 46 -44 77 -60 l57 -31 30 41 c16 23 35 66 42 97
l13 56 -39 35 -39 36 47 90 c26 50 47 99 47 108 0 10 -22 38 -50 64 l-50 47 0
81 c0 44 -4 86 -8 92 -4 7 -50 17 -102 24 -117 16 -129 24 -122 89 5 54 11 50
-95 66 -38 6 -51 16 -113 86 l-70 80 0 78 c0 66 4 86 25 122 19 34 25 58 25
106 0 57 -2 63 -22 68 -13 2 -54 11 -91 20 l-68 15 -39 -31 c-37 -30 -39 -30
-69 -15 -17 9 -34 16 -38 15 -32 -5 -33 1 -35 289 l-3 287 -56 0 c-51 0 -63 5
-153 63 l-97 63 -70 -23 -69 -22 0 -44 c0 -32 -8 -55 -32 -89 l-31 -46 -28 56
c-16 30 -33 58 -38 61 -5 3 -69 -10 -142 -29 -74 -19 -156 -35 -184 -35 -27 0
-72 -7 -98 -15 l-48 -14 -95 71 c-79 59 -99 70 -122 65 -23 -5 -33 0 -55 28
-18 23 -42 38 -69 46 -23 6 -77 28 -120 50 -43 21 -86 39 -97 39 -12 0 -29
-16 -45 -44z m1234 -1042 c12 -12 12 -18 2 -34 -10 -17 -10 -20 3 -20 8 0 15
-9 15 -20 0 -11 -4 -20 -10 -20 -5 0 -10 -13 -10 -29 0 -31 -14 -41 -59 -41
-38 0 -65 22 -59 48 4 13 0 23 -8 26 -21 8 -17 27 6 33 16 4 18 9 9 19 -15 19
-2 52 24 57 31 7 70 -2 87 -19z m161 9 c1 -29 1 -97 0 -110 0 -7 -5 -13 -11
-13 -6 0 -10 30 -10 70 0 40 4 70 10 70 6 0 10 -8 11 -17z m99 -38 c11 -81 40
-84 40 -4 0 27 5 49 10 49 6 0 10 -37 10 -90 0 -53 -4 -90 -10 -90 -5 0 -10 9
-10 20 0 12 -7 20 -17 20 -9 0 -24 7 -33 15 -15 14 -18 14 -30 0 -14 -17 -40
-20 -40 -4 0 6 9 22 20 36 11 15 20 41 20 60 0 27 4 34 18 31 11 -2 19 -16 22
-43z m-156 29 c25 -10 21 -68 -6 -86 -34 -23 -17 -48 32 -48 22 0 40 -4 40
-10 0 -6 -27 -10 -60 -10 l-60 0 0 33 c0 18 -4 37 -9 43 -43 46 2 101 63 78z"/>
<path d="M5867 2714 c-11 -12 3 -24 29 -24 16 0 24 5 22 13 -5 13 -40 22 -51
11z"/>
<path d="M5878 2663 c6 -2 18 -2 25 0 6 3 1 5 -13 5 -14 0 -19 -2 -12 -5z"/>
<path d="M5870 2600 c0 -5 9 -10 20 -10 11 0 20 5 20 10 0 6 -9 10 -20 10 -11
0 -20 -4 -20 -10z"/>
<path d="M6010 2685 c0 -8 7 -15 15 -15 8 0 15 7 15 15 0 8 -7 15 -15 15 -8 0
-15 -7 -15 -15z"/>
</g>
</svg>
