<?xml version="1.0" standalone="no"?>
<!DOCTYPE svg PUBLIC "-//W3C//DTD SVG 20010904//EN"
 "http://www.w3.org/TR/2001/REC-SVG-20010904/DTD/svg10.dtd">
<svg version="1.0" xmlns="http://www.w3.org/2000/svg"
 width="992.000000pt" height="1100.000000pt" viewBox="0 0 992.000000 1100.000000"
 preserveAspectRatio="xMidYMid meet">

<g transform="translate(0.000000,1100.000000) scale(0.100000,-0.100000)"
fill="#000000" stroke="none">
<path d="M3760 3799 l-45 -49 -119 15 -118 16 -47 -39 c-34 -29 -59 -41 -95
-46 -85 -13 -96 -20 -96 -65 0 -34 -3 -39 -27 -44 -14 -3 -52 -2 -84 0 -56 5
-60 4 -124 -41 -36 -25 -77 -46 -90 -46 -28 0 -99 -88 -107 -132 -6 -34 16
-50 111 -83 36 -13 110 -44 163 -69 75 -35 110 -46 150 -47 29 -1 45 -3 36 -6
-45 -11 -10 -23 80 -25 95 -3 97 -3 100 -28 4 -28 138 -170 161 -170 21 0 119
77 126 99 4 13 19 21 48 26 23 4 76 18 118 32 l76 25 51 -32 c29 -17 60 -30
69 -28 23 4 92 134 92 173 0 50 -19 65 -81 65 l-54 0 -26 54 -26 53 -92 5
c-50 3 -93 8 -96 11 -10 9 4 40 71 157 36 63 65 119 65 125 0 6 -9 28 -19 49
-11 20 -24 50 -30 67 -9 26 -14 29 -53 28 -38 -1 -48 -7 -88 -50z m-430 -334
c0 -14 5 -25 10 -25 6 0 10 -7 10 -15 0 -8 -4 -15 -10 -15 -5 0 -10 -13 -10
-30 0 -20 -5 -30 -15 -30 -10 0 -15 10 -15 33 -1 26 -2 29 -11 15 -5 -10 -17
-18 -24 -18 -8 0 -15 -9 -15 -19 0 -16 8 -20 42 -23 23 -2 43 -9 46 -15 3 -10
-13 -13 -57 -13 l-61 0 0 44 c0 25 -4 48 -10 51 -26 16 6 75 41 75 10 0 25
-10 33 -22 16 -22 16 -22 16 -2 0 11 3 24 7 27 13 14 23 6 23 -18z m160 1 c0
-13 7 -26 15 -30 8 -3 15 -10 15 -16 0 -5 -7 -10 -15 -10 -10 0 -15 -10 -15
-30 0 -20 -5 -30 -15 -30 -8 0 -15 6 -15 13 0 19 -52 40 -64 26 -8 -8 -7 -13
2 -16 6 -3 12 -11 12 -19 0 -10 12 -14 40 -14 29 0 40 -4 40 -15 0 -12 -13
-15 -55 -15 -52 0 -55 1 -55 26 0 14 -7 32 -15 41 -14 14 -14 17 4 29 11 8 22
28 26 44 7 33 25 41 25 11 0 -10 9 -29 20 -42 l19 -24 1 48 c0 35 4 47 15 47
9 0 15 -9 15 -24z m170 -71 c0 -78 -3 -95 -15 -95 -9 0 -15 10 -15 26 0 15 -4
23 -11 19 -5 -4 -19 1 -30 11 -19 18 -21 18 -30 1 -11 -19 -34 -23 -44 -7 -3
5 3 20 14 32 13 13 21 35 21 55 0 26 4 33 20 33 16 0 20 -7 20 -33 0 -21 8
-41 20 -52 20 -18 20 -17 20 43 0 48 3 62 15 62 12 0 15 -17 15 -95z"/>
<path d="M3235 3431 c-7 -12 12 -24 25 -16 11 7 4 25 -10 25 -5 0 -11 -4 -15
-9z"/>
<path d="M2445 3526 c-323 -144 -511 -264 -618 -395 -28 -34 -28 -34 -43 -13
-19 28 -84 45 -118 32 -20 -7 -26 -16 -26 -39 0 -24 5 -31 29 -36 24 -5 37
-20 65 -71 20 -36 36 -75 36 -88 0 -12 3 -26 6 -29 4 -4 9 -28 11 -55 l4 -48
-53 -34 c-47 -31 -53 -39 -56 -74 -3 -32 1 -43 19 -57 22 -17 22 -17 -19 -24
-47 -8 -50 -16 -28 -70 14 -32 19 -35 55 -35 43 0 51 -7 60 -54 5 -22 13 -32
28 -34 18 -3 27 7 49 50 15 29 35 64 45 77 11 13 19 37 19 52 0 24 4 29 24 29
18 0 27 -8 35 -31 9 -27 14 -30 35 -25 18 4 28 1 35 -11 5 -10 30 -24 56 -32
40 -12 48 -12 56 0 5 8 7 19 4 26 -2 6 -7 29 -11 50 -3 21 -15 48 -26 59 -16
18 -17 22 -4 27 11 4 30 -13 61 -53 41 -53 50 -60 81 -60 l34 0 0 -65 c0 -71
23 -135 50 -135 32 0 73 118 69 196 -2 25 2 49 9 56 7 7 12 20 12 30 0 30 -73
210 -88 215 -7 3 -30 -10 -49 -28 -36 -33 -36 -33 11 35 43 63 46 71 40 112
-4 31 -13 48 -32 60 -24 16 -28 15 -79 -10 l-53 -26 -71 60 c-39 33 -84 65
-100 72 -16 7 -29 19 -29 26 0 8 21 34 48 58 52 49 345 202 515 270 95 38 97
39 97 71 0 29 -3 33 -27 33 -16 -1 -91 -29 -168 -64z"/>
</g>
</svg>
