<?xml version="1.0" standalone="no"?>
<!DOCTYPE svg PUBLIC "-//W3C//DTD SVG 20010904//EN"
 "http://www.w3.org/TR/2001/REC-SVG-20010904/DTD/svg10.dtd">
<svg version="1.0" xmlns="http://www.w3.org/2000/svg"
 width="992.000000pt" height="1100.000000pt" viewBox="0 0 992.000000 1100.000000"
 preserveAspectRatio="xMidYMid meet">

<g transform="translate(0.000000,1100.000000) scale(0.100000,-0.100000)"
fill="#000000" stroke="none">
<path d="M5115 6965 c-148 -79 -180 -86 -232 -51 -53 36 -152 37 -223 1 -47
-24 -49 -26 -52 -72 -5 -85 9 -206 35 -303 15 -52 29 -112 32 -132 4 -28 11
-38 24 -38 10 0 37 -14 60 -30 30 -23 48 -29 66 -24 18 4 37 -1 65 -20 48 -32
49 -32 108 -2 26 13 59 26 73 29 14 4 35 15 47 25 12 11 55 34 96 51 64 29 79
40 117 93 35 47 47 75 59 136 l15 77 44 16 c50 18 81 50 81 83 0 32 -45 93
-74 100 -14 3 -33 20 -41 36 -17 33 -118 90 -157 90 -13 0 -77 -29 -143 -65z
m-285 -350 c0 -50 -4 -85 -10 -85 -5 0 -10 9 -10 20 0 17 -7 20 -57 22 l-58 2
58 3 57 4 0 59 c0 33 4 60 10 60 6 0 10 -35 10 -85z m160 35 c0 -27 -4 -50
-10 -50 -5 0 -10 9 -10 20 0 11 -7 20 -15 20 -8 0 -15 5 -15 10 0 6 7 10 16
10 10 0 14 6 11 14 -3 8 -3 17 0 20 16 16 23 2 23 -44z m70 40 c0 -5 14 -10
30 -10 17 0 30 5 30 10 0 6 7 10 15 10 11 0 15 -11 15 -40 l0 -40 -60 0 -60 0
0 40 c0 29 4 40 15 40 8 0 15 -4 15 -10z m250 -75 c0 -50 -4 -85 -10 -85 -6 0
-10 35 -10 85 0 50 4 85 10 85 6 0 10 -35 10 -85z m-525 35 c0 -29 -4 -36 -23
-38 -43 -6 -69 37 -40 66 7 7 24 12 38 10 21 -3 25 -8 25 -38z m165 30 c0 -5
-7 -10 -15 -10 -20 0 -19 -19 2 -42 9 -10 11 -18 6 -18 -6 0 -16 7 -23 15 -11
14 -14 13 -27 -5 -8 -11 -18 -18 -23 -15 -5 3 0 15 10 25 24 24 26 40 5 40 -8
0 -15 5 -15 10 0 6 18 10 40 10 22 0 40 -4 40 -10z m290 -23 c0 -18 7 -43 16
-55 9 -13 13 -26 9 -30 -4 -4 -14 3 -22 15 l-15 23 -18 -23 c-23 -28 -37 -16
-16 15 9 12 16 37 16 55 0 23 5 33 15 33 10 0 15 -10 15 -33z m-80 -67 c0 -5
-13 -10 -30 -10 -25 0 -30 -4 -30 -25 0 -14 -4 -25 -10 -25 -5 0 -10 11 -10
25 0 21 -5 25 -30 25 -16 0 -30 5 -30 10 0 6 30 10 70 10 40 0 70 -4 70 -10z
m-174 -15 c13 -33 -35 -56 -80 -39 -16 6 -22 35 -9 47 13 14 84 7 89 -8z"/>
<path d="M5073 6643 c9 -2 25 -2 35 0 9 3 1 5 -18 5 -19 0 -27 -2 -17 -5z"/>
<path d="M4735 6660 c-8 -14 3 -30 21 -30 8 0 14 9 14 20 0 21 -24 28 -35 10z"/>
<path d="M4910 6566 c0 -11 10 -16 31 -16 38 0 35 24 -4 28 -19 2 -27 -1 -27
-12z"/>
</g>
</svg>
