<?xml version="1.0" standalone="no"?>
<!DOCTYPE svg PUBLIC "-//W3C//DTD SVG 20010904//EN"
 "http://www.w3.org/TR/2001/REC-SVG-20010904/DTD/svg10.dtd">
<svg version="1.0" xmlns="http://www.w3.org/2000/svg"
 width="992.000000pt" height="1100.000000pt" viewBox="0 0 992.000000 1100.000000"
 preserveAspectRatio="xMidYMid meet">

<g transform="translate(0.000000,1100.000000) scale(0.100000,-0.100000)"
fill="#000000" stroke="none">
<path d="M6653 5046 c-55 -26 -83 -68 -83 -125 0 -30 -16 -51 -39 -51 -9 0
-32 -28 -53 -63 l-36 -62 21 -23 c20 -21 20 -24 4 -55 l-16 -32 0 32 c-1 25
-7 36 -30 47 -31 16 -41 50 -41 138 0 26 -4 49 -8 52 -10 6 -160 -21 -182 -33
-11 -6 -14 -23 -12 -67 3 -58 2 -60 -32 -83 -27 -18 -36 -31 -36 -52 0 -36 13
-36 -223 0 -130 19 -190 24 -192 17 -2 -6 -6 -31 -10 -55 -5 -40 -1 -52 46
-134 l52 -89 -6 -100 -5 -101 -46 -46 c-32 -33 -52 -66 -70 -117 -30 -83 -31
-97 -11 -114 22 -18 19 -27 -14 -46 -17 -10 -45 -46 -67 -87 -34 -61 -45 -72
-97 -99 -51 -25 -58 -32 -53 -51 3 -12 6 -49 6 -83 l0 -61 45 -1 c25 -1 99 11
165 28 65 16 125 30 133 30 8 0 27 -25 43 -55 26 -50 32 -55 54 -50 14 4 27
10 30 14 61 86 70 103 70 134 0 33 3 36 45 51 l46 15 98 -64 c91 -58 102 -63
140 -58 l41 6 0 -292 0 -291 44 0 c28 0 52 -7 69 -20 33 -26 35 -26 77 14 l35
35 76 -16 c41 -9 83 -14 92 -10 30 11 49 64 39 110 -8 40 -7 43 22 57 24 11
33 25 41 57 6 23 22 55 36 70 15 15 29 40 33 56 6 26 9 27 66 27 32 0 70 4 85
10 14 5 76 58 138 117 62 60 134 127 160 151 l47 42 0 110 0 109 -37 10 c-21
6 -59 15 -84 21 -44 11 -48 15 -98 103 -47 81 -52 97 -46 131 5 34 2 43 -18
60 -19 17 -96 105 -164 187 -17 20 -7 49 16 49 39 0 51 23 63 115 11 90 11 90
-16 134 l-28 44 26 24 c14 13 26 32 26 42 0 26 -134 225 -165 245 -39 26 -148
21 -212 -8z m-193 -475 c0 -45 -6 -37 -14 19 -4 31 -3 40 4 30 5 -8 10 -30 10
-49z m-100 -336 c0 -14 5 -25 10 -25 14 0 13 -27 -1 -32 -6 -2 -11 -23 -11
-46 1 -48 -19 -65 -70 -60 -39 4 -58 30 -40 58 7 11 9 20 5 19 -21 -3 -33 2
-33 16 0 8 7 15 15 15 8 0 15 7 15 16 0 11 6 15 20 11 11 -3 20 -1 20 4 0 5
-13 9 -30 9 -19 0 -30 5 -30 14 0 11 14 16 48 19 26 2 55 4 65 5 12 1 17 -5
17 -23z m320 -70 c0 -79 -3 -95 -15 -95 -9 0 -19 8 -22 18 -4 9 -16 25 -28 34
-18 15 -21 15 -38 0 -15 -13 -22 -14 -37 -4 -11 7 -31 12 -45 12 -21 0 -25 -5
-25 -30 0 -20 -5 -30 -15 -30 -10 0 -15 10 -15 30 0 27 -3 30 -29 30 -30 0
-54 21 -33 28 7 2 12 10 12 17 0 8 9 17 20 20 11 3 20 11 20 16 0 5 -9 9 -20
9 -11 0 -20 7 -20 15 0 12 14 15 65 15 51 0 65 -3 65 -15 0 -9 -9 -15 -21 -15
-18 0 -19 -2 -9 -15 7 -8 19 -15 27 -15 9 0 13 -6 10 -13 -3 -8 -1 -20 3 -27
15 -24 40 8 40 51 0 32 3 39 20 39 16 0 20 -7 20 -34 0 -18 7 -39 15 -46 13
-11 15 -6 15 37 0 52 5 63 27 63 10 0 13 -23 13 -95z"/>
<path d="M6280 4110 c0 -5 9 -10 20 -10 11 0 20 5 20 10 0 6 -9 10 -20 10 -11
0 -20 -4 -20 -10z"/>
<path d="M6440 4180 c-19 -12 -7 -22 21 -18 19 2 20 5 8 15 -9 7 -20 9 -29 3z"/>
</g>
</svg>
