<?xml version="1.0" standalone="no"?>
<!DOCTYPE svg PUBLIC "-//W3C//DTD SVG 20010904//EN"
 "http://www.w3.org/TR/2001/REC-SVG-20010904/DTD/svg10.dtd">
<svg version="1.0" xmlns="http://www.w3.org/2000/svg"
 width="992.000000pt" height="1100.000000pt" viewBox="0 0 992.000000 1100.000000"
 preserveAspectRatio="xMidYMid meet">

<g transform="translate(0.000000,1100.000000) scale(0.100000,-0.100000)"
fill="#000000" stroke="none">
<path d="M3160 4517 c0 -65 -3 -76 -24 -96 -15 -14 -27 -40 -31 -65 -14 -91
-16 -97 -50 -113 -26 -12 -40 -30 -60 -77 -22 -50 -51 -86 -161 -197 -74 -74
-134 -141 -134 -147 0 -6 9 -17 20 -25 19 -14 19 -14 -5 -37 -14 -13 -25 -32
-25 -43 0 -10 -13 -32 -30 -47 -27 -25 -30 -34 -30 -91 l0 -64 86 -86 c100
-101 107 -101 163 -18 25 36 41 49 58 49 14 0 50 18 82 40 53 38 61 40 131 41
110 1 124 7 128 52 4 43 16 51 87 62 38 5 59 15 87 42 l36 35 104 -12 c57 -6
112 -13 124 -15 15 -2 35 13 73 55 47 55 51 62 51 111 0 28 -5 80 -12 115
l-11 62 -57 7 c-31 4 -61 10 -66 13 -18 12 -77 165 -90 237 -8 39 -14 100 -14
138 l0 67 -105 0 -105 0 -64 40 c-50 32 -73 40 -110 40 l-46 0 0 -73z m25
-587 c0 -66 -4 -95 -12 -97 -10 -4 -13 20 -13 97 0 77 3 101 13 98 8 -3 12
-32 12 -98z m110 90 c3 -5 17 -10 31 -10 15 0 24 -6 24 -15 0 -8 -4 -15 -9
-15 -5 0 -7 -9 -4 -21 5 -19 2 -20 -53 -17 -44 2 -58 6 -56 17 2 8 -2 17 -9
21 -18 11 -1 30 27 30 13 0 24 5 24 10 0 6 4 10 9 10 6 0 13 -4 16 -10z m207
-90 c2 -67 0 -90 -9 -90 -10 0 -13 25 -13 90 0 50 4 90 9 90 5 0 11 -41 13
-90z m-382 50 c0 -17 7 -42 16 -55 9 -13 14 -32 12 -42 -3 -16 -5 -16 -24 3
-21 21 -22 21 -38 3 -9 -11 -20 -19 -26 -19 -15 0 -12 29 5 46 8 9 18 33 21
55 8 47 34 54 34 9z m310 8 c0 -13 7 -36 15 -52 25 -48 14 -76 -16 -40 -11 14
-13 14 -21 0 -11 -19 -38 -21 -38 -3 0 6 7 21 15 31 8 11 15 35 15 53 0 23 5
33 15 33 9 0 15 -9 15 -22z m-80 -68 c0 -6 -30 -10 -70 -10 -40 0 -70 4 -70
10 0 6 30 10 70 10 40 0 70 -4 70 -10z m-5 -50 c0 -8 -13 -21 -28 -28 -37 -18
-97 0 -97 29 0 18 6 20 63 17 47 -2 62 -7 62 -18z"/>
<path d="M3270 3960 c0 -5 5 -10 10 -10 6 0 10 5 10 10 0 6 -4 10 -10 10 -5 0
-10 -4 -10 -10z"/>
<path d="M3278 3873 c7 -3 16 -2 19 1 4 3 -2 6 -13 5 -11 0 -14 -3 -6 -6z"/>
</g>
</svg>
