<?xml version="1.0" standalone="no"?>
<!DOCTYPE svg PUBLIC "-//W3C//DTD SVG 20010904//EN"
 "http://www.w3.org/TR/2001/REC-SVG-20010904/DTD/svg10.dtd">
<svg version="1.0" xmlns="http://www.w3.org/2000/svg"
 width="992.000000pt" height="1100.000000pt" viewBox="0 0 992.000000 1100.000000"
 preserveAspectRatio="xMidYMid meet">

<g transform="translate(0.000000,1100.000000) scale(0.100000,-0.100000)"
fill="#000000" stroke="none">
<path d="M4055 6764 c-11 -3 -29 -7 -41 -9 -15 -3 -27 -22 -44 -67 -12 -35
-26 -68 -31 -74 -5 -6 -32 -14 -60 -17 -46 -6 -59 -2 -132 34 l-81 41 -92 -36
c-79 -32 -99 -36 -142 -30 -35 4 -57 14 -71 30 -38 44 -63 29 -152 -91 l-63
-85 -132 0 -133 0 -97 -45 c-85 -40 -103 -45 -143 -39 -44 5 -47 4 -64 -25
-10 -18 -21 -55 -23 -84 -5 -51 -4 -53 41 -99 36 -37 54 -48 78 -48 23 0 116
-55 373 -220 188 -121 345 -227 348 -236 3 -9 6 -26 6 -39 0 -18 29 -42 141
-120 l141 -97 58 7 c54 6 60 10 89 50 27 37 36 43 79 49 l49 6 53 193 c29 105
57 197 62 204 5 7 45 33 89 58 57 34 84 45 100 40 14 -5 34 -34 61 -91 21 -46
41 -84 43 -84 3 0 34 14 70 32 l65 32 0 64 c0 53 6 74 35 129 24 45 35 79 35
107 l-1 41 -111 47 c-106 45 -112 47 -145 33 -27 -12 -40 -27 -63 -78 l-29
-64 -92 -7 c-50 -4 -94 -5 -96 -2 -3 2 16 51 41 108 43 98 45 109 52 223 5 92
11 127 25 151 15 25 17 40 11 70 -7 37 -10 39 -47 41 -22 0 -49 -1 -60 -3z
m-445 -559 c0 -8 5 -15 10 -15 13 0 13 -57 0 -62 -6 -2 -12 -20 -13 -41 -4
-45 -20 -58 -66 -55 -42 4 -61 29 -43 58 7 11 8 20 2 20 -16 0 -32 40 -26 66
7 28 45 41 75 24 17 -9 21 -8 21 5 0 8 9 15 20 15 11 0 20 -7 20 -15z m160
-80 c0 -78 -3 -95 -15 -95 -9 0 -15 10 -15 26 0 15 -4 23 -11 19 -5 -4 -18 0
-28 9 -17 15 -20 15 -34 1 -18 -17 -37 -20 -37 -4 0 6 6 17 14 25 8 7 17 32
21 54 8 47 35 56 35 11 0 -16 9 -39 20 -52 l19 -24 1 63 c0 48 3 62 15 62 12
0 15 -17 15 -95z m-320 20 c0 -30 5 -55 10 -55 6 0 10 -9 10 -20 0 -18 -7 -20
-80 -20 -73 0 -80 2 -80 20 0 15 7 20 24 20 19 0 25 6 28 28 4 37 31 35 38 -3
6 -30 6 -30 13 -5 14 52 10 59 -40 62 -26 2 -48 9 -51 16 -3 9 14 12 62 12
l66 0 0 -55z"/>
<path d="M3504 6169 c-10 -17 13 -36 27 -22 12 12 4 33 -11 33 -5 0 -12 -5
-16 -11z"/>
<path d="M3555 6120 c-3 -5 -1 -10 4 -10 6 0 11 5 11 10 0 6 -2 10 -4 10 -3 0
-8 -4 -11 -10z"/>
<path d="M3525 6070 c3 -5 15 -10 26 -10 10 0 19 5 19 10 0 6 -12 10 -26 10
-14 0 -23 -4 -19 -10z"/>
</g>
</svg>
