<?xml version="1.0" standalone="no"?>
<!DOCTYPE svg PUBLIC "-//W3C//DTD SVG 20010904//EN"
 "http://www.w3.org/TR/2001/REC-SVG-20010904/DTD/svg10.dtd">
<svg version="1.0" xmlns="http://www.w3.org/2000/svg"
 width="992.000000pt" height="1100.000000pt" viewBox="0 0 992.000000 1100.000000"
 preserveAspectRatio="xMidYMid meet">

<g transform="translate(0.000000,1100.000000) scale(0.100000,-0.100000)"
fill="#000000" stroke="none">
<path d="M7153 4258 c-62 -62 -63 -65 -63 -118 0 -48 7 -67 46 -135 59 -101
68 -111 106 -119 18 -3 49 -11 70 -17 l38 -10 0 -93 c0 -99 4 -107 58 -135 18
-10 33 -8 81 10 l59 21 60 -63 c56 -60 65 -65 147 -90 l88 -26 32 -79 c25 -59
41 -85 66 -102 19 -13 34 -26 34 -30 0 -4 -17 -58 -38 -119 -42 -123 -44 -163
-12 -271 l16 -53 -41 -47 -42 -47 7 -145 c7 -143 7 -146 -21 -214 -31 -78 -31
-80 39 -140 l47 -39 74 18 c72 18 76 18 115 0 35 -15 45 -16 73 -5 48 19 51
24 40 63 l-10 35 50 4 50 3 65 -97 c48 -72 71 -98 87 -98 35 0 49 -15 42 -44
-6 -24 -2 -29 31 -43 21 -8 59 -22 85 -29 25 -8 77 -33 113 -55 65 -39 68 -40
132 -33 l64 6 26 57 c14 31 38 83 53 116 15 33 37 83 50 112 15 36 33 59 56
72 27 16 48 48 109 170 41 83 75 159 75 170 0 10 -7 25 -16 32 -13 11 -15 27
-12 79 5 56 11 73 48 127 l43 62 -28 128 c-15 70 -29 133 -31 138 -2 6 18 23
46 38 30 17 50 35 50 45 0 9 -9 98 -20 197 -11 99 -20 208 -20 241 l0 61 -77
28 c-62 22 -97 28 -168 29 l-89 1 -4 44 c-3 34 3 59 24 102 l27 58 -27 35
c-31 42 -39 43 -83 16 l-33 -20 0 24 c0 30 -8 33 -132 41 -91 6 -97 6 -108
-14 -14 -27 -61 -28 -85 -1 -16 18 -27 20 -74 15 -53 -6 -59 -4 -105 29 -43
31 -57 36 -107 36 -37 0 -61 -5 -66 -13 -4 -7 -27 -20 -50 -29 -34 -13 -51
-14 -83 -6 -31 8 -51 7 -81 -2 -48 -16 -84 -3 -101 37 -15 36 -116 132 -146
140 -36 9 -131 -23 -189 -63 l-53 -36 -53 22 c-28 12 -74 33 -101 46 -29 14
-77 26 -120 30 l-71 6 -62 -64z m897 -490 c0 -5 -7 -8 -15 -8 -10 0 -15 10
-15 33 l1 32 14 -25 c8 -14 14 -28 15 -32z m288 -193 c54 -31 58 -36 54 -65
-2 -16 -7 -30 -11 -30 -24 2 -129 130 -107 130 3 0 31 -16 64 -35z m62 -565
c0 -53 -4 -90 -10 -90 -5 0 -10 14 -10 30 0 31 -17 39 -37 19 -18 -18 -57 -6
-70 22 -10 20 -10 34 -2 57 13 38 35 47 65 27 31 -20 44 -19 44 5 0 11 5 20
10 20 6 0 10 -37 10 -90z m320 -5 c0 -78 -3 -95 -15 -95 -9 0 -15 9 -15 25 0
17 -4 23 -14 19 -8 -3 -20 4 -28 15 -14 19 -14 19 -26 0 -13 -20 -42 -26 -42
-8 0 6 9 22 20 36 11 14 20 39 20 54 0 19 5 29 15 29 10 0 15 -10 15 -29 0
-16 9 -39 20 -52 l19 -24 1 63 c0 48 3 62 15 62 12 0 15 -17 15 -95z m-160 71
c0 -8 -10 -16 -22 -18 -22 -4 -22 -5 5 -18 15 -7 26 -19 23 -26 -3 -7 0 -14 6
-16 19 -7 -2 -28 -27 -28 -18 0 -24 -6 -27 -27 -2 -17 -10 -29 -20 -31 -14 -3
-18 3 -18 27 0 28 -3 31 -30 31 -18 0 -30 5 -29 13 1 26 16 50 40 63 24 13 24
13 2 14 -14 0 -23 6 -23 15 0 12 13 15 60 15 45 0 60 -3 60 -14z"/>
<path d="M8300 3020 c0 -32 14 -40 24 -15 6 18 -2 45 -15 45 -5 0 -9 -13 -9
-30z"/>
<path d="M8350 3025 c0 -8 7 -15 15 -15 8 0 15 7 15 15 0 8 -7 15 -15 15 -8 0
-15 -7 -15 -15z"/>
<path d="M8476 3014 c-18 -13 -16 -14 25 -13 24 0 37 3 29 6 -8 3 -20 9 -25
14 -6 4 -19 1 -29 -7z"/>
</g>
</svg>
