<?xml version="1.0" standalone="no"?>
<!DOCTYPE svg PUBLIC "-//W3C//DTD SVG 20010904//EN"
 "http://www.w3.org/TR/2001/REC-SVG-20010904/DTD/svg10.dtd">
<svg version="1.0" xmlns="http://www.w3.org/2000/svg"
 width="992.000000pt" height="1100.000000pt" viewBox="0 0 992.000000 1100.000000"
 preserveAspectRatio="xMidYMid meet">

<g transform="translate(0.000000,1100.000000) scale(0.100000,-0.100000)"
fill="#000000" stroke="none">
<path d="M4574 3555 c-93 -70 -102 -75 -151 -75 -28 0 -55 -5 -59 -11 -4 -7
-9 -44 -11 -83 -7 -119 -1 -112 -93 -119 -45 -4 -85 -9 -91 -12 -5 -4 -25 -38
-44 -75 -31 -61 -35 -78 -34 -142 0 -40 3 -91 7 -113 7 -39 8 -40 72 -57 36
-10 66 -21 68 -25 1 -5 29 -51 61 -103 l58 -95 84 3 c48 2 124 -3 176 -13 l93
-16 55 36 c49 31 63 35 123 35 66 0 68 1 110 44 23 24 57 54 76 67 38 26 46
50 46 136 l0 55 -36 -4 c-27 -3 -38 0 -45 15 -6 10 -9 20 -7 21 2 2 31 22 66
45 34 23 62 43 62 45 0 1 -7 26 -16 55 l-16 54 -64 -6 c-60 -4 -64 -3 -65 17
0 11 -6 41 -12 64 -11 41 -16 45 -77 71 l-65 27 -27 93 c-20 72 -33 100 -55
117 -49 40 -79 32 -189 -51z m271 -515 c0 -66 -4 -95 -12 -97 -10 -4 -13 20
-13 97 0 77 3 101 13 98 8 -3 12 -32 12 -98z m-200 49 c0 -20 -6 -24 -36 -27
-38 -3 -54 13 -43 42 13 35 79 22 79 -15z m45 -26 c0 -38 3 -78 6 -90 6 -22 4
-23 -55 -23 -65 0 -67 3 -63 61 1 9 -5 16 -13 16 -8 0 -15 -4 -15 -9 0 -4 -13
-8 -29 -8 -26 0 -30 -4 -33 -32 -2 -21 -8 -33 -18 -33 -10 0 -16 12 -18 33 -3
28 -7 32 -33 32 -19 0 -29 5 -29 15 0 8 4 15 10 15 5 0 7 7 4 15 -4 9 0 15 9
15 9 0 25 12 36 26 l21 27 21 -27 c11 -14 27 -26 35 -26 8 0 14 -6 14 -13 0
-9 12 -12 38 -10 77 8 82 11 82 48 0 24 5 35 15 35 12 0 15 -14 15 -67z m90
32 c0 -15 7 -40 16 -56 8 -17 14 -38 12 -47 -3 -15 -6 -14 -24 4 -20 20 -21
20 -33 3 -13 -22 -41 -25 -41 -6 0 7 9 23 20 35 11 12 20 25 19 29 -1 4 -1 20
0 36 1 36 31 37 31 2z"/>
<path d="M4590 3090 c0 -5 7 -10 15 -10 8 0 15 5 15 10 0 6 -7 10 -15 10 -8 0
-15 -4 -15 -10z"/>
<path d="M4440 3054 c-24 -13 -23 -14 24 -14 46 0 48 1 30 15 -22 17 -22 17
-54 -1z"/>
<path d="M4620 3005 c0 -20 5 -25 25 -25 14 0 25 5 25 10 0 6 -7 10 -15 10
-21 0 -19 18 3 23 10 3 6 5 -10 6 -23 1 -28 -3 -28 -24z"/>
</g>
</svg>
