<?xml version="1.0" standalone="no"?>
<!DOCTYPE svg PUBLIC "-//W3C//DTD SVG 20010904//EN"
 "http://www.w3.org/TR/2001/REC-SVG-20010904/DTD/svg10.dtd">
<svg version="1.0" xmlns="http://www.w3.org/2000/svg"
 width="992.000000pt" height="1100.000000pt" viewBox="0 0 992.000000 1100.000000"
 preserveAspectRatio="xMidYMid meet">

<g transform="translate(0.000000,1100.000000) scale(0.100000,-0.100000)"
fill="#000000" stroke="none">
<path d="M2310 6981 c-37 -5 -48 -12 -65 -40 -11 -18 -34 -49 -51 -69 l-31
-35 -45 12 c-35 10 -62 10 -116 2 -109 -17 -106 -18 -138 47 l-29 57 -71 11
c-67 10 -73 9 -132 -17 -34 -16 -62 -32 -62 -38 0 -5 16 -33 35 -63 19 -29 33
-58 31 -65 -3 -6 -17 -66 -32 -132 l-26 -121 27 -35 c20 -28 31 -34 47 -29 19
6 20 3 15 -27 -4 -19 -9 -63 -13 -99 -4 -44 -13 -72 -26 -87 -20 -22 -20 -22
-1 -55 10 -18 29 -34 41 -36 19 -3 22 -10 22 -44 0 -25 -7 -49 -17 -61 -17
-18 -16 -21 5 -57 12 -22 22 -49 22 -62 0 -13 9 -29 19 -35 29 -18 59 -110 81
-245 16 -100 24 -125 47 -153 31 -37 48 -42 72 -22 9 8 64 44 122 80 83 53
114 67 145 67 69 0 82 8 99 60 26 79 95 179 130 189 26 7 35 3 68 -26 20 -18
48 -33 61 -33 35 0 152 -111 160 -153 5 -26 21 -44 76 -85 62 -46 75 -52 120
-52 47 0 50 -2 72 -40 25 -44 57 -53 88 -25 15 14 25 14 96 0 43 -8 98 -15
122 -15 l43 0 -3 102 -3 103 -77 53 c-47 32 -94 56 -121 61 -27 5 -97 41 -188
96 -165 101 -169 104 -183 145 -8 22 -36 45 -110 92 -156 99 -179 156 -137
340 39 167 39 169 -10 234 -44 57 -44 58 -50 160 -4 71 -11 110 -22 128 -18
27 -24 28 -107 17z m-330 -656 l0 -96 -57 3 c-56 3 -58 4 -61 33 -2 17 -8 34
-13 40 -15 15 -10 35 9 35 19 0 42 18 42 32 0 4 -11 8 -25 8 -16 0 -25 6 -25
15 0 11 11 15 38 15 21 0 41 -3 45 -6 9 -9 -11 -56 -31 -70 -15 -12 -13 -13
16 -14 32 0 32 0 32 50 0 38 4 50 15 50 12 0 15 -17 15 -95z m318 3 c-3 -79
-6 -93 -20 -96 -14 -3 -18 3 -18 23 0 14 -4 24 -9 21 -5 -3 -14 1 -21 9 -16
20 -36 19 -44 -1 -4 -9 -13 -14 -21 -10 -9 3 -15 0 -15 -10 0 -12 -14 -14 -77
-12 -65 3 -78 6 -81 21 -3 13 3 17 27 17 17 0 31 5 31 10 0 6 -11 10 -25 10
-27 0 -34 17 -10 26 20 8 19 24 -2 39 -29 21 -5 35 63 35 51 0 64 -3 64 -15 0
-9 -7 -18 -15 -21 -8 -4 -15 -12 -15 -20 0 -8 7 -14 15 -14 8 0 15 -7 15 -15
0 -9 -9 -15 -25 -15 -14 0 -25 -4 -25 -10 0 -16 53 -11 77 8 14 11 23 30 25
56 4 53 24 57 33 7 4 -22 13 -45 21 -52 12 -10 14 -3 14 45 0 50 2 56 20 56
20 0 21 -5 18 -92z"/>
<path d="M1890 6280 c0 -5 14 -10 30 -10 17 0 30 5 30 10 0 6 -13 10 -30 10
-16 0 -30 -4 -30 -10z"/>
<path d="M2060 6355 c0 -8 5 -15 10 -15 6 0 10 7 10 15 0 8 -4 15 -10 15 -5 0
-10 -7 -10 -15z"/>
</g>
</svg>
