<?xml version="1.0" standalone="no"?>
<!DOCTYPE svg PUBLIC "-//W3C//DTD SVG 20010904//EN"
 "http://www.w3.org/TR/2001/REC-SVG-20010904/DTD/svg10.dtd">
<svg version="1.0" xmlns="http://www.w3.org/2000/svg"
 width="992.000000pt" height="1100.000000pt" viewBox="0 0 992.000000 1100.000000"
 preserveAspectRatio="xMidYMid meet">

<g transform="translate(0.000000,1100.000000) scale(0.100000,-0.100000)"
fill="#000000" stroke="none">
<path d="M3198 5306 c-34 -31 -50 -56 -61 -93 -9 -28 -34 -85 -57 -126 -40
-74 -41 -77 -26 -106 l16 -30 -40 -22 -40 -23 0 -92 c0 -92 0 -92 33 -117 17
-14 58 -51 90 -81 43 -42 65 -56 87 -56 17 0 54 -16 90 -39 43 -28 77 -42 114
-46 86 -11 97 -6 119 50 10 28 23 58 28 67 16 30 10 35 -41 40 -28 3 -53 8
-56 11 -3 3 0 23 7 46 10 35 10 46 -6 81 l-18 41 38 94 38 95 -52 103 c-43 82
-67 116 -127 175 -41 39 -78 72 -82 72 -4 -1 -28 -20 -54 -44z m-68 -406 c16
0 31 6 33 13 3 6 6 -3 6 -20 1 -32 0 -33 -39 -33 -39 0 -40 1 -39 33 0 17 3
26 6 20 2 -7 17 -13 33 -13z m120 10 c8 -5 10 -10 4 -10 -6 0 -11 -7 -11 -15
0 -8 4 -15 9 -15 4 0 8 -7 8 -16 0 -12 -3 -14 -13 -6 -7 6 -24 9 -38 6 -21 -5
-22 -4 -6 6 20 13 23 40 5 40 -9 0 -8 4 2 10 8 5 17 10 20 10 3 0 12 -5 20
-10z m39 -37 c-1 -27 -4 -39 -6 -28 -3 11 -10 23 -15 26 -7 4 -6 14 1 28 17
31 21 26 20 -26z m118 -45 c-2 -18 -4 -4 -4 32 0 36 2 50 4 33 2 -18 2 -48 0
-65z m-47 57 c0 -14 5 -25 10 -25 6 0 10 -10 10 -22 -1 -21 -2 -21 -11 -5 -12
21 -29 22 -29 1 0 -8 -5 -12 -10 -9 -7 4 -7 12 0 25 5 10 10 28 10 39 0 12 5
21 10 21 6 0 10 -11 10 -25z m-197 -42 c-16 -3 -23 -11 -23 -29 0 -13 -4 -24
-10 -24 -5 0 -10 11 -10 24 0 19 -6 26 -27 29 -16 2 -1 4 32 4 33 0 50 -2 38
-4z m77 -19 c0 -12 7 -15 25 -12 14 3 25 1 25 -3 0 -5 -16 -9 -35 -9 -28 0
-35 4 -35 20 0 11 5 20 10 20 6 0 10 -7 10 -16z"/>
<path d="M3100 4880 c0 -5 14 -10 30 -10 17 0 30 5 30 10 0 6 -13 10 -30 10
-16 0 -30 -4 -30 -10z"/>
</g>
</svg>
