<?xml version="1.0" standalone="no"?>
<!DOCTYPE svg PUBLIC "-//W3C//DTD SVG 20010904//EN"
 "http://www.w3.org/TR/2001/REC-SVG-20010904/DTD/svg10.dtd">
<svg version="1.0" xmlns="http://www.w3.org/2000/svg"
 width="992.000000pt" height="1100.000000pt" viewBox="0 0 992.000000 1100.000000"
 preserveAspectRatio="xMidYMid meet">

<g transform="translate(0.000000,1100.000000) scale(0.100000,-0.100000)"
fill="#000000" stroke="none">
<path d="M4625 4115 c-39 -22 -80 -37 -115 -41 l-55 -6 -55 -140 c-35 -88 -53
-150 -51 -170 1 -18 -1 -28 -7 -24 -5 3 -16 -22 -23 -57 -10 -44 -24 -73 -48
-100 -29 -32 -35 -48 -40 -100 -6 -59 -8 -63 -41 -78 -20 -10 -38 -27 -41 -40
-13 -46 -9 -97 9 -117 15 -18 26 -19 108 -15 110 6 117 13 124 128 l5 80 45 3
c38 3 61 16 153 83 59 43 112 79 117 79 6 0 10 23 10 50 0 37 7 61 26 92 23
35 25 48 20 90 -7 47 -5 51 35 99 40 48 41 53 47 134 l5 85 -84 0 c-77 -1 -89
-3 -144 -35z m-75 -365 c0 -11 6 -20 13 -20 9 0 9 -2 0 -8 -7 -5 -14 -24 -16
-43 -2 -32 -5 -34 -37 -34 -30 0 -35 3 -33 23 2 12 -1 22 -6 22 -5 0 -8 15 -7
33 1 27 6 32 29 35 22 3 27 -1 27 -17 0 -12 -4 -21 -10 -21 -19 0 -10 -18 11
-23 19 -5 21 -2 17 34 -2 21 0 39 4 39 5 0 8 -9 8 -20z m120 -46 c0 -41 -4
-63 -10 -59 -6 4 -7 12 -4 18 4 7 3 9 -1 4 -5 -4 -16 0 -26 9 -11 10 -19 12
-24 5 -3 -6 -14 -11 -22 -11 -14 0 -13 4 5 20 16 15 20 28 16 45 -4 15 -2 25
5 25 6 0 11 -9 11 -21 0 -25 17 -59 30 -59 6 0 10 20 10 45 0 25 2 45 5 45 3
0 5 -30 5 -66z m-241 -6 c-1 -35 -3 -55 -6 -45 -3 10 -10 17 -16 14 -7 -2 -21
-1 -32 4 -16 6 -14 8 13 8 31 1 32 3 32 41 0 22 2 40 5 40 3 0 4 -28 4 -62z
m-19 27 c0 -23 -2 -24 -20 -15 -21 11 -25 22 -13 33 15 16 33 6 33 -18z"/>
<path d="M4480 3740 c0 -5 7 -10 15 -10 8 0 15 5 15 10 0 6 -7 10 -15 10 -8 0
-15 -4 -15 -10z"/>
<path d="M4490 3660 c0 -5 9 -10 20 -10 11 0 20 5 20 10 0 6 -9 10 -20 10 -11
0 -20 -4 -20 -10z"/>
</g>
</svg>
