<?xml version="1.0" standalone="no"?>
<!DOCTYPE svg PUBLIC "-//W3C//DTD SVG 20010904//EN"
 "http://www.w3.org/TR/2001/REC-SVG-20010904/DTD/svg10.dtd">
<svg version="1.0" xmlns="http://www.w3.org/2000/svg"
 width="4593.000000pt" height="2599.000000pt" viewBox="0 0 4593.000000 2599.000000"
 preserveAspectRatio="xMidYMid meet">

<g transform="translate(0.000000,2599.000000) scale(0.100000,-0.100000)"
fill="#000000" stroke="none">
<path d="M37515 14401 c-11 -5 -28 -17 -37 -28 -16 -17 -165 -327 -221 -458
-12 -27 -27 -56 -34 -63 -35 -36 1 -88 78 -111 l54 -17 3 -108 c1 -60 -1 -113
-6 -118 -6 -6 -24 11 -46 40 -68 93 -135 93 -223 -1 -70 -74 -97 -129 -97
-199 -1 -68 18 -99 88 -142 37 -23 61 -30 119 -33 84 -5 124 13 159 73 l21 35
53 -52 54 -53 -25 -13 c-16 -9 -45 -55 -90 -144 l-65 -130 0 -175 c0 -133 -3
-174 -12 -174 -7 0 -107 9 -222 20 -207 19 -210 20 -233 47 -12 16 -21 33 -19
38 2 6 27 68 56 139 l53 130 -21 65 c-112 356 -137 427 -158 448 -38 38 -85
31 -260 -42 l-156 -65 -197 -172 c-263 -232 -251 -219 -251 -267 0 -22 8 -56
17 -75 l16 -36 -54 -57 c-54 -57 -55 -60 -93 -204 l-38 -146 -87 -42 -86 -42
-235 -13 c-129 -6 -243 -16 -253 -22 -23 -13 -395 -523 -403 -553 -4 -13 7
-89 24 -170 l30 -146 -22 -22 -21 -22 -80 35 c-88 39 -133 40 -167 6 -11 -10
-44 -84 -75 -163 -30 -79 -60 -150 -66 -158 -6 -7 -83 -62 -172 -122 -139 -95
-168 -120 -225 -190 -60 -76 -65 -86 -72 -148 -18 -162 -23 -147 122 -354 72
-102 130 -190 130 -196 0 -5 -65 21 -144 59 -174 83 -185 86 -229 65 -28 -13
-41 -31 -72 -95 -76 -164 -67 -192 105 -305 70 -47 140 -89 155 -95 40 -15 84
-3 117 32 24 26 39 31 125 44 147 21 149 23 200 131 24 51 47 93 50 93 4 0
119 -18 257 -40 209 -34 255 -39 278 -29 19 8 53 46 95 108 37 53 69 100 73
104 4 5 94 -53 200 -129 163 -116 198 -137 229 -137 21 0 47 6 60 12 24 13 51
66 51 100 0 14 20 28 76 55 l76 36 47 -39 c25 -22 64 -57 85 -80 44 -46 39
-44 251 -76 l158 -23 110 -110 110 -111 -57 -27 c-31 -15 -63 -36 -71 -48 -29
-40 -5 -260 31 -297 14 -14 85 -34 247 -71 l227 -52 56 -73 c70 -91 97 -113
140 -113 31 0 33 -2 29 -32 -19 -158 -10 -218 37 -238 37 -16 295 -70 334 -70
29 0 60 15 143 71 130 88 141 99 141 154 0 26 -7 51 -17 64 -10 11 -74 53
-143 94 -138 81 -136 79 -107 164 11 33 17 36 117 69 l105 34 67 -20 c127 -38
170 -22 208 80 15 41 26 58 34 52 6 -5 35 -28 64 -50 67 -52 84 -53 258 -9
116 28 130 30 126 15 -17 -65 51 -159 141 -198 71 -31 179 -39 222 -16 37 20
65 63 65 100 0 14 -11 75 -26 135 -32 138 -46 154 -144 159 -38 2 -84 -1 -102
-7 -27 -10 -33 -9 -42 6 -5 10 -34 44 -65 75 -50 50 -54 57 -36 62 47 13 71 6
110 -34 42 -43 85 -57 127 -41 40 15 56 47 79 157 12 54 24 102 28 107 4 4 46
18 94 32 l88 26 26 -21 c46 -36 126 -21 153 30 5 10 16 92 25 182 8 90 26 214
40 277 46 210 41 218 -160 267 l-140 33 -90 92 -90 91 -52 -4 -51 -4 -27 100
c-14 56 -35 113 -46 129 -15 21 -17 31 -9 47 6 11 12 20 14 20 2 0 28 -13 58
-28 47 -25 73 -30 208 -42 135 -12 149 -15 112 -23 -54 -11 -107 -62 -122
-117 -22 -83 31 -174 133 -224 138 -69 280 13 264 152 -6 52 -27 76 -140 152
l-62 42 60 -7 c141 -15 130 -9 143 -76 9 -50 28 -85 109 -209 54 -82 108 -154
121 -160 85 -38 162 22 147 116 l-6 44 30 -30 c23 -23 38 -30 70 -30 44 0 63
13 176 121 l60 57 227 75 226 75 95 81 c52 44 98 88 101 97 19 50 5 88 -130
341 -139 261 -159 301 -215 437 -38 93 -59 106 -169 106 -61 0 -70 2 -70 18 0
10 -13 58 -30 107 -16 49 -30 90 -30 91 0 1 13 5 30 9 16 4 41 20 55 37 20 24
25 40 25 84 0 61 -25 185 -46 225 -17 34 -64 53 -106 45 -18 -4 -54 -7 -80 -6
-65 1 -120 -15 -147 -44 -19 -21 -23 -36 -24 -105 -1 -45 -6 -81 -12 -81 -36
0 -235 35 -235 42 0 4 9 25 20 45 24 45 25 74 5 113 -21 41 -42 49 -145 57
-75 5 -93 10 -105 26 -12 18 -11 24 15 56 38 47 47 89 26 130 -14 26 -47 47
-195 121 -178 89 -180 90 -402 276 -123 103 -228 190 -233 194 -4 5 4 28 18
52 35 59 34 99 -3 141 l-30 33 159 38 c88 20 168 45 179 54 28 24 91 183 91
230 0 36 -7 46 -77 113 -43 41 -110 106 -150 144 -128 124 -81 115 -627 114
-259 0 -480 -4 -491 -8z m-455 -2796 c0 -12 16 -15 80 -15 79 0 80 0 80 -25
l0 -25 -195 0 -195 0 0 25 c0 25 1 25 80 25 64 0 80 3 80 15 0 10 11 15 35 15
24 0 35 -5 35 -15z m595 -100 l-7 -95 26 0 c21 0 26 -5 26 -25 0 -25 -1 -25
-85 -25 l-85 0 0 -50 0 -50 -35 0 -35 0 0 50 0 50 -85 0 c-84 0 -85 0 -85 25
l0 25 145 0 145 0 0 24 c0 13 3 44 6 70 l7 46 -127 0 -126 0 0 25 0 25 161 0
161 0 -7 -95z m-925 -7 c0 -46 -3 -107 -6 -135 -7 -52 -7 -53 -40 -53 l-33 0
6 110 6 110 -137 0 -136 0 0 25 0 25 170 0 170 0 0 -82z m399 1 c64 -23 65
-77 0 -103 -78 -31 -237 -12 -253 31 -11 27 5 54 37 68 39 17 172 19 216 4z
m-569 -174 l0 -85 105 0 105 0 0 -25 0 -25 -210 0 -210 0 0 25 c0 24 2 25 70
25 l70 0 0 85 0 85 35 0 35 0 0 -85z m680 0 l0 -25 -215 0 -215 0 0 25 0 25
215 0 215 0 0 -25z m160 -85 l0 -50 130 0 130 0 0 -25 0 -25 -165 0 -165 0 0
75 0 75 35 0 35 0 0 -50z m-265 16 c19 -8 40 -27 47 -41 10 -23 9 -29 -13 -50
-54 -54 -234 -55 -288 -1 -22 22 -23 28 -13 51 7 14 27 32 45 40 43 19 178 19
222 1z m2557 -361 c-8 -27 -20 -72 -27 -100 l-11 -50 -14 92 c-12 89 -12 92
11 132 l23 42 17 -33 c15 -29 15 -36 1 -83z m-1557 91 l70 -13 -40 -11 c-53
-16 -54 -16 -100 13 -47 28 -36 30 70 11z"/>
<path d="M36970 11451 c-23 -7 -22 -8 14 -15 21 -4 57 -4 80 0 37 7 39 8 16
15 -32 9 -78 9 -110 0z"/>
<path d="M36950 11201 c0 -5 10 -11 23 -15 47 -12 127 -3 127 15 0 5 -34 9
-75 9 -41 0 -75 -4 -75 -9z"/>
<path d="M39616 10504 c-54 -19 -130 -80 -224 -178 -61 -63 -85 -97 -101 -142
-27 -72 -38 -211 -22 -271 17 -63 44 -79 147 -87 109 -8 224 -27 224 -36 0
-16 -127 -60 -173 -60 -53 0 -90 -16 -125 -53 -32 -34 -102 -200 -102 -241 0
-62 66 -114 192 -151 l56 -16 -10 -37 c-17 -61 -5 -208 24 -290 47 -131 103
-178 202 -169 28 2 102 -3 164 -12 l113 -16 9 -35 c36 -135 45 -211 45 -383
l0 -179 27 -23 c51 -44 214 -46 344 -3 47 15 81 36 123 73 45 40 72 55 112 65
30 7 108 29 174 50 66 21 153 48 193 61 95 29 148 68 174 126 23 53 20 88 -17
203 -33 98 -65 136 -159 185 -80 41 -240 155 -360 257 -116 97 -159 104 -311
48 -36 -14 -94 -24 -145 -27 l-86 -6 -67 49 -67 49 222 6 c205 5 228 8 283 30
75 30 141 93 151 144 9 51 -2 106 -36 177 -57 118 -116 156 -285 183 -133 21
-258 51 -311 75 -61 26 -61 58 0 99 103 71 166 173 166 268 0 55 -18 89 -69
136 -54 49 -82 62 -183 86 -47 11 -112 29 -144 41 -67 23 -94 24 -148 4z"/>
<path d="M35595 9669 c-33 -22 -122 -71 -198 -110 l-138 -70 -42 35 c-109 89
-206 106 -289 51 -25 -16 -73 -48 -107 -70 -35 -22 -102 -70 -151 -106 -55
-41 -103 -69 -126 -74 -20 -3 -117 -3 -215 1 l-177 7 -24 35 c-36 54 -70 75
-123 74 -49 0 -69 -11 -150 -76 -27 -23 -116 -85 -197 -138 -80 -54 -154 -108
-162 -120 -9 -12 -16 -40 -16 -61 0 -78 62 -153 192 -232 44 -26 133 -108 293
-270 127 -128 251 -247 277 -264 84 -56 129 -43 268 81 78 71 130 99 192 104
46 4 67 -1 163 -41 216 -90 255 -99 335 -74 19 6 109 15 200 19 91 5 181 13
201 19 77 24 137 84 159 160 6 20 13 88 16 151 3 63 7 124 9 135 7 34 73 103
105 110 23 5 51 34 125 130 52 68 98 137 101 153 16 81 -34 155 -233 346 -138
132 -144 136 -185 135 -33 0 -57 -10 -103 -40z"/>
<path d="M36208 7987 c-130 -37 -186 -129 -140 -229 27 -59 164 -202 219 -229
44 -22 61 -24 188 -23 94 0 148 4 163 13 29 16 55 75 46 104 -13 41 -207 338
-231 354 -32 21 -183 27 -245 10z m289 -235 l92 -147 -112 -3 c-144 -4 -166 6
-258 111 -73 85 -85 119 -51 150 30 28 64 36 152 36 l85 1 92 -148z"/>
</g>
</svg>
