<?xml version="1.0" standalone="no"?>
<!DOCTYPE svg PUBLIC "-//W3C//DTD SVG 20010904//EN"
 "http://www.w3.org/TR/2001/REC-SVG-20010904/DTD/svg10.dtd">
<svg version="1.0" xmlns="http://www.w3.org/2000/svg"
 width="4593.000000pt" height="2599.000000pt" viewBox="0 0 4593.000000 2599.000000"
 preserveAspectRatio="xMidYMid meet">

<g transform="translate(0.000000,2599.000000) scale(0.100000,-0.100000)"
fill="#000000" stroke="none">
<path d="M39039 23539 c-18 -7 -102 -106 -245 -289 -179 -230 -222 -279 -239
-275 -50 11 -708 95 -745 95 -35 0 -66 -15 -208 -104 l-167 -104 -190 29
c-104 16 -194 34 -200 40 -5 5 -50 60 -100 122 -58 72 -100 115 -119 122 -22
8 -134 -5 -502 -59 -350 -50 -478 -65 -488 -57 -7 6 -35 42 -62 81 -76 108
-63 105 -387 70 l-275 -29 -195 -76 -194 -76 -284 113 -284 113 -220 3 -220 3
-35 -36 -35 -36 -3 -282 -3 -282 122 -200 c67 -110 122 -204 122 -210 0 -5
-53 -175 -117 -376 -71 -224 -116 -381 -116 -407 0 -40 9 -52 194 -264 106
-123 207 -236 224 -251 l30 -29 652 96 c359 53 654 95 656 93 4 -4 142 -1184
149 -1271 6 -70 13 -96 26 -96 5 0 53 -26 107 -59 88 -53 1505 -871 1561 -900
13 -7 38 -13 55 -13 37 0 501 99 525 112 34 18 41 39 75 204 18 92 35 168 37
170 2 2 130 33 284 70 154 37 293 73 310 80 24 10 58 60 165 236 l135 223 225
78 c155 53 230 84 242 99 16 20 18 49 19 279 1 141 3 284 5 317 4 64 -2 76
-41 87 -11 3 -139 42 -284 86 -146 45 -265 81 -266 81 -2 0 57 455 60 458 1 1
130 31 286 66 157 34 295 68 308 75 35 19 55 75 41 117 -6 19 -67 149 -136
289 -68 140 -124 259 -124 264 0 5 58 50 129 100 91 64 132 99 141 121 12 29
3 73 -105 518 -78 326 -113 488 -106 490 9 3 8 8 -1 19 -7 9 -22 41 -33 71
-29 79 -91 115 -156 91z m-2149 -1879 l0 -150 -45 0 -45 0 0 70 0 70 -40 0
c-39 0 -40 1 -40 35 0 34 1 35 40 35 l40 0 0 45 0 45 45 0 45 0 0 -150z m-494
43 c-4 -48 -10 -91 -12 -95 -6 -9 -55 -11 -78 -2 -8 3 -13 11 -11 17 2 7 6 31
9 55 l6 42 -130 0 -130 0 0 35 0 35 176 0 177 0 -7 -87z m940 -8 l-6 -95 25 0
c22 0 25 -4 25 -35 l0 -35 -85 0 -85 0 0 -50 0 -50 -45 0 -45 0 0 50 0 50 -85
0 -85 0 0 35 0 35 145 0 145 0 0 29 c0 16 3 43 6 60 l7 31 -127 0 -126 0 0 35
0 35 171 0 172 0 -7 -95z m-659 23 c12 -62 43 -106 84 -120 11 -4 10 -12 -6
-41 -11 -20 -24 -37 -29 -37 -15 0 -75 41 -86 58 -9 15 -12 14 -31 -11 -12
-15 -38 -36 -58 -46 l-37 -19 -23 36 c-22 34 -23 37 -6 47 68 40 95 84 95 155
l0 40 43 0 42 0 12 -62z m-427 -88 l0 -50 95 0 95 0 0 -35 0 -35 -215 0 -215
0 0 35 0 35 75 0 75 0 0 50 0 50 45 0 45 0 0 -50z m580 -149 c68 -36 76 -111
17 -153 -65 -47 -258 -32 -287 22 -11 21 -13 70 -3 95 19 51 201 75 273 36z
m-440 -91 l0 -90 -45 0 -45 0 0 55 0 55 -125 0 -125 0 0 35 0 35 170 0 170 0
0 -90z m690 40 l0 -50 130 0 130 0 0 -35 0 -35 -175 0 -175 0 0 85 0 85 45 0
45 0 0 -50z"/>
<path d="M36654 21415 c-19 -15 -19 -15 0 -30 36 -27 136 -16 136 15 0 31
-100 42 -136 15z"/>
</g>
</svg>
