<?xml version="1.0" standalone="no"?>
<!DOCTYPE svg PUBLIC "-//W3C//DTD SVG 20010904//EN"
 "http://www.w3.org/TR/2001/REC-SVG-20010904/DTD/svg10.dtd">
<svg version="1.0" xmlns="http://www.w3.org/2000/svg"
 width="4593.000000pt" height="2599.000000pt" viewBox="0 0 4593.000000 2599.000000"
 preserveAspectRatio="xMidYMid meet">

<g transform="translate(0.000000,2599.000000) scale(0.100000,-0.100000)"
fill="#000000" stroke="none">
<path d="M30100 21680 l-430 -5 -27 -28 -28 -27 -3 -180 -3 -180 -374 0 -374
0 -437 205 c-240 113 -448 205 -461 205 -13 0 -36 -6 -51 -14 -15 -8 -137
-125 -272 -260 l-245 -246 -247 0 c-175 0 -255 -4 -274 -12 -22 -10 -48 -55
-135 -234 -59 -122 -119 -239 -133 -260 l-26 -39 0 -436 c0 -425 1 -436 20
-454 13 -12 81 -31 198 -55 157 -33 212 -50 481 -154 l304 -116 266 0 266 -1
193 -308 c133 -213 200 -311 218 -319 18 -9 221 -12 740 -12 l714 0 86 -70
c79 -65 89 -70 132 -70 26 0 54 6 63 13 8 7 122 149 254 317 131 168 241 308
244 312 3 4 170 11 371 17 l365 10 375 60 c206 34 385 65 397 71 39 17 52 53
83 236 32 188 45 252 135 634 30 129 55 245 55 258 0 29 -25 78 -43 85 -7 2
-220 73 -472 157 -253 84 -463 155 -467 159 -3 3 -21 119 -38 256 -18 138 -38
262 -46 276 -7 14 -26 31 -41 37 -52 21 -747 165 -826 171 -43 3 -271 4 -507
1z m-1618 -1312 l-4 -98 41 0 41 0 0 -45 0 -45 -40 0 -40 0 0 -55 0 -55 -47
-1 c-42 0 -45 -1 -23 -10 108 -43 107 -160 -2 -204 -56 -23 -197 -31 -270 -16
-155 32 -195 148 -73 211 46 23 60 25 182 25 l133 0 0 198 0 198 53 -3 52 -3
-3 -97z m1340 0 l-4 -98 41 0 41 0 0 -45 0 -45 -40 0 -40 0 0 -55 0 -55 -47
-1 c-42 0 -45 -1 -23 -10 108 -43 107 -160 -2 -204 -56 -23 -197 -31 -270 -16
-155 32 -195 148 -73 211 46 23 60 25 182 25 l133 0 0 198 0 198 53 -3 52 -3
-3 -97z m694 71 c-3 -17 -6 -98 -6 -180 l0 -149 -50 0 -50 0 0 35 0 35 -55 0
c-53 0 -55 1 -55 28 l0 27 -20 -33 c-62 -101 -265 -91 -315 15 -22 46 -16 133
11 170 66 88 251 85 307 -5 16 -26 16 -26 17 -4 0 20 5 22 55 22 l55 0 0 35 0
35 56 0 57 0 -7 -31z m670 9 c-3 -13 -6 -155 -6 -315 l0 -293 -50 0 -50 0 0
315 0 315 56 0 c54 0 56 -1 50 -22z m-2016 -43 l0 -45 -96 0 c-72 0 -95 -3
-92 -12 7 -22 113 -69 170 -75 l56 -6 -27 -43 c-24 -41 -28 -43 -61 -37 -46 7
-143 46 -178 71 -25 18 -29 19 -47 5 -63 -47 -216 -104 -223 -82 -2 5 -15 23
-28 38 -31 37 -30 41 5 41 56 0 191 64 191 90 0 6 -39 10 -95 10 l-95 0 0 45
0 45 260 0 260 0 0 -45z m-850 17 c0 -42 -22 -188 -29 -195 -5 -5 -29 -6 -54
-2 -43 7 -45 8 -37 34 5 14 11 41 14 59 l6 32 -125 0 -125 0 0 45 0 45 175 0
c161 0 175 -1 175 -18z m1340 0 c0 -42 -22 -188 -29 -195 -5 -5 -29 -6 -54 -2
-43 7 -45 8 -37 34 5 14 11 41 14 59 l6 32 -125 0 -125 0 0 45 0 45 175 0
c161 0 175 -1 175 -18z m1200 -17 c-3 -11 -5 -60 -5 -110 0 -83 3 -95 34 -153
19 -34 54 -81 78 -103 l45 -41 -33 -34 c-18 -19 -38 -34 -45 -34 -18 0 -78 74
-110 135 l-28 54 -33 -62 c-34 -62 -88 -127 -107 -127 -6 0 -26 14 -44 30
l-33 30 34 30 c71 62 137 238 137 365 l0 46 58 -3 c51 -3 57 -5 52 -23z
m-2707 -156 l-6 -62 96 8 97 7 0 -24 c0 -12 3 -33 6 -45 6 -23 5 -23 -87 -24
-52 0 -141 -4 -199 -8 -58 -5 -108 -6 -112 -2 -4 3 -10 25 -14 49 l-7 42 62 0
61 0 0 60 0 60 55 0 55 0 -7 -61z m1340 0 l-6 -62 96 8 97 7 0 -24 c0 -12 3
-33 6 -45 6 -23 5 -23 -87 -24 -52 0 -141 -4 -199 -8 -58 -5 -108 -6 -112 -2
-4 3 -10 25 -14 49 l-7 42 62 0 61 0 0 60 0 60 55 0 55 0 -7 -61z m-263 -154
l0 -45 -135 0 -135 0 0 -105 0 -105 -50 0 -50 0 0 105 0 105 -130 0 -130 0 0
45 0 45 315 0 315 0 0 -45z m1280 -135 l0 -120 -50 0 -50 0 0 75 0 75 -205 0
-205 0 0 45 0 45 255 0 255 0 0 -120z"/>
<path d="M28133 19985 c-39 -16 -41 -25 -12 -51 18 -16 37 -19 124 -19 87 0
106 3 124 19 12 11 21 23 21 28 0 34 -192 52 -257 23z"/>
<path d="M29473 19985 c-39 -16 -41 -25 -12 -51 18 -16 37 -19 124 -19 87 0
106 3 124 19 12 11 21 23 21 28 0 34 -192 52 -257 23z"/>
<path d="M30098 20359 c-29 -11 -51 -58 -41 -87 12 -35 36 -52 73 -52 46 0 70
25 70 72 0 54 -48 86 -102 67z"/>
<path d="M30308 20285 c-5 -24 -3 -25 48 -25 51 0 54 1 54 25 0 23 -3 25 -49
25 -44 0 -49 -2 -53 -25z"/>
</g>
</svg>
