<?xml version="1.0" standalone="no"?>
<!DOCTYPE svg PUBLIC "-//W3C//DTD SVG 20010904//EN"
 "http://www.w3.org/TR/2001/REC-SVG-20010904/DTD/svg10.dtd">
<svg version="1.0" xmlns="http://www.w3.org/2000/svg"
 width="4593.000000pt" height="2599.000000pt" viewBox="0 0 4593.000000 2599.000000"
 preserveAspectRatio="xMidYMid meet">

<g transform="translate(0.000000,2599.000000) scale(0.100000,-0.100000)"
fill="#000000" stroke="none">
<path d="M42654 20595 c-137 -70 -259 -137 -272 -149 -30 -29 -33 -44 -78
-401 -20 -165 -42 -306 -47 -313 -6 -8 -32 -24 -59 -38 -43 -22 -60 -24 -175
-24 l-127 0 -211 -210 -212 -211 -103 61 c-57 34 -112 66 -124 71 -12 5 -28
14 -37 20 -22 16 -66 3 -80 -23 -12 -22 -99 -774 -99 -853 0 -52 13 -66 148
-164 61 -46 112 -85 112 -88 0 -3 -29 -194 -65 -424 l-66 -418 3 -279 c3 -255
5 -282 21 -300 11 -11 152 -78 315 -147 286 -123 298 -127 352 -122 54 5 95
20 167 63 l32 19 234 -232 c230 -230 234 -233 275 -233 34 0 49 7 81 35 l39
35 12 -30 c22 -52 57 -63 194 -58 l120 4 57 63 58 63 222 29 c221 29 258 39
277 76 5 10 17 65 27 123 10 58 21 109 25 113 4 5 11 -25 14 -66 14 -142 36
-189 97 -202 16 -4 29 -11 29 -16 0 -5 8 -9 18 -9 9 0 80 -16 157 -36 134 -34
223 -43 347 -33 18 1 39 -8 62 -29 32 -28 51 -34 133 -46 12 -2 20 0 18 4 -2
4 31 5 74 2 129 -7 141 5 201 209 l22 76 83 62 c88 65 112 101 100 148 -10 41
-105 214 -120 219 -10 4 -6 22 17 70 41 87 36 112 -47 224 -55 76 -64 93 -55
110 8 15 17 18 38 14 43 -9 87 16 194 105 l96 81 100 0 c94 0 101 1 126 26
l26 27 0 216 0 216 -260 356 -259 355 -303 143 -304 142 -214 501 c-161 375
-221 505 -240 519 -17 12 -116 34 -304 68 -154 28 -283 54 -287 58 -4 5 -69
130 -144 278 -114 225 -141 271 -160 273 -14 2 -119 -46 -271 -123z m-84
-2135 c0 -57 1 -60 25 -60 22 0 25 -4 25 -35 0 -31 -3 -35 -25 -35 -24 0 -25
-3 -25 -60 l0 -60 -45 0 -45 0 0 155 0 155 45 0 45 0 0 -60z m460 30 c0 -27 3
-30 30 -30 28 0 30 -3 30 -35 0 -32 -2 -35 -30 -35 -23 0 -30 -4 -30 -20 0
-16 7 -20 30 -20 28 0 30 -3 30 -35 0 -32 -2 -35 -30 -35 -27 0 -30 -3 -30
-30 0 -29 -2 -30 -45 -30 l-45 0 0 150 0 150 45 0 c43 0 45 -1 45 -30z m490
-230 l0 -260 -45 0 -45 0 0 88 -1 87 -24 -29 c-21 -27 -26 -29 -49 -18 -14 6
-39 30 -55 52 l-29 40 -22 -34 c-20 -34 -74 -86 -88 -86 -8 0 -52 66 -52 78 0
4 13 15 29 25 45 27 79 107 87 205 l7 82 42 0 43 0 4 -87 c3 -58 11 -100 22
-122 19 -35 62 -81 77 -81 5 0 9 72 9 160 l0 160 45 0 45 0 0 -260z m-698 230
c53 -15 88 -61 88 -116 0 -85 -47 -134 -130 -134 -83 0 -130 49 -130 134 0 53
34 101 83 115 43 12 47 12 89 1z m-372 -79 c0 -44 -4 -82 -8 -85 -5 -3 -26 -2
-47 1 l-37 6 5 43 5 44 -89 0 -89 0 0 35 0 35 130 0 130 0 0 -79z m-120 -72
l0 -42 70 6 70 6 0 -34 c0 -22 -6 -35 -17 -40 -10 -4 -78 -9 -150 -12 l-133
-6 0 37 c0 35 1 36 40 36 l40 0 0 45 0 45 40 0 40 0 0 -41z m657 -145 c44 -33
58 -69 41 -111 -19 -52 -65 -73 -156 -73 -92 0 -139 20 -159 67 -22 53 1 102
62 129 47 22 176 14 212 -12z m-498 6 c51 -14 81 -47 81 -87 0 -49 -14 -68
-60 -87 -83 -33 -245 -13 -270 35 -29 54 -1 114 65 137 39 13 141 15 184 2z"/>
<path d="M42762 18413 c-22 -9 -33 -40 -22 -67 14 -37 66 -37 80 -1 11 30 4
52 -21 65 -10 6 -19 10 -21 9 -2 0 -9 -3 -16 -6z"/>
<path d="M42833 18143 c-60 -12 -46 -53 21 -60 56 -7 108 19 85 42 -16 15 -73
25 -106 18z"/>
<path d="M42356 18132 c-64 -15 -27 -52 53 -52 43 0 82 23 66 39 -13 14 -83
21 -119 13z"/>
</g>
</svg>
