<?xml version="1.0" standalone="no"?>
<!DOCTYPE svg PUBLIC "-//W3C//DTD SVG 20010904//EN"
 "http://www.w3.org/TR/2001/REC-SVG-20010904/DTD/svg10.dtd">
<svg version="1.0" xmlns="http://www.w3.org/2000/svg"
 width="4593.000000pt" height="2599.000000pt" viewBox="0 0 4593.000000 2599.000000"
 preserveAspectRatio="xMidYMid meet">

<g transform="translate(0.000000,2599.000000) scale(0.100000,-0.100000)"
fill="#000000" stroke="none">
<path d="M39480 23541 c-14 -5 -61 -26 -105 -48 l-80 -41 -39 20 c-22 11 -63
23 -93 27 -115 16 -114 -17 27 -600 60 -250 112 -464 115 -476 4 -18 -14 -35
-123 -111 -71 -50 -134 -97 -141 -105 -6 -9 -14 -30 -17 -49 -5 -29 14 -74
125 -304 72 -149 131 -274 131 -280 0 -5 -127 -37 -282 -71 -236 -53 -286 -67
-306 -87 -22 -22 -27 -47 -60 -305 -39 -301 -38 -318 8 -352 27 -20 329 -114
499 -155 58 -14 116 -30 130 -36 14 -5 46 -12 71 -15 25 -3 141 -17 258 -31
l212 -27 399 -320 400 -320 0 -131 c1 -116 3 -134 21 -157 12 -15 116 -75 248
-143 125 -64 229 -120 232 -123 10 -12 118 -74 135 -77 6 -1 52 -27 103 -58
78 -47 100 -56 140 -56 l47 0 210 215 210 216 125 0 125 -1 75 44 c41 24 83
52 92 63 14 15 27 91 59 344 22 178 44 334 49 345 6 15 73 55 209 125 186 96
204 107 252 164 42 50 57 78 75 141 31 104 31 158 2 187 -13 13 -69 47 -125
77 -57 30 -103 61 -103 69 0 7 25 149 56 315 35 189 53 313 49 333 -8 42 -32
60 -148 108 l-97 40 0 96 c0 53 -5 110 -11 127 -8 23 -44 56 -140 127 l-129
95 0 54 c0 43 -5 60 -22 80 -21 24 -1765 1033 -1835 1063 -26 10 -133 13 -520
12 -268 0 -499 -4 -513 -8z m1720 -2211 l0 -260 -40 0 -40 0 0 260 0 260 40 0
40 0 0 -260z m-100 10 l0 -240 -40 0 -40 0 0 85 c0 78 -2 85 -20 85 -17 0 -20
-7 -20 -39 l0 -38 -67 -6 c-125 -12 -113 -24 -113 108 l0 115 40 0 c38 0 40 2
40 30 0 29 -2 30 -45 30 -45 0 -45 0 -45 35 l0 35 85 0 85 0 0 -100 0 -100
-40 0 c-40 0 -40 0 -40 -37 l0 -38 50 3 c50 4 50 4 50 38 0 27 4 34 20 34 16
0 20 7 20 30 0 23 -4 30 -20 30 -16 0 -20 7 -20 35 0 28 4 35 20 35 18 0 20 7
20 55 l0 55 40 0 40 0 0 -240z m546 135 l-6 -95 25 0 c22 0 25 -4 25 -35 l0
-35 -85 0 -85 0 0 -50 0 -50 -45 0 -45 0 0 50 0 50 -85 0 -85 0 0 35 0 35 145
0 145 0 0 29 c0 16 3 43 6 60 l7 31 -127 0 -126 0 0 35 0 35 171 0 172 0 -7
-95z m-948 -25 l-3 -110 28 0 c24 0 27 -3 27 -35 l0 -35 -85 0 -85 0 0 -100 0
-100 -45 0 -45 0 0 100 0 100 -90 0 -90 0 0 35 0 35 150 0 150 0 0 38 c0 20 3
54 6 75 l7 37 -132 0 -131 0 0 35 0 35 171 0 171 0 -4 -110z m692 -240 l0 -50
130 0 130 0 0 -35 0 -35 -175 0 -175 0 0 85 0 85 45 0 45 0 0 -50z"/>
<path d="M25346 18592 c-2 -4 -1 -14 5 -22 7 -12 9 -10 9 8 0 23 -5 28 -14 14z"/>
</g>
</svg>
