<?xml version="1.0" standalone="no"?>
<!DOCTYPE svg PUBLIC "-//W3C//DTD SVG 20010904//EN"
 "http://www.w3.org/TR/2001/REC-SVG-20010904/DTD/svg10.dtd">
<svg version="1.0" xmlns="http://www.w3.org/2000/svg"
 width="4593.000000pt" height="2599.000000pt" viewBox="0 0 4593.000000 2599.000000"
 preserveAspectRatio="xMidYMid meet">

<g transform="translate(0.000000,2599.000000) scale(0.100000,-0.100000)"
fill="#000000" stroke="none">
<path d="M26638 19819 c-29 -7 -96 -61 -298 -244 -143 -129 -265 -235 -270
-235 -5 0 -158 11 -339 25 -350 27 -367 26 -396 -19 -12 -18 -41 -242 -115
-881 -54 -471 -100 -858 -102 -859 -2 -1 -136 -22 -298 -45 -281 -40 -360 -56
-360 -72 0 -4 -16 -28 -35 -54 -20 -25 -33 -50 -30 -55 3 -4 -103 -199 -235
-431 -188 -332 -240 -431 -240 -459 0 -64 105 -489 126 -510 28 -28 512 -223
554 -223 19 0 161 21 314 46 358 59 330 37 334 262 l3 165 222 0 222 0 188
-154 c103 -85 194 -157 203 -160 40 -15 91 4 412 156 360 170 372 178 372 240
0 13 -29 130 -65 261 -36 131 -65 242 -65 248 0 5 69 9 168 9 l167 0 230 -460
c127 -254 240 -471 253 -483 17 -16 36 -22 65 -21 35 0 79 22 274 137 128 75
237 137 243 137 5 0 181 -85 390 -190 l379 -190 480 0 c461 -1 481 0 519 19
23 12 42 30 46 43 3 13 6 223 6 469 l0 445 293 318 c160 175 297 328 304 340
27 46 15 79 -180 476 l-193 394 44 185 c50 215 51 225 26 253 -18 19 -124 104
-196 156 l-31 22 -717 0 -717 0 -183 293 c-100 160 -194 303 -207 317 l-23 25
-293 5 -292 6 -300 116 c-248 95 -324 120 -440 144 -77 15 -141 32 -143 36 -4
10 -25 9 -74 -3z m612 -1689 l0 -90 35 0 c34 0 35 -1 35 -40 0 -39 -1 -40 -35
-40 l-35 0 0 -130 0 -130 -45 0 -45 0 0 76 c0 69 -2 75 -17 69 -10 -4 -73 -10
-140 -13 l-123 -5 0 177 0 176 45 0 45 0 0 -136 0 -137 74 6 c40 4 80 9 89 13
12 4 17 -2 20 -28 2 -18 5 47 5 145 l2 177 45 0 45 0 0 -90z m960 -170 l0
-260 -45 0 -45 0 0 88 -1 87 -24 -29 c-21 -27 -26 -29 -49 -18 -14 6 -39 30
-55 52 l-29 40 -22 -34 c-20 -34 -74 -86 -88 -86 -8 0 -52 66 -52 78 0 4 13
15 29 25 45 27 79 107 87 205 l7 82 42 0 43 0 4 -87 c3 -58 11 -100 22 -122
19 -35 62 -81 77 -81 5 0 9 72 9 160 l0 160 45 0 45 0 0 -260z m-470 205 l0
-35 -65 0 c-36 0 -65 -4 -65 -8 0 -20 63 -66 103 -76 l45 -11 -15 -38 c-11
-27 -21 -37 -37 -37 -32 0 -123 46 -137 69 -13 19 -14 19 -50 -14 -33 -30 -91
-55 -126 -55 -11 0 -48 70 -41 75 2 1 23 7 47 14 24 7 58 27 75 44 l31 32 -67
3 -68 3 0 34 0 35 185 0 185 0 0 -35z m30 -260 l0 -35 -85 0 -85 0 0 -85 0
-85 -45 0 -45 0 0 85 0 85 -90 0 -90 0 0 35 0 35 220 0 220 0 0 -35z"/>
</g>
</svg>
