<?xml version="1.0" standalone="no"?>
<!DOCTYPE svg PUBLIC "-//W3C//DTD SVG 20010904//EN"
 "http://www.w3.org/TR/2001/REC-SVG-20010904/DTD/svg10.dtd">
<svg version="1.0" xmlns="http://www.w3.org/2000/svg"
 width="4593.000000pt" height="2599.000000pt" viewBox="0 0 4593.000000 2599.000000"
 preserveAspectRatio="xMidYMid meet">

<g transform="translate(0.000000,2599.000000) scale(0.100000,-0.100000)"
fill="#000000" stroke="none">
<path d="M32826 25228 c-13 -13 -62 -94 -107 -180 l-83 -158 -105 -35 c-105
-35 -107 -36 -255 -163 l-149 -127 -95 0 -94 0 -44 -50 c-23 -27 -39 -51 -34
-53 5 -2 -10 -43 -35 -91 l-44 -88 -344 -309 -344 -309 -324 -110 c-359 -122
-382 -134 -381 -201 0 -22 23 -101 52 -179 28 -77 67 -181 85 -232 l34 -92
-213 -155 c-223 -163 -246 -186 -231 -243 3 -15 96 -192 205 -393 109 -202
215 -399 235 -438 20 -40 39 -72 43 -72 20 0 748 -155 755 -160 4 -4 23 -123
41 -264 30 -229 37 -260 57 -282 17 -19 130 -59 483 -175 254 -83 463 -153
465 -154 1 -2 -22 -106 -52 -232 -79 -329 -78 -296 -13 -331 50 -27 88 -34
408 -81 l353 -51 293 0 c318 0 351 5 374 56 18 39 1 83 -123 314 -108 199
-125 239 -155 350 -19 69 -34 132 -34 141 0 12 76 37 323 108 177 51 329 98
338 104 45 35 72 124 41 135 -23 7 -367 415 -364 431 2 9 55 177 118 375 63
197 114 374 114 393 0 26 -29 82 -125 239 l-125 205 0 228 c0 183 3 231 14
240 21 18 30 76 27 179 l-3 92 78 133 c43 72 83 143 90 157 7 14 17 107 24
212 9 156 9 192 -3 214 -8 15 -108 91 -242 184 l-229 159 -62 291 c-52 248
-65 295 -85 315 -29 27 -448 175 -496 175 -19 0 -42 -9 -57 -22z m-636 -2433
c0 -54 0 -55 30 -55 28 0 30 -3 30 -35 0 -32 -2 -35 -30 -35 -30 0 -30 -1 -30
-55 l0 -55 -45 0 -45 0 0 145 0 145 45 0 45 0 0 -55z m470 25 c0 -27 3 -30 30
-30 28 0 30 -3 30 -35 0 -32 -2 -35 -30 -35 -23 0 -30 -4 -30 -20 0 -16 7 -20
30 -20 28 0 30 -3 30 -35 0 -32 -2 -35 -30 -35 -27 0 -30 -3 -30 -30 0 -29 -2
-30 -45 -30 l-45 0 0 150 0 150 45 0 c43 0 45 -1 45 -30z m-208 0 c53 -15 88
-61 88 -116 0 -85 -47 -134 -130 -134 -83 0 -130 49 -130 134 0 53 34 101 83
115 43 12 47 12 89 1z m684 -85 l-6 -95 25 0 c22 0 25 -4 25 -35 l0 -35 -85 0
-85 0 0 -50 0 -50 -45 0 -45 0 0 50 0 50 -85 0 -85 0 0 35 0 35 145 0 145 0 0
29 c0 16 3 43 6 60 l7 31 -127 0 -126 0 0 35 0 35 171 0 172 0 -7 -95z m-1096
50 l0 -35 -65 0 -65 0 0 -50 0 -50 58 5 c31 3 69 8 83 10 24 4 28 0 34 -31 3
-20 3 -39 0 -43 -4 -3 -65 -8 -136 -10 l-129 -3 0 121 0 121 110 0 110 0 0
-35z m150 -340 l0 -105 -160 0 -160 0 0 105 0 105 160 0 160 0 0 -105z m427
79 c44 -33 58 -69 41 -111 -19 -52 -65 -73 -156 -73 -92 0 -139 20 -159 67
-22 53 1 102 62 129 47 22 176 14 212 -12z m263 -54 l0 -50 130 0 130 0 0 -35
0 -35 -175 0 -175 0 0 85 0 85 45 0 45 0 0 -50z"/>
<path d="M32392 22743 c-22 -9 -33 -40 -22 -67 14 -37 66 -37 80 -1 11 30 4
52 -21 65 -10 6 -19 10 -21 9 -2 0 -9 -3 -16 -6z"/>
<path d="M31950 22445 l0 -35 80 0 80 0 0 35 0 35 -80 0 -80 0 0 -35z"/>
<path d="M32463 22473 c-60 -12 -46 -53 21 -60 56 -7 108 19 85 42 -16 15 -73
25 -106 18z"/>
<path d="M37170 18811 c0 -5 7 -11 15 -15 9 -3 15 0 15 9 0 8 -7 15 -15 15 -8
0 -15 -4 -15 -9z"/>
</g>
</svg>
