<?xml version="1.0" standalone="no"?>
<!DOCTYPE svg PUBLIC "-//W3C//DTD SVG 20010904//EN"
 "http://www.w3.org/TR/2001/REC-SVG-20010904/DTD/svg10.dtd">
<svg version="1.0" xmlns="http://www.w3.org/2000/svg"
 width="4593.000000pt" height="2599.000000pt" viewBox="0 0 4593.000000 2599.000000"
 preserveAspectRatio="xMidYMid meet">

<g transform="translate(0.000000,2599.000000) scale(0.100000,-0.100000)"
fill="#000000" stroke="none">
<path d="M22054 15623 c-19 -15 -52 -78 -64 -123 -11 -42 -19 -50 -143 -139
-73 -52 -136 -93 -140 -92 -5 1 -14 -4 -20 -12 -7 -8 -51 -44 -98 -80 -76 -58
-90 -75 -130 -148 -24 -46 -54 -95 -66 -109 -11 -14 -40 -61 -64 -105 -23 -43
-55 -99 -71 -124 -46 -73 -42 -86 88 -279 63 -95 125 -179 138 -187 49 -32
163 -17 208 28 8 8 29 22 47 31 31 17 32 17 22 -1 -18 -34 2 -47 71 -47 35 1
461 51 948 113 l885 113 63 40 c79 51 80 68 10 134 -41 38 -268 316 -508 623
-8 11 -109 70 -225 131 -115 62 -218 121 -228 131 -10 11 -23 19 -30 19 -15 0
-612 78 -652 85 -16 3 -35 2 -41 -2z m926 -858 l0 -255 -45 0 -45 0 0 83 -1
82 -24 -29 c-21 -27 -26 -29 -49 -18 -14 6 -39 30 -55 52 l-29 40 -22 -34
c-20 -34 -74 -86 -88 -86 -8 0 -52 66 -52 78 0 4 13 15 29 25 45 27 79 107 87
205 l7 82 42 0 43 0 4 -87 c3 -58 11 -100 22 -122 19 -35 62 -81 77 -81 5 0 9
72 9 160 l0 160 45 0 45 0 0 -255z m-960 140 l0 -95 -60 0 c-47 0 -60 -3 -60
-15 0 -12 17 -15 90 -15 l90 0 0 -35 0 -35 -225 0 -225 0 0 35 0 35 90 0 c73
0 90 3 90 15 0 12 -13 15 -60 15 l-60 0 0 95 0 95 165 0 165 0 0 -95z m490 40
c0 -32 -2 -35 -30 -35 l-30 0 0 -65 0 -65 30 0 c28 0 30 -3 30 -35 l0 -35 -70
0 -70 0 0 -40 0 -40 85 0 85 0 0 -35 0 -35 -220 0 -220 0 0 35 0 35 90 0 90 0
0 40 0 40 -70 0 -70 0 0 35 c0 32 2 35 30 35 l30 0 0 65 0 65 -30 0 c-28 0
-30 3 -30 35 l0 35 185 0 185 0 0 -35z m-490 -354 l0 -89 -48 -4 -48 -3 4 58
4 57 -126 0 -126 0 0 35 0 35 170 0 170 0 0 -89z"/>
<path d="M21770 14905 c0 -25 1 -25 80 -25 79 0 80 0 80 25 0 25 -1 25 -80 25
-79 0 -80 0 -80 -25z"/>
<path d="M22290 14845 l0 -65 35 0 35 0 0 65 0 65 -35 0 -35 0 0 -65z"/>
</g>
</svg>
