<?xml version="1.0" standalone="no"?>
<!DOCTYPE svg PUBLIC "-//W3C//DTD SVG 20010904//EN"
 "http://www.w3.org/TR/2001/REC-SVG-20010904/DTD/svg10.dtd">
<svg version="1.0" xmlns="http://www.w3.org/2000/svg"
 width="4593.000000pt" height="2599.000000pt" viewBox="0 0 4593.000000 2599.000000"
 preserveAspectRatio="xMidYMid meet">

<g transform="translate(0.000000,2599.000000) scale(0.100000,-0.100000)"
fill="#000000" stroke="none">
<path d="M21005 20799 c-88 -39 -103 -53 -116 -105 -10 -40 -13 -42 -54 -48
-57 -9 -77 -34 -116 -139 -25 -69 -30 -99 -26 -135 5 -44 3 -50 -40 -99 -38
-45 -47 -51 -64 -43 -12 7 -19 21 -19 40 0 56 -41 84 -210 145 -85 30 -165 55
-178 55 -30 0 -60 -16 -98 -52 l-31 -29 -82 95 c-105 122 -123 136 -175 136
-38 0 -46 -5 -111 -74 -60 -64 -74 -86 -94 -147 -21 -64 -33 -82 -108 -162
-68 -72 -94 -108 -134 -190 -66 -134 -64 -172 9 -216 46 -28 67 -57 54 -74 -5
-7 -8 -41 -8 -77 1 -36 -2 -83 -6 -105 -4 -22 -10 -60 -13 -85 -3 -25 -10 -57
-16 -71 -5 -14 -8 -48 -5 -75 3 -27 5 -59 5 -72 1 -16 16 -32 54 -56 81 -52
99 -79 148 -223 31 -93 154 -303 177 -303 25 0 92 23 92 31 0 5 74 58 165 119
91 61 165 108 165 104 0 -3 -16 -24 -34 -46 -69 -80 -58 -130 46 -214 144
-116 161 -114 290 34 152 175 148 169 148 217 0 31 -7 52 -23 71 l-23 26 28
28 c32 33 36 74 14 138 l-14 40 120 101 c67 56 125 98 129 94 4 -4 23 -51 42
-103 l34 -95 -84 -80 c-79 -76 -83 -82 -83 -123 0 -34 6 -50 28 -71 23 -24 41
-29 118 -39 50 -7 100 -12 112 -12 21 0 22 -5 22 -77 0 -87 5 -97 87 -198 84
-103 123 -107 229 -20 l65 54 40 -21 c39 -20 40 -20 139 -2 66 11 104 14 111
7 5 -5 12 -39 16 -75 l6 -65 -85 -61 c-77 -55 -94 -63 -179 -81 -100 -22 -104
-24 -165 -112 -29 -42 -39 -47 -195 -108 -90 -35 -172 -71 -181 -80 -9 -9 -42
-74 -73 -145 -64 -145 -67 -182 -20 -223 45 -40 93 -32 196 32 49 30 89 52 89
49 0 -4 -12 -23 -26 -42 -27 -34 -195 -152 -218 -152 -7 0 -58 22 -113 49
l-101 50 20 41 c18 36 19 46 9 81 -16 51 -50 69 -154 76 -77 5 -86 3 -150 -27
-91 -43 -111 -70 -103 -137 l6 -52 -45 -27 c-59 -34 -75 -59 -75 -115 l0 -47
-120 69 c-67 39 -136 73 -154 76 -38 6 -46 26 -46 111 0 76 -38 212 -83 297
-65 122 -108 146 -291 162 -74 6 -75 6 -106 -26 l-32 -31 7 -202 c4 -111 13
-225 20 -254 26 -111 103 -193 195 -209 39 -7 39 -7 23 -31 -13 -20 -15 -40
-10 -99 8 -92 21 -120 65 -141 33 -15 41 -15 140 5 58 11 106 20 107 18 1 -1
23 -28 49 -59 l47 -57 -50 -49 c-47 -44 -51 -52 -51 -95 0 -62 25 -87 127
-132 90 -39 120 -42 164 -19 29 14 32 14 44 -3 8 -10 9 -20 4 -21 -16 -6 53
-47 125 -75 38 -14 73 -24 77 -21 5 3 9 1 9 -4 0 -6 6 -9 13 -9 6 1 28 -2 47
-7 36 -8 67 1 107 30 21 15 23 15 42 -16 11 -18 52 -55 93 -83 l73 -49 68 6
c62 6 67 5 67 -13 0 -11 3 -27 7 -37 5 -13 3 -15 -8 -10 -8 4 6 -11 31 -33 35
-32 53 -41 81 -41 39 0 99 21 102 36 2 7 44 47 98 92 10 8 61 16 133 21 173
11 186 29 157 216 l-17 110 33 31 c26 24 33 40 33 68 0 20 3 36 8 36 4 0 26
18 48 39 l42 38 6 -59 c6 -48 14 -66 40 -96 l34 -37 -19 -35 c-11 -19 -19 -44
-19 -56 0 -27 121 -262 175 -339 l42 -60 -19 -42 c-17 -39 -22 -43 -54 -43
-51 0 -91 -24 -102 -62 -17 -52 -43 -273 -36 -294 13 -35 48 -64 85 -70 35 -6
37 -8 28 -31 -23 -62 -13 -92 80 -229 l90 -130 53 -13 c29 -7 179 -30 333 -50
l280 -36 224 -120 224 -120 95 -120 c53 -66 158 -197 234 -292 76 -95 138
-176 138 -182 0 -5 25 -31 55 -57 44 -37 59 -45 74 -38 38 18 919 638 929 654
6 10 11 151 13 362 4 362 2 377 -40 379 -9 0 -119 41 -246 92 l-229 92 -47
204 -47 205 249 438 c244 429 249 439 246 488 -2 28 -8 55 -13 59 -5 5 -97 41
-204 79 -107 39 -293 105 -412 148 l-218 79 0 238 c0 162 -4 245 -12 260 -6
12 -47 64 -90 115 l-78 93 0 145 c0 106 -4 152 -14 172 -8 15 -88 99 -178 188
-154 152 -167 163 -243 194 -44 18 -112 48 -152 66 -40 19 -74 34 -76 34 -12
0 -54 -47 -91 -102 -40 -61 -49 -67 -258 -193 -119 -71 -226 -138 -236 -148
-31 -28 -34 -62 -17 -149 9 -44 14 -82 11 -86 -3 -3 -30 -7 -60 -10 -61 -5
-56 -11 -71 103 -4 28 -11 58 -16 67 -7 14 2 26 45 60 99 79 100 110 7 267
l-69 116 -78 38 -79 39 4 45 c3 44 1 47 -55 99 -32 30 -70 58 -84 61 -14 4
-65 1 -115 -5 -81 -10 -93 -14 -117 -42 -34 -37 -36 -78 -9 -149 18 -49 18
-50 0 -67 -23 -21 -19 -24 -58 53 -41 83 -58 93 -152 93 -42 0 -90 5 -107 11
-30 10 -30 11 -25 69 5 56 4 60 -26 91 -29 29 -36 31 -80 27 l-49 -5 -6 36
c-3 20 -6 59 -6 86 0 31 -8 66 -20 90 -23 45 -19 50 47 60 27 4 56 17 74 33
39 35 40 75 5 202 l-27 95 28 20 c14 11 40 32 57 46 l30 26 -2 134 c-3 178 -9
230 -39 317 -42 120 -90 137 -218 81z m-1565 -1049 c0 -5 -4 -10 -10 -10 -5 0
-10 5 -10 10 0 6 5 10 10 10 6 0 10 -4 10 -10z m2344 -2416 c3 -8 -5 -19 -17
-25 -12 -6 -32 -21 -44 -32 l-23 -20 0 50 c0 65 -24 96 -93 119 -64 21 -61 18
-46 42 12 20 17 18 115 -50 57 -39 105 -77 108 -84z m-1284 -279 c0 -21 -17
-35 -41 -35 -26 0 -32 7 -54 56 -14 31 -25 58 -25 61 0 2 27 -15 60 -37 33
-22 60 -42 60 -45z m2450 -195 l0 -70 30 0 c25 0 30 -4 30 -25 0 -21 -5 -25
-30 -25 l-30 0 0 -80 0 -80 -35 0 -35 0 0 175 0 175 35 0 35 0 0 -70z m-470
-45 l0 -95 -155 0 -155 0 0 95 0 95 155 0 155 0 0 -95z m945 0 l-7 -95 26 0
c21 0 26 -5 26 -25 0 -25 -1 -25 -85 -25 l-85 0 0 -50 0 -50 -35 0 -35 0 0 50
0 50 -85 0 c-84 0 -85 0 -85 25 l0 25 145 0 145 0 0 24 c0 13 3 44 6 70 l7 46
-127 0 -126 0 0 25 0 25 161 0 161 0 -7 -95z m-655 70 c63 -33 79 -138 29
-191 -71 -76 -192 -38 -206 65 -14 104 84 174 177 126z m-240 -260 c0 -25 -1
-25 -85 -25 l-85 0 0 -85 0 -85 -35 0 -35 0 0 85 0 85 -85 0 c-84 0 -85 0 -85
25 l0 25 205 0 205 0 0 -25z m190 -70 l0 -55 125 0 125 0 0 -25 0 -25 -160 0
-160 0 0 80 0 80 35 0 35 0 0 -55z m450 -5 l0 -50 130 0 130 0 0 -25 0 -25
-165 0 -165 0 0 75 0 75 35 0 35 0 0 -50z"/>
<path d="M22240 16815 l0 -35 85 0 85 0 0 35 0 35 -85 0 -85 0 0 -35z"/>
<path d="M22675 16806 c-27 -41 8 -96 51 -79 8 3 20 17 25 31 12 31 -12 72
-41 72 -11 0 -27 -11 -35 -24z"/>
</g>
</svg>
