<?xml version="1.0" standalone="no"?>
<!DOCTYPE svg PUBLIC "-//W3C//DTD SVG 20010904//EN"
 "http://www.w3.org/TR/2001/REC-SVG-20010904/DTD/svg10.dtd">
<svg version="1.0" xmlns="http://www.w3.org/2000/svg"
 width="4593.000000pt" height="2599.000000pt" viewBox="0 0 4593.000000 2599.000000"
 preserveAspectRatio="xMidYMid meet">

<g transform="translate(0.000000,2599.000000) scale(0.100000,-0.100000)"
fill="#000000" stroke="none">
<path d="M35266 17743 c-10 -3 -44 -20 -75 -38 -31 -18 -387 -180 -791 -360
-835 -372 -806 -358 -821 -386 -6 -11 -26 -204 -46 -427 l-35 -407 -251 -380
c-137 -209 -273 -414 -300 -456 l-50 -77 -66 20 c-144 42 -221 48 -221 17 0
-6 -13 -28 -30 -49 -16 -21 -30 -41 -30 -45 0 -3 -57 -88 -127 -188 -69 -100
-130 -195 -135 -212 -8 -25 2 -69 58 -254 l67 -225 -52 -295 c-29 -163 -57
-317 -63 -342 l-9 -47 -92 -4 -92 -4 -215 -103 c-118 -57 -223 -110 -233 -119
-23 -20 -36 -70 -26 -103 11 -41 257 -412 282 -426 13 -7 62 -12 122 -13 l100
0 192 -158 193 -157 -1 -329 -1 -329 35 -35 c27 -27 38 -32 53 -24 11 5 40 16
65 25 38 12 49 13 70 1 38 -21 84 -17 116 10 66 57 237 257 281 330 l47 79
172 98 c170 98 172 98 255 105 78 6 93 12 240 85 120 60 161 85 171 106 8 16
20 71 26 123 18 149 21 158 44 164 17 4 38 -12 104 -84 46 -49 92 -91 101 -94
27 -9 720 32 740 43 18 9 445 439 551 552 l52 57 19 123 c11 67 23 125 27 129
25 24 458 259 464 253 3 -5 46 -96 94 -204 47 -109 97 -206 109 -218 36 -34
90 -28 191 21 l87 42 104 -52 c121 -60 156 -64 206 -24 62 49 349 306 391 350
32 33 66 95 138 250 l96 207 497 3 497 2 47 48 c26 26 145 132 264 235 224
194 243 218 232 277 -9 45 -40 65 -169 109 -66 23 -127 44 -135 47 -13 5 -13
7 1 17 40 30 51 96 23 136 -9 13 -83 66 -164 119 -144 95 -152 102 -335 300
-103 112 -199 208 -212 213 -13 5 -59 9 -102 9 l-77 0 -188 279 c-133 198
-196 283 -215 290 -34 14 -325 60 -421 67 -73 6 -77 5 -135 -31 -66 -40 -171
-117 -281 -206 l-71 -57 -168 39 c-93 21 -169 40 -171 42 -1 1 -18 157 -39
347 -20 190 -41 358 -47 373 -14 37 -24 41 -227 106 l-175 56 -51 299 c-48
277 -53 300 -77 321 -23 20 -41 23 -174 29 -82 4 -162 8 -179 11 -16 2 -38 1
-49 -2z m194 -2663 l0 -150 -45 0 -45 0 0 70 0 70 -40 0 c-39 0 -40 1 -40 35
0 34 1 35 40 35 l40 0 0 45 0 45 45 0 45 0 0 -150z m446 35 l-6 -95 25 0 c22
0 25 -4 25 -35 l0 -35 -85 0 -85 0 0 -50 0 -50 -45 0 -45 0 0 50 0 50 -85 0
-85 0 0 35 0 35 145 0 145 0 0 29 c0 16 3 43 6 60 l7 31 -127 0 -126 0 0 35 0
35 171 0 172 0 -7 -95z m-1196 50 l0 -35 85 0 85 0 0 35 c0 35 0 35 45 35 l45
0 0 -135 0 -135 -65 0 -65 0 0 -40 0 -40 90 0 90 0 0 -35 0 -35 -225 0 -225 0
0 35 0 35 90 0 90 0 0 40 0 40 -65 0 -65 0 0 135 0 135 45 0 c45 0 45 0 45
-35z m537 -27 c12 -62 43 -106 84 -120 11 -4 10 -12 -6 -41 -11 -20 -24 -37
-29 -37 -15 0 -75 41 -86 58 -9 15 -12 14 -31 -11 -12 -15 -38 -36 -58 -46
l-37 -19 -23 36 c-22 34 -23 37 -6 47 68 40 95 84 95 155 l0 40 43 0 42 0 12
-62z m153 -237 c68 -36 76 -111 17 -153 -65 -47 -258 -32 -287 22 -11 21 -13
70 -3 95 19 51 201 75 273 36z m250 -51 l0 -50 130 0 130 0 0 -35 0 -35 -175
0 -175 0 0 85 0 85 45 0 45 0 0 -50z"/>
<path d="M34710 15030 l0 -30 85 0 85 0 0 30 0 30 -85 0 -85 0 0 -30z"/>
<path d="M35224 14835 c-19 -15 -19 -15 0 -30 36 -27 136 -16 136 15 0 31
-100 42 -136 15z"/>
<path d="M39709 14805 c-25 -14 -92 -101 -123 -162 -20 -39 -21 -115 -2 -151
18 -35 145 -148 181 -162 51 -19 101 4 185 88 85 85 100 107 100 149 0 41 -19
63 -130 153 -127 103 -157 115 -211 85z"/>
<path d="M39324 14545 c-12 -8 -27 -29 -34 -47 -7 -18 -23 -55 -36 -82 -13
-28 -24 -63 -24 -78 0 -38 23 -90 51 -118 29 -27 156 -90 182 -90 33 0 71 27
141 99 66 70 68 73 63 113 -7 50 -15 58 -142 148 -84 58 -107 70 -140 70 -22
0 -50 -7 -61 -15z"/>
</g>
</svg>
