<?xml version="1.0" standalone="no"?>
<!DOCTYPE svg PUBLIC "-//W3C//DTD SVG 20010904//EN"
 "http://www.w3.org/TR/2001/REC-SVG-20010904/DTD/svg10.dtd">
<svg version="1.0" xmlns="http://www.w3.org/2000/svg"
 width="4593.000000pt" height="2599.000000pt" viewBox="0 0 4593.000000 2599.000000"
 preserveAspectRatio="xMidYMid meet">

<g transform="translate(0.000000,2599.000000) scale(0.100000,-0.100000)"
fill="#000000" stroke="none">
<path d="M39215 20686 c-19 -14 -20 -30 -25 -302 l-5 -287 -205 -72 c-113 -39
-214 -76 -225 -82 -11 -6 -80 -110 -153 -231 l-132 -220 -303 -74 c-210 -51
-309 -79 -325 -93 -20 -17 -30 -49 -58 -189 -19 -93 -35 -170 -36 -171 -2 -2
-100 -24 -219 -49 l-217 -47 -804 464 c-443 255 -815 473 -828 485 -33 30 -60
28 -116 -11 -27 -18 -148 -88 -270 -155 -229 -126 -244 -138 -244 -200 0 -15
61 -152 135 -305 l135 -278 -191 -450 c-227 -538 -221 -501 -109 -596 41 -36
112 -98 158 -140 l83 -76 152 -4 c84 -2 155 -7 158 -11 3 -4 27 -133 53 -287
32 -192 52 -288 65 -305 14 -20 56 -38 199 -85 99 -33 183 -63 186 -66 3 -3
22 -154 41 -335 19 -181 37 -343 40 -360 10 -57 35 -69 248 -118 109 -25 213
-46 230 -46 40 1 51 7 172 105 55 44 138 106 185 138 80 55 87 57 130 51 79
-11 294 -44 322 -50 21 -4 62 -58 217 -289 216 -320 199 -305 336 -305 l71 0
179 -195 c119 -130 197 -206 234 -230 31 -19 91 -56 135 -82 43 -26 85 -57 93
-70 8 -12 29 -31 47 -42 41 -25 66 -21 370 63 253 71 270 77 285 103 8 15 13
15 54 -7 l44 -23 271 69 271 69 86 -42 c147 -74 200 -57 236 73 17 62 18 82 7
277 l-12 210 39 34 c21 18 42 30 47 25 4 -4 70 -131 146 -282 148 -293 138
-279 232 -319 40 -17 117 -31 134 -25 9 3 97 103 196 221 l180 214 0 190 0
189 358 0 357 0 113 34 c67 20 123 43 137 56 30 28 39 68 25 105 -13 34 -379
412 -424 438 -17 9 -42 17 -56 17 -14 1 -144 52 -290 115 l-265 114 -3 232 -2
232 70 450 c60 380 69 455 59 479 -7 18 -56 61 -135 119 l-123 91 5 41 c3 23
20 175 39 337 18 162 36 306 39 320 13 49 8 112 -11 137 -10 14 -119 77 -253
147 l-235 122 -5 137 c-5 130 -6 138 -30 160 -62 59 -809 653 -840 668 -22 11
-129 28 -295 48 -143 17 -278 34 -300 36 -27 4 -47 1 -60 -9z m-295 -3046 c0
-28 2 -30 40 -30 39 0 40 -1 40 -35 0 -34 -1 -35 -40 -35 -25 0 -40 -5 -40
-12 0 -24 37 -73 66 -88 16 -8 31 -16 33 -17 7 -5 -33 -73 -42 -73 -16 0 -62
28 -81 49 l-20 21 -30 -29 c-29 -27 -67 -51 -80 -51 -6 0 -46 61 -46 70 0 3
16 14 37 25 23 13 42 34 54 60 l18 40 -44 3 c-44 3 -45 4 -45 38 0 34 0 34 45
34 43 0 45 1 45 30 0 29 2 30 45 30 43 0 45 -1 45 -30z m220 -160 l0 -190 -45
0 -45 0 0 85 0 85 -35 0 c-33 0 -35 2 -35 35 0 33 2 35 35 35 l35 0 0 70 0 70
45 0 45 0 0 -190z m460 -70 l0 -260 -45 0 -45 0 0 88 -1 87 -24 -29 c-21 -27
-26 -29 -49 -18 -14 6 -39 30 -55 52 l-29 40 -22 -34 c-20 -34 -74 -86 -88
-86 -8 0 -52 66 -52 78 0 4 13 15 29 25 45 27 79 107 87 205 l7 82 42 0 43 0
4 -87 c3 -58 11 -100 22 -122 19 -35 62 -81 77 -81 5 0 9 72 9 160 l0 160 45
0 45 0 0 -260z m-1071 211 c14 -49 60 -89 111 -97 l37 -6 -10 -35 c-6 -19 -17
-37 -24 -40 -22 -9 -109 27 -137 56 l-27 28 -33 -32 c-31 -29 -92 -55 -128
-55 -18 0 -43 54 -33 69 3 6 13 11 21 11 8 0 33 9 54 20 40 21 70 63 70 100 0
17 6 20 43 20 42 0 44 -1 56 -39z m161 -236 l0 -35 -80 0 -80 0 0 -35 c0 -35
0 -35 -45 -35 -45 0 -45 0 -45 35 l0 35 -90 0 -90 0 0 35 0 35 215 0 215 0 0
-35z m210 -100 l0 -45 125 0 125 0 0 -35 0 -35 -170 0 -170 0 0 80 0 80 45 0
45 0 0 -45z m-510 -5 l0 -40 130 0 130 0 0 -35 0 -35 -175 0 -175 0 0 75 0 75
45 0 45 0 0 -40z"/>
<path d="M12 3081 c-9 -15 -11 -36 -7 -59 6 -30 8 -33 16 -19 6 9 9 36 7 60
-3 41 -3 41 -16 18z"/>
</g>
</svg>
