<?xml version="1.0" standalone="no"?>
<!DOCTYPE svg PUBLIC "-//W3C//DTD SVG 20010904//EN"
 "http://www.w3.org/TR/2001/REC-SVG-20010904/DTD/svg10.dtd">
<svg version="1.0" xmlns="http://www.w3.org/2000/svg"
 width="4593.000000pt" height="2599.000000pt" viewBox="0 0 4593.000000 2599.000000"
 preserveAspectRatio="xMidYMid meet">

<g transform="translate(0.000000,2599.000000) scale(0.100000,-0.100000)"
fill="#000000" stroke="none">
<path d="M17278 20395 c-185 -27 -210 -38 -332 -155 -45 -42 -110 -96 -146
-120 -158 -105 -284 -215 -341 -296 l-28 -42 -143 1 c-201 2 -298 -26 -380
-108 -55 -55 -80 -117 -86 -208 -6 -97 13 -153 69 -200 47 -40 81 -52 219 -71
130 -19 204 -43 306 -102 43 -26 124 -71 179 -102 184 -101 206 -117 270 -179
53 -53 68 -63 97 -63 44 0 91 34 183 131 137 145 234 296 270 423 22 74 17
195 -9 246 -25 48 -83 108 -128 131 l-38 19 67 128 c36 70 99 183 138 252 123
213 129 229 104 284 -12 27 -65 57 -96 55 -10 0 -89 -11 -175 -24z"/>
<path d="M18137 19875 c-118 -24 -213 -78 -268 -153 -113 -155 -91 -452 43
-566 44 -38 96 -58 198 -77 82 -15 107 -27 205 -104 227 -176 293 -203 535
-215 235 -11 265 -27 363 -194 65 -111 135 -189 201 -224 72 -38 178 -38 256
-1 120 58 180 139 180 245 0 71 -16 126 -63 219 -19 39 -63 135 -98 215 -72
166 -89 194 -129 215 -16 8 -42 36 -57 63 -28 46 -28 49 -25 195 1 104 8 174
22 239 12 50 19 97 16 104 -3 7 -19 20 -37 30 -30 15 -36 15 -96 -1 -34 -9
-63 -21 -63 -25 0 -5 -21 -13 -46 -18 -40 -9 -77 -4 -243 28 l-196 38 -315 0
c-227 0 -334 -3 -383 -13z"/>
<path d="M13673 19755 l-34 -34 3 -205 c3 -200 4 -205 27 -230 45 -48 209 -83
310 -67 106 17 175 68 201 147 21 63 8 173 -29 249 -18 36 -43 73 -57 81 -27
18 -314 93 -357 94 -20 0 -40 -11 -64 -35z"/>
<path d="M17788 19079 c-267 -15 -358 -61 -419 -209 -33 -80 -33 -200 0 -256
13 -23 39 -50 58 -61 l35 -20 -94 -7 c-238 -18 -329 -76 -378 -246 -48 -168
-70 -253 -70 -275 0 -14 12 -38 28 -55 55 -61 208 -75 587 -57 l170 9 -45 -29
c-95 -62 -155 -159 -185 -298 -9 -44 -33 -127 -52 -184 -41 -120 -40 -162 3
-200 24 -20 35 -23 93 -19 86 5 135 29 247 123 148 124 161 129 349 135 172 7
194 12 239 56 89 89 72 251 -36 350 -25 23 -54 46 -64 52 -10 5 -77 13 -149
17 -98 6 -124 10 -105 17 14 5 42 26 63 46 44 43 67 109 67 194 0 49 -4 62
-27 88 -29 30 -379 233 -443 255 l-35 13 49 7 c41 7 64 3 145 -25 117 -39 287
-123 388 -191 150 -101 243 -128 325 -91 105 46 163 210 124 347 -22 75 -99
154 -206 209 -41 21 -156 96 -255 166 -203 144 -215 151 -247 149 -13 -1 -85
-6 -160 -10z"/>
<path d="M19360 18161 l-32 -31 7 -202 c4 -111 13 -225 20 -254 26 -111 103
-193 196 -209 21 -4 37 -10 34 -15 -5 -8 75 -20 135 -20 45 0 95 31 116 71 14
28 15 51 10 153 -10 160 -36 272 -89 371 -65 122 -108 146 -291 162 -74 6 -75
6 -106 -26z"/>
<path d="M18720 17868 c-14 -8 -33 -27 -43 -43 -10 -17 -41 -66 -69 -110 -113
-176 -125 -271 -46 -361 86 -98 302 -145 386 -85 46 32 60 66 76 179 7 54 19
108 25 120 14 26 14 64 0 96 -6 13 -62 65 -124 115 -120 97 -158 113 -205 89z"/>
<path d="M18563 17263 c-35 -7 -81 -60 -94 -106 -15 -55 -5 -153 29 -301 33
-137 49 -161 118 -172 146 -22 277 27 313 116 18 46 11 -5 -14 -101 -46 -174
-29 -281 53 -333 60 -39 106 -49 206 -44 124 6 203 43 301 142 147 150 185
301 98 396 -55 62 -128 97 -325 156 -199 59 -228 61 -269 18 -20 -21 -25 -39
-30 -112 -4 -62 -6 -72 -7 -35 -2 50 -7 59 -109 195 -60 78 -122 150 -138 160
-33 18 -97 29 -132 21z"/>
<path d="M16288 17001 c-31 -28 -32 -32 -30 -96 1 -61 -27 -244 -47 -297 -8
-21 -12 -19 -72 39 -63 61 -134 102 -174 103 -72 0 -157 -57 -189 -129 -21
-45 -34 -51 -132 -51 -144 0 -218 -67 -275 -252 -39 -126 -64 -155 -169 -199
-89 -36 -142 -75 -168 -122 -26 -48 -22 -279 6 -316 40 -55 48 -56 407 -54
l331 2 31 -67 c35 -75 83 -130 136 -155 52 -25 149 -22 220 7 l58 24 -8 -37
c-38 -189 70 -315 419 -486 73 -36 143 -73 154 -83 12 -9 49 -56 82 -103 65
-92 117 -143 166 -165 30 -13 28 -13 -39 -14 -81 0 -110 -15 -131 -66 -34 -82
-8 -169 64 -212 43 -25 56 -27 207 -32 140 -6 166 -9 205 -29 62 -32 134 -88
169 -132 l30 -36 -172 68 -172 69 -100 -6 c-278 -17 -387 -82 -441 -263 -20
-69 -54 -302 -54 -368 1 -113 45 -185 145 -234 61 -30 72 -32 219 -38 175 -8
165 -4 295 -118 65 -57 76 -63 115 -63 59 0 97 33 142 121 l34 69 81 0 c44 0
89 -4 99 -10 10 -5 47 -49 82 -97 60 -84 226 -276 289 -335 22 -21 39 -28 70
-28 36 0 48 7 101 58 147 140 283 366 302 503 8 57 -8 163 -34 223 -26 63 -91
130 -148 154 -26 11 -82 22 -126 26 -57 4 -102 16 -165 42 -47 20 -125 52
-173 72 -49 19 -88 38 -88 42 0 3 13 14 30 23 49 29 196 174 249 246 64 86
120 203 127 267 8 61 -12 106 -53 122 -31 13 -484 82 -533 82 -17 0 -53 -11
-79 -25 -63 -31 -175 -63 -254 -70 -51 -5 -58 -4 -42 6 40 24 77 65 103 114
33 64 42 206 19 305 -10 42 -12 69 -6 75 22 22 86 7 196 -49 130 -65 174 -71
220 -32 27 24 28 27 31 146 4 132 -13 241 -47 296 l-19 31 55 12 c132 30 190
158 129 286 -30 63 -108 138 -266 255 -179 133 -272 168 -389 149 -101 -16
-166 -81 -196 -194 -19 -75 -19 -105 1 -205 9 -45 15 -83 13 -85 -3 -2 -27 -7
-55 -10 -49 -7 -53 -6 -93 30 -24 22 -56 68 -79 113 -32 66 -37 85 -37 147 0
68 2 73 54 154 130 203 175 345 137 435 -15 35 -40 54 -448 329 -244 165 -261
171 -320 118z m199 -1396 c-4 -8 -16 -15 -28 -15 -21 0 -21 0 2 19 26 21 35
20 26 -4z"/>
<path d="M20207 16784 c-79 -16 -122 -39 -168 -91 -53 -61 -82 -136 -83 -217
-1 -100 24 -151 124 -246 l80 -76 -28 -26 c-30 -28 -71 -43 -147 -53 -92 -11
-154 -34 -196 -72 -47 -43 -70 -84 -94 -170 -14 -49 -22 -63 -39 -65 -70 -11
-246 51 -320 112 -57 47 -106 53 -150 19 -80 -63 -145 -341 -102 -443 21 -49
77 -90 227 -165 183 -91 291 -126 361 -117 101 14 238 80 387 188 136 99 164
102 291 28 89 -52 131 -63 209 -58 71 5 108 21 229 95 40 25 74 44 75 42 2 -2
21 -29 43 -59 23 -30 46 -65 53 -78 13 -24 42 -114 38 -118 -1 -2 -43 -10 -93
-18 -192 -34 -270 -74 -316 -165 -34 -67 -35 -118 -5 -220 16 -52 30 -80 48
-93 37 -28 158 -41 324 -35 115 4 155 9 225 31 47 15 92 28 100 30 50 8 173
66 252 119 98 67 148 125 170 200 15 52 15 161 1 179 -6 7 -28 58 -48 113 -21
55 -49 122 -62 150 -20 38 -22 50 -12 54 29 9 87 81 103 127 55 161 -20 336
-151 350 -29 3 -66 -8 -163 -49 -150 -63 -165 -80 -156 -184 3 -35 1 -63 -3
-63 -5 0 -41 11 -80 24 -112 38 -154 77 -179 168 -13 47 -8 51 93 79 98 26
162 58 204 100 49 49 64 86 69 174 4 75 2 82 -21 107 -14 15 -38 30 -54 33
-15 3 -75 21 -133 40 -87 28 -121 34 -198 34 -76 1 -103 5 -155 27 -128 53
-276 127 -271 135 3 5 -2 6 -10 3 -9 -3 -16 -1 -16 5 0 6 -7 8 -15 5 -8 -4
-15 -1 -15 7 0 7 -3 9 -6 6 -4 -3 -28 16 -54 43 -42 42 -82 72 -92 69 -2 -1
-34 -7 -71 -15z"/>
<path d="M18278 16304 c-15 -8 -32 -23 -38 -34 -5 -10 -10 -81 -10 -158 0
-125 2 -142 20 -165 30 -38 82 -52 195 -51 166 0 195 29 195 197 0 113 -15
159 -58 176 -25 10 -243 51 -266 51 -6 -1 -23 -7 -38 -16z"/>
<path d="M14925 14811 c-34 -14 -182 -149 -349 -318 -194 -197 -217 -211 -367
-226 l-109 -11 -72 51 c-40 27 -88 58 -107 68 -44 22 -117 23 -157 2 -68 -35
-246 -245 -300 -353 -15 -31 -19 -60 -19 -149 0 -104 2 -114 33 -177 18 -37
78 -125 132 -195 55 -70 110 -148 121 -173 11 -25 26 -56 32 -69 7 -13 27 -30
45 -38 26 -11 32 -18 26 -31 -15 -36 -16 -150 0 -233 19 -99 79 -295 109 -354
61 -121 121 -155 277 -155 98 -1 184 -11 196 -23 3 -2 8 -36 12 -74 5 -39 16
-82 25 -96 40 -62 133 -77 341 -58 223 21 254 40 329 201 59 127 105 183 246
295 167 132 210 191 211 283 0 123 -90 207 -334 312 -113 49 -119 50 -215 50
l-98 0 -17 82 c-36 168 -81 239 -162 254 -96 18 -179 -49 -278 -224 -70 -125
-98 -162 -121 -162 -13 0 -15 27 -15 163 0 142 -13 293 -36 412 l-7 37 139 -8
c215 -14 314 -9 479 21 83 15 194 29 248 32 144 9 148 14 166 235 8 93 10 102
86 259 92 191 104 246 63 294 -24 27 -28 28 -269 56 -275 32 -257 30 -284 20z"/>
<path d="M5820 14183 c-30 -11 -60 -47 -66 -80 -4 -21 -26 -57 -55 -90 -26
-30 -53 -71 -60 -90 -18 -55 -6 -159 24 -220 35 -67 138 -177 187 -199 l38
-17 4 -93 c3 -84 6 -96 33 -136 64 -90 249 -143 426 -121 196 25 264 120 230
318 -31 175 -125 242 -332 233 l-99 -4 0 29 c0 33 -20 75 -48 100 -21 19 -21
19 14 49 40 36 70 120 60 174 -12 63 -39 80 -181 119 -131 35 -148 38 -175 28z"/>
<path d="M15466 13927 c-130 -137 -192 -356 -135 -474 51 -105 188 -158 312
-121 96 29 203 176 229 315 14 79 9 87 -120 192 -140 113 -169 131 -210 131
-29 0 -43 -8 -76 -43z"/>
<path d="M1875 13251 c-49 -21 -59 -46 -66 -170 -10 -172 -29 -210 -146 -289
-145 -99 -193 -162 -193 -257 0 -59 21 -109 55 -131 23 -15 50 -18 149 -18
112 -1 125 1 183 28 80 36 140 100 268 281 123 175 205 283 261 347 38 42 44
55 44 94 0 36 -6 51 -28 73 -27 28 -32 29 -167 35 -77 3 -185 8 -240 11 -55 3
-109 1 -120 -4z"/>
<path d="M5663 13100 c-45 -27 -87 -88 -114 -166 -34 -95 -71 -133 -191 -194
-133 -67 -190 -111 -238 -182 -76 -115 -94 -225 -79 -488 6 -96 16 -188 21
-203 20 -54 54 -62 243 -61 189 2 296 22 367 69 46 31 64 64 83 156 20 96 56
158 140 245 76 78 125 107 255 149 202 66 285 145 247 236 -7 17 -95 104 -207
204 -194 174 -196 176 -297 215 -117 46 -179 51 -230 20z"/>
<path d="M18520 13078 c-47 -13 -178 -147 -213 -217 -75 -151 8 -290 174 -291
43 0 70 7 118 31 120 60 147 151 96 329 -34 117 -38 126 -75 145 -33 17 -50
18 -100 3z"/>
<path d="M4697 12706 c-166 -45 -170 -245 -7 -329 32 -16 80 -31 112 -34 54
-5 59 -4 87 25 41 41 43 97 5 136 -15 14 -33 26 -41 26 -10 0 -8 8 8 29 32 44
28 99 -10 133 -35 32 -74 35 -154 14z"/>
<path d="M17936 12605 c-20 -14 -73 -54 -116 -90 -105 -84 -120 -92 -235 -109
-79 -12 -106 -20 -142 -45 -24 -17 -50 -31 -57 -31 -8 0 -26 -14 -40 -31 -22
-26 -26 -40 -26 -98 0 -37 9 -117 20 -179 26 -140 22 -151 -95 -251 -93 -79
-109 -113 -85 -172 18 -43 38 -53 184 -89 147 -37 279 -44 386 -21 41 9 123
44 220 94 207 106 215 109 360 116 146 7 188 23 235 90 28 40 30 49 30 131 l0
88 -60 117 c-56 110 -67 123 -182 236 -68 65 -123 123 -123 129 0 5 -39 39
-87 75 -100 74 -128 80 -187 40z"/>
<path d="M6312 12357 c-155 -87 -192 -135 -192 -254 1 -107 34 -165 114 -198
59 -25 271 -22 306 3 52 39 54 56 25 244 -30 200 -38 224 -76 243 -46 24 -79
17 -177 -38z"/>
<path d="M14485 12126 c-49 -49 -84 -241 -54 -299 36 -69 91 -97 234 -117 44
-7 97 -21 117 -31 51 -26 90 -24 127 7 49 41 48 72 -2 209 -71 191 -71 191
-155 202 -26 3 -71 17 -101 29 -71 32 -134 32 -166 0z"/>
<path d="M15399 12115 c-30 -16 -51 -62 -68 -146 l-12 -57 -49 -4 c-70 -7
-111 -42 -154 -131 -35 -71 -66 -194 -66 -260 0 -106 60 -201 158 -249 62 -31
74 -33 169 -34 l102 0 46 -63 45 -62 -46 -65 c-101 -141 -110 -254 -27 -339
56 -58 108 -79 188 -79 88 0 125 18 225 113 94 89 114 95 257 81 131 -14 201
-7 271 26 56 27 82 62 82 111 0 30 -228 384 -264 409 -11 8 -38 14 -60 14
-115 0 -207 127 -226 316 -22 207 -63 278 -210 357 -129 70 -295 98 -361 62z"/>
<path d="M16216 11880 c-34 -11 -73 -45 -92 -82 -29 -55 -12 -134 42 -196 45
-53 101 -82 168 -89 l52 -5 -4 -112 c-5 -134 6 -183 55 -237 46 -51 67 -62
200 -100 79 -22 122 -41 158 -68 70 -53 108 -71 150 -71 85 0 149 62 185 178
47 151 12 227 -161 343 -94 63 -102 74 -143 205 -27 84 -66 153 -110 193 -25
24 -32 25 -139 22 -76 -1 -132 3 -172 14 -64 16 -143 18 -189 5z"/>
<path d="M12734 11856 c-60 -28 -129 -87 -151 -129 l-15 -30 -127 6 c-144 8
-190 -1 -222 -41 -17 -22 -20 -36 -16 -78 9 -85 58 -168 161 -270 107 -106
181 -147 296 -165 92 -14 293 -6 373 15 126 34 207 97 207 160 0 22 -40 115
-114 268 l-114 235 -53 27 c-71 35 -153 36 -225 2z"/>
<path d="M16720 10730 c-118 -33 -248 -66 -287 -74 -125 -26 -200 -78 -269
-184 -20 -31 -56 -86 -80 -122 -23 -36 -65 -91 -93 -123 -72 -82 -79 -130 -26
-183 21 -21 33 -24 99 -24 253 0 588 159 816 389 166 167 216 278 157 346 -38
44 -78 41 -317 -25z"/>
<path d="M3460 8919 c-66 -27 -148 -140 -195 -269 -71 -197 -7 -370 137 -370
81 0 144 44 261 182 74 87 73 102 -11 278 -38 80 -78 153 -89 162 -25 23 -71
30 -103 17z"/>
<path d="M3338 8146 c-57 -20 -85 -42 -116 -88 -24 -37 -27 -51 -27 -122 0
-102 31 -174 104 -244 103 -99 208 -132 422 -132 163 0 203 9 224 51 40 77 1
148 -132 238 l-50 34 -18 105 c-23 132 -38 153 -121 163 -97 12 -246 9 -286
-5z"/>
<path d="M24 3115 c-24 -24 -25 -31 -20 -83 4 -31 10 -181 14 -332 11 -374 15
-382 231 -472 92 -39 167 -80 279 -155 84 -56 172 -108 195 -114 70 -20 182
-14 276 16 112 36 189 73 203 98 19 36 13 95 -12 122 -12 13 -106 80 -209 148
-197 132 -271 194 -271 228 0 11 12 66 27 122 16 64 27 130 27 177 1 65 -3 82
-27 122 -28 49 -84 90 -149 109 -38 12 -359 38 -466 39 -65 0 -76 -3 -98 -25z"/>
</g>
</svg>
