<?xml version="1.0" standalone="no"?>
<!DOCTYPE svg PUBLIC "-//W3C//DTD SVG 20010904//EN"
 "http://www.w3.org/TR/2001/REC-SVG-20010904/DTD/svg10.dtd">
<svg version="1.0" xmlns="http://www.w3.org/2000/svg"
 width="4593.000000pt" height="2599.000000pt" viewBox="0 0 4593.000000 2599.000000"
 preserveAspectRatio="xMidYMid meet">

<g transform="translate(0.000000,2599.000000) scale(0.100000,-0.100000)"
fill="#000000" stroke="none">
<path d="M43850 16396 c-193 -97 -294 -173 -320 -242 -30 -77 10 -201 89 -282
62 -63 97 -75 236 -82 70 -3 120 -9 120 -15 0 -6 -92 -20 -210 -32 -210 -23
-210 -23 -237 -53 -36 -39 -37 -89 -3 -149 14 -24 24 -45 23 -47 -2 -1 -34
-25 -71 -52 -67 -50 -82 -56 -235 -87 -31 -6 -78 -54 -147 -147 l-20 -28 -207
22 -208 22 28 29 c21 22 27 38 27 70 0 36 -10 55 -63 129 -34 48 -72 90 -85
94 -33 11 -72 7 -104 -9 l-28 -15 -160 156 -160 156 -41 101 c-49 119 -74 194
-74 218 0 16 -24 17 -369 17 l-370 0 -15 -22 c-13 -19 -16 -58 -16 -223 l0
-201 -146 -175 c-81 -96 -152 -176 -158 -178 -18 -6 -96 -93 -90 -102 2 -4
-43 -68 -101 -140 -96 -121 -105 -136 -105 -175 0 -52 80 -251 112 -277 20
-16 43 -18 278 -15 l256 3 69 -198 c39 -109 72 -203 73 -208 2 -5 -23 -9 -57
-9 -81 0 -107 -23 -122 -104 -13 -74 -8 -102 30 -163 l30 -48 -23 -12 c-32
-17 -44 -53 -49 -152 -6 -103 3 -130 59 -176 43 -35 44 -38 44 -93 0 -97 -4
-102 -67 -102 -30 0 -63 -5 -74 -10 -32 -18 -159 -210 -159 -242 0 -67 37
-100 124 -113 25 -4 46 -10 46 -13 0 -3 -14 -47 -32 -97 l-32 -91 27 -153 c15
-84 25 -157 22 -162 -9 -14 -55 -260 -55 -294 0 -17 7 -40 15 -53 15 -21 14
-23 -22 -54 -20 -18 -67 -60 -105 -93 -57 -52 -76 -63 -128 -73 -33 -7 -65
-10 -70 -7 -6 4 -26 37 -45 75 -48 95 -88 118 -158 91 -38 -15 -147 -176 -147
-218 0 -42 254 -607 288 -642 20 -20 30 -23 75 -18 29 2 60 8 70 12 14 6 17 2
17 -25 0 -21 9 -41 28 -59 24 -25 40 -30 129 -41 l101 -12 12 -46 c32 -129 47
-134 288 -92 194 34 234 47 252 79 13 25 13 87 0 111 -5 10 -61 48 -125 85
-112 65 -115 67 -95 83 23 19 80 196 80 250 0 24 -9 42 -30 63 -23 24 -26 31
-14 36 19 7 39 48 48 96 4 20 9 37 11 37 2 0 24 -9 50 -20 76 -32 127 -23 158
30 24 39 21 60 -14 145 -18 42 -30 77 -28 79 2 3 120 -30 261 -72 l256 -77 5
-44 c3 -23 13 -55 24 -70 17 -22 17 -29 6 -51 -8 -16 -13 -64 -13 -130 0 -120
7 -136 70 -171 l40 -23 -53 -16 c-102 -32 -147 -86 -147 -175 0 -59 20 -102
77 -165 34 -38 57 -53 96 -65 70 -21 135 -19 174 5 56 34 63 104 26 284 l-6
28 45 -26 c25 -14 54 -26 66 -26 l22 0 -20 -32 c-24 -39 -26 -95 -6 -143 l15
-35 -44 -11 c-25 -6 -56 -23 -71 -38 l-26 -26 7 -158 c7 -167 14 -209 41 -238
24 -26 74 -33 115 -16 l34 14 15 -45 c8 -25 27 -54 42 -65 26 -19 34 -20 254
-9 250 13 264 16 290 78 8 19 26 60 40 91 l25 57 38 -42 c24 -25 48 -42 62
-43 70 -2 274 2 341 7 70 6 81 10 118 41 48 41 77 39 122 -9 l29 -31 -112 -60
-113 -59 -175 -24 c-97 -13 -184 -27 -194 -30 -23 -7 -57 -62 -57 -92 0 -71
89 -158 339 -331 l216 -149 134 -165 c128 -158 159 -187 201 -187 15 0 155 45
234 76 17 7 17 5 2 -24 -24 -47 -20 -75 29 -171 61 -122 60 -122 291 -80 l178
32 30 -37 c21 -25 31 -49 32 -77 3 -53 30 -81 102 -107 109 -39 133 -35 198
36 l53 57 133 -27 c170 -35 211 -36 243 -3 24 23 25 29 25 168 0 184 7 176
-202 241 -145 46 -157 48 -233 43 l-80 -6 -74 128 -74 128 -206 180 -207 180
-28 129 c-27 126 -35 147 -66 171 -8 6 -85 24 -170 39 -85 15 -160 32 -166 38
-5 6 -20 44 -33 84 l-22 72 51 58 52 59 51 -55 c65 -68 113 -91 193 -92 110 0
184 61 184 153 0 44 -12 70 -48 110 l-26 28 67 -31 68 -31 262 21 c178 14 268
25 283 35 13 8 39 59 69 132 49 123 55 178 23 209 -7 7 -73 42 -146 79 -107
52 -132 69 -128 83 3 9 10 46 16 82 18 102 90 443 98 462 4 10 29 33 57 51 63
41 81 76 66 126 -8 30 -52 74 -222 227 -116 104 -222 198 -235 209 -24 20 -24
20 -7 66 15 41 15 48 0 77 -8 18 -14 32 -12 32 1 0 19 -7 38 -15 68 -28 135
-10 155 42 7 16 13 113 14 230 3 191 2 203 -17 222 -11 11 -130 67 -264 125
-134 58 -255 115 -267 127 l-23 22 49 46 c44 42 50 52 50 88 0 54 -27 83 -101
113 l-56 22 -7 210 -6 209 167 185 c93 102 172 195 176 207 5 13 -4 116 -23
257 -17 129 -31 247 -33 262 -2 22 13 38 100 107 132 105 136 118 72 239 -24
46 -62 113 -84 150 -39 64 -43 68 -120 101 -136 59 -151 57 -355 -44 l-175
-87 -55 23 c-30 12 -56 23 -57 24 -1 0 9 23 22 50 14 26 25 65 25 85 l0 38 53
4 c31 3 80 19 122 39 61 30 72 39 83 73 6 21 13 66 15 101 2 54 -1 67 -21 88
-17 18 -20 26 -10 29 7 3 -9 8 -37 12 -57 9 -122 36 -181 76 -94 65 -273 131
-354 130 -14 -1 -72 -25 -130 -54z m-1172 -1692 l22 -6 0 -259 0 -259 -45 0
-45 0 0 95 0 95 -35 0 c-28 0 -42 -7 -66 -35 -28 -32 -36 -35 -84 -35 -46 0
-58 4 -84 30 -35 35 -51 84 -51 155 0 71 16 120 51 155 41 40 112 43 153 5 14
-13 26 -29 26 -35 0 -5 20 -10 45 -10 l45 0 0 55 c0 50 2 55 23 55 12 0 32 -3
45 -6z m952 -264 l0 -260 -45 0 -45 0 0 88 -1 87 -24 -29 c-21 -27 -26 -29
-49 -18 -14 6 -39 30 -55 52 l-29 40 -22 -34 c-20 -34 -74 -86 -88 -86 -8 0
-52 66 -52 78 0 4 13 15 29 25 45 27 79 107 87 205 l7 82 42 0 43 0 4 -87 c3
-58 11 -100 22 -122 19 -35 62 -81 77 -81 5 0 9 72 9 160 l0 160 45 0 45 0 0
-260z m-610 229 c0 -51 47 -103 111 -124 27 -9 49 -18 49 -20 0 -1 -7 -19 -15
-38 -14 -35 -15 -35 -52 -25 -51 13 -119 53 -127 74 -6 15 -11 13 -39 -13 -37
-35 -58 -47 -110 -61 -36 -10 -38 -9 -53 20 -17 33 -13 58 11 58 26 0 91 37
107 62 9 13 19 38 22 56 7 30 10 32 52 32 38 0 44 -3 44 -21z m170 -274 l0
-35 -85 0 -85 0 0 -85 0 -85 -45 0 -45 0 0 85 0 85 -90 0 -90 0 0 35 0 35 220
0 220 0 0 -35z m-1443 -505 c13 -19 13 -24 2 -31 -8 -5 -25 -9 -39 -9 -14 0
-39 -9 -57 -19 -29 -18 -33 -18 -45 -4 -11 14 -65 41 -133 67 l-20 8 20 8 c11
5 73 7 138 5 109 -3 120 -5 134 -25z m1664 -406 c137 -114 249 -211 249 -216
0 -5 -11 -31 -25 -58 -29 -58 -33 -119 -7 -148 30 -35 141 -110 173 -117 22
-5 44 0 81 18 50 25 51 25 77 7 30 -21 336 -110 380 -110 17 0 42 11 61 26
l31 27 -3 112 c-3 123 -4 122 50 76 21 -18 22 -25 16 -80 -9 -83 0 -109 59
-163 46 -43 49 -50 39 -72 -6 -13 -92 -96 -193 -184 l-181 -161 -115 -42
c-164 -60 -163 -57 -137 -340 l5 -56 -131 -197 c-144 -219 -151 -239 -104
-295 20 -24 24 -37 19 -60 -9 -44 22 -148 53 -171 20 -17 40 -20 114 -20 l89
0 -15 -22 c-22 -32 -20 -94 4 -128 24 -34 24 -34 -89 -50 -93 -13 -123 -34
-135 -93 l-6 -29 -42 32 c-132 99 -138 99 -311 41 l-119 -40 -26 32 c-14 18
-47 53 -72 79 -29 30 -44 52 -39 60 4 7 13 74 19 149 10 113 10 141 -2 162 -7
14 -78 78 -158 142 -80 64 -146 121 -148 125 -2 5 18 50 43 101 63 125 62 132
-58 262 -87 94 -94 105 -94 142 0 35 -18 69 -116 225 l-115 184 40 36 c33 29
41 43 44 80 5 42 1 52 -70 160 -56 87 -72 118 -64 128 9 10 16 8 37 -11 62
-58 101 -60 187 -10 98 57 111 106 54 207 l-33 58 149 141 c82 78 178 170 214
204 36 35 66 63 68 63 2 0 115 -93 253 -206z m819 -181 c19 -17 49 -43 65 -58
17 -15 -4 -2 -45 27 -54 39 -76 61 -77 79 -3 23 -2 23 10 4 6 -11 28 -34 47
-52z m121 -100 c13 -16 12 -17 -3 -4 -17 13 -22 21 -14 21 2 0 10 -8 17 -17z
m-2986 -1473 c3 -6 -1 -7 -9 -4 -18 7 -21 14 -7 14 6 0 13 -4 16 -10z m2852
-392 l35 -48 -29 0 c-15 0 -46 -3 -67 -7 l-39 -6 16 24 c9 13 17 39 17 57 0
46 22 39 67 -20z m318 -274 c-40 -31 -53 -35 -59 -18 -9 25 2 34 42 34 35 -1
36 -1 17 -16z"/>
<path d="M42395 14570 c-29 -32 -26 -143 3 -173 l22 -21 22 21 c29 30 32 141
3 173 -10 11 -21 20 -25 20 -4 0 -15 -9 -25 -20z"/>
<path d="M42550 14485 c0 -43 1 -45 30 -45 29 0 30 2 30 45 0 43 -1 45 -30 45
-29 0 -30 -2 -30 -45z"/>
<path d="M45283 8953 c-75 -80 -108 -151 -108 -232 l0 -65 -45 -11 c-146 -38
-197 -111 -188 -269 7 -103 52 -267 83 -296 17 -16 43 -23 111 -30 196 -21
310 -9 386 39 64 41 80 81 89 226 7 128 23 185 108 407 23 59 41 118 41 133 0
34 -24 81 -47 90 -39 16 -289 65 -332 65 -42 0 -49 -4 -98 -57z"/>
<path d="M38510 6326 c-132 -68 -131 -64 -113 -247 11 -105 32 -146 93 -177
74 -38 146 -23 253 56 87 63 129 173 97 256 -26 70 -146 156 -215 155 -16 0
-68 -20 -115 -43z m181 -79 c44 -29 74 -85 66 -119 -16 -64 -123 -148 -187
-148 -61 0 -78 30 -81 149 l-2 75 59 33 c70 39 99 41 145 10z"/>
<path d="M37813 6266 c-39 -18 -53 -43 -53 -98 0 -24 -9 -95 -20 -158 -22
-124 -26 -270 -10 -301 13 -24 61 -49 95 -49 93 0 146 36 265 183 86 106 108
176 78 242 -12 27 -251 178 -298 189 -14 3 -39 -1 -57 -8z m162 -157 c108 -67
115 -72 109 -97 -4 -15 -17 -40 -30 -57 -13 -16 -47 -61 -76 -98 -56 -73 -89
-97 -138 -97 -29 0 -30 1 -30 49 0 27 9 100 20 162 11 63 20 135 20 162 0 26
2 47 5 47 3 0 57 -32 120 -71z"/>
<path d="M36233 5592 c-32 -31 -121 -100 -198 -151 -145 -97 -189 -133 -207
-165 -6 -11 -21 -62 -34 -114 -13 -51 -38 -126 -56 -165 -43 -94 -45 -155 -5
-194 27 -27 30 -28 146 -28 106 0 123 2 148 21 l28 21 65 -31 c55 -26 80 -31
163 -34 64 -3 108 0 128 8 29 12 59 54 59 82 0 33 -24 91 -61 148 -22 34 -37
66 -32 70 4 4 32 15 61 25 62 20 114 62 132 105 27 64 10 125 -76 275 -95 169
-109 185 -163 185 -36 0 -47 -7 -98 -58z m174 -166 c39 -68 75 -140 78 -159 9
-48 -20 -75 -114 -105 -81 -26 -116 -60 -107 -103 3 -15 28 -62 56 -104 27
-43 50 -87 50 -98 0 -19 -5 -20 -81 -14 -98 6 -198 50 -226 97 -11 19 -25 30
-40 30 -23 0 -29 -12 -35 -69 -4 -32 -36 -40 -122 -34 -79 7 -80 11 -36 105
17 36 41 108 54 161 13 52 27 100 30 105 3 6 72 55 153 109 81 54 172 121 203
150 30 29 57 52 60 53 3 0 38 -56 77 -124z"/>
<path d="M15 3090 c-17 -33 -19 -50 -6 -50 8 0 41 60 41 74 0 17 -21 2 -35
-24z"/>
<path d="M37277 2380 c-150 -48 -207 -101 -207 -193 0 -92 52 -163 195 -270
121 -90 188 -121 262 -122 72 0 103 21 122 84 22 77 15 107 -78 300 -48 101
-98 194 -110 207 -30 31 -71 30 -184 -6z m209 -245 c74 -154 83 -180 76 -208
-7 -27 -14 -33 -40 -35 -42 -4 -127 41 -228 123 -181 144 -177 215 12 274 49
15 91 27 92 25 2 -1 42 -82 88 -179z"/>
<path d="M36641 2310 c-103 -86 -133 -159 -106 -261 27 -106 206 -424 312
-557 57 -70 76 -76 254 -78 94 -1 164 -6 177 -13 38 -20 81 -13 113 18 41 41
40 98 -2 177 -17 33 -36 77 -43 98 -15 51 -47 73 -126 85 -80 13 -89 22 -130
147 -30 90 -40 106 -153 248 -66 83 -129 159 -141 168 -11 10 -38 18 -58 18
-30 0 -49 -10 -97 -50z m214 -186 c107 -133 120 -154 147 -235 48 -144 82
-181 187 -202 55 -11 66 -16 71 -37 4 -14 22 -54 39 -89 18 -34 30 -65 28 -68
-3 -2 -22 0 -44 6 -21 6 -100 11 -175 11 -75 0 -144 3 -154 7 -25 9 -206 289
-271 420 -38 75 -57 127 -61 161 -4 51 -4 51 53 111 32 34 59 61 60 61 2 0 56
-66 120 -146z"/>
</g>
</svg>
