<?xml version="1.0" standalone="no"?>
<!DOCTYPE svg PUBLIC "-//W3C//DTD SVG 20010904//EN"
 "http://www.w3.org/TR/2001/REC-SVG-20010904/DTD/svg10.dtd">
<svg version="1.0" xmlns="http://www.w3.org/2000/svg"
 width="4593.000000pt" height="2599.000000pt" viewBox="0 0 4593.000000 2599.000000"
 preserveAspectRatio="xMidYMid meet">

<g transform="translate(0.000000,2599.000000) scale(0.100000,-0.100000)"
fill="#000000" stroke="none">
<path d="M22392 25220 c-101 -26 -190 -54 -199 -62 -9 -7 -70 -93 -135 -191
l-118 -178 0 -189 c0 -188 0 -189 26 -219 l26 -31 -27 0 c-14 0 -35 -5 -46
-10 -11 -6 -53 -78 -94 -159 -40 -82 -106 -192 -144 -246 l-71 -97 0 -159 0
-158 -42 -39 -42 -39 -6 -99 c-4 -63 -12 -111 -23 -131 -10 -19 -17 -55 -17
-87 0 -46 -3 -56 -21 -61 -36 -12 -59 -63 -59 -135 0 -46 -5 -71 -18 -86 -16
-20 -22 -21 -117 -12 -98 9 -100 10 -151 53 -100 86 -128 83 -237 -24 -89 -88
-97 -106 -97 -236 0 -166 25 -201 137 -192 l64 5 -106 -65 c-154 -94 -169
-142 -79 -242 49 -54 50 -71 5 -71 -25 0 -38 15 -121 139 -50 77 -101 148
-112 158 -24 22 -97 24 -122 4 -9 -8 -53 -66 -96 -130 l-80 -115 0 -82 c0 -78
-2 -84 -30 -112 -34 -34 -39 -75 -15 -122 15 -29 25 -34 180 -87 l79 -28 27
-85 c14 -47 29 -109 33 -139 4 -30 13 -66 21 -81 24 -46 55 -52 258 -48 l186
3 28 27 28 27 159 -40 c87 -22 165 -38 172 -35 20 8 17 -14 -12 -93 l-26 -71
-103 7 -104 6 -30 -31 c-24 -23 -31 -39 -31 -69 0 -40 13 -63 83 -146 36 -42
38 -48 32 -94 -10 -81 7 -98 186 -180 85 -39 167 -73 184 -75 26 -3 32 2 50
37 17 35 244 405 248 405 1 0 165 -31 363 -69 l361 -68 304 33 c167 19 325 34
350 34 26 0 229 -27 451 -60 l403 -59 140 -67 c159 -75 189 -83 231 -60 16 9
117 101 224 206 l195 189 240 1 c221 0 243 2 272 20 18 11 35 30 38 42 3 13 7
176 8 364 l2 341 440 462 c242 254 443 467 446 474 13 22 38 379 29 397 -10
19 -6 18 -573 110 -203 33 -388 60 -411 60 -41 0 -58 -11 -286 -186 l-243
-185 -128 12 -128 12 -232 303 c-206 270 -236 305 -273 319 -22 8 -99 35 -171
59 l-130 43 -5 240 c-4 214 -7 243 -23 261 -10 11 -143 68 -302 128 l-284 109
-3 257 -3 258 -25 25 c-32 31 -493 246 -540 251 -21 2 -109 -16 -218 -46z
m578 -2705 l0 -155 -45 0 c-43 0 -45 1 -45 30 0 29 -2 30 -42 30 -26 0 -55 -8
-73 -20 -60 -40 -160 -19 -190 40 -63 122 66 245 188 180 20 -11 55 -20 77
-20 39 0 40 1 40 35 0 35 0 35 45 35 l45 0 0 -155z m450 85 c0 -57 1 -60 25
-60 22 0 25 -4 25 -35 0 -31 -3 -35 -25 -35 -24 0 -25 -3 -25 -60 l0 -60 -45
0 -45 0 0 155 0 155 45 0 45 0 0 -60z m466 -55 l-6 -95 25 0 c22 0 25 -4 25
-35 l0 -35 -85 0 -85 0 0 -50 0 -50 -45 0 -45 0 0 50 0 50 -85 0 -85 0 0 35 0
35 145 0 145 0 0 29 c0 16 3 43 6 60 l7 31 -127 0 -126 0 0 35 0 35 171 0 172
0 -7 -95z m-586 6 c0 -44 -4 -82 -8 -85 -5 -3 -26 -2 -47 1 l-37 6 5 43 5 44
-89 0 -89 0 0 35 0 35 130 0 130 0 0 -79z m-120 -72 l0 -42 70 6 70 6 0 -34
c0 -22 -6 -35 -17 -40 -10 -4 -78 -9 -150 -12 l-133 -6 0 37 c0 35 1 36 40 36
l40 0 0 45 0 45 40 0 40 0 0 -41z m-273 -146 c20 -9 41 -30 51 -50 14 -30 14
-36 0 -66 -22 -47 -70 -67 -156 -67 -39 0 -83 5 -99 11 -97 37 -99 139 -3 178
42 16 168 13 207 -6z m432 7 c69 -20 102 -83 71 -139 -35 -67 -285 -67 -320 0
-29 54 -1 114 65 137 39 13 141 15 184 2z m291 -60 l0 -50 130 0 130 0 0 -35
0 -35 -175 0 -175 0 0 85 0 85 45 0 45 0 0 -50z"/>
<path d="M22672 22553 c-23 -9 -33 -40 -22 -68 8 -22 15 -26 42 -23 26 2 35 9
43 32 8 24 6 31 -14 47 -24 20 -28 21 -49 12z"/>
<path d="M22820 22510 c0 -16 7 -20 30 -20 23 0 30 4 30 20 0 16 -7 20 -30 20
-23 0 -30 -4 -30 -20z"/>
<path d="M22734 22265 c-19 -15 -19 -15 0 -30 36 -27 136 -16 136 15 0 31
-100 42 -136 15z"/>
<path d="M23206 22272 c-64 -15 -27 -52 53 -52 43 0 82 23 66 39 -13 14 -83
21 -119 13z"/>
<path d="M15604 24129 c-40 -11 -54 -33 -89 -138 -33 -101 -30 -146 14 -202
l31 -38 -38 -31 c-54 -43 -82 -97 -82 -158 0 -64 24 -95 96 -121 118 -45 239
-22 407 78 102 60 173 91 209 91 11 0 33 13 49 29 22 22 29 39 29 68 0 54 -18
75 -107 124 -91 49 -188 113 -333 219 -112 82 -137 93 -186 79z"/>
<path d="M17613 23061 c-50 -37 -118 -115 -143 -167 -11 -22 -25 -66 -31 -97
-19 -95 -7 -120 122 -237 61 -55 125 -108 142 -116 46 -24 135 -22 190 5 129
63 202 289 142 437 -10 25 -41 47 -164 118 -171 98 -195 103 -258 57z"/>
</g>
</svg>
