<?xml version="1.0" standalone="no"?>
<!DOCTYPE svg PUBLIC "-//W3C//DTD SVG 20010904//EN"
 "http://www.w3.org/TR/2001/REC-SVG-20010904/DTD/svg10.dtd">
<svg version="1.0" xmlns="http://www.w3.org/2000/svg"
 width="4593.000000pt" height="2599.000000pt" viewBox="0 0 4593.000000 2599.000000"
 preserveAspectRatio="xMidYMid meet">

<g transform="translate(0.000000,2599.000000) scale(0.100000,-0.100000)"
fill="#000000" stroke="none">
<path d="M26632 16935 c-17 -14 -33 -38 -37 -53 -4 -19 17 -112 65 -287 39
-142 67 -261 63 -265 -4 -4 -139 -69 -300 -145 l-292 -137 -133 109 c-73 60
-159 130 -191 156 l-58 47 -284 0 -283 0 -31 -26 -31 -26 0 -169 c0 -93 -3
-169 -6 -169 -4 0 -124 -18 -267 -41 -228 -35 -275 -47 -316 -76 -2 -1 -3
-143 -2 -315 l2 -313 -453 -316 c-249 -173 -458 -319 -465 -322 -17 -10 -556
-78 -643 -82 -41 -1 -86 -7 -100 -12 -24 -10 -903 -124 -985 -128 -22 -1 -50
-2 -63 -3 -12 -1 -32 -14 -45 -28 -12 -15 -38 -37 -57 -50 -39 -27 -34 -32 10
-9 26 14 29 14 24 0 -7 -16 -9 -17 -70 -19 -22 -1 -56 -11 -75 -22 -31 -18
-34 -25 -37 -73 -3 -41 2 -67 23 -114 26 -57 27 -62 12 -86 -12 -21 -26 -27
-64 -31 -26 -3 -58 -11 -70 -18 -21 -12 -26 -7 -83 78 -33 49 -69 94 -79 100
-39 20 -91 11 -152 -26 -67 -40 -79 -57 -79 -110 0 -50 65 -257 87 -276 10 -9
43 -23 74 -31 39 -10 93 -40 184 -102 115 -80 139 -92 239 -122 61 -18 123
-33 138 -33 19 0 60 25 130 78 70 53 119 83 153 92 35 10 66 28 101 62 l50 47
123 -59 c70 -34 137 -60 155 -60 17 0 66 7 109 15 43 8 82 15 86 15 3 0 19
-34 35 -74 41 -108 46 -111 180 -111 l111 0 108 79 109 79 228 -73 229 -74
178 -225 178 -226 47 -174 c52 -195 60 -214 95 -230 37 -17 68 -13 208 24 72
19 136 35 143 35 20 0 14 -72 -13 -157 -32 -101 -32 -147 -1 -178 22 -22 81
-45 118 -45 30 0 72 46 142 157 l68 110 357 66 356 67 150 -149 c166 -164 187
-181 227 -181 37 0 706 333 736 367 15 16 22 34 19 47 -20 82 -175 791 -174
792 20 14 609 384 612 384 3 0 86 -52 185 -115 147 -94 187 -115 218 -115 54
0 989 313 1018 341 13 12 27 32 30 43 4 12 17 44 30 71 28 61 61 147 63 160 0
6 66 182 147 393 l147 382 253 0 c171 0 261 4 279 12 25 11 258 343 325 463
66 118 112 311 85 355 -4 7 -168 10 -496 10 l-489 0 -390 195 c-287 143 -399
195 -425 195 -28 0 -88 -30 -267 -135 -126 -75 -232 -135 -233 -133 -2 2 -106
210 -233 463 -188 377 -235 463 -256 473 -19 8 -98 12 -256 12 l-228 0 -30
-25z m-722 -2050 l0 -155 -45 0 c-43 0 -45 1 -45 30 0 29 -2 30 -42 30 -26 0
-55 -8 -73 -20 -60 -40 -160 -19 -190 40 -63 122 66 245 188 180 20 -11 55
-20 77 -20 39 0 40 1 40 35 0 35 0 35 45 35 l45 0 0 -155z m440 90 c0 -54 0
-55 30 -55 28 0 30 -3 30 -35 0 -32 -2 -35 -30 -35 -30 0 -30 -1 -30 -55 l0
-55 -45 0 -45 0 0 145 0 145 45 0 45 0 0 -55z m-208 25 c53 -15 88 -61 88
-116 0 -85 -47 -134 -130 -134 -83 0 -130 47 -130 129 0 59 32 105 83 120 43
12 47 12 89 1z m684 -85 l-6 -95 25 0 c22 0 25 -4 25 -35 l0 -35 -85 0 -85 0
0 -50 0 -50 -45 0 -45 0 0 50 0 50 -85 0 -85 0 0 35 0 35 145 0 145 0 0 29 c0
16 3 43 6 60 l7 31 -127 0 -126 0 0 35 0 35 171 0 172 0 -7 -95z m-979 -212
c20 -9 41 -30 51 -50 14 -30 14 -36 0 -66 -22 -47 -70 -67 -156 -67 -39 0 -83
5 -99 11 -97 37 -99 139 -3 178 42 16 168 13 207 -6z m503 -83 l0 -100 -160 0
-160 0 0 100 0 100 160 0 160 0 0 -100z m220 30 l0 -50 130 0 130 0 0 -35 0
-35 -175 0 -175 0 0 85 0 85 45 0 45 0 0 -50z"/>
<path d="M25612 14923 c-23 -9 -33 -40 -22 -68 8 -22 15 -26 42 -23 26 2 35 9
43 32 8 24 6 31 -14 47 -24 20 -28 21 -49 12z"/>
<path d="M25760 14880 c0 -16 7 -20 30 -20 23 0 30 4 30 20 0 16 -7 20 -30 20
-23 0 -30 -4 -30 -20z"/>
<path d="M26078 14918 c-39 -32 -25 -88 22 -88 47 0 61 56 22 88 -9 6 -19 12
-22 12 -3 0 -13 -6 -22 -12z"/>
<path d="M25674 14635 c-19 -15 -19 -15 0 -30 36 -27 136 -16 136 15 0 31
-100 42 -136 15z"/>
<path d="M26110 14620 l0 -30 80 0 80 0 0 30 0 30 -80 0 -80 0 0 -30z"/>
</g>
</svg>
