<?xml version="1.0" standalone="no"?>
<!DOCTYPE svg PUBLIC "-//W3C//DTD SVG 20010904//EN"
 "http://www.w3.org/TR/2001/REC-SVG-20010904/DTD/svg10.dtd">
<svg version="1.0" xmlns="http://www.w3.org/2000/svg"
 width="4593.000000pt" height="2599.000000pt" viewBox="0 0 4593.000000 2599.000000"
 preserveAspectRatio="xMidYMid meet">

<g transform="translate(0.000000,2599.000000) scale(0.100000,-0.100000)"
fill="#000000" stroke="none">
<path d="M32455 9091 c-68 -30 -165 -159 -165 -217 0 -10 9 -33 20 -51 16 -27
32 -36 92 -53 128 -37 142 -44 152 -73 7 -18 5 -73 -5 -164 -8 -76 -13 -166
-12 -200 5 -166 122 -239 349 -218 67 6 82 11 106 35 19 19 28 39 28 60 l0 31
45 -31 c99 -68 215 -90 297 -56 73 31 118 100 118 181 0 59 -17 99 -86 196
-30 44 -61 100 -67 125 -10 36 -36 70 -135 178 -83 91 -136 140 -165 154 -23
11 -134 39 -245 61 -111 23 -214 46 -228 51 -35 14 -53 12 -99 -9z"/>
<path d="M28925 8726 c-60 -35 -137 -82 -169 -103 -85 -55 -91 -56 -181 -37
-192 40 -290 10 -397 -121 -27 -33 -70 -103 -95 -155 -25 -52 -69 -145 -98
-205 -30 -61 -78 -144 -108 -185 -91 -126 -110 -180 -84 -243 24 -56 46 -64
200 -71 113 -5 220 -19 235 -32 2 -1 -17 -30 -42 -64 -25 -34 -51 -80 -57
-102 -34 -129 101 -275 222 -239 54 16 86 46 119 112 26 50 110 166 209 289
l28 34 60 -27 c114 -51 170 -48 236 12 23 21 63 52 89 70 62 41 95 91 109 164
14 70 6 71 185 -9 134 -59 205 -70 264 -39 61 31 120 145 120 231 0 82 -45
142 -147 193 -49 24 -240 81 -274 81 -23 0 -23 1 6 19 61 38 95 92 95 152 0
44 -13 63 -70 99 -53 34 -133 117 -125 130 3 4 -2 10 -10 14 -8 3 -15 12 -15
20 0 8 -15 29 -32 45 -30 28 -39 31 -98 31 -62 0 -71 -4 -175 -64z"/>
<path d="M27231 8362 c-52 -28 -71 -73 -71 -162 1 -168 88 -238 285 -228 61 3
78 7 99 27 44 41 43 76 -4 187 -23 54 -49 106 -57 115 -21 25 -131 71 -177 76
-28 3 -52 -2 -75 -15z"/>
<path d="M30980 8242 c-30 -31 -79 -95 -108 -142 -29 -47 -61 -96 -71 -109
l-18 -24 -54 18 c-30 10 -108 42 -175 71 -66 28 -169 69 -230 90 -100 36 -118
39 -216 39 -133 0 -146 -8 -205 -126 -30 -59 -68 -113 -128 -179 -107 -118
-135 -164 -142 -232 -12 -127 113 -230 250 -204 18 3 63 24 100 46 36 22 69
40 72 40 3 0 15 -21 25 -46 11 -25 46 -82 79 -127 32 -45 87 -125 122 -177 56
-83 69 -96 101 -104 33 -8 48 -5 125 32 49 22 117 52 152 66 82 33 154 79 190
122 l28 35 24 -19 c63 -49 90 -57 199 -56 120 0 159 14 180 64 18 43 7 127
-24 188 -28 56 -120 160 -160 181 -14 8 -26 18 -26 23 0 29 123 213 185 278
83 86 95 105 95 154 0 55 -32 82 -143 121 -140 50 -158 48 -227 -23z"/>
<path d="M26750 8069 c-63 -13 -144 -20 -240 -22 -172 -3 -205 -14 -307 -104
-36 -32 -95 -76 -131 -98 -113 -69 -140 -162 -86 -302 25 -67 25 -71 22 -313
l-3 -245 29 -53 c40 -71 85 -105 219 -165 150 -66 234 -123 343 -231 74 -74
100 -107 134 -176 92 -184 120 -199 325 -165 142 24 148 23 189 -33 38 -52
137 -130 189 -149 41 -15 118 -16 154 -2 34 13 80 55 99 91 l14 28 49 -30 c26
-16 99 -53 162 -82 117 -53 190 -69 227 -49 11 6 64 16 117 21 53 5 105 15
116 20 33 18 52 68 45 119 -8 59 -38 102 -107 155 l-56 42 43 37 c50 44 67 98
53 174 -28 150 -112 210 -226 163 -31 -13 -85 -25 -122 -28 l-67 -4 -36 54
c-20 30 -64 86 -97 123 -94 106 -95 111 -101 325 l-5 185 -129 243 -129 244
-51 24 c-28 13 -88 56 -134 94 -128 108 -164 124 -297 127 -79 1 -137 -4 -205
-18z"/>
<path d="M32584 7995 c-61 -30 -84 -67 -84 -135 0 -89 49 -148 141 -170 59
-15 256 -7 289 10 24 13 50 61 50 93 0 35 -114 205 -146 217 -14 6 -65 10
-113 10 -73 0 -95 -4 -137 -25z"/>
<path d="M33394 7932 c-107 -78 -205 -225 -239 -357 -17 -67 -20 -191 -5 -200
26 -16 4 -25 -59 -25 -73 0 -144 -23 -211 -67 l-35 -23 -17 39 c-9 22 -26 75
-38 119 -41 153 -108 226 -259 283 -120 45 -207 14 -303 -110 -101 -129 -160
-181 -206 -181 -11 0 -31 -12 -46 -26 -21 -22 -26 -36 -26 -75 0 -95 71 -141
250 -159 52 -6 103 -13 113 -16 10 -3 40 -50 69 -107 56 -114 107 -170 168
-188 l39 -12 -38 -27 c-48 -35 -75 -97 -66 -152 9 -50 54 -102 119 -136 43
-22 64 -27 131 -27 89 1 149 23 207 77 30 28 31 30 25 101 -4 40 -9 86 -13
103 l-6 31 49 -4 c34 -4 60 0 80 11 35 18 68 78 78 144 8 51 13 52 118 15 80
-27 91 -37 57 -48 -35 -11 -52 -60 -53 -160 -2 -80 1 -97 19 -122 33 -46 88
-67 176 -68 72 0 80 2 105 28 22 21 28 37 28 71 0 37 -9 54 -72 138 -71 95
-72 96 -40 87 43 -12 114 -11 138 1 33 18 49 64 49 140 0 147 -35 206 -158
268 -42 21 -88 41 -102 45 -24 7 -23 8 18 29 49 26 233 185 259 225 35 54 24
92 -62 219 -44 64 -89 123 -100 130 -34 24 -97 17 -141 -14z"/>
<path d="M29124 7429 c-18 -5 -50 -27 -72 -49 -38 -38 -59 -80 -135 -260 -35
-81 -56 -99 -144 -118 -42 -10 -42 -9 -69 32 -67 103 -126 140 -215 134 -42
-3 -68 -12 -98 -33 -87 -60 -161 -220 -147 -318 12 -80 144 -265 215 -301 101
-52 198 -12 262 109 l24 45 70 0 c38 0 133 -3 211 -7 l141 -6 12 -61 c16 -78
68 -277 89 -336 22 -65 52 -90 104 -90 38 0 55 8 128 64 76 56 112 91 221 213
16 18 46 42 68 52 l38 20 37 -59 c60 -94 89 -110 163 -90 53 16 136 87 164
143 32 62 36 134 10 192 -11 26 -21 49 -21 51 0 2 12 4 26 4 67 0 94 46 94
160 0 175 -65 216 -226 145 -32 -14 -84 -28 -115 -32 l-56 -6 -6 69 c-4 61 -8
71 -38 97 -31 28 -35 29 -108 25 -52 -4 -97 -14 -142 -33 l-65 -27 -60 63
c-33 35 -82 87 -108 116 -79 86 -165 118 -252 92z"/>
<path d="M31420 7049 c-109 -59 -159 -103 -189 -168 -39 -84 -36 -192 13 -381
47 -187 51 -195 94 -216 31 -14 54 -16 157 -10 258 14 481 98 590 223 l30 35
116 -18 c176 -26 201 -9 212 141 6 87 -9 139 -44 150 -10 3 -62 51 -116 106
-107 110 -168 149 -234 149 -50 0 -102 -24 -129 -58 -18 -23 -22 -24 -38 -10
-59 53 -210 97 -332 98 -46 0 -68 -7 -130 -41z"/>
<path d="M25430 5546 c-137 -60 -180 -86 -200 -119 -36 -59 -21 -126 44 -195
57 -61 98 -76 226 -80 63 -2 155 1 205 6 78 9 92 14 112 37 16 18 23 39 23 67
0 39 -6 47 -127 170 -92 93 -137 131 -163 138 -44 13 -33 15 -120 -24z"/>
<path d="M24675 5256 c-44 -47 -120 -203 -145 -301 -12 -44 -35 -123 -52 -175
-53 -161 -41 -244 53 -359 69 -85 89 -114 89 -134 0 -15 -11 -11 -61 24 -93
63 -164 91 -244 96 l-70 5 -237 -153 c-145 -94 -241 -162 -247 -176 -17 -36
-13 -74 9 -111 24 -39 27 -33 -59 -127 -75 -83 -95 -130 -89 -216 4 -56 14
-86 53 -164 83 -168 166 -215 382 -215 160 0 192 10 272 85 71 67 94 81 192
119 35 13 130 56 212 96 151 74 193 107 203 160 6 25 12 28 122 51 149 31 167
44 166 126 -1 85 -56 177 -143 236 l-24 16 27 31 c31 38 39 65 35 124 l-4 44
45 7 c25 4 55 9 67 12 18 4 26 -4 52 -55 17 -33 42 -69 57 -81 48 -38 126 -24
197 35 16 13 41 24 55 24 41 0 88 34 101 73 11 33 8 61 -14 133 -6 19 -2 22
46 27 66 8 126 46 146 95 27 65 12 89 -184 284 -162 160 -186 180 -268 222
-130 67 -229 80 -396 52 l-76 -12 -33 39 c-48 57 -116 97 -163 97 -32 0 -46
-7 -72 -34z"/>
<path d="M29935 4995 c-22 -8 -41 -15 -42 -15 -1 0 -25 -33 -52 -72 -27 -40
-97 -129 -156 -198 -113 -133 -166 -207 -192 -267 -36 -87 17 -235 127 -356
60 -65 90 -82 160 -89 27 -3 36 -22 45 -100 7 -58 40 -107 85 -131 32 -16 61
-18 315 -14 265 3 283 4 339 26 69 27 129 79 157 133 11 22 34 78 51 126 16
48 40 107 53 132 12 25 37 87 54 137 29 81 31 97 21 127 -16 49 -55 84 -115
101 -29 9 -72 28 -96 44 -43 27 -45 30 -92 174 -27 80 -56 156 -66 168 -16 20
-35 24 -152 36 -74 7 -181 22 -238 33 -121 23 -152 24 -206 5z"/>
<path d="M27990 4942 c-19 -11 -55 -22 -80 -26 -61 -10 -122 -47 -145 -89 -17
-33 -18 -44 -6 -194 23 -301 56 -404 143 -449 49 -25 159 -16 194 16 30 28 54
78 54 113 0 26 17 60 88 176 35 57 52 95 52 117 0 48 -153 320 -191 340 -37
19 -67 18 -109 -4z"/>
<path d="M23702 4785 c-22 -9 -38 -27 -48 -51 -8 -20 -37 -59 -64 -86 -58 -59
-74 -100 -68 -177 11 -151 115 -236 226 -184 45 21 193 166 217 213 54 104 42
138 -78 222 -102 73 -136 84 -185 63z"/>
<path d="M26105 4719 c-215 -111 -314 -196 -334 -288 -24 -114 -8 -226 37
-250 30 -16 80 -13 142 8 49 18 57 18 83 4 l29 -15 -33 -20 c-41 -25 -55 -41
-79 -94 -11 -22 -33 -58 -51 -80 -17 -21 -42 -61 -56 -88 -14 -27 -40 -71 -59
-98 -54 -79 -56 -158 -8 -247 27 -50 102 -147 157 -204 36 -39 38 -39 97 -35
l60 4 11 -40 c17 -65 55 -130 93 -164 67 -59 148 -55 286 14 49 25 114 67 144
95 64 58 86 114 106 261 6 45 18 108 26 139 22 87 19 142 -10 176 -14 15 -97
84 -185 153 -88 69 -160 128 -160 132 -2 14 109 31 244 37 156 8 187 17 222
70 48 70 22 180 -65 278 -31 36 -77 61 -302 168 -146 69 -276 125 -290 125
-14 0 -61 -19 -105 -41z"/>
<path d="M30584 1122 c-70 -46 -147 -121 -180 -177 -73 -126 -95 -348 -39
-413 20 -24 31 -26 146 -34 68 -5 203 -5 299 -2 172 7 175 7 201 34 53 52 82
234 50 305 -12 27 -120 131 -282 273 -77 67 -109 69 -195 14z"/>
<path d="M20139 845 c-51 -27 -104 -180 -97 -279 8 -113 54 -169 148 -181 174
-22 228 -60 274 -191 52 -147 99 -194 197 -194 135 0 279 137 279 267 0 40 3
44 37 58 83 35 127 107 121 194 -5 72 -35 113 -105 148 -79 38 -161 41 -298
10 -181 -41 -180 -41 -199 -12 -16 24 -186 144 -253 178 -39 20 -69 21 -104 2z"/>
</g>
</svg>
