<?xml version="1.0" standalone="no"?>
<!DOCTYPE svg PUBLIC "-//W3C//DTD SVG 20010904//EN"
 "http://www.w3.org/TR/2001/REC-SVG-20010904/DTD/svg10.dtd">
<svg version="1.0" xmlns="http://www.w3.org/2000/svg"
 width="4593.000000pt" height="2599.000000pt" viewBox="0 0 4593.000000 2599.000000"
 preserveAspectRatio="xMidYMid meet">

<g transform="translate(0.000000,2599.000000) scale(0.100000,-0.100000)"
fill="#000000" stroke="none">
<path d="M29575 25828 l-260 -162 -368 -47 c-352 -44 -370 -47 -394 -72 -25
-25 -27 -36 -79 -514 -29 -268 -55 -495 -57 -504 -2 -8 -68 -97 -146 -196
l-141 -181 -106 -260 c-104 -255 -106 -260 -137 -265 -18 -3 -223 -27 -457
-53 l-425 -47 -312 -158 c-171 -88 -317 -159 -325 -159 -7 0 -39 -26 -71 -58
l-58 -58 -10 -119 -10 -119 -77 -81 c-508 -532 -799 -841 -809 -858 -8 -14
-12 -66 -13 -137 l0 -116 44 -61 c51 -70 55 -73 99 -79 39 -4 330 -63 332 -67
1 -1 36 -47 78 -103 l77 -100 0 -141 c0 -119 3 -144 18 -162 9 -11 152 -113
316 -226 l300 -205 57 0 c69 0 55 -20 200 283 l104 217 255 0 254 0 256 255
256 256 427 -201 427 -200 429 0 429 0 31 26 31 26 0 184 0 184 450 0 450 0
25 56 25 56 -215 396 c-118 217 -215 398 -215 402 0 3 94 74 208 157 201 146
232 176 232 223 0 10 -38 123 -85 251 -47 128 -82 235 -78 239 4 4 147 54 317
111 l308 104 362 324 361 323 63 125 c64 130 69 151 51 213 l-11 37 -77 1
c-42 1 -112 4 -157 8 l-80 6 -48 145 c-43 128 -51 147 -79 164 -18 10 -274
144 -571 296 l-538 278 -255 263 -256 262 -46 0 c-42 0 -69 -15 -306 -162z
m-1225 -2928 l0 -60 30 0 c28 0 30 -3 30 -35 0 -32 -2 -35 -30 -35 l-30 0 0
-65 0 -65 -42 0 -43 0 33 -17 c19 -9 41 -31 50 -50 14 -30 14 -36 0 -66 -22
-47 -70 -67 -158 -67 -88 0 -136 20 -158 67 -14 30 -14 36 0 66 22 47 70 67
157 67 l71 0 0 38 -1 37 -16 -30 c-8 -16 -17 -31 -18 -33 -7 -8 -86 40 -96 59
-11 21 -11 20 -32 -9 -12 -17 -39 -40 -59 -52 l-38 -21 -20 33 c-26 43 -26 43
13 67 35 22 55 49 68 93 8 28 7 28 -37 28 -44 0 -44 0 -44 35 l0 35 135 0 135
0 0 -35 c0 -35 0 -35 -45 -35 -29 0 -45 -4 -45 -12 0 -25 40 -77 70 -93 l30
-16 0 116 0 115 45 0 45 0 0 -60z m510 -100 l0 -150 -45 0 -45 0 0 70 0 70
-40 0 c-39 0 -40 1 -40 35 0 34 1 35 40 35 l40 0 0 45 0 45 45 0 45 0 0 -150z
m446 35 l-6 -95 25 0 c22 0 25 -4 25 -35 l0 -35 -85 0 -85 0 0 -50 0 -50 -45
0 -45 0 0 50 0 50 -85 0 -85 0 0 35 0 35 145 0 145 0 0 29 c0 16 3 43 6 60 l7
31 -127 0 -126 0 0 35 0 35 171 0 172 0 -7 -95z m-659 23 c12 -62 43 -106 84
-120 11 -4 10 -12 -6 -41 -11 -20 -24 -37 -29 -37 -15 0 -75 41 -86 58 -9 15
-12 14 -31 -11 -12 -15 -38 -36 -58 -46 l-37 -19 -23 36 c-22 34 -23 37 -6 47
68 40 95 84 95 155 l0 40 43 0 42 0 12 -62z m153 -237 c68 -36 76 -111 17
-153 -65 -47 -258 -32 -287 22 -11 21 -13 70 -3 95 19 51 201 75 273 36z m250
-51 l0 -50 130 0 130 0 0 -35 0 -35 -175 0 -175 0 0 85 0 85 45 0 45 0 0 -50z"/>
<path d="M28138 22563 c-10 -2 -18 -13 -18 -23 0 -14 10 -21 35 -26 52 -10
105 3 105 25 0 27 -65 39 -122 24z"/>
<path d="M28624 22555 c-19 -15 -19 -15 0 -30 36 -27 136 -16 136 15 0 31
-100 42 -136 15z"/>
<path d="M42881 21744 c0 -11 3 -14 6 -6 3 7 2 16 -1 19 -3 4 -6 -2 -5 -13z"/>
</g>
</svg>
