<?xml version="1.0" standalone="no"?>
<!DOCTYPE svg PUBLIC "-//W3C//DTD SVG 20010904//EN"
 "http://www.w3.org/TR/2001/REC-SVG-20010904/DTD/svg10.dtd">
<svg version="1.0" xmlns="http://www.w3.org/2000/svg"
 width="4593.000000pt" height="2599.000000pt" viewBox="0 0 4593.000000 2599.000000"
 preserveAspectRatio="xMidYMid meet">

<g transform="translate(0.000000,2599.000000) scale(0.100000,-0.100000)"
fill="#000000" stroke="none">
<path d="M29737 15610 c-17 -36 -86 -147 -155 -247 l-123 -183 -264 0 c-259 0
-264 0 -289 -22 -19 -17 -66 -129 -176 -416 l-151 -394 16 -81 c9 -45 18 -92
21 -104 4 -22 9 -23 97 -23 l92 0 125 -246 c69 -134 132 -251 140 -259 8 -7
94 -47 190 -88 110 -48 177 -82 182 -94 4 -10 53 -187 108 -394 81 -304 131
-464 261 -840 l160 -464 -72 -306 -72 -306 67 -279 c37 -154 69 -284 71 -290
2 -6 -60 -84 -136 -175 l-139 -163 -112 -61 c-61 -34 -120 -72 -130 -85 -17
-24 -18 -65 -18 -744 l0 -719 22 -16 c49 -36 387 -214 448 -236 39 -15 72 -34
83 -50 32 -43 92 -68 154 -63 90 8 134 70 113 162 -11 52 -107 300 -140 365
-12 24 -20 45 -18 47 2 2 63 16 136 32 l131 29 165 -84 c153 -77 167 -87 192
-128 14 -25 37 -54 51 -65 46 -36 78 -27 231 69 79 49 152 97 162 106 25 23
34 72 22 121 -25 99 -25 95 5 78 46 -23 73 -16 183 45 l105 59 16 -41 c22 -56
51 -77 107 -77 42 0 49 4 94 53 89 94 88 90 88 277 0 133 -3 170 -15 188 -9
12 -56 44 -106 70 l-89 49 70 66 c66 62 70 68 70 110 0 50 -2 53 -159 237 -44
52 -81 98 -81 102 0 3 19 27 43 53 l42 47 108 -16 c190 -28 205 -23 256 101
31 73 33 82 26 159 -6 79 -6 81 16 87 19 5 32 -3 69 -43 42 -45 51 -50 89 -50
33 0 49 6 70 28 23 23 31 48 54 160 41 205 35 212 -205 253 -76 13 -138 28
-138 32 0 5 31 62 69 126 54 91 84 129 139 179 54 48 77 62 102 62 41 0 84 23
97 52 6 13 19 92 28 175 l18 151 111 43 c61 23 128 51 149 62 l37 19 0 364 c0
255 -3 371 -12 389 -10 21 -155 147 -391 338 l-58 47 -103 0 -102 0 -96 148
c-53 81 -99 154 -103 163 -4 12 32 34 167 100 l173 84 117 5 c173 7 154 -28
239 445 l70 389 -66 219 -66 218 143 205 c191 274 175 244 157 290 -8 22 -26
44 -39 51 -14 6 -245 60 -513 118 -383 84 -494 104 -515 97 -15 -5 -150 -95
-301 -200 l-273 -191 -74 61 c-73 60 -77 65 -190 275 -64 118 -126 220 -138
228 -17 10 -112 14 -464 17 l-443 4 -32 -66z m473 -1860 l0 -60 30 0 c28 0 30
-3 30 -35 0 -32 -2 -35 -30 -35 l-30 0 0 -65 0 -65 -42 0 -43 0 33 -17 c19 -9
41 -31 50 -50 14 -30 14 -36 0 -66 -22 -47 -70 -67 -158 -67 -88 0 -136 20
-158 67 -14 30 -14 36 0 66 22 47 70 67 157 67 l71 0 0 38 -1 37 -16 -30 c-8
-16 -17 -31 -18 -33 -7 -8 -86 40 -96 59 -11 21 -11 20 -32 -9 -12 -17 -39
-40 -59 -52 l-38 -21 -20 33 c-26 43 -26 43 13 67 35 22 55 49 68 93 8 28 7
28 -37 28 -44 0 -44 0 -44 35 l0 35 135 0 135 0 0 -35 c0 -35 0 -35 -45 -35
-29 0 -45 -4 -45 -12 0 -25 40 -77 70 -93 l30 -16 0 116 0 115 45 0 45 0 0
-60z m350 35 c0 -12 16 -15 80 -15 l80 0 0 -35 0 -35 -205 0 -205 0 0 35 0 35
80 0 c64 0 80 3 80 15 0 11 12 15 45 15 33 0 45 -4 45 -15z m606 -100 l-6 -95
25 0 c22 0 25 -4 25 -35 l0 -35 -85 0 -85 0 0 -50 0 -50 -45 0 -45 0 0 50 0
50 -85 0 -85 0 0 35 0 35 145 0 145 0 0 29 c0 16 3 43 6 60 l7 31 -127 0 -126
0 0 35 0 35 171 0 172 0 -7 -95z m-531 -9 c63 -27 60 -94 -6 -120 -86 -35
-259 -12 -275 36 -11 35 5 68 39 83 43 19 197 19 242 1z m105 -181 l0 -35
-225 0 -225 0 0 35 0 35 225 0 225 0 0 -35z m170 -75 l0 -50 130 0 130 0 0
-35 0 -35 -175 0 -175 0 0 85 0 85 45 0 45 0 0 -50z m-275 16 c57 -24 72 -77
31 -115 -53 -50 -249 -50 -303 1 -39 37 -25 89 30 113 43 19 197 19 242 1z
m505 -4273 c0 -45 -5 -40 -13 10 -3 22 -2 35 4 32 5 -4 9 -22 9 -42z"/>
<path d="M29998 13413 c-10 -2 -18 -13 -18 -23 0 -14 10 -21 35 -26 52 -10
105 3 105 25 0 27 -65 39 -122 24z"/>
<path d="M30460 13621 c-23 -7 -22 -8 14 -15 21 -4 57 -4 80 0 37 7 39 8 16
15 -32 9 -78 9 -110 0z"/>
<path d="M30440 13371 c0 -5 10 -11 23 -15 47 -12 127 -3 127 15 0 5 -34 9
-75 9 -41 0 -75 -4 -75 -9z"/>
</g>
</svg>
