<?xml version="1.0" standalone="no"?>
<!DOCTYPE svg PUBLIC "-//W3C//DTD SVG 20010904//EN"
 "http://www.w3.org/TR/2001/REC-SVG-20010904/DTD/svg10.dtd">
<svg version="1.0" xmlns="http://www.w3.org/2000/svg"
 width="4593.000000pt" height="2599.000000pt" viewBox="0 0 4593.000000 2599.000000"
 preserveAspectRatio="xMidYMid meet">

<g transform="translate(0.000000,2599.000000) scale(0.100000,-0.100000)"
fill="#000000" stroke="none">
<path d="M19403 11150 c-57 -12 -80 -26 -97 -58 -29 -57 -98 -295 -92 -318 4
-13 39 -72 80 -131 l73 -106 -56 -98 -56 -99 -157 0 c-149 0 -158 -1 -182 -22
-27 -25 -136 -252 -136 -284 0 -14 -19 -28 -73 -52 -72 -32 -111 -61 -141
-103 l-15 -22 -26 21 c-50 39 -74 37 -212 -18 -70 -28 -136 -60 -146 -72 -9
-11 -31 -67 -48 -123 l-32 -102 -454 -224 c-282 -138 -462 -233 -474 -248 -25
-31 -24 -87 2 -131 12 -19 30 -49 40 -66 l19 -32 -39 10 c-28 7 -50 7 -71 0
-42 -15 -306 -198 -314 -218 -3 -8 -6 -104 -6 -212 0 -197 0 -197 28 -244 100
-170 409 -648 426 -659 12 -7 61 -15 118 -17 l96 -4 -19 -69 c-24 -86 -24
-116 0 -155 31 -51 74 -60 173 -35 110 27 356 70 363 63 3 -3 5 -18 5 -34 0
-50 26 -98 62 -112 18 -7 171 -28 339 -46 374 -39 345 -47 414 105 l49 107 36
-5 c19 -3 132 -11 250 -18 l214 -13 193 99 c107 55 201 108 211 118 13 15 18
46 23 141 4 93 6 64 6 -122 1 -273 4 -283 70 -301 35 -10 58 -4 272 69 247 84
289 106 351 185 55 69 64 156 23 214 -12 16 -83 59 -192 114 -96 48 -176 89
-178 91 -3 2 11 35 31 72 23 47 46 76 70 92 20 12 38 22 41 22 3 0 5 -17 5
-39 0 -23 8 -48 20 -64 40 -51 133 -44 169 12 21 35 102 141 107 141 2 0 3
-50 1 -111 -2 -110 -2 -111 26 -135 19 -16 40 -24 66 -24 34 0 272 79 327 108
11 6 44 50 74 99 111 183 260 400 306 445 47 47 48 50 52 115 2 52 -2 84 -21
138 l-24 69 103 83 c87 70 104 88 110 118 11 61 -10 91 -98 142 -43 25 -78 50
-78 54 0 5 26 9 58 9 86 0 284 20 304 31 43 23 49 60 46 256 l-3 186 -330 324
c-181 178 -355 341 -385 361 l-55 37 -197 3 -196 3 -91 94 -91 94 0 70 c0 58
-4 74 -22 95 -14 15 -154 86 -343 175 l-321 150 -144 10 c-163 12 -178 12
-237 1z m-253 -2205 l0 -185 -45 0 -45 0 0 68 0 67 -22 -37 c-12 -21 -26 -38
-31 -38 -17 0 -77 42 -87 61 -10 17 -13 16 -49 -20 -55 -55 -76 -57 -106 -13
l-25 37 35 17 c38 20 61 49 75 97 l9 31 -45 0 c-44 0 -44 0 -44 35 l0 35 130
0 130 0 0 -35 c0 -34 -1 -35 -40 -35 -29 0 -40 -4 -40 -15 0 -26 28 -72 56
-94 50 -39 54 -32 54 94 l0 115 45 0 45 0 0 -185z m926 70 l-6 -95 25 0 c22 0
25 -4 25 -35 l0 -35 -85 0 -85 0 0 -50 0 -50 -45 0 -45 0 0 50 0 50 -85 0 -85
0 0 35 0 35 145 0 145 0 0 29 c0 16 3 43 6 60 l7 31 -127 0 -126 0 0 35 0 35
171 0 172 0 -7 -95z m-466 50 l0 -35 -130 0 -130 0 0 -60 0 -60 135 0 135 0 0
-35 0 -35 -70 0 -70 0 0 -50 0 -50 90 0 90 0 0 -35 0 -35 -220 0 -220 0 0 35
0 35 85 0 85 0 0 50 0 50 -65 0 -65 0 0 130 0 130 175 0 175 0 0 -35z m-700
-315 l0 -50 130 0 130 0 0 -35 0 -35 -175 0 -175 0 0 85 0 85 45 0 45 0 0 -50z
m910 0 l0 -50 130 0 130 0 0 -35 0 -35 -175 0 -175 0 0 85 0 85 45 0 45 0 0
-50z"/>
<path d="M15455 7428 c-39 -35 -43 -86 -12 -156 14 -31 29 -85 32 -118 7 -55
5 -64 -14 -83 -27 -27 -105 -29 -141 -4 -60 42 -170 11 -205 -57 -39 -76 -4
-236 71 -319 71 -79 143 -89 269 -38 113 47 200 45 394 -10 l94 -27 -45 -13
c-55 -16 -138 -87 -174 -150 -38 -63 -64 -156 -64 -223 0 -63 36 -218 68 -291
26 -59 78 -118 119 -135 64 -27 123 -18 230 35 54 28 123 71 153 98 88 77 86
76 112 62 13 -6 46 -36 75 -66 66 -68 138 -103 214 -103 140 0 275 75 332 185
31 61 35 175 9 262 -23 73 -106 205 -139 218 -10 4 -103 34 -208 66 -129 40
-199 57 -218 53 -15 -3 -46 -21 -69 -41 -23 -19 -68 -48 -100 -64 -67 -34 -70
-33 -147 35 l-50 44 93 4 c84 3 96 6 130 32 44 33 76 95 76 146 0 123 -132
220 -360 265 -118 23 -174 42 -197 68 -22 25 -137 230 -147 264 -4 12 -23 36
-42 52 -44 39 -100 42 -139 9z"/>
<path d="M14895 6863 c-69 -36 -92 -69 -154 -216 l-21 -49 -127 7 c-151 8
-202 -2 -249 -49 -83 -83 -58 -243 45 -296 62 -31 124 -34 238 -11 137 28 159
27 188 -8 34 -40 75 -54 141 -49 43 4 61 11 82 32 l27 26 3 268 c2 147 0 277
-3 290 -3 13 -18 35 -32 48 -31 29 -91 32 -138 7z"/>
<path d="M15005 6027 c-66 -31 -138 -112 -165 -185 -32 -85 -26 -185 15 -244
17 -23 53 -56 80 -73 41 -25 61 -31 126 -34 98 -4 167 16 250 72 80 53 101 89
107 181 7 107 -1 117 -165 215 -76 46 -151 85 -168 87 -19 3 -49 -4 -80 -19z"/>
<path d="M18160 5867 c-35 -18 -46 -47 -71 -185 -34 -190 -18 -265 67 -325 48
-33 118 -46 192 -35 179 28 323 223 235 317 -16 16 -99 77 -186 135 -162 109
-187 118 -237 93z"/>
<path d="M13851 5790 c-135 -102 -183 -179 -182 -296 0 -86 16 -130 60 -167
41 -34 68 -41 140 -34 73 6 131 36 173 88 18 22 52 63 76 90 29 35 42 59 42
80 0 42 -98 266 -124 284 -11 8 -39 15 -63 15 -36 0 -53 -9 -122 -60z"/>
<path d="M14335 5572 c-36 -12 -52 -26 -70 -61 -9 -19 -48 -67 -85 -106 -80
-84 -110 -138 -117 -209 -7 -74 13 -127 57 -148 44 -23 233 -24 331 -4 173 37
283 153 296 312 8 90 -4 100 -214 168 -94 31 -173 56 -175 55 -1 -1 -12 -4
-23 -7z"/>
<path d="M16211 5508 c-52 -14 -139 -110 -219 -240 -40 -64 -88 -136 -107
-158 -29 -34 -35 -50 -35 -87 0 -39 5 -50 35 -79 52 -49 143 -74 264 -74 146
1 212 33 297 143 26 34 59 76 74 92 34 37 42 71 27 112 -14 38 -241 293 -262
293 -7 0 -19 2 -27 4 -7 2 -28 0 -47 -6z"/>
</g>
</svg>
