<?xml version="1.0" standalone="no"?>
<!DOCTYPE svg PUBLIC "-//W3C//DTD SVG 20010904//EN"
 "http://www.w3.org/TR/2001/REC-SVG-20010904/DTD/svg10.dtd">
<svg version="1.0" xmlns="http://www.w3.org/2000/svg"
 width="4593.000000pt" height="2599.000000pt" viewBox="0 0 4593.000000 2599.000000"
 preserveAspectRatio="xMidYMid meet">

<g transform="translate(0.000000,2599.000000) scale(0.100000,-0.100000)"
fill="#000000" stroke="none">
<path d="M25362 21663 c-40 -4 -43 -6 -42 -31 1 -15 2 -114 1 -219 l-1 -193
-241 0 -241 0 -82 -77 c-44 -43 -138 -133 -208 -200 l-126 -123 -136 64 -136
65 -444 65 -445 66 -328 -37 -328 -36 -381 72 c-364 69 -383 72 -412 57 -22
-11 -64 -69 -154 -212 -68 -108 -131 -204 -140 -213 -10 -10 -21 -31 -24 -48
-5 -27 0 -38 34 -75 21 -23 101 -143 176 -264 75 -122 143 -228 152 -235 9 -7
37 -16 62 -19 l46 -5 118 -170 c65 -93 129 -181 143 -195 25 -25 29 -25 223
-31 163 -6 212 -11 287 -31 49 -13 85 -27 80 -30 -6 -3 -54 -20 -107 -37 -153
-51 -170 -93 -95 -236 40 -76 45 -82 107 -112 36 -18 61 -33 55 -33 -5 0 6
-10 25 -21 19 -12 37 -25 40 -29 3 -4 61 -31 130 -59 l125 -51 148 -148 147
-147 0 -148 c0 -94 4 -156 12 -170 6 -12 47 -64 90 -115 l78 -93 0 -240 c0
-192 3 -246 15 -269 16 -32 -15 -19 480 -201 340 -125 398 -140 471 -120 22 6
176 32 344 56 300 45 338 55 359 92 5 10 53 401 107 868 53 468 99 852 101
854 1 2 135 -5 295 -17 161 -12 316 -22 345 -22 l51 0 274 246 c150 135 279
252 286 259 11 10 14 99 13 451 l0 439 -73 46 c-40 25 -181 120 -313 211
l-240 165 -5 144 -5 144 -99 128 c-54 71 -108 132 -120 136 -30 12 -423 91
-438 89 -7 -1 -32 -3 -56 -5z m-1442 -1648 c0 -23 3 -25 50 -25 l50 0 0 -35 0
-35 -145 0 -145 0 0 35 0 35 50 0 c47 0 50 2 50 25 0 23 4 25 45 25 41 0 45
-2 45 -25z m200 -45 l0 -60 30 0 c28 0 30 -3 30 -35 0 -32 -2 -35 -30 -35
l-30 0 0 -60 0 -60 -45 0 -45 0 0 155 0 155 45 0 45 0 0 -60z m500 -100 l0
-160 -45 0 c-45 0 -45 0 -45 35 0 31 -3 35 -25 35 -18 0 -25 -5 -25 -19 0 -22
-50 -31 -181 -31 -65 0 -89 3 -89 13 0 6 -3 22 -6 35 -5 19 -2 22 20 22 25 0
26 2 26 65 0 58 -2 65 -20 65 -16 0 -20 7 -20 35 l0 35 135 0 c128 0 135 -1
135 -20 0 -15 7 -20 25 -20 22 0 25 4 25 35 0 35 0 35 45 35 l45 0 0 -160z
m446 45 l-6 -95 25 0 c22 0 25 -4 25 -35 l0 -35 -85 0 -85 0 0 -50 0 -50 -45
0 -45 0 0 50 0 50 -85 0 -85 0 0 35 0 35 145 0 145 0 0 29 c0 16 3 43 6 60 l7
31 -127 0 -126 0 0 35 0 35 171 0 172 0 -7 -95z m-1097 -31 c25 -21 31 -33 31
-65 0 -47 -23 -73 -76 -88 -88 -24 -164 17 -164 88 0 32 6 44 31 65 25 22 41
26 89 26 48 0 64 -4 89 -26z m591 -192 c67 -33 75 -103 16 -146 -30 -23 -145
-34 -212 -21 -49 9 -84 45 -84 88 0 66 50 96 165 97 57 0 90 -5 115 -18z
m-440 -82 l0 -90 -160 0 -160 0 0 90 0 90 160 0 160 0 0 -90z m690 40 l0 -50
130 0 130 0 0 -35 0 -35 -175 0 -175 0 0 85 0 85 45 0 45 0 0 -50z"/>
<path d="M24330 19870 c0 -47 3 -60 15 -60 12 0 15 13 15 60 0 47 -3 60 -15
60 -12 0 -15 -13 -15 -60z"/>
<path d="M24440 19870 c0 -53 2 -60 20 -60 13 0 20 7 20 20 0 15 7 20 25 20
16 0 25 6 25 15 0 9 -9 15 -25 15 -20 0 -25 5 -25 25 0 18 -5 25 -20 25 -18 0
-20 -7 -20 -60z"/>
<path d="M23846 19825 c-8 -21 29 -39 54 -25 27 14 14 40 -20 40 -15 0 -30 -7
-34 -15z"/>
<path d="M24388 19633 c-22 -6 -23 -29 -2 -37 29 -11 110 -6 130 8 18 14 18
15 -9 25 -28 11 -86 13 -119 4z"/>
<path d="M23880 19610 c0 -18 7 -20 80 -20 73 0 80 2 80 20 0 18 -7 20 -80 20
-73 0 -80 -2 -80 -20z"/>
</g>
</svg>
