<?xml version="1.0" standalone="no"?>
<!DOCTYPE svg PUBLIC "-//W3C//DTD SVG 20010904//EN"
 "http://www.w3.org/TR/2001/REC-SVG-20010904/DTD/svg10.dtd">
<svg version="1.0" xmlns="http://www.w3.org/2000/svg"
 width="4593.000000pt" height="2599.000000pt" viewBox="0 0 4593.000000 2599.000000"
 preserveAspectRatio="xMidYMid meet">

<g transform="translate(0.000000,2599.000000) scale(0.100000,-0.100000)"
fill="#000000" stroke="none">
<path d="M20077 14114 c-23 -12 -49 -58 -128 -222 l-100 -206 -15 -180 c-8
-100 -17 -190 -19 -201 -3 -11 -39 -47 -81 -80 -42 -33 -87 -70 -99 -82 -27
-28 -56 -123 -95 -313 l-30 -145 -60 -56 c-53 -49 -60 -60 -60 -93 0 -48 12
-70 68 -129 l47 -47 6 -163 c3 -89 9 -170 13 -179 5 -10 53 -47 108 -83 55
-37 124 -88 152 -115 60 -57 89 -70 154 -70 l47 0 -31 -19 c-39 -24 -64 -58
-64 -88 0 -17 -14 -29 -61 -54 -68 -37 -82 -56 -82 -113 0 -49 41 -91 100
-101 l40 -6 -19 -39 c-16 -32 -18 -45 -8 -78 6 -24 23 -51 41 -66 39 -33 161
-71 320 -100 105 -19 124 -26 127 -42 1 -10 5 -29 7 -40 5 -22 166 -239 194
-261 25 -19 88 -15 218 13 l119 25 308 -110 307 -111 110 0 c108 0 109 0 109
-24 0 -21 -9 -26 -80 -46 -60 -17 -87 -30 -105 -52 -52 -62 -28 -116 108 -245
73 -70 91 -79 144 -74 22 2 309 126 329 142 7 5 22 36 34 69 l22 60 118 0
c110 0 119 1 144 25 14 13 26 33 26 44 0 29 14 34 59 20 l39 -12 22 -88 c12
-49 31 -100 41 -113 18 -23 18 -24 -1 -41 -27 -24 -34 -67 -17 -107 22 -51
229 -182 339 -214 45 -13 83 -26 85 -28 2 -2 -33 -25 -79 -52 -148 -86 -155
-111 -84 -269 l44 -98 -28 -51 c-31 -57 -56 -169 -46 -209 9 -39 36 -59 126
-96 84 -35 86 -38 74 -100 -6 -29 -9 -31 -50 -31 -92 0 -122 -35 -131 -154
l-6 -72 173 -205 c94 -112 182 -209 193 -216 49 -27 83 -14 203 82 35 28 44
30 150 35 92 4 116 8 133 24 l21 19 0 -40 c0 -22 14 -73 30 -113 17 -40 30
-76 30 -80 0 -4 -11 -12 -24 -18 -17 -8 -47 -6 -118 6 -112 19 -119 17 -223
-61 -91 -68 -102 -101 -62 -183 15 -30 27 -58 27 -63 0 -5 -17 -15 -37 -22
-65 -20 -151 -68 -167 -91 -14 -19 -16 -62 -16 -278 0 -215 -3 -262 -17 -302
-16 -44 -19 -48 -51 -48 -44 0 -92 -46 -92 -89 0 -36 26 -151 42 -186 6 -13
39 -43 73 -65 74 -48 129 -54 168 -18 30 28 72 137 90 233 12 65 14 70 37 68
34 -2 279 46 300 60 10 6 35 39 56 74 l39 63 48 0 49 0 -3 -194 c-3 -170 -1
-196 14 -220 17 -26 17 -28 -2 -54 -10 -15 -46 -52 -79 -83 -83 -76 -85 -88
-35 -233 l41 -118 -25 -37 c-36 -53 -28 -92 41 -185 31 -42 68 -81 82 -86 27
-11 285 -14 321 -4 12 3 58 49 103 100 63 73 86 93 100 89 10 -3 34 1 53 8 28
12 49 38 112 143 43 71 80 131 81 133 2 1 79 -2 173 -7 l170 -10 74 -56 c41
-30 87 -70 101 -89 56 -73 133 -74 190 -4 75 93 96 136 96 201 0 83 -27 318
-44 389 l-14 58 113 53 c73 35 117 62 126 77 9 18 10 82 5 277 -7 248 -6 254
15 292 18 32 25 37 40 30 34 -19 98 -12 122 13 13 12 58 87 100 167 l78 145
184 81 c142 63 185 78 189 67 8 -20 75 -45 103 -38 13 3 135 77 271 164 136
86 252 160 258 164 6 3 55 -7 110 -23 115 -34 173 -38 203 -12 11 9 66 80 121
157 55 77 111 156 126 175 l26 35 -38 33 c-20 17 -44 32 -53 32 -9 0 -142 70
-296 154 l-280 153 -122 239 c-67 131 -122 242 -123 246 0 3 99 124 220 268
210 250 220 264 220 304 0 23 -8 53 -17 66 -9 14 -113 143 -230 287 l-213 262
0 141 0 142 155 198 c85 109 159 209 165 222 8 17 9 98 1 289 l-10 264 70 213
c63 192 69 216 59 247 -6 18 -21 40 -34 48 -21 14 -358 76 -456 84 -25 2 -54
-2 -66 -9 -12 -7 -156 -81 -321 -165 l-300 -151 -149 150 c-82 82 -163 156
-181 164 -29 13 -64 8 -433 -61 -221 -41 -409 -80 -418 -87 -8 -7 -44 -58 -80
-113 -36 -55 -68 -102 -73 -105 -12 -8 -39 -76 -39 -98 0 -11 15 -30 34 -43
19 -13 89 -71 157 -129 68 -58 130 -111 138 -118 9 -7 -110 50 -265 127 l-280
139 -201 37 c-228 42 -243 41 -277 -28 l-18 -38 41 -137 c23 -75 47 -150 53
-165 12 -30 54 -57 88 -57 26 0 26 -14 -2 -27 -17 -7 -49 5 -177 73 l-156 82
-235 38 -235 38 -139 96 c-136 93 -140 97 -152 143 -24 95 -57 107 -209 73
-61 -13 -114 -21 -118 -17 -5 5 33 44 83 86 50 43 95 86 101 96 14 27 11 76
-7 110 -8 17 -14 32 -12 33 2 2 48 20 103 40 114 43 155 77 155 129 -1 48 -16
68 -128 172 -87 81 -107 95 -136 95 -42 0 -220 -36 -246 -50 -10 -5 -35 -37
-55 -70 -31 -51 -47 -66 -97 -91 l-61 -31 8 47 c13 89 4 97 -340 308 l-80 49
-105 -6 c-319 -19 -302 -17 -332 -47 -46 -45 -34 -129 22 -159 11 -6 86 -20
167 -31 81 -11 151 -23 156 -26 5 -3 -9 -13 -31 -23 -33 -15 -43 -26 -53 -60
-12 -40 -11 -45 34 -136 43 -87 46 -96 33 -117 -8 -12 -22 -59 -32 -104 -10
-46 -20 -83 -24 -83 -4 0 -15 30 -25 68 -28 105 -38 118 -116 157 -39 20 -69
39 -67 43 2 4 17 33 33 64 25 49 27 62 19 94 -12 51 -42 69 -161 100 l-102 27
-52 -22 c-28 -11 -56 -21 -60 -21 -5 0 -9 41 -9 91 0 112 4 107 -211 243
l-155 99 4 86 c2 47 -1 98 -7 113 -5 14 -60 68 -121 118 -70 58 -140 129 -191
191 -44 54 -90 104 -102 110 -19 11 -251 38 -317 38 -14 0 -38 -7 -53 -15z
m913 -1364 c0 -108 11 -127 111 -185 l81 -48 99 18 c97 18 99 18 166 -2 78
-23 68 -6 138 -236 l36 -118 85 -62 c95 -69 126 -81 167 -67 15 5 87 50 159
100 72 50 133 89 135 86 3 -2 0 -13 -6 -24 -27 -50 -6 -205 30 -228 8 -5 61
-11 118 -14 96 -5 105 -7 123 -30 10 -14 27 -71 38 -129 22 -119 37 -147 83
-159 40 -11 79 0 122 32 l32 25 28 -60 c50 -104 47 -103 266 -109 117 -3 189
-9 188 -15 0 -5 -28 -52 -61 -104 -61 -93 -61 -94 -145 -132 -46 -22 -89 -39
-96 -39 -8 0 -175 70 -372 156 -197 85 -370 156 -384 156 -14 1 -64 -2 -111
-6 l-85 -8 -70 62 c-89 80 -122 100 -163 100 -18 0 -79 7 -135 16 -101 16
-103 17 -161 69 l-59 53 -28 209 c-16 114 -29 214 -29 221 0 8 -12 26 -27 41
-24 24 -49 31 -173 56 -80 15 -147 29 -149 31 -2 2 9 35 25 75 l28 72 -23 111
c-13 61 -26 121 -28 133 -5 20 4 26 40 32 4 0 7 -35 7 -79z m1947 -2438 c20
-13 -13 -52 -43 -52 l-25 0 21 30 c23 32 28 34 47 22z m1543 -582 l0 -260 -40
0 -40 0 0 120 c0 73 -4 120 -10 120 -6 0 -10 -43 -10 -110 l0 -110 -40 0 -40
0 0 245 0 245 40 0 40 0 0 -100 c0 -60 4 -100 10 -100 6 0 10 42 10 105 l0
105 40 0 40 0 0 -260z m440 205 c0 -54 0 -55 30 -55 28 0 30 -3 30 -35 0 -32
-2 -35 -30 -35 l-30 0 0 -60 0 -60 -45 0 -45 0 0 150 0 150 45 0 45 0 0 -55z
m-700 5 c0 -28 3 -30 35 -30 33 0 35 -2 35 -35 l0 -35 -115 0 -115 0 0 35 c0
34 1 35 40 35 38 0 40 2 40 30 0 28 2 30 40 30 38 0 40 -2 40 -30z m420 -66
l0 -87 69 7 c38 3 76 9 84 12 18 7 34 -63 18 -79 -5 -5 -66 -12 -136 -15
l-125 -5 0 127 0 126 45 0 45 0 0 -86z m756 -9 l-6 -95 25 0 c22 0 25 -4 25
-35 l0 -35 -85 0 -85 0 0 -50 0 -50 -45 0 -45 0 0 50 0 50 -85 0 -85 0 0 35 0
35 145 0 145 0 0 29 c0 16 3 43 6 60 l7 31 -127 0 -126 0 0 35 0 35 171 0 172
0 -7 -95z m-1172 -49 c49 -20 66 -51 66 -117 0 -68 -23 -103 -79 -120 -130
-39 -193 175 -70 238 31 16 42 16 83 -1z m696 -246 l0 -100 -160 0 -160 0 0
100 0 100 160 0 160 0 0 -100z m220 30 l0 -50 130 0 130 0 0 -35 0 -35 -175 0
-175 0 0 85 0 85 45 0 45 0 0 -50z"/>
<path d="M24170 9740 c-7 -4 -13 -23 -13 -40 0 -35 20 -55 40 -38 30 25 5 98
-27 78z"/>
<path d="M24680 9570 l0 -30 80 0 80 0 0 30 0 30 -80 0 -80 0 0 -30z"/>
</g>
</svg>
