<?xml version="1.0" standalone="no"?>
<!DOCTYPE svg PUBLIC "-//W3C//DTD SVG 20010904//EN"
 "http://www.w3.org/TR/2001/REC-SVG-20010904/DTD/svg10.dtd">
<svg version="1.0" xmlns="http://www.w3.org/2000/svg"
 width="4593.000000pt" height="2599.000000pt" viewBox="0 0 4593.000000 2599.000000"
 preserveAspectRatio="xMidYMid meet">

<g transform="translate(0.000000,2599.000000) scale(0.100000,-0.100000)"
fill="#000000" stroke="none">
<path d="M34815 21130 c-324 -49 -617 -92 -651 -95 -33 -2 -94 -15 -135 -29
-40 -13 -209 -63 -374 -111 -196 -57 -308 -94 -322 -107 -38 -36 -37 -65 12
-249 45 -167 51 -182 156 -377 60 -112 109 -205 109 -208 0 -2 -110 -4 -245
-4 -241 0 -248 1 -586 50 -187 28 -344 52 -348 54 -3 2 -35 6 -70 7 l-64 4
-12 -50 c-7 -27 -29 -147 -50 -265 -20 -118 -38 -217 -41 -219 -2 -2 -165 -30
-361 -62 l-358 -58 -380 -11 c-292 -8 -385 -14 -401 -25 -11 -7 -126 -148
-254 -312 -128 -164 -238 -302 -244 -308 -20 -17 -77 -116 -72 -124 3 -4 -13
-85 -34 -181 -22 -95 -40 -183 -40 -196 0 -12 86 -199 191 -413 l191 -391
-274 -298 c-150 -163 -285 -312 -301 -330 l-27 -34 0 -441 c0 -476 -3 -504
-60 -660 -17 -50 -19 -64 -10 -93 7 -19 20 -39 31 -44 12 -7 160 -11 413 -10
l394 0 107 -197 c59 -109 112 -204 119 -212 13 -17 160 -139 196 -164 36 -25
80 -21 131 11 24 16 152 104 284 197 132 92 245 169 251 172 10 4 824 -171
939 -202 33 -9 71 -19 85 -21 14 -3 64 -17 113 -30 143 -41 104 -80 478 484
l323 487 22 242 c12 133 28 314 35 403 7 88 15 164 18 169 3 5 366 169 805
365 440 195 804 360 809 365 5 5 11 36 14 69 l6 60 -124 102 c-68 56 -125 105
-127 109 -1 4 82 205 184 446 122 287 187 452 187 475 1 25 -37 112 -126 296
-70 143 -127 265 -127 270 0 6 95 62 212 125 118 64 229 131 251 152 37 35 39
39 33 80 -4 23 -42 341 -85 705 -76 645 -79 664 -103 689 -16 15 -39 26 -64
28 -21 2 -304 -36 -629 -85z m-2595 -2825 c0 -23 4 -25 45 -25 45 0 45 0 45
-35 l0 -35 -140 0 -140 0 0 35 0 35 50 0 c47 0 50 2 50 25 0 23 4 25 45 25 41
0 45 -2 45 -25z m200 -75 l0 -100 25 0 c23 0 25 -4 25 -40 0 -36 -2 -40 -25
-40 l-25 0 0 -115 0 -115 -45 0 -45 0 0 255 0 255 45 0 45 0 0 -100z m349 51
c14 -49 60 -89 111 -97 l37 -6 -10 -35 c-6 -19 -17 -37 -24 -40 -22 -9 -109
27 -137 56 l-27 28 -33 -32 c-31 -29 -92 -55 -128 -55 -18 0 -43 54 -33 69 3
6 13 11 21 11 8 0 33 9 54 20 40 21 70 63 70 100 0 17 6 20 43 20 42 0 44 -1
56 -39z m587 -66 l-6 -95 25 0 c22 0 25 -4 25 -35 l0 -35 -85 0 -85 0 0 -50 0
-50 -45 0 -45 0 0 50 0 50 -85 0 -85 0 0 35 0 35 145 0 145 0 0 29 c0 16 3 43
6 60 l7 31 -127 0 -126 0 0 35 0 35 171 0 172 0 -7 -95z m-1116 -30 c36 -19
50 -43 50 -90 0 -35 -35 -85 -60 -85 -5 0 -10 -7 -10 -16 0 -14 7 -16 44 -11
43 6 45 6 51 -24 4 -18 3 -35 -4 -42 -6 -6 -65 -11 -148 -11 l-138 -1 -3 33
-3 32 55 0 c65 0 76 19 26 45 -16 8 -34 24 -40 34 -13 25 -13 77 0 101 25 46
122 65 180 35z m690 -140 l0 -35 -80 0 -80 0 0 -35 c0 -35 0 -35 -45 -35 -45
0 -45 0 -45 35 l0 35 -90 0 -90 0 0 35 0 35 215 0 215 0 0 -35z m170 -95 l0
-50 130 0 130 0 0 -35 0 -35 -175 0 -175 0 0 85 0 85 45 0 45 0 0 -50z m-470
-10 l0 -40 130 0 130 0 0 -35 0 -35 -175 0 -175 0 0 75 0 75 45 0 45 0 0 -40z"/>
<path d="M32152 18121 c-20 -12 -10 -45 14 -49 11 -2 27 4 34 14 12 14 12 18
-5 30 -22 16 -25 17 -43 5z"/>
</g>
</svg>
