<?xml version="1.0" standalone="no"?>
<!DOCTYPE svg PUBLIC "-//W3C//DTD SVG 20010904//EN"
 "http://www.w3.org/TR/2001/REC-SVG-20010904/DTD/svg10.dtd">
<svg version="1.0" xmlns="http://www.w3.org/2000/svg"
 width="3006.000000pt" height="2779.000000pt" viewBox="0 0 3006.000000 2779.000000"
 preserveAspectRatio="xMidYMid meet">

<g transform="translate(0.000000,2779.000000) scale(0.100000,-0.100000)"
fill="#000000" stroke="none">
<path d="M22224 15146 l-89 -95 -145 -10 c-120 -8 -198 -22 -452 -80 l-306
-70 -174 29 c-95 17 -194 30 -220 30 l-46 0 -117 -137 c-65 -76 -127 -146
-137 -155 -16 -14 -38 -18 -97 -18 -62 0 -102 -8 -216 -44 -77 -24 -168 -52
-202 -61 -38 -11 -63 -23 -63 -31 0 -8 -5 -14 -11 -14 -7 0 -9 -14 -7 -37 5
-34 -18 -784 -24 -821 -2 -10 37 -49 94 -96 l97 -81 1 -282 c0 -155 4 -293 10
-307 7 -18 58 -54 187 -130 155 -92 184 -106 223 -106 25 0 210 18 412 40
l368 40 214 -155 214 -155 63 -188 c34 -103 66 -193 72 -200 6 -7 42 -32 81
-54 39 -23 73 -43 75 -45 3 -2 17 -113 32 -247 l27 -244 71 -106 c39 -58 71
-109 71 -114 0 -7 -70 -86 -347 -388 l-83 -91 -131 -449 c-72 -247 -132 -450
-133 -451 -1 -1 -89 -14 -196 -29 -107 -14 -205 -31 -216 -38 -12 -6 -90 -99
-174 -206 -84 -107 -170 -212 -191 -232 -21 -21 -39 -46 -39 -56 0 -11 18 -37
41 -58 22 -22 140 -142 262 -269 121 -126 233 -236 247 -244 24 -12 53 -6 309
58 l283 72 221 -52 222 -51 275 -272 c385 -381 391 -386 434 -386 46 0 66 20
112 112 20 40 95 180 166 311 l129 238 30 211 30 211 112 119 c61 66 131 135
155 155 l43 35 75 -58 c42 -33 84 -66 93 -74 17 -14 17 -27 3 -218 -10 -128
-12 -213 -6 -228 13 -33 547 -434 578 -434 13 0 69 20 123 44 54 25 103 46
109 48 6 2 36 -26 66 -62 58 -71 103 -118 131 -140 16 -12 21 -11 40 12 12 14
74 59 137 100 l116 75 69 -24 c38 -13 80 -23 93 -23 26 0 504 229 533 256 9 8
65 162 124 342 l108 328 221 134 c121 74 238 143 259 153 20 11 37 26 37 34 0
8 -112 138 -250 289 -230 253 -250 277 -250 311 0 29 19 65 92 177 l91 140
-18 194 -18 193 -383 527 -384 526 -309 336 c-308 334 -311 337 -975 1198
-367 475 -671 873 -676 885 -5 12 -14 54 -20 93 -10 65 -15 75 -56 115 l-44
43 0 156 0 155 -89 89 -89 89 -47 -8 c-27 -3 -55 -11 -64 -15 -9 -5 -128 -22
-264 -39 l-248 -30 -158 49 c-87 28 -174 50 -194 50 -31 0 -44 -10 -123 -94z
m1356 -3226 l0 -60 35 0 c34 0 35 -1 35 -40 0 -39 -1 -40 -35 -40 l-35 0 0
-55 0 -55 -42 0 -43 0 30 -15 c44 -23 65 -53 65 -94 0 -74 -56 -111 -170 -111
-112 0 -170 37 -170 108 0 47 14 69 60 92 28 14 59 20 110 20 l70 0 0 155 0
155 45 0 45 0 0 -60z m1000 -215 l0 -265 -45 0 -44 0 -3 93 -3 92 -25 -37
c-14 -21 -28 -38 -32 -38 -14 0 -87 71 -93 91 -9 28 -18 24 -40 -17 -19 -35
-72 -84 -91 -84 -5 0 -19 16 -32 36 l-23 35 45 43 c53 52 76 117 76 213 l0 63
44 0 43 0 7 -77 c7 -93 40 -167 88 -201 l33 -22 3 170 2 170 45 0 45 0 0 -265z
m-510 180 l0 -75 -130 0 c-80 0 -130 -4 -130 -10 0 -6 52 -10 135 -10 l135 0
0 -35 0 -35 -180 0 -180 0 0 80 0 80 133 2 132 2 -132 3 -133 4 0 34 0 35 175
0 175 0 0 -75z m-625 18 c-15 -112 -87 -201 -191 -237 l-41 -14 -17 34 c-22
47 -21 49 24 63 45 13 120 79 120 104 0 14 -12 17 -70 17 l-70 0 0 40 0 40
126 0 125 0 -6 -47z m675 -238 l0 -35 -230 0 -230 0 0 35 0 35 230 0 230 0 0
-35z m-97 -69 c39 -19 54 -48 43 -90 -18 -71 -265 -90 -335 -25 -12 12 -21 32
-21 49 0 60 72 91 195 87 51 -2 94 -10 118 -21z"/>
<path d="M23383 11593 c-12 -2 -27 -11 -34 -19 -21 -26 12 -48 71 -48 60 0 95
24 70 48 -17 16 -73 26 -107 19z"/>
<path d="M23833 11543 c-67 -13 27 -40 97 -28 22 4 40 10 40 15 0 16 -82 24
-137 13z"/>
</g>
</svg>
