<?xml version="1.0" standalone="no"?>
<!DOCTYPE svg PUBLIC "-//W3C//DTD SVG 20010904//EN"
 "http://www.w3.org/TR/2001/REC-SVG-20010904/DTD/svg10.dtd">
<svg version="1.0" xmlns="http://www.w3.org/2000/svg"
 width="3006.000000pt" height="2779.000000pt" viewBox="0 0 3006.000000 2779.000000"
 preserveAspectRatio="xMidYMid meet">

<g transform="translate(0.000000,2779.000000) scale(0.100000,-0.100000)"
fill="#000000" stroke="none">
<path d="M17348 27559 c-172 -127 -323 -242 -335 -255 l-23 -25 0 -642 0 -642
-79 -44 c-51 -28 -83 -53 -91 -70 -6 -14 -72 -269 -146 -565 -73 -297 -137
-542 -141 -546 -4 -4 -214 -148 -466 -320 -350 -239 -465 -322 -484 -352 l-26
-38 19 -36 c10 -20 26 -40 35 -45 10 -5 124 -130 254 -279 131 -148 239 -270
242 -270 2 0 56 -12 121 -26 115 -26 138 -38 216 -105 5 -5 -22 -37 -60 -72
l-69 -65 0 -123 0 -124 338 -486 337 -486 0 -155 0 -155 61 -79 c33 -44 68
-83 77 -89 10 -5 68 -12 131 -15 l115 -5 162 -235 c113 -164 170 -238 188
-244 20 -8 85 6 302 63 152 40 280 69 284 64 4 -4 53 -68 108 -140 l102 -133
26 -167 c14 -93 26 -184 27 -203 1 -46 47 -103 183 -226 56 -51 78 -64 103
-64 38 0 1447 412 1508 441 47 22 88 79 80 109 -3 10 -62 119 -132 241 l-127
222 -88 528 -88 528 -175 243 c-96 134 -179 252 -184 263 -6 11 -48 192 -94
403 l-83 383 -276 346 -276 346 40 314 c31 241 38 320 30 341 -6 15 -98 153
-204 307 l-194 280 -63 235 c-35 129 -70 258 -78 287 -13 45 -25 60 -99 124
l-84 72 -7 106 c-4 58 -13 176 -19 261 l-13 155 -176 342 -176 341 -55 193
c-35 126 -60 197 -72 206 -10 7 -35 13 -55 13 -33 0 -74 -27 -351 -231z m802
-3979 l0 -150 -45 0 -45 0 0 70 0 70 -40 0 -40 0 0 40 0 40 40 0 40 0 0 40 0
40 45 0 45 0 0 -150z m460 40 l0 -100 25 0 c23 0 25 -4 25 -40 l0 -40 -90 0
-90 0 0 -50 0 -50 -45 0 -45 0 0 50 0 50 -90 0 -90 0 0 40 0 40 149 0 c167 0
161 -3 161 83 l0 37 -130 0 -130 0 0 40 0 40 175 0 175 0 0 -100z m-677 34 c7
-63 26 -99 68 -122 35 -20 36 -29 6 -66 -23 -28 -24 -28 -55 -12 -17 9 -39 26
-48 39 l-18 23 -33 -37 c-19 -21 -47 -42 -62 -47 -26 -9 -30 -7 -50 29 l-22
38 28 15 c58 29 93 94 93 169 0 25 3 27 44 27 l43 0 6 -56z m-285 -102 c-3
-82 -7 -153 -11 -158 -3 -5 -26 -8 -52 -6 -42 4 -46 6 -41 26 3 11 9 63 13
114 l6 92 -141 0 -142 0 0 40 0 40 186 0 187 0 -5 -148z m-168 -122 l0 -90
105 0 105 0 0 -40 0 -40 -225 0 -225 0 0 40 0 40 75 0 75 0 0 90 0 90 45 0 45
0 0 -90z m597 -21 c50 -19 73 -48 73 -94 0 -72 -54 -105 -173 -105 -129 1
-190 48 -170 130 12 51 73 80 169 80 40 0 85 -5 101 -11z m273 -69 l0 -50 135
0 135 0 0 -40 0 -40 -180 0 -180 0 0 90 0 90 45 0 45 0 0 -50z"/>
<path d="M17935 23343 c-86 -22 -19 -72 77 -57 39 7 59 27 42 44 -12 11 -93
20 -119 13z"/>
</g>
</svg>
