<?xml version="1.0" standalone="no"?>
<!DOCTYPE svg PUBLIC "-//W3C//DTD SVG 20010904//EN"
 "http://www.w3.org/TR/2001/REC-SVG-20010904/DTD/svg10.dtd">
<svg version="1.0" xmlns="http://www.w3.org/2000/svg"
 width="3006.000000pt" height="2779.000000pt" viewBox="0 0 3006.000000 2779.000000"
 preserveAspectRatio="xMidYMid meet">

<g transform="translate(0.000000,2779.000000) scale(0.100000,-0.100000)"
fill="#000000" stroke="none">
<path d="M26577 9797 c-148 -88 -466 -286 -487 -304 -21 -17 -46 -83 -130
-343 l-105 -322 -220 -110 -220 -111 -81 27 c-44 14 -88 26 -97 26 -9 0 -83
-45 -165 -99 -146 -98 -151 -103 -280 -256 -98 -116 -132 -163 -132 -183 0
-37 119 -393 139 -416 9 -10 50 -38 92 -62 l76 -44 -9 -53 c-8 -44 -16 -59
-61 -102 -29 -27 -123 -118 -209 -202 l-158 -153 17 -43 c41 -105 135 -313
147 -325 13 -13 495 -142 533 -142 12 0 233 105 490 234 l469 234 236 -17 236
-17 94 -57 c59 -36 106 -57 124 -57 19 0 122 49 285 134 l254 134 204 22 c254
26 250 25 284 66 l28 33 -360 395 c-239 263 -361 404 -365 423 -3 15 -19 120
-36 232 -29 196 -30 216 -30 556 l0 352 -261 287 c-143 157 -261 286 -262 286
-1 0 -19 -10 -40 -23z m83 -1967 l0 -270 -40 0 -40 0 0 125 c0 104 -2 125 -15
125 -12 0 -15 -19 -15 -115 l0 -115 -40 0 -40 0 0 255 0 255 40 0 40 0 0 -100
c0 -82 3 -100 15 -100 12 0 15 18 15 105 l0 105 40 0 40 0 0 -270z m489 182
c-5 -2 -9 -105 -9 -228 l0 -224 -45 0 -44 0 -3 93 -3 92 -25 -37 c-14 -21 -28
-38 -32 -38 -14 0 -87 71 -93 91 -9 28 -18 24 -40 -17 -19 -35 -72 -84 -91
-84 -5 0 -19 16 -32 36 l-23 35 45 43 c53 52 76 117 76 213 l0 63 44 0 43 0 7
-77 c7 -93 40 -167 88 -201 l33 -22 3 169 2 170 38 3 c35 3 38 1 53 -37 9 -22
13 -41 8 -43z m-759 48 c0 -28 3 -30 35 -30 34 0 35 -1 35 -40 l0 -40 -115 0
-115 0 0 40 c0 39 1 40 35 40 32 0 35 2 35 30 0 29 2 30 45 30 43 0 45 -1 45
-30z m-250 -25 l0 -35 -130 0 c-123 0 -130 -1 -130 -20 0 -19 7 -20 130 -20
l130 0 0 -35 0 -35 -65 0 c-51 0 -65 -3 -65 -15 0 -12 17 -15 90 -15 l90 0 0
-40 0 -40 -230 0 -230 0 0 40 0 40 95 0 c78 0 95 3 95 15 0 12 -14 15 -65 15
l-65 0 0 90 0 90 175 0 175 0 0 -35z m269 -121 c70 -49 64 -191 -10 -229 -106
-55 -205 59 -155 179 18 44 52 66 101 66 22 0 51 -7 64 -16z m-342 -165 c103
-39 96 -149 -12 -179 -57 -16 -179 -9 -221 13 -37 19 -58 63 -48 101 6 27 44
60 79 69 38 9 174 7 202 -4z"/>
<path d="M26320 7825 c-15 -38 7 -79 36 -68 30 11 21 93 -11 93 -9 0 -20 -11
-25 -25z"/>
<path d="M25895 7677 c-26 -19 -12 -35 38 -42 51 -7 101 6 105 27 5 28 -108
40 -143 15z"/>
</g>
</svg>
