<?xml version="1.0" standalone="no"?>
<!DOCTYPE svg PUBLIC "-//W3C//DTD SVG 20010904//EN"
 "http://www.w3.org/TR/2001/REC-SVG-20010904/DTD/svg10.dtd">
<svg version="1.0" xmlns="http://www.w3.org/2000/svg"
 width="3006.000000pt" height="2779.000000pt" viewBox="0 0 3006.000000 2779.000000"
 preserveAspectRatio="xMidYMid meet">

<g transform="translate(0.000000,2779.000000) scale(0.100000,-0.100000)"
fill="#000000" stroke="none">
<path d="M27800 7349 c-25 -4 -133 -18 -240 -30 l-195 -21 -243 -129 -242
-129 -86 52 -86 52 -277 20 -276 19 -470 -232 -470 -233 -205 53 c-113 28
-210 56 -216 60 -11 9 -99 210 -108 249 -14 58 -18 59 -207 60 l-174 1 -295
-121 c-162 -66 -303 -129 -313 -138 -9 -10 -48 -109 -85 -221 l-68 -204 -139
-76 -139 -76 -187 -385 c-103 -212 -188 -396 -188 -411 -1 -16 46 -96 140
-235 l140 -211 -17 -116 -18 -117 -83 -91 c-118 -130 -121 -115 72 -362 l155
-198 0 -176 0 -176 118 -121 119 -121 58 -215 c32 -118 63 -221 70 -229 8 -8
18 -10 28 -5 8 5 94 91 191 191 l176 182 0 200 0 201 96 161 c53 88 102 176
110 194 10 26 14 85 14 238 l0 204 170 147 170 147 227 19 c126 11 244 21 263
24 l36 4 23 -127 c12 -69 25 -138 27 -152 5 -22 -14 -49 -125 -177 -128 -149
-150 -184 -137 -219 4 -10 54 -101 111 -203 l104 -185 -74 -255 c-41 -140 -75
-270 -75 -288 0 -18 15 -63 34 -100 l33 -67 -78 -175 c-116 -258 -113 -231
-45 -345 65 -108 90 -130 141 -122 l34 6 -5 -107 c-6 -98 -5 -109 14 -132 12
-15 175 -103 406 -220 l385 -195 130 -246 131 -247 -40 -223 c-22 -123 -44
-244 -49 -269 -5 -24 -7 -48 -5 -52 3 -5 27 -8 54 -8 40 0 354 -46 453 -66 18
-4 123 -90 288 -239 l261 -232 91 -7 c51 -4 97 -12 103 -19 6 -7 53 -84 104
-172 51 -88 102 -170 113 -183 20 -22 22 -22 313 -22 278 0 294 1 311 20 11
10 31 70 46 132 25 104 27 129 27 309 l0 196 357 238 c327 218 364 240 447
266 l91 28 120 121 c66 67 150 148 186 180 l66 59 189 11 c275 16 269 14 325
67 42 39 49 51 49 83 0 25 -36 120 -114 298 l-113 261 92 440 93 441 -14 121
-14 121 -326 439 c-179 241 -329 452 -334 467 -4 16 -11 62 -15 103 -8 82 -16
109 -38 130 -8 8 -96 95 -196 193 l-180 179 -57 174 -56 173 -9 253 c-4 138
-8 270 -9 293 0 39 -16 59 -371 470 -204 236 -378 436 -385 445 -13 14 -12 42
11 215 15 108 24 208 20 221 -6 27 -173 214 -189 212 -6 -1 -31 -5 -56 -10z
m-430 -3229 l0 -60 35 0 c34 0 35 -1 35 -40 0 -39 -1 -40 -35 -40 l-35 0 0
-55 0 -55 -44 0 c-44 0 -45 0 -48 38 l-3 37 -18 -32 c-10 -18 -24 -33 -32 -33
-9 0 -35 18 -58 40 l-43 39 -16 -27 c-9 -15 -34 -37 -56 -50 l-39 -22 -26 39
-26 39 36 23 c53 35 73 68 80 132 l6 57 42 0 43 0 7 -57 c6 -48 13 -63 45 -95
21 -21 43 -38 49 -38 7 0 11 36 11 110 l0 110 45 0 45 0 0 -60z m280 25 c0
-23 4 -25 45 -25 45 0 45 0 45 -35 0 -35 0 -35 -45 -35 l-45 0 15 -36 c15 -36
51 -73 72 -74 21 0 24 -18 6 -54 -20 -42 -36 -41 -96 6 l-39 30 -31 -30 c-18
-17 -44 -35 -59 -41 -26 -10 -29 -8 -48 29 l-20 40 39 19 c35 18 71 69 71 100
0 6 -19 11 -45 11 -45 0 -45 0 -45 35 0 35 0 35 45 35 41 0 45 2 45 25 0 23 4
25 45 25 41 0 45 -2 45 -25z m230 -135 l0 -160 -45 0 -45 0 0 55 0 55 -35 0
c-34 0 -35 1 -35 40 0 39 1 40 35 40 l35 0 0 65 0 65 45 0 45 0 0 -160z m490
-105 l0 -265 -45 0 -44 0 -3 93 -3 92 -25 -37 c-14 -21 -28 -38 -32 -38 -14 0
-87 71 -93 91 -9 28 -18 24 -40 -17 -19 -35 -72 -84 -91 -84 -5 0 -19 16 -32
36 l-23 35 45 43 c53 52 76 117 76 213 l0 63 44 0 43 0 7 -77 c7 -93 40 -167
88 -201 l33 -22 3 170 2 170 45 0 45 0 0 -265z m-1000 -155 l0 -100 -165 0
-165 0 0 100 0 100 165 0 165 0 0 -100z m510 -10 l0 -100 -45 0 -45 0 0 60 0
60 -130 0 -130 0 0 40 0 40 175 0 175 0 0 -100z"/>
<path d="M27130 3750 l0 -30 75 0 75 0 0 30 0 30 -75 0 -75 0 0 -30z"/>
</g>
</svg>
