<?xml version="1.0" standalone="no"?>
<!DOCTYPE svg PUBLIC "-//W3C//DTD SVG 20010904//EN"
 "http://www.w3.org/TR/2001/REC-SVG-20010904/DTD/svg10.dtd">
<svg version="1.0" xmlns="http://www.w3.org/2000/svg"
 width="3006.000000pt" height="2779.000000pt" viewBox="0 0 3006.000000 2779.000000"
 preserveAspectRatio="xMidYMid meet">

<g transform="translate(0.000000,2779.000000) scale(0.100000,-0.100000)"
fill="#000000" stroke="none">
<path d="M20340 20734 c-47 -26 -254 -91 -759 -240 -382 -112 -697 -204 -700
-204 -4 0 -53 45 -110 100 -109 107 -114 109 -162 66 -32 -28 -321 -382 -337
-413 -13 -23 -16 -255 -4 -285 4 -9 70 -97 146 -194 l140 -178 37 -159 c21
-88 40 -161 42 -163 7 -7 198 -23 274 -24 61 0 91 7 194 45 l122 45 233 0 232
0 122 100 123 100 104 0 c89 0 132 7 292 45 103 25 197 45 208 45 25 0 38 19
90 135 l41 90 -33 240 c-28 206 -43 281 -110 530 -72 271 -93 337 -113 349 -4
2 -37 -11 -72 -30z m-1200 -604 c0 -55 75 -120 138 -120 26 0 26 -1 7 -46 -14
-35 -17 -36 -52 -29 -21 4 -50 13 -65 21 -28 14 -28 14 -28 -16 l0 -30 90 0
90 0 0 -40 0 -40 -225 0 -225 0 0 40 0 40 90 0 90 0 0 30 c0 29 2 30 42 30
l42 0 -22 22 -22 22 -27 -27 c-28 -26 -100 -57 -133 -57 -12 0 -23 12 -30 36
-7 19 -10 36 -8 38 1 1 22 8 44 14 58 17 92 47 104 93 11 38 12 39 55 39 39 0
45 -3 45 -20z m490 -10 l0 -30 70 0 70 0 0 -40 0 -40 -65 0 c-47 0 -65 -4 -65
-13 0 -28 88 -87 129 -87 29 0 33 -13 16 -53 -14 -35 -15 -35 -56 -26 -49 11
-96 34 -126 62 l-22 20 -35 -31 c-32 -28 -64 -42 -127 -56 -23 -5 -28 -1 -42
35 -12 30 -13 41 -4 43 7 2 31 9 54 15 39 11 103 61 103 82 0 5 -31 9 -70 9
l-70 0 0 40 0 40 75 0 75 0 0 30 c0 29 2 30 45 30 43 0 45 -1 45 -30z m630
-235 l0 -265 -45 0 -44 0 -3 93 -3 92 -25 -37 c-14 -21 -28 -38 -32 -38 -14 0
-87 71 -93 91 -9 28 -18 24 -40 -17 -19 -35 -72 -84 -91 -84 -5 0 -19 16 -32
36 l-23 35 45 43 c53 52 76 117 76 213 l0 63 44 0 43 0 7 -77 c7 -93 40 -167
88 -201 l33 -22 3 170 2 170 45 0 45 0 0 -265z m-630 -80 l0 -45 90 0 90 0 0
-40 0 -40 -230 0 -230 0 0 40 0 40 95 0 95 0 0 45 0 45 45 0 45 0 0 -45z
m-360 -95 l0 -90 -45 0 -45 0 0 55 0 55 -130 0 -130 0 0 35 0 35 175 0 175 0
0 -90z"/>
</g>
</svg>
