<?xml version="1.0" standalone="no"?>
<!DOCTYPE svg PUBLIC "-//W3C//DTD SVG 20010904//EN"
 "http://www.w3.org/TR/2001/REC-SVG-20010904/DTD/svg10.dtd">
<svg version="1.0" xmlns="http://www.w3.org/2000/svg"
 width="3006.000000pt" height="2779.000000pt" viewBox="0 0 3006.000000 2779.000000"
 preserveAspectRatio="xMidYMid meet">

<g transform="translate(0.000000,2779.000000) scale(0.100000,-0.100000)"
fill="#000000" stroke="none">
<path d="M11042 23175 c-52 -23 -92 -55 -92 -74 0 -9 21 -73 46 -142 25 -68
59 -158 74 -200 l28 -77 -182 -131 c-101 -72 -190 -139 -199 -148 -17 -19 -25
-48 -56 -211 -19 -100 -19 -111 -5 -428 l15 -326 -57 -86 -57 -86 -20 -142
c-16 -108 -19 -147 -10 -165 8 -19 122 -99 316 -221 5 -3 27 -95 47 -205 l38
-198 -39 -100 -39 -100 -10 -323 c-8 -246 -8 -328 1 -345 7 -12 70 -93 141
-179 l128 -158 0 -367 0 -367 -46 -47 -45 -46 -1 -95 c-1 -67 4 -102 13 -116
8 -11 88 -102 177 -201 l163 -181 123 0 c104 0 127 3 143 18 15 12 133 156
149 180 1 3 185 -68 193 -74 2 -2 10 -68 17 -146 13 -133 15 -145 39 -165 47
-41 129 -33 371 38 l209 61 117 -4 118 -4 207 208 c114 114 210 208 213 208 3
0 73 -55 155 -121 244 -199 203 -179 382 -179 150 0 155 1 178 25 30 29 31 53
15 464 l-10 264 -95 157 c-52 87 -97 164 -100 171 -3 9 17 28 60 53 39 24 68
50 74 65 5 14 14 118 20 229 l11 204 -86 206 c-48 114 -93 221 -100 238 -13
31 -12 33 76 153 130 175 134 183 185 321 48 132 50 152 29 300 -5 34 -3 37
114 132 96 77 120 103 126 129 3 17 6 127 6 243 l0 211 304 164 c220 118 307
170 315 187 8 19 5 77 -16 247 l-26 223 56 105 57 106 0 162 c0 141 -2 163
-18 179 -10 10 -112 45 -236 81 l-219 63 -251 -26 c-138 -15 -272 -29 -298
-33 l-47 -6 -47 98 c-26 53 -53 99 -61 102 -8 3 -58 -13 -111 -36 l-97 -41
-433 0 -434 0 -264 50 c-262 49 -266 50 -621 66 l-358 16 -195 88 c-107 48
-204 91 -215 94 -11 3 -35 -1 -53 -9z m1608 -2195 c0 -28 3 -30 35 -30 34 0
35 -1 35 -40 0 -39 -1 -40 -35 -40 -28 0 -35 -4 -35 -20 0 -16 7 -20 30 -20
28 0 30 -2 30 -40 0 -38 -2 -40 -30 -40 -25 0 -30 -4 -30 -25 0 -23 -4 -25
-45 -25 l-45 0 0 155 0 155 45 0 c43 0 45 -1 45 -30z m990 -90 l0 -100 25 0
c23 0 25 -4 25 -40 l0 -40 -90 0 -90 0 0 -50 0 -50 -45 0 -45 0 0 50 0 50 -90
0 -90 0 0 40 0 40 149 0 c167 0 161 -3 161 83 l0 37 -130 0 -130 0 0 40 0 40
175 0 175 0 0 -100z m-1186 76 c136 -57 93 -246 -56 -246 -91 0 -138 46 -138
133 0 95 99 153 194 113z m694 -96 l-3 -110 28 0 c25 0 27 -3 27 -40 l0 -40
-90 0 -90 0 0 -105 0 -105 -45 0 -45 0 0 105 0 105 -90 0 -90 0 0 40 0 40 149
0 c169 0 161 -4 161 86 l0 54 -130 0 -130 0 0 40 0 40 176 0 175 0 -3 -110z
m-561 -191 c50 -19 73 -48 73 -94 0 -72 -54 -105 -174 -105 -131 0 -200 59
-166 141 19 45 76 69 167 69 39 0 84 -5 100 -11z m793 -69 l0 -50 135 0 135 0
0 -40 0 -40 -180 0 -180 0 0 90 0 90 45 0 45 0 0 -50z"/>
<path d="M12373 20890 c-26 -10 -32 -57 -11 -78 19 -19 55 -14 72 10 20 29 20
34 -4 58 -22 22 -25 23 -57 10z"/>
<path d="M12445 20613 c-56 -15 -50 -46 10 -57 63 -12 145 25 108 47 -14 9
-97 16 -118 10z"/>
</g>
</svg>
