<?xml version="1.0" standalone="no"?>
<!DOCTYPE svg PUBLIC "-//W3C//DTD SVG 20010904//EN"
 "http://www.w3.org/TR/2001/REC-SVG-20010904/DTD/svg10.dtd">
<svg version="1.0" xmlns="http://www.w3.org/2000/svg"
 width="3006.000000pt" height="2779.000000pt" viewBox="0 0 3006.000000 2779.000000"
 preserveAspectRatio="xMidYMid meet">

<g transform="translate(0.000000,2779.000000) scale(0.100000,-0.100000)"
fill="#000000" stroke="none">
<path d="M20500 19563 c-14 -3 -109 -25 -211 -49 -163 -39 -200 -44 -300 -44
l-114 0 -122 -100 -122 -100 -224 0 -224 0 -94 -36 c-80 -31 -112 -38 -214
-45 -66 -5 -126 -9 -133 -10 -7 -1 -44 -31 -81 -65 -52 -48 -148 -110 -402
-259 -184 -108 -344 -206 -356 -217 -13 -12 -23 -33 -23 -49 0 -28 56 -521 65
-576 4 -23 31 -59 92 -123 l85 -90 220 0 220 0 96 -90 97 -90 111 0 111 0 41
-272 41 -273 35 -32 34 -31 -130 -339 c-71 -186 -135 -343 -141 -350 -7 -6
-59 -32 -117 -58 l-105 -46 -100 -128 c-55 -71 -104 -141 -110 -156 -7 -21 1
-56 43 -183 l52 -158 0 -221 0 -221 46 -55 c42 -52 104 -107 120 -107 3 0 107
-54 229 -120 137 -74 234 -120 251 -120 16 0 87 16 157 35 70 19 133 35 140
35 12 0 434 -345 505 -413 l32 -31 48 18 c26 10 110 38 187 63 111 35 161 46
245 52 58 4 112 11 121 17 9 5 71 72 137 150 l121 141 168 -28 c92 -16 184
-28 203 -29 19 0 172 31 340 69 254 58 331 72 460 82 85 6 164 16 174 21 11 6
54 46 95 90 l76 79 145 -46 c80 -25 160 -45 179 -45 36 0 580 67 621 77 14 3
40 17 58 30 l32 24 -186 194 -187 194 -682 1235 -683 1235 -295 409 c-162 225
-299 418 -304 428 -6 10 -25 79 -43 152 l-32 132 -197 193 c-109 105 -206 207
-216 225 -19 32 -29 35 -85 25z m-50 -2503 c0 -28 3 -30 35 -30 34 0 35 -1 35
-40 0 -39 -1 -40 -35 -40 -28 0 -35 -4 -35 -20 0 -16 7 -20 30 -20 28 0 30 -2
30 -40 0 -38 -2 -40 -30 -40 -25 0 -30 -4 -30 -25 0 -23 -4 -25 -45 -25 l-45
0 0 155 0 155 45 0 c43 0 45 -1 45 -30z m490 0 c0 -28 3 -30 35 -30 34 0 35
-1 35 -40 0 -39 -1 -40 -35 -40 -28 0 -35 -4 -35 -20 0 -16 7 -20 30 -20 28 0
30 -2 30 -40 0 -38 -2 -40 -30 -40 -25 0 -30 -4 -30 -25 0 -23 -4 -25 -45 -25
l-45 0 0 155 0 155 45 0 c43 0 45 -1 45 -30z m490 -90 l0 -100 25 0 c23 0 25
-4 25 -40 l0 -40 -90 0 -90 0 0 -50 0 -50 -45 0 -45 0 0 50 0 50 -90 0 -90 0
0 40 0 40 149 0 c167 0 161 -3 161 83 l0 37 -130 0 -130 0 0 40 0 40 175 0
175 0 0 -100z m-1176 76 c136 -57 93 -246 -56 -246 -91 0 -138 46 -138 133 0
95 99 153 194 113z m490 0 c136 -57 93 -246 -56 -246 -91 0 -138 46 -138 133
0 95 99 153 194 113z m-357 -287 c50 -19 73 -48 73 -94 0 -72 -54 -105 -174
-105 -131 0 -200 59 -166 141 19 45 76 69 167 69 39 0 84 -5 100 -11z m490 0
c50 -19 73 -48 73 -94 0 -72 -54 -105 -174 -105 -131 0 -200 59 -166 141 19
45 76 69 167 69 39 0 84 -5 100 -11z m293 -69 l0 -50 135 0 135 0 0 -40 0 -40
-180 0 -180 0 0 90 0 90 45 0 45 0 0 -50z"/>
<path d="M20173 16970 c-26 -10 -32 -57 -11 -78 19 -19 55 -14 72 10 20 29 20
34 -4 58 -22 22 -25 23 -57 10z"/>
<path d="M20663 16970 c-26 -10 -32 -57 -11 -78 19 -19 55 -14 72 10 20 29 20
34 -4 58 -22 22 -25 23 -57 10z"/>
<path d="M20245 16693 c-56 -15 -50 -46 10 -57 63 -12 145 25 108 47 -14 9
-97 16 -118 10z"/>
<path d="M20735 16693 c-56 -15 -50 -46 10 -57 63 -12 145 25 108 47 -14 9
-97 16 -118 10z"/>
</g>
</svg>
