<?xml version="1.0" standalone="no"?>
<!DOCTYPE svg PUBLIC "-//W3C//DTD SVG 20010904//EN"
 "http://www.w3.org/TR/2001/REC-SVG-20010904/DTD/svg10.dtd">
<svg version="1.0" xmlns="http://www.w3.org/2000/svg"
 width="3006.000000pt" height="2779.000000pt" viewBox="0 0 3006.000000 2779.000000"
 preserveAspectRatio="xMidYMid meet">

<g transform="translate(0.000000,2779.000000) scale(0.100000,-0.100000)"
fill="#000000" stroke="none">
<path d="M15057 7133 c-20 -44 -220 -377 -238 -397 -4 -4 -119 27 -256 69
l-248 78 -253 -129 c-140 -71 -267 -137 -282 -146 -51 -30 -49 -53 40 -334 44
-142 77 -261 73 -265 -5 -4 -109 -43 -232 -88 l-223 -81 -178 0 c-98 0 -190
-4 -204 -9 -15 -6 -63 -63 -123 -148 -54 -75 -118 -159 -141 -185 l-44 -47 41
-208 c22 -114 47 -244 55 -288 24 -130 9 -125 353 -125 l285 0 146 35 c80 20
154 43 164 52 10 9 32 38 49 64 17 27 37 49 45 49 7 0 90 -25 183 -55 112 -37
169 -60 166 -68 -2 -7 -27 -95 -55 -197 -50 -177 -51 -188 -46 -275 4 -49 8
-150 11 -224 3 -74 6 -136 8 -138 2 -2 60 2 127 9 76 7 125 8 127 2 2 -5 39
-76 82 -159 51 -98 87 -154 102 -162 16 -8 73 -13 167 -13 l142 0 163 -130
c128 -103 168 -130 192 -130 16 0 98 18 180 38 l150 38 80 -32 80 -32 3 -50 3
-49 -304 -201 c-167 -110 -307 -208 -311 -217 -19 -50 -6 -76 130 -266 86
-120 145 -194 161 -200 14 -5 217 -9 471 -9 l447 0 224 -130 c124 -71 229
-134 234 -139 6 -6 46 -106 89 -223 43 -117 84 -218 91 -225 20 -19 446 -203
472 -203 13 0 160 50 327 111 166 61 310 114 320 116 11 3 165 -116 453 -351
l437 -356 341 -1 342 -1 99 -41 98 -42 69 -155 c38 -85 79 -163 90 -172 17
-14 41 -18 118 -18 l96 0 129 -114 130 -114 140 -28 141 -27 71 -56 71 -57
199 -23 199 -24 58 -64 c55 -58 62 -63 101 -63 51 0 47 -3 161 155 l85 120 1
140 0 140 174 140 c96 77 178 140 184 140 6 0 117 -40 246 -90 l236 -90 236
-278 c153 -181 244 -279 260 -283 33 -9 443 44 465 59 28 19 261 388 251 398
-4 4 -53 28 -108 53 -55 24 -210 96 -345 159 l-245 116 4 198 3 198 41 45 c22
25 152 159 289 299 l248 253 -42 47 c-23 25 -45 48 -48 51 -4 3 -64 73 -135
155 -206 241 -199 235 -265 234 -30 0 -131 -8 -224 -18 l-170 -17 -469 364
-468 364 -172 29 c-95 16 -187 29 -206 29 -25 0 -95 -34 -266 -129 l-231 -129
-115 -7 c-112 -7 -117 -8 -314 -86 -111 -43 -205 -79 -209 -79 -10 0 -564 336
-583 354 -7 6 -23 62 -37 124 -35 162 -48 173 -181 143 l-84 -19 -133 115
-133 115 -5 186 -5 186 -52 40 -52 41 0 80 0 80 95 65 c53 36 105 72 117 81
l21 17 -39 48 c-22 27 -48 58 -57 69 -9 11 -53 65 -98 120 -45 55 -91 108
-102 118 -18 15 -51 17 -352 17 l-331 0 -77 119 c-43 65 -83 123 -90 128 -7 5
-98 47 -203 92 -104 45 -193 85 -197 89 -3 4 11 50 32 102 46 111 48 130 18
164 -13 14 -151 111 -307 216 -212 141 -292 190 -315 190 -53 0 -180 -40 -201
-64 -14 -15 -32 -72 -55 -171 -30 -128 -38 -150 -60 -163 -65 -40 -66 -81 -5
-201 l44 -90 -139 -111 -140 -112 -28 24 c-15 12 -72 62 -127 109 -147 126
-293 238 -321 245 -13 3 -61 1 -105 -6 -45 -6 -85 -8 -89 -3 -8 9 -160 619
-160 642 0 7 30 49 67 93 l66 80 20 141 c12 78 18 154 14 169 -5 19 -109 109
-389 336 -211 171 -401 329 -423 351 -52 54 -70 53 -98 -6z m2653 -3733 l0
-160 -45 0 c-43 0 -45 1 -45 30 0 29 -2 30 -43 30 -23 0 -60 -9 -82 -20 -46
-23 -83 -25 -129 -6 -52 22 -76 60 -76 122 0 47 4 59 33 90 44 48 114 58 177
25 22 -11 58 -21 80 -21 39 0 40 1 40 35 0 35 0 35 45 35 l45 0 0 -160z m480
5 l0 -155 -27 0 c-16 0 -52 3 -80 6 -50 6 -53 8 -53 35 0 26 -4 29 -30 29 -28
0 -30 -3 -30 -35 0 -35 0 -35 -45 -35 -43 0 -45 1 -45 30 0 30 -1 30 -54 30
l-54 0 -4 35 -4 35 102 0 c55 0 128 3 162 6 l60 7 5 -29 c2 -16 5 22 6 84 l1
112 45 0 45 0 0 -155z m-191 134 c36 -13 51 -35 51 -78 0 -45 -46 -71 -125
-71 -101 0 -146 44 -119 115 15 39 124 58 193 34z m661 -99 l0 -100 25 0 c23
0 25 -4 25 -40 l0 -40 -90 0 -90 0 0 -50 0 -50 -45 0 -45 0 0 50 0 50 -90 0
-90 0 0 40 0 40 149 0 c167 0 161 -3 161 83 l0 37 -130 0 -130 0 0 40 0 40
175 0 175 0 0 -100z m-1023 -211 c50 -19 73 -48 73 -94 0 -72 -54 -105 -173
-105 -129 1 -190 48 -170 130 12 51 73 80 169 80 40 0 85 -5 101 -11z m553
-59 l0 -69 -132 -4 -133 -3 138 -2 137 -2 0 -35 0 -35 -180 0 -180 0 0 70 0
70 130 0 c80 0 130 4 130 10 0 6 -52 10 -135 10 l-135 0 0 30 0 30 180 0 180
0 0 -70z m210 -10 l0 -50 135 0 135 0 0 -40 0 -40 -180 0 -180 0 0 90 0 90 45
0 45 0 0 -50z"/>
<path d="M17404 3439 c-38 -14 -36 -81 3 -91 27 -7 59 7 65 29 12 46 -24 79
-68 62z"/>
<path d="M17560 3395 c0 -10 10 -15 30 -15 20 0 30 5 30 15 0 10 -10 15 -30
15 -20 0 -30 -5 -30 -15z"/>
<path d="M17901 3481 c-19 -12 -5 -31 24 -31 13 0 27 5 31 11 7 11 -12 29 -31
29 -5 0 -16 -4 -24 -9z"/>
<path d="M17495 3163 c-86 -22 -19 -72 77 -57 39 7 59 27 42 44 -12 11 -93 20
-119 13z"/>
</g>
</svg>
