<?xml version="1.0" standalone="no"?>
<!DOCTYPE svg PUBLIC "-//W3C//DTD SVG 20010904//EN"
 "http://www.w3.org/TR/2001/REC-SVG-20010904/DTD/svg10.dtd">
<svg version="1.0" xmlns="http://www.w3.org/2000/svg"
 width="3006.000000pt" height="2779.000000pt" viewBox="0 0 3006.000000 2779.000000"
 preserveAspectRatio="xMidYMid meet">

<g transform="translate(0.000000,2779.000000) scale(0.100000,-0.100000)"
fill="#000000" stroke="none">
<path d="M10532 9043 c-11 -10 -97 -126 -191 -258 -126 -176 -180 -243 -201
-253 -17 -7 -91 -23 -166 -36 -75 -13 -142 -30 -149 -37 -24 -25 -235 -513
-235 -544 0 -16 20 -82 44 -145 49 -130 52 -102 -28 -273 -25 -55 -49 -97 -54
-95 -4 1 -31 12 -60 22 l-52 20 0 185 0 186 -111 140 c-61 77 -121 145 -132
151 -35 18 -209 66 -242 66 -16 1 -42 -4 -57 -10 l-28 -12 0 -311 0 -311 -232
-384 -233 -384 -113 0 c-62 0 -122 -5 -133 -11 -37 -19 -39 -49 -22 -282 l17
-223 -42 -493 c-32 -379 -39 -498 -30 -515 6 -11 38 -52 71 -91 34 -38 67 -78
75 -87 12 -15 -4 -38 -151 -212 l-165 -195 -6 -63 c-11 -108 -75 -980 -77
-1038 -2 -49 8 -79 96 -280 134 -310 132 -307 163 -319 42 -16 702 -171 730
-171 13 0 130 47 259 105 l235 106 402 -42 c252 -26 409 -38 423 -32 20 7 399
458 423 503 6 11 4 147 -7 384 -8 202 -14 368 -12 370 2 2 189 69 414 149 226
80 417 148 426 152 11 4 63 -55 197 -225 100 -127 182 -239 182 -248 0 -10
-22 -130 -50 -267 -27 -137 -50 -263 -50 -281 0 -57 21 -69 223 -129 l188 -56
457 146 c251 81 463 152 471 158 7 6 63 82 123 169 61 87 113 160 118 163 4 3
94 -32 200 -76 135 -57 199 -79 216 -75 13 4 129 75 257 159 128 85 256 162
284 172 92 33 93 35 83 150 -20 223 -16 276 45 490 59 210 65 251 38 283 -19
22 -466 172 -511 172 -39 0 -58 -17 -102 -88 l-43 -69 -132 -31 c-128 -31
-138 -32 -362 -32 l-231 0 -10 48 c-30 138 -83 456 -78 468 3 7 0 17 -7 21 -7
4 -106 6 -220 4 l-209 -3 -239 102 -239 102 0 36 c1 21 5 106 10 191 8 152 9
155 66 312 l57 159 172 0 c154 0 174 2 189 18 10 12 34 108 66 273 28 140 54
262 58 271 4 9 69 64 145 123 181 140 181 117 11 394 -70 113 -134 214 -142
223 -8 10 -96 61 -196 115 -127 68 -191 97 -216 97 -19 0 -109 -3 -200 -7
l-165 -8 -249 161 c-137 88 -258 160 -267 160 -10 0 -75 -18 -146 -39 -98 -31
-131 -37 -139 -28 -6 7 -75 124 -153 261 l-143 249 36 143 c60 241 55 254
-113 254 -89 0 -112 -3 -129 -17z m-672 -3178 l0 -205 -45 0 c-38 0 -45 3 -45
20 0 17 -7 20 -45 20 -45 0 -45 0 -45 35 0 35 0 35 45 35 l45 0 0 150 0 150
45 0 45 0 0 -205z m980 -70 l0 -265 -45 0 -44 0 -3 93 -3 92 -25 -37 c-14 -21
-28 -38 -32 -38 -14 0 -87 71 -93 91 -9 28 -18 24 -40 -17 -19 -35 -72 -84
-91 -84 -5 0 -19 16 -32 36 l-23 35 45 43 c53 52 76 117 76 213 l0 63 44 0 43
0 7 -77 c7 -93 40 -167 88 -201 l33 -22 3 170 2 170 45 0 45 0 0 -265z m-1145
225 c19 -18 25 -33 25 -66 0 -35 -5 -47 -32 -69 -29 -25 -38 -27 -99 -23 -55
3 -73 8 -94 28 -34 32 -35 97 -2 127 32 29 45 33 114 30 50 -2 68 -8 88 -27z
m645 -15 l0 -34 -67 -3 -68 -3 31 -32 c17 -17 51 -37 75 -44 24 -7 46 -14 47
-15 11 -7 -24 -74 -38 -74 -35 0 -112 33 -138 60 l-28 27 -28 -28 c-27 -27
-101 -59 -137 -59 -11 0 -22 13 -29 36 -7 19 -10 36 -8 38 1 1 23 8 47 15 24
7 58 27 75 44 l31 32 -67 3 -68 3 0 34 0 35 185 0 185 0 0 -35z m-585 -176 c4
-17 4 -33 1 -36 -3 -3 -28 -8 -56 -11 l-50 -5 0 -53 0 -54 -35 0 c-31 0 -35
-3 -35 -25 l0 -25 145 0 145 0 0 -40 0 -40 -190 0 -190 0 0 80 0 80 35 0 c33
0 35 2 35 35 l0 35 -59 0 -59 0 -4 34 -4 34 116 7 c63 3 126 7 140 9 57 7 58
6 65 -25z m625 -89 l0 -40 -90 0 -90 0 0 -85 0 -85 -45 0 -45 0 0 85 0 85 -90
0 -90 0 0 40 0 40 225 0 225 0 0 -40z"/>
<path d="M9562 5968 c-16 -16 3 -38 33 -38 30 0 49 22 33 38 -7 7 -21 12 -33
12 -12 0 -26 -5 -33 -12z"/>
</g>
</svg>
