<?xml version="1.0" standalone="no"?>
<!DOCTYPE svg PUBLIC "-//W3C//DTD SVG 20010904//EN"
 "http://www.w3.org/TR/2001/REC-SVG-20010904/DTD/svg10.dtd">
<svg version="1.0" xmlns="http://www.w3.org/2000/svg"
 width="3006.000000pt" height="2779.000000pt" viewBox="0 0 3006.000000 2779.000000"
 preserveAspectRatio="xMidYMid meet">

<g transform="translate(0.000000,2779.000000) scale(0.100000,-0.100000)"
fill="#000000" stroke="none">
<path d="M15632 24154 c-11 -8 -109 -142 -217 -298 -143 -206 -201 -283 -213
-280 -86 19 -487 74 -502 69 -11 -3 -110 -115 -219 -248 l-200 -242 -290 -124
c-160 -68 -291 -126 -291 -128 0 -5 45 -94 95 -186 32 -60 55 -91 72 -98 17
-6 111 0 307 21 154 16 299 30 321 30 22 0 114 -22 205 -49 l165 -48 3 -96 3
-96 -62 -122 -61 -122 26 -211 c14 -115 24 -211 22 -213 -1 -2 -133 -73 -292
-158 -159 -86 -299 -167 -311 -181 -22 -25 -23 -31 -23 -258 l0 -234 -102 -82
c-152 -122 -142 -103 -134 -252 l7 -128 -37 -102 c-33 -91 -52 -124 -161 -272
-90 -124 -123 -177 -123 -198 0 -16 45 -136 101 -266 l101 -237 -7 -175 -7
-175 -75 -45 c-79 -47 -109 -86 -99 -125 3 -13 55 -105 115 -205 l109 -182 6
-196 c4 -108 9 -239 12 -289 l6 -93 -89 0 -90 0 -197 160 c-109 88 -209 163
-222 166 -14 4 -36 2 -50 -4 -26 -12 -441 -430 -498 -502 -27 -34 -272 -355
-281 -367 0 -1 -95 -23 -211 -48 -150 -33 -215 -52 -229 -66 -17 -17 -21 -37
-25 -137 -5 -114 -6 -118 -40 -167 -38 -55 -37 -51 -32 -259 l2 -98 93 -97
c85 -90 171 -152 217 -157 8 -1 54 -14 101 -28 l86 -27 93 36 c73 28 96 33
102 23 4 -7 99 -132 210 -277 l203 -264 246 -131 246 -131 166 -27 c161 -27
172 -30 287 -88 l120 -60 129 0 129 0 42 -57 43 -57 -61 -186 c-34 -102 -62
-192 -62 -201 0 -8 33 -87 73 -176 l72 -162 214 -263 c117 -145 223 -271 233
-280 17 -15 41 -18 158 -18 l137 0 239 171 c131 93 243 174 247 178 5 5 24 68
42 141 18 72 35 133 37 134 1 1 40 32 86 69 l83 66 67 -26 c37 -14 94 -35 126
-48 l60 -22 63 -167 c51 -137 74 -182 123 -252 34 -46 70 -89 80 -94 11 -6
116 -10 253 -10 215 0 236 2 258 19 14 10 92 98 174 194 l149 176 85 40 c78
36 98 51 216 170 l130 131 70 0 70 0 90 -91 c94 -95 136 -122 175 -112 31 8
574 413 624 465 l39 40 -67 60 -66 60 0 217 0 217 -44 132 -45 133 85 107 84
107 115 49 c64 26 120 56 125 66 34 64 300 779 300 807 0 33 -18 59 -66 93
-17 13 -26 52 -62 295 -52 346 -39 325 -208 325 l-115 0 -100 90 -99 90 -219
0 -219 0 -54 63 -55 62 -28 248 c-15 136 -26 249 -24 251 2 3 150 90 329 195
179 105 355 216 393 247 l67 55 -25 43 c-14 24 -25 50 -25 59 0 10 -4 17 -10
17 -5 0 -10 6 -10 14 0 8 -14 73 -31 146 l-31 131 -139 176 -139 176 0 94 0
94 128 158 c70 87 133 156 140 153 7 -2 12 1 12 7 0 6 13 25 29 41 28 30 32
57 11 85 -5 6 -22 105 -40 220 l-32 210 -116 154 c-153 201 -162 211 -204 211
-18 0 -150 -31 -293 -69 l-259 -68 -160 233 c-91 131 -171 238 -184 243 -13 6
-71 11 -130 11 l-108 0 -37 50 -37 49 0 153 0 153 -335 484 -335 484 0 66 0
66 80 80 c79 78 81 81 78 124 -3 43 -6 47 -99 123 l-95 78 -114 25 c-63 15
-118 28 -122 31 -16 10 -429 484 -478 548 -45 60 -49 63 -68 50z m448 -5444
l0 -190 -45 0 -45 0 0 190 0 190 45 0 45 0 0 -190z m390 -70 l0 -250 -40 0
-40 0 0 68 0 67 -24 -30 -24 -30 -22 20 c-12 11 -30 35 -40 54 l-17 35 -17
-36 c-10 -20 -28 -46 -42 -59 l-26 -24 -28 35 -28 34 33 39 c32 37 48 81 61
165 l6 42 -41 0 -41 0 0 40 0 40 115 0 115 0 0 -40 c0 -38 -2 -40 -30 -40 -29
0 -30 -2 -30 -44 0 -50 15 -99 42 -138 27 -39 38 -35 38 12 0 38 -2 40 -30 40
-28 0 -30 2 -30 40 0 38 2 40 30 40 l30 0 0 85 0 85 40 0 40 0 0 -250z m100
-15 l0 -265 -40 0 -40 0 0 265 0 265 40 0 40 0 0 -265z m460 155 l0 -100 25 0
c23 0 25 -4 25 -40 l0 -40 -90 0 -90 0 0 -50 0 -50 -45 0 -45 0 0 50 0 50 -90
0 -90 0 0 40 0 40 149 0 c167 0 161 -3 161 83 l0 37 -130 0 -130 0 0 40 0 40
175 0 175 0 0 -100z m-1129 41 c36 -36 39 -43 39 -96 0 -53 -3 -60 -39 -96
-35 -35 -44 -39 -90 -39 -69 0 -108 22 -132 73 -23 52 -23 66 -2 118 21 54 62
79 132 79 49 0 57 -3 92 -39z m-81 -316 l0 -55 135 0 135 0 0 -40 0 -40 -180
0 -180 0 0 95 0 95 45 0 45 0 0 -55z m950 -5 l0 -50 135 0 135 0 0 -40 0 -40
-180 0 -180 0 0 90 0 90 45 0 45 0 0 -50z"/>
<path d="M15770 18760 c-11 -11 -20 -27 -20 -35 0 -17 35 -55 51 -55 29 0 49
22 49 55 0 24 -6 38 -19 45 -28 14 -38 13 -61 -10z"/>
</g>
</svg>
