<?xml version="1.0" standalone="no"?>
<!DOCTYPE svg PUBLIC "-//W3C//DTD SVG 20010904//EN"
 "http://www.w3.org/TR/2001/REC-SVG-20010904/DTD/svg10.dtd">
<svg version="1.0" xmlns="http://www.w3.org/2000/svg"
 width="3006.000000pt" height="2779.000000pt" viewBox="0 0 3006.000000 2779.000000"
 preserveAspectRatio="xMidYMid meet">

<g transform="translate(0.000000,2779.000000) scale(0.100000,-0.100000)"
fill="#000000" stroke="none">
<path d="M23718 9570 c-60 -40 -356 -344 -363 -373 -3 -12 -18 -112 -34 -223
l-28 -201 -118 -219 c-65 -120 -131 -243 -148 -272 l-30 -54 -306 305 c-186
185 -316 307 -331 310 -14 3 -133 31 -265 62 l-240 55 -267 -68 -267 -69 -178
186 c-98 102 -207 219 -243 259 -49 56 -69 72 -85 68 -44 -10 -289 -106 -299
-116 -6 -6 -36 -52 -67 -103 l-55 -92 -49 0 -48 0 -63 239 c-35 133 -70 246
-80 257 -22 25 -68 24 -210 -2 -71 -13 -118 -27 -127 -38 -8 -9 -94 -223 -191
-475 -123 -323 -176 -472 -176 -500 0 -23 5 -98 11 -169 7 -70 10 -130 7 -133
-3 -3 -39 11 -79 31 -98 50 -151 48 -179 -4 -4 -9 -23 -127 -41 -262 l-33
-247 -70 -15 c-68 -15 -77 -15 -229 9 -127 21 -164 23 -186 14 -22 -9 -44 -43
-109 -176 -90 -182 -97 -212 -56 -255 l25 -27 -66 -138 -67 -139 28 -149 c16
-82 35 -158 44 -168 8 -10 92 -49 185 -86 l170 -68 50 -325 51 -324 96 -155
96 -155 46 -225 c26 -124 53 -239 60 -255 12 -27 11 -34 -10 -65 -27 -39 -30
-78 -14 -180 15 -94 14 -92 94 -160 57 -48 73 -67 68 -81 -7 -19 -91 -81 -155
-114 -22 -11 -50 -30 -64 -43 -13 -12 -57 -44 -97 -72 -41 -27 -76 -56 -80
-65 -3 -9 -6 -78 -6 -154 0 -150 -1 -148 68 -200 l42 -33 0 -177 0 -177 43
-41 c81 -78 292 -255 316 -264 17 -7 46 -5 92 6 37 8 70 15 72 15 3 0 13 -44
23 -97 12 -63 25 -105 39 -120 24 -27 642 -407 676 -416 17 -4 88 19 239 80
215 85 215 85 343 96 l129 10 229 127 229 127 152 -25 153 -26 460 -356 c253
-197 470 -363 482 -370 18 -12 52 -11 215 4 106 10 202 19 214 20 15 1 59 -43
160 -160 76 -88 157 -184 179 -211 68 -86 58 -88 210 43 86 74 137 125 142
142 4 16 -13 109 -46 248 l-52 223 30 102 c17 56 31 119 31 138 0 20 -11 99
-25 176 -14 77 -27 156 -29 175 -6 59 -29 165 -37 170 -4 3 -26 71 -47 150
l-40 145 -111 105 -111 105 0 175 0 175 -141 180 c-77 99 -143 183 -145 187
-3 5 26 41 64 81 41 43 72 86 76 103 7 37 46 289 46 303 0 5 -59 99 -132 208
-72 109 -133 205 -135 213 -2 8 70 168 161 355 l164 340 133 73 c74 40 139 78
146 85 7 7 44 105 81 217 l68 205 275 113 274 113 147 -5 147 -4 217 213 218
213 17 102 c23 140 21 146 -95 211 l-92 52 -52 155 -51 155 101 121 c56 67
117 135 137 153 l36 31 -40 43 c-22 24 -45 48 -51 54 -6 5 -39 44 -74 85 -35
41 -68 78 -74 82 -26 18 -83 5 -184 -40 l-107 -48 -215 164 c-118 90 -222 169
-231 175 -15 11 -15 29 -1 224 18 245 27 214 -93 313 -95 77 -174 128 -210
135 -23 5 -41 -1 -77 -25z m-2528 -3040 l0 -160 -45 0 -45 0 0 60 0 60 -30 0
c-28 0 -30 2 -30 40 0 38 2 40 30 40 l30 0 0 60 0 60 45 0 45 0 0 -160z m480
-35 l0 -195 -45 0 -45 0 0 100 0 100 -40 0 -40 0 0 40 0 40 40 0 40 0 0 55 0
55 45 0 45 0 0 -195z m470 75 l0 -100 25 0 c23 0 25 -4 25 -40 l0 -40 -90 0
-90 0 0 -50 0 -50 -45 0 -45 0 0 50 0 50 -90 0 -90 0 0 40 0 40 149 0 c167 0
161 -3 161 83 l0 37 -130 0 -130 0 0 40 0 40 175 0 175 0 0 -100z m-1080 50
l0 -40 -46 0 c-45 0 -46 -1 -40 -27 7 -28 60 -86 87 -95 12 -4 11 -11 -5 -42
-25 -46 -46 -46 -98 2 l-41 39 -30 -34 c-17 -19 -42 -40 -57 -48 -30 -16 -30
-16 -63 37 -16 26 -16 27 18 47 37 21 75 74 75 104 0 13 -9 17 -40 17 l-40 0
0 40 0 40 140 0 140 0 0 -40z m380 9 c0 -60 22 -118 55 -148 18 -16 39 -31 46
-33 17 -6 -27 -78 -47 -78 -8 0 -33 17 -56 38 l-41 39 -30 -34 c-17 -19 -42
-40 -58 -48 -26 -14 -28 -14 -48 21 -24 41 -26 54 -8 54 21 0 77 64 87 101 6
18 10 53 10 76 l0 43 45 0 c44 0 45 -1 45 -31z m-323 -280 c50 -19 73 -48 73
-94 0 -74 -70 -111 -194 -103 -84 6 -122 22 -142 59 -29 56 -11 102 51 134 35
18 169 21 212 4z m303 -59 l0 -50 130 0 130 0 0 -40 0 -40 -175 0 -175 0 0 90
0 90 45 0 45 0 0 -50z m460 0 l0 -50 135 0 135 0 0 -40 0 -40 -180 0 -180 0 0
90 0 90 45 0 45 0 0 -50z"/>
<path d="M20952 6274 c-29 -20 -16 -39 33 -48 44 -9 115 10 115 30 0 33 -108
46 -148 18z"/>
</g>
</svg>
