<?xml version="1.0" standalone="no"?>
<!DOCTYPE svg PUBLIC "-//W3C//DTD SVG 20010904//EN"
 "http://www.w3.org/TR/2001/REC-SVG-20010904/DTD/svg10.dtd">
<svg version="1.0" xmlns="http://www.w3.org/2000/svg"
 width="3006.000000pt" height="2779.000000pt" viewBox="0 0 3006.000000 2779.000000"
 preserveAspectRatio="xMidYMid meet">

<g transform="translate(0.000000,2779.000000) scale(0.100000,-0.100000)"
fill="#000000" stroke="none">
<path d="M1770 23581 l-405 -179 -300 39 c-165 21 -317 38 -337 39 -32 0 -85
-30 -360 -206 -178 -114 -333 -216 -345 -227 -17 -15 -23 -32 -23 -64 l0 -44
222 -165 c123 -91 226 -171 229 -177 4 -7 37 -122 74 -257 51 -183 74 -251 92
-270 23 -25 27 -25 198 -28 l174 -3 15 -52 c8 -29 49 -176 91 -327 l77 -275
93 -170 c85 -156 95 -182 130 -315 62 -243 64 -249 93 -264 51 -26 374 -146
394 -146 11 0 193 97 404 216 l384 216 99 -57 99 -56 -111 -182 c-61 -100
-117 -194 -124 -209 -11 -21 -12 -66 -3 -249 14 -285 2 -267 183 -271 l131 -3
134 -165 c73 -91 139 -168 145 -172 30 -19 86 1 388 137 l322 145 216 -70 216
-69 175 -2 175 -3 20 33 c48 78 108 167 124 182 9 9 162 62 341 118 227 71
330 108 343 123 14 17 17 41 17 150 l0 130 231 386 c128 213 239 394 248 404
9 9 140 71 291 138 151 68 285 132 297 143 22 19 23 28 25 201 l3 181 195 85
195 85 130 258 130 257 71 0 72 0 176 -209 c100 -119 186 -211 199 -215 12 -3
101 -6 198 -6 l175 0 125 -118 c178 -169 167 -162 263 -162 44 0 91 3 104 6
15 5 76 81 184 233 89 124 162 228 164 229 1 2 155 39 341 83 186 43 346 81
355 83 12 3 52 -35 134 -127 64 -73 129 -138 143 -145 23 -12 71 -9 344 23
175 19 321 34 325 31 4 -2 30 0 57 4 44 7 80 29 255 155 113 81 215 158 228
172 12 13 22 36 22 51 1 45 -173 522 -190 522 -3 0 -120 -70 -259 -155 l-252
-155 -202 0 -202 0 -225 321 c-123 176 -232 324 -241 330 -10 5 -28 9 -41 9
-13 0 -204 -43 -426 -96 l-402 -96 -203 46 c-111 25 -215 46 -232 46 -16 0
-175 -25 -352 -54 l-323 -54 -294 139 c-162 76 -304 139 -315 139 -12 0 -260
-122 -553 -271 l-532 -271 -194 37 -194 38 -602 288 c-390 188 -612 289 -632
289 -17 0 -248 -76 -512 -168 l-480 -168 -573 193 c-314 106 -586 193 -603
193 -18 -1 -206 -78 -436 -179z m1780 -1401 c0 -17 7 -20 45 -20 45 0 45 0 45
-35 0 -35 0 -35 -44 -35 -39 0 -44 -2 -39 -20 3 -11 19 -32 37 -47 l31 -26 3
41 c3 39 5 42 33 42 29 0 29 0 29 60 l0 60 45 0 45 0 0 -140 0 -140 -45 0 -45
0 0 40 c0 34 -3 40 -21 40 -11 0 -17 -4 -14 -10 9 -14 -23 -70 -41 -70 -20 0
-54 18 -82 43 l-22 21 -15 -21 c-15 -21 -73 -53 -97 -53 -12 0 -54 69 -46 75
2 1 18 7 36 15 34 13 72 53 72 76 0 10 -14 14 -45 14 -45 0 -45 0 -45 35 0 35
0 35 45 35 38 0 45 3 45 20 0 17 7 20 45 20 38 0 45 -3 45 -20z m720 -185 l0
-205 -45 0 c-38 0 -45 3 -45 20 0 17 -7 20 -45 20 -45 0 -45 0 -45 35 0 35 0
35 45 35 l45 0 0 150 0 150 45 0 45 0 0 -205z m-165 155 c19 -18 25 -33 25
-66 0 -35 -5 -47 -32 -69 -29 -25 -38 -27 -99 -23 -55 3 -73 8 -94 28 -34 32
-35 97 -2 127 32 29 45 33 114 30 50 -2 68 -8 88 -27z m635 -70 l0 -100 25 0
c23 0 25 -4 25 -40 l0 -40 -90 0 -90 0 0 -50 0 -50 -45 0 -45 0 0 50 0 50 -90
0 -90 0 0 40 0 40 149 0 c167 0 161 -3 161 83 l0 37 -130 0 -130 0 0 40 0 40
175 0 175 0 0 -100z m-575 -121 c4 -17 4 -33 1 -36 -3 -3 -28 -8 -56 -11 l-50
-5 0 -53 0 -54 -35 0 c-31 0 -35 -3 -35 -25 l0 -25 145 0 145 0 0 -40 0 -40
-190 0 -190 0 0 80 0 80 35 0 c33 0 35 2 35 35 l0 35 -59 0 -59 0 -4 34 -4 34
116 7 c63 3 126 7 140 9 57 7 58 6 65 -25z m-385 -129 l0 -79 -127 -4 -128 -3
133 -2 132 -2 0 -35 0 -35 -175 0 -175 0 0 75 0 75 125 0 c77 0 125 4 125 10
0 6 -48 10 -125 10 l-125 0 0 35 0 35 170 0 170 0 0 -80z m700 -30 l0 -50 135
0 135 0 0 -40 0 -40 -180 0 -180 0 0 90 0 90 45 0 45 0 0 -50z"/>
<path d="M3972 22098 c-16 -16 3 -38 33 -38 30 0 49 22 33 38 -7 7 -21 12 -33
12 -12 0 -26 -5 -33 -12z"/>
</g>
</svg>
