<?xml version="1.0" standalone="no"?>
<!DOCTYPE svg PUBLIC "-//W3C//DTD SVG 20010904//EN"
 "http://www.w3.org/TR/2001/REC-SVG-20010904/DTD/svg10.dtd">
<svg version="1.0" xmlns="http://www.w3.org/2000/svg"
 width="3006.000000pt" height="2779.000000pt" viewBox="0 0 3006.000000 2779.000000"
 preserveAspectRatio="xMidYMid meet">

<g transform="translate(0.000000,2779.000000) scale(0.100000,-0.100000)"
fill="#000000" stroke="none">
<path d="M6485 19195 c-15 -15 -25 -36 -25 -54 0 -16 25 -143 55 -282 50 -224
55 -262 53 -348 l-3 -96 -265 -148 c-146 -81 -271 -155 -277 -164 -9 -11 -13
-52 -13 -115 l0 -98 -40 -25 c-22 -14 -43 -25 -47 -25 -21 0 -73 -47 -73 -67
0 -13 5 -23 10 -23 6 0 10 -6 10 -14 0 -7 56 -202 124 -432 85 -285 130 -422
142 -431 13 -10 72 -13 235 -13 l217 0 158 -222 c86 -122 157 -227 157 -233 0
-16 -134 -498 -143 -515 -5 -8 -149 -127 -322 -265 l-313 -250 -303 -420
c-166 -231 -304 -427 -307 -436 -10 -29 84 -588 115 -693 17 -54 30 -104 30
-111 0 -7 -100 -115 -222 -242 -334 -344 -338 -348 -338 -379 0 -34 86 -258
107 -279 8 -8 25 -18 37 -21 13 -3 140 20 282 51 142 31 274 58 292 61 49 6
63 16 230 157 84 71 154 128 156 126 1 -2 20 -47 41 -98 22 -54 78 -156 130
-237 l92 -142 -23 -109 c-13 -59 -24 -126 -24 -149 0 -44 12 -59 104 -127 45
-34 54 -37 115 -37 l66 0 50 62 50 61 6 -32 c14 -66 26 -71 184 -71 171 0 163
-5 227 155 l44 110 193 5 c240 6 231 0 231 156 l0 104 114 0 c134 0 100 -18
387 206 109 85 201 154 205 154 4 0 45 -29 93 -63 47 -35 93 -67 102 -70 9 -3
103 6 208 20 l192 25 53 -46 c64 -54 97 -71 128 -62 13 3 77 43 142 90 l120
83 84 -38 c132 -61 122 -64 358 121 174 138 204 165 209 193 14 81 25 176 24
217 0 42 -9 58 -150 250 l-150 205 6 140 6 140 -56 139 -57 140 14 49 14 49
88 34 c74 28 91 32 105 22 9 -7 76 -66 149 -130 154 -137 157 -138 275 -84 91
41 97 54 97 209 l0 109 43 59 c27 38 49 58 62 58 11 0 67 -12 125 -27 l105
-27 27 -118 28 -117 103 -138 c141 -186 148 -192 195 -192 36 0 44 6 103 73
35 39 96 107 136 149 l73 77 0 73 c0 40 3 117 7 170 l6 97 138 97 c155 108
144 92 181 269 22 109 22 109 107 225 91 125 101 148 101 228 l0 53 109 50
c86 40 112 57 119 78 6 14 13 94 17 177 l6 151 -96 94 -95 95 0 103 0 103 38
51 c36 50 37 54 40 149 l4 98 36 9 c21 5 105 24 187 42 83 17 160 37 172 45
18 11 86 98 306 387 45 60 49 106 12 142 -23 24 -30 25 -150 25 -126 0 -129
-1 -332 -60 -114 -34 -211 -59 -218 -57 -7 3 -16 57 -22 138 -10 117 -14 135
-35 155 -13 12 -82 45 -154 73 -122 48 -185 61 -210 43 -5 -4 -45 -51 -88
-104 l-78 -98 -62 0 -61 1 -158 178 c-87 97 -169 194 -183 213 -18 25 -38 39
-67 47 -488 129 -580 151 -628 151 -65 0 -99 -16 -117 -53 -12 -24 -8 -46 33
-202 25 -97 46 -185 48 -197 2 -19 -36 -34 -443 -173 -245 -83 -446 -151 -448
-150 -1 1 -38 114 -83 251 -44 137 -88 257 -98 267 -15 16 -310 135 -374 151
-31 7 -48 0 -198 -90 -92 -55 -114 -64 -156 -64 l-48 0 -69 115 c-38 64 -77
120 -87 125 -32 18 -81 10 -319 -49 l-235 -59 -455 459 -455 460 -193 -1
c-191 0 -193 0 -217 -25z m2305 -2660 c0 -24 2 -25 70 -25 l70 0 0 -35 0 -35
-66 0 c-59 0 -65 -2 -54 -16 19 -22 48 -36 101 -48 l46 -11 -14 -34 c-14 -33
-15 -34 -64 -28 -28 4 -71 18 -96 32 -41 23 -48 24 -63 10 -44 -40 -164 -59
-173 -27 -2 9 -8 24 -11 33 -5 12 4 18 47 28 54 12 97 35 97 52 0 5 -27 9 -60
9 l-60 0 0 35 0 35 70 0 c68 0 70 1 70 25 0 23 4 25 45 25 41 0 45 -2 45 -25z
m410 -5 c0 -29 2 -30 45 -30 45 0 45 0 45 -35 0 -35 0 -35 -44 -35 l-45 0 9
-31 c13 -45 33 -72 66 -89 16 -8 31 -16 33 -17 6 -4 -32 -73 -41 -73 -19 0
-56 20 -80 45 l-27 27 -36 -36 c-20 -20 -40 -36 -45 -36 -4 0 -15 -3 -23 -6
-9 -3 -22 8 -37 33 -12 20 -18 39 -13 40 34 12 77 49 89 78 23 57 20 65 -31
65 -45 0 -45 0 -45 35 0 35 0 35 45 35 43 0 45 1 45 30 0 29 2 30 45 30 43 0
45 -1 45 -30z m230 -170 l0 -200 -45 0 -45 0 0 85 0 85 -35 0 c-34 0 -35 1
-35 40 0 39 1 40 35 40 l35 0 0 75 0 75 45 0 45 0 0 -200z m480 -75 l0 -265
-45 0 -44 0 -3 93 -3 92 -25 -37 c-14 -21 -28 -38 -32 -38 -14 0 -87 71 -93
91 -9 28 -18 24 -40 -17 -19 -35 -72 -84 -91 -84 -5 0 -19 16 -32 36 l-23 35
45 43 c53 52 76 117 76 213 l0 63 44 0 43 0 7 -77 c7 -93 40 -167 88 -201 l33
-22 3 170 2 170 45 0 45 0 0 -265z m-940 -40 l0 -35 -85 0 -85 0 0 -35 c0 -35
0 -35 -45 -35 -45 0 -45 0 -45 35 l0 35 -95 0 -95 0 0 35 0 35 225 0 225 0 0
-35z m210 -90 l0 -45 130 0 130 0 0 -40 0 -40 -175 0 -175 0 0 85 0 85 45 0
45 0 0 -45z m-520 -5 l0 -40 130 0 130 0 0 -40 0 -40 -175 0 -175 0 0 80 0 80
45 0 45 0 0 -40z"/>
</g>
</svg>
