<?xml version="1.0" standalone="no"?>
<!DOCTYPE svg PUBLIC "-//W3C//DTD SVG 20010904//EN"
 "http://www.w3.org/TR/2001/REC-SVG-20010904/DTD/svg10.dtd">
<svg version="1.0" xmlns="http://www.w3.org/2000/svg"
 width="3006.000000pt" height="2779.000000pt" viewBox="0 0 3006.000000 2779.000000"
 preserveAspectRatio="xMidYMid meet">

<g transform="translate(0.000000,2779.000000) scale(0.100000,-0.100000)"
fill="#000000" stroke="none">
<path d="M24808 5155 c-141 -13 -263 -27 -271 -31 -43 -26 -406 -350 -411
-368 -3 -11 -6 -116 -6 -232 l0 -211 -105 -178 -105 -179 0 -192 0 -192 -156
-151 c-85 -83 -153 -154 -150 -159 2 -4 20 -96 40 -204 l35 -196 -35 -120 -35
-120 46 -199 c26 -109 49 -205 51 -214 3 -11 -27 -44 -93 -101 -54 -47 -150
-139 -213 -204 -63 -65 -183 -189 -266 -274 -84 -85 -156 -164 -162 -175 -15
-30 -27 -517 -14 -542 7 -13 111 -67 284 -148 150 -71 317 -150 372 -178 81
-41 100 -47 110 -36 7 8 65 95 130 195 l117 181 76 7 c42 3 114 6 159 6 l84 0
60 -104 c34 -57 69 -107 78 -111 9 -4 177 -17 372 -30 l355 -24 310 -90 c171
-50 326 -91 347 -91 62 0 112 59 224 260 54 96 102 180 109 185 26 23 55 85
74 160 32 128 81 413 74 432 -17 44 -277 530 -294 548 -10 11 -187 106 -393
210 l-376 190 0 128 c0 71 -4 137 -10 147 -15 27 -68 42 -109 30 -19 -5 -35
-9 -36 -7 -16 19 -55 89 -55 97 0 6 36 90 79 188 44 97 82 188 86 202 4 18 -6
49 -33 105 l-38 79 78 270 c43 149 78 277 78 285 0 8 -48 99 -106 203 l-106
188 121 140 c66 76 126 150 132 164 16 34 -55 426 -84 462 -17 22 -26 24 -90
23 -40 -1 -187 -12 -329 -24z m-438 -3455 l0 -270 -40 0 -40 0 0 130 c0 109
-2 130 -15 130 -12 0 -15 -20 -15 -120 l0 -120 -40 0 -40 0 0 255 0 255 40 0
40 0 0 -95 c0 -78 3 -95 15 -95 12 0 15 18 15 100 l0 100 40 0 40 0 0 -270z
m470 105 l0 -165 -40 0 -40 0 0 60 c0 33 -4 60 -10 60 -5 0 -10 -25 -10 -55
l0 -55 -40 0 -40 0 0 155 0 155 40 0 40 0 0 -60 c0 -33 4 -60 10 -60 6 0 10
28 10 65 l0 65 40 0 40 0 0 -165z m490 -110 l0 -265 -45 0 -44 0 -3 93 -3 92
-25 -37 c-14 -21 -28 -38 -32 -38 -14 0 -87 71 -93 91 -9 28 -18 24 -40 -17
-19 -35 -72 -84 -91 -84 -5 0 -19 16 -32 36 l-23 35 45 43 c53 52 76 117 76
213 l0 63 44 0 43 0 7 -77 c7 -93 40 -167 88 -201 l33 -22 3 170 2 170 45 0
45 0 0 -265z m-820 200 c0 -28 4 -35 20 -35 16 0 20 7 20 35 0 34 1 35 40 35
l40 0 0 -130 0 -130 -100 0 -100 0 0 130 0 130 40 0 c39 0 40 -1 40 -35z
m-350 -15 l0 -40 -65 0 -65 0 0 -30 0 -30 60 0 60 0 0 -35 0 -35 -60 0 -60 0
0 -41 0 -41 65 4 65 3 6 -32 c3 -17 3 -36 -1 -42 -4 -7 -48 -11 -111 -11
l-104 0 0 185 0 185 105 0 105 0 0 -40z m680 -345 l0 -95 -45 0 -45 0 0 60 0
60 -130 0 -130 0 0 35 0 35 175 0 175 0 0 -95z"/>
<path d="M24510 1765 c0 -18 5 -25 20 -25 15 0 20 7 20 25 0 18 -5 25 -20 25
-15 0 -20 -7 -20 -25z"/>
</g>
</svg>
