<?xml version="1.0" standalone="no"?>
<!DOCTYPE svg PUBLIC "-//W3C//DTD SVG 20010904//EN"
 "http://www.w3.org/TR/2001/REC-SVG-20010904/DTD/svg10.dtd">
<svg version="1.0" xmlns="http://www.w3.org/2000/svg"
 width="3006.000000pt" height="2779.000000pt" viewBox="0 0 3006.000000 2779.000000"
 preserveAspectRatio="xMidYMid meet">

<g transform="translate(0.000000,2779.000000) scale(0.100000,-0.100000)"
fill="#000000" stroke="none">
<path d="M19850 13624 l-102 -124 -99 0 c-94 0 -100 -1 -128 -27 -30 -29 -463
-548 -494 -593 -15 -21 -17 -55 -17 -270 l-1 -245 -41 -30 -41 -30 -334 43
-334 44 -102 -67 c-192 -127 -178 -108 -228 -308 l-42 -173 -196 -67 -196 -67
-295 64 -295 64 -249 6 -248 6 -77 70 c-119 109 -91 120 -481 -186 -179 -140
-337 -267 -352 -282 l-28 -26 0 -251 0 -251 -28 -45 c-16 -24 -41 -55 -55 -69
-15 -14 -27 -31 -27 -38 0 -6 42 -54 93 -105 50 -52 115 -120 143 -153 l51
-59 -43 -185 c-24 -102 -43 -200 -44 -218 0 -18 20 -83 45 -144 l45 -112 0
-421 0 -420 -347 -345 c-192 -190 -376 -372 -410 -404 l-63 -58 0 -190 c0
-105 4 -198 10 -208 5 -10 52 -69 105 -131 l95 -113 0 -231 0 -232 56 -44 c97
-77 708 -570 723 -585 12 -11 13 -28 2 -110 l-13 -97 -74 -91 c-58 -71 -74
-97 -74 -122 0 -18 41 -200 91 -404 68 -275 97 -378 111 -392 22 -22 36 -22
200 -2 l57 7 85 -67 c46 -36 153 -124 236 -196 135 -116 155 -130 188 -130 33
0 59 18 228 155 138 111 193 162 198 181 6 21 -4 50 -39 123 -38 79 -44 97
-32 106 23 17 33 44 67 185 18 74 37 140 42 147 5 6 26 14 47 18 37 6 48 0
287 -161 137 -92 250 -168 252 -169 2 -2 -15 -48 -38 -104 -45 -113 -48 -139
-22 -170 9 -12 113 -63 232 -115 l215 -93 87 -128 c48 -71 93 -132 100 -137 7
-4 162 -8 344 -8 l331 0 90 -108 c49 -59 107 -131 127 -160 21 -29 41 -52 44
-52 3 0 64 39 134 86 l128 86 21 69 c31 101 32 99 -114 230 -31 28 -39 43 -46
89 -8 52 -7 58 25 110 40 66 42 86 10 133 -18 26 -37 96 -74 269 l-50 233 -96
155 c-53 85 -96 159 -96 165 -1 39 -100 647 -109 663 -7 13 -68 43 -178 87
-93 36 -173 72 -179 78 -6 7 -19 55 -28 108 l-17 95 71 145 c77 155 81 180 40
224 -11 12 -20 25 -20 31 0 5 23 58 52 117 45 93 55 107 73 103 11 -3 75 -13
143 -22 118 -18 126 -18 215 0 133 27 154 37 166 83 6 21 23 130 37 243 14
113 27 206 29 208 1 1 32 -12 69 -29 57 -27 75 -31 123 -27 100 9 104 26 78
298 l-15 155 167 436 168 437 68 12 c38 7 70 10 72 8 3 -2 32 -106 65 -231 33
-125 64 -236 70 -246 14 -28 63 -41 150 -41 121 0 130 6 205 130 l65 107 87
31 c49 17 104 35 123 41 20 7 45 26 60 46 25 35 296 384 308 397 4 4 95 19
202 33 215 29 242 36 258 68 7 12 70 224 142 470 l130 448 230 252 c279 305
267 270 150 448 -44 66 -82 131 -85 142 -2 12 -15 124 -29 249 -13 124 -29
235 -35 246 -6 11 -46 41 -90 66 l-79 45 -62 185 c-34 102 -68 192 -74 200
-15 20 -464 346 -490 356 -12 4 -187 -10 -421 -36 l-400 -43 -105 61 c-58 34
-122 72 -142 85 l-38 23 0 280 c0 180 -4 287 -11 302 -6 13 -36 43 -67 68 -31
25 -81 68 -112 97 -98 90 -92 92 -210 -53z m-2230 -3929 l0 -165 -45 0 c-45 0
-45 0 -45 35 0 31 -3 35 -25 35 -18 0 -25 -5 -25 -19 0 -21 -20 -25 -187 -37
-59 -4 -93 -2 -93 4 0 5 -3 24 -6 41 -6 28 -4 31 20 31 25 0 26 2 26 65 0 58
-2 65 -20 65 -17 0 -20 7 -20 40 l0 40 140 0 140 0 0 -25 c0 -20 5 -25 25 -25
23 0 25 4 25 40 l0 40 45 0 45 0 0 -165z m450 105 l0 -60 35 0 c34 0 35 -1 35
-40 0 -39 -1 -40 -35 -40 l-35 0 0 -65 0 -65 -42 -1 c-39 0 -41 -1 -18 -10 46
-19 70 -50 70 -90 0 -72 -64 -104 -198 -98 -62 3 -87 9 -109 25 -56 42 -55
106 0 148 23 17 46 22 118 24 l89 4 0 36 0 37 -20 -33 -20 -33 -33 17 c-17 9
-42 26 -55 37 l-23 21 -22 -26 c-18 -22 -75 -58 -91 -58 -5 0 -48 72 -44 75 2
1 18 10 36 19 32 16 72 68 72 94 0 8 -16 12 -45 12 -45 0 -45 0 -45 35 0 35 0
35 45 35 41 0 45 2 45 25 0 23 4 25 45 25 41 0 45 -2 45 -25 0 -23 4 -25 45
-25 45 0 45 0 45 -35 0 -34 -1 -35 -40 -35 -33 0 -40 -3 -40 -19 0 -23 50 -76
79 -84 20 -5 21 -1 21 114 l0 119 45 0 45 0 0 -60z m500 -60 l0 -100 25 0 c23
0 25 -4 25 -40 l0 -40 -90 0 -90 0 0 -50 0 -50 -45 0 -45 0 0 50 0 50 -90 0
-90 0 0 40 0 40 149 0 c167 0 161 -3 161 83 l0 37 -130 0 -130 0 0 40 0 40
175 0 175 0 0 -100z m-1031 -220 c54 -15 81 -47 81 -95 0 -72 -56 -105 -180
-105 -121 1 -183 50 -163 130 6 28 17 40 53 58 49 24 147 30 209 12z m771 -60
l0 -50 135 0 135 0 0 -40 0 -40 -180 0 -180 0 0 90 0 90 45 0 45 0 0 -50z"/>
<path d="M17330 9690 c0 -33 4 -60 10 -60 6 0 10 27 10 60 0 33 -4 60 -10 60
-6 0 -10 -27 -10 -60z"/>
<path d="M17440 9690 c0 -53 2 -60 20 -60 15 0 20 7 20 25 0 20 5 25 25 25 14
0 25 5 25 10 0 6 -11 10 -25 10 -20 0 -25 5 -25 25 0 18 -5 25 -20 25 -18 0
-20 -7 -20 -60z"/>
<path d="M17848 9454 c-26 -8 -22 -41 5 -48 68 -18 158 6 130 35 -13 13 -105
21 -135 13z"/>
<path d="M17405 9453 c-86 -22 -19 -72 77 -57 39 7 59 27 42 44 -12 11 -93 20
-119 13z"/>
</g>
</svg>
