<?xml version="1.0" standalone="no"?>
<!DOCTYPE svg PUBLIC "-//W3C//DTD SVG 20010904//EN"
 "http://www.w3.org/TR/2001/REC-SVG-20010904/DTD/svg10.dtd">
<svg version="1.0" xmlns="http://www.w3.org/2000/svg"
 width="3006.000000pt" height="2779.000000pt" viewBox="0 0 3006.000000 2779.000000"
 preserveAspectRatio="xMidYMid meet">

<g transform="translate(0.000000,2779.000000) scale(0.100000,-0.100000)"
fill="#000000" stroke="none">
<path d="M12098 16463 c-1 -5 -2 -77 -2 -161 l-1 -153 -100 -45 c-134 -60
-145 -73 -145 -176 l0 -81 -79 -106 c-44 -59 -84 -118 -89 -131 -5 -14 -19
-75 -32 -137 l-23 -112 -138 -97 c-77 -53 -144 -104 -151 -112 -9 -10 -14 -68
-17 -186 l-3 -171 -86 -90 c-48 -49 -90 -91 -93 -93 -4 -2 -45 48 -92 110
l-85 113 -28 125 c-19 84 -35 132 -49 146 -29 29 -361 109 -397 95 -14 -5 -49
-42 -79 -83 -106 -146 -99 -128 -99 -253 0 -110 0 -112 -25 -123 -24 -11 -34
-5 -172 118 -126 111 -152 130 -180 130 -40 0 -271 -85 -295 -109 -17 -15 -67
-167 -68 -202 0 -8 27 -81 59 -161 l59 -146 -8 -139 c-5 -92 -5 -145 2 -158 6
-11 75 -108 154 -216 l142 -197 -10 -81 -11 -81 -156 -123 c-86 -68 -161 -126
-168 -130 -6 -4 -50 11 -98 33 -48 22 -97 40 -109 40 -24 0 -71 -28 -190 -113
l-79 -57 -46 39 c-79 65 -69 64 -287 37 l-196 -25 -98 74 c-142 109 -120 115
-410 -110 l-238 -185 -127 0 c-131 0 -175 -11 -189 -45 -3 -9 -6 -64 -6 -121
l0 -104 -178 0 c-141 0 -182 -3 -199 -15 -12 -9 -40 -63 -69 -135 l-48 -120
-63 0 -63 0 0 76 c0 87 -8 108 -50 122 -52 19 -80 -1 -171 -113 -46 -58 -86
-105 -89 -105 -3 0 -20 13 -39 29 l-34 28 21 109 c12 60 22 123 22 140 0 22
-28 75 -99 186 -71 111 -114 191 -152 284 -28 71 -61 137 -72 147 -33 29 -79
22 -134 -22 -147 -118 -329 -280 -344 -308 -14 -25 -16 -39 -8 -67 6 -20 14
-36 19 -36 5 0 31 -71 59 -158 l51 -159 -54 -159 c-39 -118 -86 -225 -180
-411 -69 -139 -126 -261 -126 -272 0 -27 137 -332 159 -355 20 -19 306 -105
353 -106 15 0 114 31 221 70 l194 70 291 -108 291 -107 429 -422 c246 -242
440 -424 453 -427 13 -3 174 -20 358 -37 l334 -31 141 -66 c133 -62 146 -66
228 -70 l86 -4 58 -65 57 -65 5 -184 c3 -101 7 -184 11 -185 42 -5 81 -2 81 6
0 6 168 59 373 118 209 61 379 116 389 125 9 9 54 83 100 163 l84 147 303 282
304 283 142 22 142 23 137 101 c76 57 143 104 149 107 7 2 83 -5 169 -15 l157
-19 128 -104 c158 -129 172 -138 201 -138 13 0 200 103 415 230 l392 230 207
0 c268 0 246 -17 294 226 l37 182 97 26 c53 14 101 26 106 26 6 0 50 -56 99
-125 l89 -124 246 -102 c202 -84 271 -108 395 -136 114 -25 155 -39 171 -56
11 -12 85 -93 163 -179 79 -86 150 -160 159 -162 9 -3 114 -24 232 -46 118
-22 230 -44 248 -50 30 -8 37 -5 73 27 21 19 37 39 34 43 -2 4 9 32 25 61 l30
54 0 240 1 240 305 238 305 239 55 -49 c97 -84 71 -78 348 -81 l251 -3 321
-70 322 -69 233 80 c143 49 240 89 251 100 9 11 35 98 58 193 l43 172 100 69
100 69 316 -42 c174 -23 328 -41 342 -41 33 0 170 102 186 138 8 18 12 103 13
269 l0 241 230 276 230 276 94 0 c52 0 101 3 110 6 8 3 50 49 93 102 42 54 93
113 113 133 l36 36 13 423 c13 407 12 423 -6 440 -10 9 -136 115 -281 234
-224 186 -267 218 -295 218 -18 0 -91 -16 -162 -36 -71 -20 -135 -36 -143 -36
-17 0 -375 189 -448 237 l-52 33 -287 -216 -287 -216 -93 91 -92 91 -138 0
-138 0 -144 -142 c-126 -126 -153 -148 -226 -183 -81 -39 -84 -43 -237 -222
l-155 -182 -182 -1 -183 0 -44 61 c-32 43 -63 110 -111 239 -37 98 -74 185
-84 193 -21 20 -334 137 -363 137 -13 0 -35 -8 -48 -17 -59 -41 -221 -175
-229 -192 -5 -9 -23 -70 -40 -135 -16 -65 -33 -122 -38 -126 -4 -4 -101 -73
-214 -154 l-206 -146 -79 0 -79 0 -205 250 c-201 245 -206 253 -268 387 l-62
137 60 180 c33 100 60 196 60 214 0 25 -16 55 -66 122 -36 50 -74 95 -84 100
-10 6 -80 10 -154 10 l-136 0 -120 60 c-114 57 -127 61 -283 87 l-164 28 -225
120 -225 120 -221 292 c-180 236 -227 293 -250 298 -21 4 -57 -5 -130 -34
l-100 -40 -99 33 c-54 19 -115 41 -135 50 -40 17 -77 21 -80 9z m432 -2703 c0
-18 7 -20 80 -20 l80 0 0 -35 0 -35 -205 0 -205 0 0 35 0 35 80 0 c73 0 80 2
80 20 0 17 7 20 45 20 38 0 45 -3 45 -20z m410 -10 c0 -29 2 -30 45 -30 45 0
45 0 45 -35 0 -35 0 -35 -44 -35 l-45 0 9 -31 c13 -45 33 -72 66 -89 16 -8 31
-16 33 -17 6 -4 -32 -73 -41 -73 -19 0 -56 20 -80 45 l-27 27 -36 -36 c-20
-20 -40 -36 -45 -36 -4 0 -15 -3 -23 -6 -9 -3 -22 8 -37 33 -12 20 -18 39 -13
40 34 12 77 49 89 78 23 57 20 65 -31 65 -45 0 -45 0 -45 35 0 35 0 35 45 35
43 0 45 1 45 30 0 29 2 30 45 30 43 0 45 -1 45 -30z m230 -170 l0 -200 -45 0
-45 0 0 85 0 85 -35 0 c-34 0 -35 1 -35 40 0 39 1 40 35 40 l35 0 0 75 0 75
45 0 45 0 0 -200z m470 80 l0 -100 25 0 c23 0 25 -4 25 -40 l0 -40 -90 0 -90
0 0 -50 0 -50 -45 0 -45 0 0 50 0 50 -90 0 -90 0 0 40 0 40 149 0 c167 0 161
-3 161 83 l0 37 -130 0 -130 0 0 40 0 40 175 0 175 0 0 -100z m-1035 -14 c43
-18 61 -50 46 -83 -11 -25 -65 -53 -101 -53 -11 0 -20 -4 -20 -10 0 -6 37 -10
90 -10 l90 0 0 -35 0 -35 -230 0 -230 0 0 35 0 35 95 0 c99 0 126 13 53 24
-67 11 -90 30 -86 74 2 31 9 40 38 54 45 23 204 25 255 4z m775 -266 l0 -50
135 0 135 0 0 -40 0 -40 -180 0 -180 0 0 90 0 90 45 0 45 0 0 -50z m-460 -5
l0 -45 130 0 130 0 0 -40 0 -40 -175 0 -175 0 0 85 0 85 45 0 45 0 0 -45z
m-293 9 c31 -23 38 -43 29 -80 -11 -42 -59 -59 -171 -59 -122 0 -168 19 -173
74 -7 68 44 92 185 89 85 -3 106 -6 130 -24z"/>
<path d="M12425 13591 c-32 -13 38 -24 93 -15 41 6 44 8 22 15 -33 9 -90 10
-115 0z"/>
<path d="M12405 13331 c-8 -13 77 -25 120 -17 19 4 35 11 35 16 0 13 -147 13
-155 1z"/>
</g>
</svg>
