<?xml version="1.0" standalone="no"?>
<!DOCTYPE svg PUBLIC "-//W3C//DTD SVG 20010904//EN"
 "http://www.w3.org/TR/2001/REC-SVG-20010904/DTD/svg10.dtd">
<svg version="1.0" xmlns="http://www.w3.org/2000/svg"
 width="3006.000000pt" height="2779.000000pt" viewBox="0 0 3006.000000 2779.000000"
 preserveAspectRatio="xMidYMid meet">

<g transform="translate(0.000000,2779.000000) scale(0.100000,-0.100000)"
fill="#000000" stroke="none">
<path d="M7240 22697 c-19 -9 -58 -78 -156 -272 l-132 -259 -198 -88 c-110
-49 -207 -98 -216 -109 -16 -18 -18 -44 -18 -198 l0 -177 -280 -124 c-154 -68
-289 -133 -299 -145 -10 -11 -129 -205 -265 -432 l-246 -411 0 -119 0 -119
-312 -98 c-172 -55 -321 -103 -330 -108 -23 -11 -148 -191 -148 -212 0 -9 9
-45 19 -79 15 -48 27 -177 56 -572 l36 -510 110 -350 c61 -192 116 -358 122
-368 7 -10 104 -59 216 -108 l205 -89 226 0 c182 0 236 -3 274 -16 l47 -16 72
35 c116 58 111 51 117 168 l5 103 265 148 c146 81 271 155 278 165 8 12 12 62
12 167 -1 143 -3 163 -49 369 l-48 217 116 0 116 0 445 -455 c245 -250 457
-459 471 -465 22 -9 70 -1 276 49 138 34 253 61 256 61 3 0 35 -49 72 -109 74
-124 76 -125 206 -136 l77 -7 134 79 134 79 143 -55 144 -56 82 -256 c45 -141
88 -265 94 -277 12 -23 52 -38 86 -33 47 7 1020 343 1037 358 27 25 23 76 -24
253 -23 88 -38 163 -35 167 9 8 515 -125 544 -143 12 -8 30 -14 40 -14 10 0
65 45 123 100 l105 100 3 398 c2 218 0 411 -3 428 -3 21 -54 91 -142 200
l-136 167 7 286 6 286 40 103 c22 56 40 115 40 131 0 30 -76 449 -86 475 -3 8
-75 60 -160 115 -104 68 -154 106 -154 118 0 10 6 54 13 98 12 71 20 91 70
165 67 100 64 64 46 505 l-12 280 31 148 c29 141 30 150 15 174 -15 23 -21 25
-67 19 -162 -20 -662 -76 -675 -76 -9 0 -72 63 -139 139 -84 96 -132 142 -150
146 -32 7 -795 -169 -829 -191 -12 -7 -91 -110 -175 -229 l-153 -215 -46 0
c-44 0 -48 3 -170 118 -189 179 -151 162 -364 162 l-183 0 -176 209 c-100 119
-186 211 -199 215 -41 11 -231 6 -257 -7z m1240 -2362 l0 -105 30 0 c28 0 30
-2 30 -40 0 -38 -2 -40 -30 -40 l-30 0 0 -125 0 -125 -45 0 -45 0 0 270 0 270
45 0 45 0 0 -105z m270 75 c0 -29 2 -30 45 -30 45 0 45 0 45 -35 0 -35 0 -35
-44 -35 l-45 0 9 -31 c13 -45 33 -72 66 -89 16 -8 31 -16 33 -17 6 -4 -32 -73
-41 -73 -19 0 -56 20 -80 45 l-27 27 -36 -36 c-20 -20 -40 -36 -45 -36 -4 0
-15 -3 -23 -6 -9 -3 -22 8 -37 33 -12 20 -18 39 -13 40 34 12 77 49 89 78 23
57 20 65 -31 65 -45 0 -45 0 -45 35 0 35 0 35 45 35 43 0 45 1 45 30 0 29 2
30 45 30 43 0 45 -1 45 -30z m230 -170 l0 -200 -45 0 -45 0 0 85 0 85 -35 0
c-34 0 -35 1 -35 40 0 39 1 40 35 40 l35 0 0 75 0 75 45 0 45 0 0 -200z m-710
165 c0 -24 3 -25 55 -25 l55 0 0 -35 0 -35 -150 0 -150 0 0 35 0 35 50 0 c47
0 50 2 50 25 0 23 4 25 45 25 41 0 45 -2 45 -25z m1180 -85 l0 -100 25 0 c23
0 25 -4 25 -40 l0 -40 -90 0 -90 0 0 -50 0 -50 -45 0 -45 0 0 50 0 50 -90 0
-90 0 0 40 0 40 149 0 c167 0 161 -3 161 83 l0 37 -130 0 -130 0 0 40 0 40
175 0 175 0 0 -100z m-1132 -55 c17 -14 33 -39 37 -55 8 -39 -19 -89 -56 -103
-16 -6 -29 -18 -29 -26 0 -11 11 -12 55 -7 l55 6 0 -39 0 -39 -52 -6 c-29 -3
-96 -9 -149 -12 -95 -6 -96 -6 -102 17 -15 54 -11 59 48 59 46 0 55 3 55 18
-1 9 -15 26 -33 37 -28 18 -32 27 -35 68 -3 41 1 51 27 77 26 27 36 30 89 30
50 0 66 -4 90 -25z m872 -225 l0 -50 135 0 135 0 0 -40 0 -40 -180 0 -180 0 0
90 0 90 45 0 45 0 0 -50z m-460 -5 l0 -45 130 0 130 0 0 -40 0 -40 -175 0
-175 0 0 85 0 85 45 0 45 0 0 -45z"/>
<path d="M8201 20206 c-9 -11 -8 -18 4 -30 20 -20 26 -20 50 -2 16 12 17 16 6
30 -17 20 -45 21 -60 2z"/>
</g>
</svg>
