<?xml version="1.0" standalone="no"?>
<!DOCTYPE svg PUBLIC "-//W3C//DTD SVG 20010904//EN"
 "http://www.w3.org/TR/2001/REC-SVG-20010904/DTD/svg10.dtd">
<svg version="1.0" xmlns="http://www.w3.org/2000/svg"
 width="3006.000000pt" height="2779.000000pt" viewBox="0 0 3006.000000 2779.000000"
 preserveAspectRatio="xMidYMid meet">

<g transform="translate(0.000000,2779.000000) scale(0.100000,-0.100000)"
fill="#000000" stroke="none">
<path d="M13525 11794 c-49 -14 -114 -32 -142 -40 -33 -9 -57 -22 -64 -35 -6
-12 -25 -96 -43 -188 l-32 -166 -195 -5 -194 -5 -365 -214 c-201 -118 -372
-219 -381 -224 -13 -8 -42 11 -145 95 -71 57 -135 108 -142 112 -19 11 -410
56 -430 49 -9 -4 -82 -55 -162 -113 l-145 -107 -125 -18 c-69 -10 -137 -23
-152 -29 -14 -6 -169 -143 -342 -305 l-316 -294 -76 -132 c-41 -73 -80 -140
-87 -149 -8 -11 -129 -51 -336 -111 -178 -52 -330 -95 -338 -95 -8 0 -32 -9
-55 -21 l-41 -21 6 -141 6 -142 -272 -105 c-439 -169 -508 -197 -522 -217 -17
-22 -21 -273 -5 -303 6 -11 107 -122 225 -247 l215 -227 0 -163 0 -162 29 -15
c16 -9 42 -18 57 -20 48 -9 167 -45 175 -53 4 -5 46 -57 93 -117 l86 -109 0
-188 c0 -181 1 -189 23 -212 25 -28 218 -107 258 -107 45 0 66 29 137 185 104
227 100 201 47 344 -25 67 -45 128 -45 134 0 14 177 417 188 429 4 4 67 19
140 33 73 14 148 33 166 42 24 11 79 80 211 264 156 217 182 249 205 249 l26
0 -33 -127 c-18 -71 -33 -138 -33 -151 0 -22 324 -597 357 -634 24 -27 74 -22
217 21 l130 40 230 -148 c127 -81 241 -153 253 -160 17 -9 68 -9 212 0 l189
11 139 -72 c76 -40 150 -81 164 -91 23 -16 220 -321 234 -361 2 -8 -45 -50
-115 -103 -65 -49 -124 -99 -130 -110 -6 -11 -32 -130 -59 -265 l-48 -245
-164 -5 c-90 -3 -172 -9 -181 -13 -18 -9 -26 -27 -105 -242 l-55 -150 -13
-235 c-12 -231 -10 -265 16 -286 8 -6 133 -61 278 -122 l263 -112 175 0 c96 0
172 -3 170 -7 -3 -5 22 -6 56 -3 l61 5 119 168 119 167 168 0 169 0 278 100
c286 104 323 123 323 172 0 11 -37 137 -81 280 -45 142 -80 260 -78 262 2 2
102 53 221 113 l218 110 247 -79 c208 -66 254 -78 283 -71 32 7 43 22 147 192
62 102 117 187 122 190 4 3 18 25 30 48 20 40 21 57 21 277 0 129 -4 245 -9
258 -5 13 -55 77 -110 143 l-101 120 0 136 0 136 113 101 c61 55 247 236 412
401 l300 301 3 460 3 461 -49 123 -48 122 47 209 c27 115 46 219 43 231 -3 12
-61 84 -130 160 -179 200 -171 194 -224 194 -25 0 -127 16 -228 35 l-182 34
-58 63 c-217 238 -274 297 -290 302 -9 3 -80 19 -157 36 -113 25 -185 49 -371
126 l-230 95 -84 117 c-116 164 -115 162 -169 161 -25 0 -86 -12 -136 -25z
m-1095 -2039 c0 -11 12 -15 50 -15 l50 0 0 -35 0 -35 -150 0 -150 0 0 35 0 35
55 0 c42 0 55 3 55 15 0 11 12 15 45 15 33 0 45 -4 45 -15z m210 -165 l0 -180
-45 0 -45 0 0 180 0 180 45 0 45 0 0 -180z m490 20 l0 -150 -45 0 -45 0 0 70
0 70 -40 0 -40 0 0 40 0 40 40 0 40 0 0 40 0 40 45 0 45 0 0 -150z m460 40 l0
-100 25 0 c23 0 25 -4 25 -40 l0 -40 -90 0 -90 0 0 -50 0 -50 -45 0 -45 0 0
50 0 50 -90 0 -90 0 0 40 0 40 149 0 c167 0 161 -3 161 83 l0 37 -130 0 -130
0 0 40 0 40 175 0 175 0 0 -100z m-677 34 c7 -63 26 -99 68 -122 35 -20 36
-29 6 -66 -23 -28 -24 -28 -55 -12 -17 9 -39 26 -48 39 l-18 23 -33 -37 c-19
-21 -47 -42 -62 -47 -26 -9 -30 -7 -50 29 l-22 38 28 15 c58 29 93 94 93 169
0 25 3 27 44 27 l43 0 6 -56z m-435 -44 c43 -26 46 -78 6 -109 -15 -12 -33
-21 -40 -21 -8 0 -14 -3 -14 -7 0 -5 24 -8 52 -8 52 0 53 0 53 -30 0 -28 -3
-30 -50 -37 -27 -3 -96 -7 -151 -7 -97 -1 -102 0 -108 22 -12 44 -9 47 54 47
61 0 80 13 35 24 -37 10 -65 42 -65 76 0 45 46 70 130 70 47 0 74 -6 98 -20z
m579 -201 c50 -19 73 -48 73 -94 0 -72 -54 -105 -173 -105 -129 1 -190 48
-170 130 12 51 73 80 169 80 40 0 85 -5 101 -11z m273 -69 l0 -50 135 0 135 0
0 -40 0 -40 -180 0 -180 0 0 90 0 90 45 0 45 0 0 -50z m-728 13 c29 -17 33
-24 33 -63 0 -39 -4 -46 -32 -62 -42 -25 -157 -34 -220 -19 -117 30 -125 126
-13 160 54 16 193 7 232 -16z"/>
<path d="M12347 9594 c-16 -16 -5 -24 34 -24 28 0 39 4 37 13 -5 13 -60 22
-71 11z"/>
<path d="M12915 9373 c-86 -22 -19 -72 77 -57 39 7 59 27 42 44 -12 11 -93 20
-119 13z"/>
<path d="M12413 9333 c-67 -13 27 -40 97 -28 22 4 40 10 40 15 0 16 -82 24
-137 13z"/>
</g>
</svg>
