<?xml version="1.0" standalone="no"?>
<!DOCTYPE svg PUBLIC "-//W3C//DTD SVG 20010904//EN"
 "http://www.w3.org/TR/2001/REC-SVG-20010904/DTD/svg10.dtd">
<svg version="1.0" xmlns="http://www.w3.org/2000/svg"
 width="2938.000000pt" height="2560.000000pt" viewBox="0 0 2938.000000 2560.000000"
 preserveAspectRatio="xMidYMid meet">

<g transform="translate(0.000000,2560.000000) scale(0.100000,-0.100000)"
fill="#000000" stroke="none">
<path d="M10764 12252 c-87 -22 -161 -45 -176 -57 -15 -11 -48 -60 -73 -110
-26 -49 -52 -96 -58 -103 -6 -8 -59 -38 -118 -68 l-108 -53 -433 34 c-238 19
-441 35 -452 35 -10 0 -55 -36 -100 -79 l-81 -79 -302 174 -303 174 -338 0
c-322 0 -339 -1 -359 -20 -22 -20 -24 -25 -48 -165 -9 -49 -18 -100 -20 -112
-4 -15 -65 -62 -200 -154 -108 -72 -200 -139 -205 -149 -6 -10 -10 -97 -10
-192 l0 -173 -232 -245 c-127 -135 -292 -310 -367 -390 l-136 -145 -75 -408
-74 -407 -517 -491 c-285 -270 -520 -497 -523 -506 -3 -8 -6 -24 -6 -36 0 -33
117 -379 130 -387 7 -4 61 -11 121 -15 l108 -7 116 -163 c63 -91 115 -168 115
-173 0 -4 14 -21 30 -37 51 -49 72 -42 390 135 l285 158 235 -39 c262 -43 312
-48 336 -28 9 7 112 126 228 263 l211 249 130 87 130 87 282 -106 c155 -58
286 -110 292 -116 5 -5 32 -68 61 -138 30 -72 60 -132 71 -137 10 -6 123 -10
261 -10 l243 0 275 -275 c210 -209 282 -275 300 -275 14 0 271 -18 572 -39
527 -37 549 -40 604 -65 56 -26 58 -26 311 -26 l254 0 275 -156 276 -156 426
37 c234 20 439 39 455 42 38 8 43 25 52 173 6 114 5 128 -12 148 -11 14 -72
41 -168 75 l-150 52 0 110 0 110 128 205 c76 122 127 215 127 230 0 14 -40 93
-89 175 l-89 150 113 110 114 110 7 167 6 168 -40 67 c-23 38 -74 120 -115
183 l-74 114 111 123 c61 68 120 125 131 128 11 2 111 9 223 14 124 7 210 16
222 23 25 16 28 24 100 271 45 151 59 215 53 232 -4 13 -97 131 -206 263
l-198 240 -65 23 -66 24 -122 229 c-67 125 -130 232 -139 237 -9 6 -181 59
-382 119 l-365 110 -112 -10 c-62 -5 -131 -10 -153 -10 l-40 0 -47 93 c-29 58
-76 128 -126 188 l-81 95 -3 70 -3 69 -41 20 c-22 11 -44 21 -50 21 -5 1 -102
31 -216 68 -134 43 -221 66 -250 65 -23 -1 -111 -17 -194 -37z m-150 -2176
c52 -22 76 -54 76 -101 0 -76 -62 -115 -185 -115 -123 0 -185 39 -185 115 0
47 24 79 74 101 41 18 177 18 220 0z m592 -96 l-7 -100 31 0 c28 0 30 -3 30
-35 l0 -35 -95 0 -95 0 0 -55 0 -55 -40 0 -40 0 0 55 0 55 -100 0 -100 0 0 35
0 35 165 0 165 0 0 34 c0 18 3 48 6 65 l7 31 -142 0 -141 0 0 35 0 35 181 0
182 0 -7 -100z m-1316 50 l0 -40 105 0 105 0 0 40 0 40 40 0 40 0 0 -145 0
-145 -70 0 -70 0 0 -45 0 -45 95 0 95 0 0 -35 0 -35 -235 0 -235 0 0 35 0 35
100 0 100 0 0 45 0 45 -75 0 -75 0 0 145 0 145 40 0 40 0 0 -40z m850 -235 l0
-35 -235 0 -235 0 0 35 0 35 235 0 235 0 0 -35z m180 -105 l0 -60 145 0 145 0
0 -35 0 -35 -185 0 -185 0 0 95 0 95 40 0 40 0 0 -60z m-510 -10 l0 -50 140 0
140 0 0 -35 0 -35 -180 0 -180 0 0 85 0 85 40 0 40 0 0 -50z"/>
<path d="M10422 10004 c-51 -35 -8 -74 83 -74 39 0 69 6 83 16 51 35 8 74 -83
74 -39 0 -69 -6 -83 -16z"/>
<path d="M9890 9885 l0 -35 105 0 105 0 0 35 0 35 -105 0 -105 0 0 -35z"/>
</g>
</svg>
