<?xml version="1.0" standalone="no"?>
<!DOCTYPE svg PUBLIC "-//W3C//DTD SVG 20010904//EN"
 "http://www.w3.org/TR/2001/REC-SVG-20010904/DTD/svg10.dtd">
<svg version="1.0" xmlns="http://www.w3.org/2000/svg"
 width="2938.000000pt" height="2560.000000pt" viewBox="0 0 2938.000000 2560.000000"
 preserveAspectRatio="xMidYMid meet">

<g transform="translate(0.000000,2560.000000) scale(0.100000,-0.100000)"
fill="#000000" stroke="none">
<path d="M9025 23083 c-121 -62 -138 -68 -243 -83 l-113 -17 -63 68 c-35 38
-74 73 -87 78 -29 10 -212 -4 -241 -20 -31 -17 -38 -53 -38 -212 0 -122 -6
-187 -30 -326 l-29 -173 -61 -63 -60 -63 0 -79 c0 -92 -38 -224 -123 -431 -50
-123 -50 -123 -145 -213 -52 -49 -104 -91 -116 -94 -11 -2 -189 -20 -394 -40
-206 -20 -383 -41 -395 -46 -20 -10 -150 -165 -189 -227 -15 -22 -18 -51 -18
-168 l0 -141 -47 4 c-27 2 -318 26 -649 52 l-600 47 -131 62 c-80 38 -144 62
-164 62 -30 0 -74 -33 -344 -255 -171 -141 -318 -265 -327 -277 -13 -15 -18
-38 -18 -84 l0 -63 -32 -5 c-18 -3 -69 -10 -113 -16 -185 -24 -212 -31 -224
-57 -6 -13 -11 -31 -11 -39 0 -31 53 -94 191 -229 l143 -140 -47 -380 c-27
-209 -48 -397 -47 -417 0 -26 7 -42 23 -55 13 -10 285 -98 604 -197 l580 -178
79 -272 c56 -191 85 -278 101 -293 22 -23 26 -23 270 -23 l248 -1 92 -168 c51
-93 99 -173 105 -178 7 -6 102 -52 211 -103 157 -74 197 -97 192 -109 -132
-337 -163 -439 -136 -455 6 -4 184 -7 395 -6 l384 0 70 -42 c39 -23 69 -45 66
-50 -12 -19 94 -34 196 -29 l105 6 265 174 c146 96 272 176 280 178 8 2 179
-42 380 -97 284 -79 371 -99 393 -93 20 6 85 76 225 243 l197 235 815 5 c517
3 821 9 831 15 9 6 120 165 248 354 176 263 231 352 231 375 0 43 -108 363
-140 411 -14 22 -35 41 -45 43 -11 2 -246 87 -523 188 l-502 184 -228 32 -227
31 -158 273 c-87 150 -165 278 -173 285 -8 6 -227 60 -486 118 l-473 108 -2
264 -2 264 424 249 c240 142 428 258 434 270 6 12 53 167 104 346 l93 325 354
240 c214 145 360 250 369 266 14 25 10 49 -49 315 -35 159 -69 303 -76 321
-11 28 -34 43 -183 118 -94 47 -178 85 -186 85 -9 0 -80 -25 -159 -55 -78 -30
-146 -55 -150 -55 -14 0 -397 140 -452 165 -30 14 -69 25 -87 25 -19 0 -83
-26 -162 -67z m-845 -3638 l0 -165 -40 0 -40 0 0 80 0 80 -50 0 -50 0 0 35 0
35 50 0 50 0 0 50 0 50 40 0 40 0 0 -165z m-593 126 c47 -22 63 -45 63 -94 0
-62 -67 -97 -185 -97 -77 0 -133 16 -167 47 -20 18 -24 73 -7 105 19 35 86 58
174 58 57 0 92 -6 122 -19z m357 -48 c8 -68 36 -118 79 -140 18 -8 34 -17 36
-19 8 -7 -42 -64 -56 -64 -9 0 -36 20 -59 45 l-43 44 -20 -32 c-17 -28 -98
-86 -105 -76 -38 57 -39 63 -21 74 70 42 104 99 105 178 l0 47 39 0 38 0 7
-57z m722 -43 l-7 -100 31 0 c28 0 30 -3 30 -35 l0 -35 -95 0 -95 0 0 -55 0
-55 -40 0 -40 0 0 55 0 55 -100 0 -100 0 0 35 0 35 165 0 165 0 0 34 c0 18 3
48 6 65 l7 31 -142 0 -141 0 0 35 0 35 181 0 182 0 -7 -100z m-966 -165 l0
-35 -235 0 -235 0 0 35 0 35 235 0 235 0 0 -35z m416 -64 c54 -24 73 -71 51
-124 -19 -45 -74 -67 -167 -67 -93 0 -148 22 -167 67 -11 28 -12 42 -2 70 16
49 70 73 169 73 52 0 88 -6 116 -19z m-466 -91 l0 -90 -185 0 -185 0 0 90 0
90 185 0 185 0 0 -90z m730 30 l0 -60 145 0 145 0 0 -35 0 -35 -185 0 -185 0
0 95 0 95 40 0 40 0 0 -60z"/>
<path d="M7414 19521 c-41 -10 -54 -19 -54 -36 0 -23 41 -39 105 -39 127 0
147 63 25 77 -25 3 -59 2 -76 -2z"/>
<path d="M7946 19200 c-58 -18 -55 -54 6 -71 71 -19 156 9 142 46 -6 15 -65
35 -99 34 -11 0 -33 -5 -49 -9z"/>
<path d="M7360 19160 l0 -30 105 0 105 0 0 30 0 30 -105 0 -105 0 0 -30z"/>
</g>
</svg>
