<?xml version="1.0" standalone="no"?>
<!DOCTYPE svg PUBLIC "-//W3C//DTD SVG 20010904//EN"
 "http://www.w3.org/TR/2001/REC-SVG-20010904/DTD/svg10.dtd">
<svg version="1.0" xmlns="http://www.w3.org/2000/svg"
 width="2938.000000pt" height="2560.000000pt" viewBox="0 0 2938.000000 2560.000000"
 preserveAspectRatio="xMidYMid meet">

<g transform="translate(0.000000,2560.000000) scale(0.100000,-0.100000)"
fill="#000000" stroke="none">
<path d="M11377 6148 c-12 -13 -85 -128 -162 -255 l-140 -233 -285 0 c-252 0
-288 -2 -310 -17 -20 -13 -312 -262 -406 -345 -15 -13 -138 -40 -475 -103
-249 -47 -463 -89 -475 -94 -14 -6 -91 -133 -218 -359 -108 -192 -202 -356
-209 -365 -11 -15 -34 -15 -262 -2 -137 8 -284 15 -326 15 l-76 0 -100 -107
c-117 -127 -133 -149 -133 -182 0 -14 44 -99 97 -190 53 -92 96 -173 96 -182
-1 -9 -15 -61 -32 -116 l-31 -99 -163 -37 -162 -36 -76 45 -76 44 -335 0
c-324 0 -336 -1 -362 -21 -23 -18 -26 -27 -26 -83 0 -53 8 -84 55 -198 l55
-135 -75 -183 c-41 -101 -75 -192 -75 -203 0 -28 149 -508 165 -532 8 -12 84
-49 192 -93 l178 -72 176 -318 177 -317 -11 -86 c-9 -75 -8 -90 5 -110 23 -35
613 -708 658 -751 27 -26 48 -38 68 -38 20 0 91 40 231 130 112 71 206 132
211 135 4 2 88 -72 186 -166 99 -94 189 -175 202 -180 13 -5 276 -9 595 -9
l572 0 261 -150 c306 -176 232 -161 656 -130 l273 20 366 156 365 156 158 -61
c125 -49 176 -74 241 -121 46 -34 92 -60 106 -60 41 0 633 116 657 129 29 15
36 48 28 129 l-6 67 177 80 c158 71 187 88 271 159 l94 80 261 -12 c144 -7
292 -12 329 -12 l66 0 44 48 c23 27 70 82 103 122 l60 73 2 111 c2 61 8 253
13 426 l10 315 63 62 62 61 170 36 c132 28 175 42 193 59 21 22 24 43 57 462
20 242 33 450 30 462 -3 12 -58 86 -121 165 -64 79 -121 148 -125 154 -6 7 15
44 52 97 l61 86 230 92 c210 84 233 91 262 81 17 -6 163 -58 325 -117 162 -58
306 -105 321 -105 27 0 227 131 263 172 14 17 17 41 17 143 0 68 -3 130 -6
139 -3 9 -102 97 -218 196 l-213 180 -6 197 c-4 108 -7 240 -7 294 l0 98 -67
80 c-73 88 -96 101 -182 101 -42 0 -121 20 -301 75 -135 41 -259 75 -275 75
-17 0 -145 -34 -285 -75 l-255 -75 -175 1 c-328 1 -256 -23 -790 266 -256 138
-484 261 -507 273 l-43 22 -152 -17 c-84 -9 -218 -30 -297 -46 -79 -16 -156
-29 -170 -29 -31 0 -303 60 -313 69 -5 4 -26 98 -49 209 l-40 202 30 37 c49
59 36 111 -36 147 -28 14 -89 16 -483 16 l-451 0 -22 -22z m583 -3423 l0 -165
-40 0 c-39 0 -40 1 -40 35 l0 35 -50 0 c-32 0 -61 -7 -82 -20 -21 -13 -51 -20
-81 -20 -88 0 -137 49 -137 138 0 106 115 168 208 112 22 -14 50 -20 87 -20
l55 0 0 35 c0 34 1 35 40 35 l40 0 0 -165z m490 100 l0 -35 -135 0 -135 0 0
-25 0 -25 140 0 140 0 0 -35 0 -35 -70 0 c-63 0 -70 -2 -70 -20 0 -19 7 -20
95 -20 l95 0 0 -35 0 -35 -235 0 -235 0 0 35 0 35 100 0 c93 0 100 1 100 20 0
18 -7 20 -70 20 l-70 0 0 95 0 95 175 0 175 0 0 -35z m516 -65 l-7 -100 31 0
c28 0 30 -3 30 -35 l0 -35 -95 0 -95 0 0 -55 0 -55 -40 0 -40 0 0 55 0 55
-100 0 -100 0 0 35 0 35 165 0 165 0 0 34 c0 18 3 48 6 65 l7 31 -142 0 -141
0 0 35 0 35 181 0 182 0 -7 -100z m-1083 -224 c46 -19 71 -51 71 -91 0 -68
-62 -105 -178 -105 -122 0 -176 32 -176 105 0 45 23 75 70 94 37 15 176 13
213 -3z m494 -7 c78 -29 99 -105 43 -153 -38 -32 -80 -40 -181 -34 -88 5 -127
24 -143 72 -27 73 47 126 175 126 43 0 90 -5 106 -11z m303 -59 l0 -60 145 0
145 0 0 -35 0 -35 -185 0 -185 0 0 95 0 95 40 0 40 0 0 -60z"/>
<path d="M11637 2779 c-44 -26 -38 -103 9 -115 76 -19 112 88 39 116 -31 12
-26 12 -48 -1z"/>
<path d="M11800 2725 c0 -22 4 -25 40 -25 36 0 40 3 40 25 0 23 -4 25 -40 25
-36 0 -40 -2 -40 -25z"/>
<path d="M11726 2481 c-37 -8 -55 -34 -38 -54 18 -21 93 -30 140 -17 66 17 64
55 -4 70 -43 10 -55 11 -98 1z"/>
<path d="M12213 2469 c-49 -14 -45 -45 8 -59 77 -21 173 10 138 45 -18 18
-105 27 -146 14z"/>
</g>
</svg>
