<?xml version="1.0" standalone="no"?>
<!DOCTYPE svg PUBLIC "-//W3C//DTD SVG 20010904//EN"
 "http://www.w3.org/TR/2001/REC-SVG-20010904/DTD/svg10.dtd">
<svg version="1.0" xmlns="http://www.w3.org/2000/svg"
 width="3445.000000pt" height="2700.000000pt" viewBox="0 0 3445.000000 2700.000000"
 preserveAspectRatio="xMidYMid meet">

<g transform="translate(0.000000,2700.000000) scale(0.100000,-0.100000)"
fill="#000000" stroke="none">
<path d="M13645 6430 c-27 -4 -218 -8 -424 -9 -205 -1 -377 -3 -381 -6 -4 -2
-44 -88 -90 -190 -90 -202 -91 -203 -200 -244 -81 -30 -139 -39 -367 -56 -327
-25 -359 -35 -634 -201 -166 -100 -276 -150 -354 -161 -25 -3 -48 -10 -51 -14
-7 -12 31 -82 106 -194 l68 -100 93 -34 c52 -19 127 -49 167 -67 l72 -33 0
-128 c1 -315 43 -778 130 -1397 21 -155 46 -351 55 -436 19 -184 37 -278 65
-334 11 -22 61 -88 110 -146 50 -58 101 -121 112 -141 20 -34 28 -38 149 -72
175 -49 226 -72 234 -105 3 -15 30 -88 60 -163 91 -227 93 -286 14 -360 l-40
-36 66 -17 c36 -9 127 -23 203 -31 266 -28 300 -58 367 -327 56 -226 92 -309
139 -326 18 -7 71 -35 117 -64 147 -90 199 -117 251 -133 68 -20 311 -20 665
0 147 8 430 19 628 24 455 11 399 -5 797 225 65 37 219 114 343 171 259 119
313 153 491 305 71 62 197 168 279 238 201 169 259 219 556 483 425 377 711
621 743 634 17 7 83 20 146 30 63 9 121 20 127 24 9 5 0 22 -28 56 -118 143
-246 343 -460 720 -268 474 -292 538 -292 766 l0 137 -36 -10 c-20 -5 -92 -36
-161 -68 -153 -72 -178 -76 -510 -79 l-246 -3 -69 47 c-39 25 -197 137 -352
248 l-281 202 -47 165 c-25 91 -96 334 -157 541 l-112 376 -125 48 c-69 26
-261 94 -426 151 l-300 104 -580 -1 c-319 -1 -602 -5 -630 -9z m805 -2800 l0
-120 55 0 55 0 0 -40 0 -40 -55 0 -55 0 0 -129 0 -129 -35 -4 c-20 -2 -38 -2
-40 1 -3 2 -5 134 -5 293 l0 288 40 0 40 0 0 -120z m800 35 l0 -85 55 0 55 0
0 -40 0 -40 -55 0 -55 0 0 -105 0 -105 -40 0 -40 0 0 230 0 230 40 0 40 0 0
-85z m-978 -2 c-2 -33 -9 -101 -15 -150 l-12 -88 -39 2 c-21 1 -40 4 -42 6 -3
2 0 33 6 68 5 35 10 83 10 107 l0 42 -155 0 -155 0 0 40 0 40 203 -2 202 -3
-3 -62z m679 47 c110 -56 139 -195 61 -299 -48 -64 -165 -91 -250 -56 -158 67
-162 277 -7 358 44 24 146 22 196 -3z m1106 4 c6 -16 -14 -227 -27 -286 l-8
-38 59 0 59 0 0 -40 0 -40 -160 0 -160 0 0 -165 0 -165 -45 0 -45 0 0 165 0
165 -155 0 -155 0 0 40 0 40 259 0 258 0 11 73 c6 39 14 98 17 130 l6 57 -235
0 -236 0 0 33 c0 19 3 37 7 40 3 4 127 6 275 6 224 -1 270 -3 275 -15z m-1997
-263 l0 -89 88 5 c48 3 113 8 145 12 l57 8 0 -37 0 -37 -52 -7 c-29 -3 -149
-9 -266 -12 l-213 -7 3 38 3 38 73 -2 72 -2 0 90 0 91 45 0 45 0 0 -89z m1190
-332 l0 -149 -40 0 -40 0 0 110 0 110 -220 0 -220 0 0 34 c0 19 6 37 13 40 6
2 123 5 260 4 l247 0 0 -149z m-1212 29 l3 -78 220 0 220 0 -3 -37 -3 -38
-262 -3 -263 -2 0 120 0 121 43 -3 42 -3 3 -77z"/>
<path d="M14793 3645 c-39 -17 -73 -68 -73 -111 0 -47 38 -96 88 -114 112 -39
213 78 152 178 -21 34 -72 62 -112 62 -13 -1 -38 -7 -55 -15z"/>
</g>
</svg>
