<?xml version="1.0" standalone="no"?>
<!DOCTYPE svg PUBLIC "-//W3C//DTD SVG 20010904//EN"
 "http://www.w3.org/TR/2001/REC-SVG-20010904/DTD/svg10.dtd">
<svg version="1.0" xmlns="http://www.w3.org/2000/svg"
 width="3445.000000pt" height="2700.000000pt" viewBox="0 0 3445.000000 2700.000000"
 preserveAspectRatio="xMidYMid meet">

<g transform="translate(0.000000,2700.000000) scale(0.100000,-0.100000)"
fill="#000000" stroke="none">
<path d="M25445 17484 c-54 -15 -394 -84 -775 -159 -283 -55 -436 -93 -593
-145 -242 -81 -357 -143 -487 -261 -47 -43 -118 -106 -159 -141 -100 -84 -158
-163 -311 -418 -71 -118 -138 -228 -148 -243 -15 -22 -43 -36 -138 -68 -249
-85 -502 -218 -871 -458 -163 -106 -153 -92 -207 -309 -56 -224 -62 -236 -191
-371 -67 -71 -117 -132 -124 -152 -6 -21 -12 -158 -14 -349 l-4 -315 50 -40
c195 -157 206 -161 422 -170 l150 -7 35 37 c19 20 53 66 76 103 69 115 122
133 331 113 122 -11 476 -29 598 -30 107 -1 243 -15 253 -26 15 -16 92 -219
141 -374 l46 -144 315 -92 c489 -143 825 -247 1195 -370 187 -62 348 -116 357
-120 21 -8 40 29 283 551 98 208 190 405 206 436 l29 58 -119 997 c-150 1245
-180 1500 -240 2041 -26 238 -50 434 -52 436 -2 1 -26 -3 -54 -10z m-1885
-2378 l0 -384 -22 -4 c-13 -2 -33 -2 -45 0 -23 3 -23 3 -23 208 l0 204 -40 0
-40 0 0 -190 0 -190 -40 0 -40 0 0 360 0 360 40 0 40 0 0 -130 0 -130 40 0 40
0 0 133 c0 74 3 137 7 140 3 4 24 7 45 7 l38 0 0 -384z m810 229 l0 -145 -265
0 c-172 0 -273 4 -288 11 -38 17 -47 50 -47 169 l0 110 300 0 300 0 0 -145z
m-1650 95 l0 -40 -225 0 -225 0 0 -55 0 -55 230 0 230 0 0 -35 0 -35 -115 0
-115 0 0 -45 0 -45 155 0 155 0 0 -35 0 -35 -360 0 -360 0 0 35 0 35 160 0
160 0 0 45 0 45 -115 0 -115 0 0 123 c0 68 3 127 7 130 3 4 125 7 270 7 l263
0 0 -40z m2414 31 c7 -10 -20 -290 -30 -316 -5 -12 4 -15 55 -15 l61 0 0 -40
0 -40 -160 0 -160 0 -2 -162 -3 -163 -42 -3 -43 -3 0 165 0 165 -157 3 -158 3
0 35 0 35 260 5 259 5 12 70 c6 39 14 96 16 128 l5 57 -234 0 -233 0 0 33 c0
19 3 36 6 39 10 11 542 9 548 -1z m-1899 -61 l0 -35 -97 -3 -98 -3 0 -191 0
-190 78 6 c42 4 99 9 125 12 l48 6 -3 -38 c-3 -38 -4 -39 -48 -46 -25 -3 -98
-7 -162 -7 l-118 -1 0 265 0 266 138 -3 137 -3 0 -35z m1175 -335 l0 -45 -130
0 -130 0 0 -60 0 -60 -55 0 -55 0 0 60 0 60 -155 0 -155 0 0 45 0 45 340 0
340 0 0 -45z m-1874 -74 c168 -24 248 -117 177 -202 -36 -42 -93 -66 -187 -79
-136 -19 -297 20 -340 82 -25 35 -20 91 9 127 52 61 200 92 341 72z m1354
-106 l0 -75 240 0 240 0 0 -45 0 -46 -281 3 -281 3 -19 24 c-16 19 -19 40 -19
117 l0 94 60 0 60 0 0 -75z"/>
<path d="M23890 15335 l0 -55 185 0 185 0 0 55 0 55 -185 0 -185 0 0 -55z"/>
<path d="M22365 14941 c-125 -33 -150 -111 -53 -163 36 -19 59 -22 138 -22 79
0 102 3 138 22 120 63 52 160 -117 168 -42 2 -89 0 -106 -5z"/>
</g>
</svg>
