<?xml version="1.0" standalone="no"?>
<!DOCTYPE svg PUBLIC "-//W3C//DTD SVG 20010904//EN"
 "http://www.w3.org/TR/2001/REC-SVG-20010904/DTD/svg10.dtd">
<svg version="1.0" xmlns="http://www.w3.org/2000/svg"
 width="3445.000000pt" height="2700.000000pt" viewBox="0 0 3445.000000 2700.000000"
 preserveAspectRatio="xMidYMid meet">

<g transform="translate(0.000000,2700.000000) scale(0.100000,-0.100000)"
fill="#000000" stroke="none">
<path d="M20075 9489 c-208 -214 -773 -717 -1195 -1062 -102 -84 -239 -198
-305 -255 -337 -290 -466 -324 -1252 -338 -289 -4 -403 -10 -403 -18 0 -20 30
-138 67 -268 l36 -128 111 0 c113 0 362 -15 449 -26 l48 -7 72 -146 c39 -80
100 -192 135 -248 74 -120 104 -197 96 -245 -4 -18 -28 -80 -55 -138 -52 -114
-82 -226 -123 -465 -80 -468 -104 -721 -87 -921 11 -139 38 -280 72 -384 18
-56 22 -97 26 -295 l5 -230 38 -65 c21 -36 110 -198 197 -360 174 -319 245
-441 331 -565 66 -96 151 -202 181 -230 l23 -20 41 46 c23 25 58 67 77 95 23
33 52 57 85 74 45 23 61 25 170 24 108 0 126 -3 179 -27 71 -33 192 -150 225
-219 22 -46 22 -54 16 -245 -6 -195 -6 -199 17 -237 47 -79 53 -81 286 -81
172 1 212 4 237 17 36 20 106 91 211 218 115 139 192 217 254 260 30 21 136
78 235 128 99 49 241 127 315 172 74 46 164 97 200 113 88 40 160 39 356 -6
82 -19 178 -38 214 -42 177 -18 259 -45 283 -92 27 -54 39 -190 33 -368 -4
-93 -9 -314 -12 -489 -6 -363 -15 -298 97 -646 119 -365 207 -700 216 -819 3
-36 0 -87 -7 -116 -10 -44 -10 -56 3 -81 26 -50 69 -81 187 -137 102 -49 204
-106 495 -277 440 -259 445 -262 529 -272 44 -4 165 -22 270 -38 180 -28 208
-30 493 -30 l302 0 25 83 c78 260 91 319 111 490 31 259 56 301 211 341 32 8
208 40 389 70 338 57 498 91 555 121 47 24 115 90 144 139 14 24 46 103 71
176 25 73 50 139 56 146 26 31 120 53 290 69 222 20 215 18 222 64 5 37 18 67
92 211 44 85 54 159 37 272 -18 115 12 176 107 217 26 11 116 34 201 52 146
30 260 63 260 76 0 13 -57 82 -134 162 -134 138 -272 238 -464 335 -54 28 -97
57 -114 79 -14 18 -80 95 -146 170 -138 157 -132 140 -132 377 0 81 -3 150 -7
154 -5 4 -8 47 -9 94 -1 102 -6 117 -48 139 -17 8 -53 35 -81 58 -112 94 -169
117 -347 136 -70 8 -138 8 -240 0 -264 -21 -454 -64 -606 -137 -82 -39 -98
-52 -136 -104 -24 -33 -60 -88 -79 -122 -20 -35 -78 -115 -130 -179 l-95 -116
-124 -12 c-234 -24 -548 -91 -951 -205 l-88 -25 -65 87 c-81 109 -190 329
-244 490 -42 128 -110 388 -200 767 -29 121 -58 234 -64 252 -7 21 -50 64
-128 130 -64 54 -154 132 -200 174 -87 81 -117 96 -306 165 -148 53 -250 107
-324 171 -344 296 -401 354 -456 459 -48 94 -86 224 -107 374 -26 192 -45 423
-45 570 0 156 -12 285 -31 351 -17 55 -83 126 -198 214 -106 79 -185 155 -207
197 -24 47 -43 136 -59 282 -19 169 -68 470 -96 581 -31 126 -122 298 -274
520 -135 197 -221 333 -246 388 -7 15 -15 27 -19 27 -3 0 -24 -18 -45 -41z
m-1055 -4034 l0 -375 -30 0 -30 0 0 225 0 225 -90 0 c-89 0 -90 0 -90 25 0 25
1 25 90 25 l90 0 0 125 0 125 30 0 30 0 0 -375z m550 310 l0 -45 120 0 120 0
0 -25 0 -25 -120 0 c-136 0 -137 -1 -92 -69 37 -54 111 -107 181 -128 73 -22
80 -29 54 -54 -21 -21 -22 -21 -68 -3 -62 23 -151 82 -194 127 l-33 35 -32
-36 c-37 -42 -130 -104 -192 -128 -44 -17 -46 -17 -66 3 -21 22 -18 43 7 43
38 0 129 46 176 88 43 38 79 92 79 117 0 3 -54 5 -120 5 l-120 0 0 25 0 25
120 0 120 0 0 45 c0 43 1 45 30 45 29 0 30 -2 30 -45z m1008 -115 l-3 -160 58
0 c54 0 57 -1 57 -25 l0 -25 -165 0 -165 0 0 -180 0 -180 -30 0 -30 0 0 180 0
180 -155 0 -155 0 0 25 0 25 259 0 259 0 6 23 c3 12 6 73 6 135 l0 112 -210 0
-210 0 0 25 0 25 241 0 241 0 -4 -160z m-1928 66 c0 -146 40 -246 136 -342
l62 -60 -19 -25 -19 -24 -65 67 c-35 37 -77 90 -93 118 l-29 51 -23 -43 c-28
-55 -94 -141 -133 -174 l-30 -25 -23 22 -23 21 63 62 c41 41 75 86 97 131 31
63 34 79 38 177 l3 108 29 0 c29 0 29 0 29 -64z m920 -386 l0 -90 160 0 160 0
0 -25 0 -25 -350 0 -350 0 0 25 0 25 160 0 160 0 0 90 0 90 30 0 30 0 0 -90z"/>
</g>
</svg>
