<?xml version="1.0" standalone="no"?>
<!DOCTYPE svg PUBLIC "-//W3C//DTD SVG 20010904//EN"
 "http://www.w3.org/TR/2001/REC-SVG-20010904/DTD/svg10.dtd">
<svg version="1.0" xmlns="http://www.w3.org/2000/svg"
 width="3445.000000pt" height="2700.000000pt" viewBox="0 0 3445.000000 2700.000000"
 preserveAspectRatio="xMidYMid meet">

<g transform="translate(0.000000,2700.000000) scale(0.100000,-0.100000)"
fill="#000000" stroke="none">
<path d="M28221 18989 c-46 -15 -88 -26 -92 -23 -5 3 -9 1 -9 -4 0 -25 -182
-38 -825 -56 -288 -8 -429 -15 -500 -27 -88 -14 -188 -54 -540 -214 -283 -128
-587 -261 -659 -286 l-39 -14 7 -325 c15 -730 59 -1212 226 -2475 74 -560 123
-960 154 -1268 13 -131 26 -241 29 -243 3 -3 40 0 84 6 43 6 166 13 273 15
642 16 620 12 958 169 213 99 286 118 457 121 77 2 155 4 173 4 l32 1 0 88 0
87 -50 73 c-92 136 -65 191 174 353 154 104 201 152 221 225 44 159 55 173
280 348 161 124 230 192 258 253 21 45 22 63 23 294 2 301 7 324 96 411 l58
58 0 118 0 118 -36 60 c-20 32 -47 77 -60 99 -32 56 -46 189 -34 314 l10 96
67 65 c38 36 113 99 168 141 98 74 100 76 116 135 9 33 42 120 74 194 49 116
58 146 62 216 8 121 -12 159 -166 309 -155 151 -176 185 -176 282 l0 72 -75
20 c-41 11 -148 34 -236 51 -229 43 -317 77 -376 145 -26 30 -23 30 -127 -6z
m-801 -1749 l0 -100 60 0 c57 0 60 -1 60 -25 0 -24 -3 -25 -60 -25 l-60 0 0
-90 0 -90 -30 0 -30 0 0 215 0 215 30 0 30 0 0 -100z m-770 55 l0 -25 -121 0
-120 0 21 -30 c36 -51 117 -90 233 -115 31 -6 32 -12 12 -40 -14 -17 -19 -18
-63 -7 -66 17 -161 65 -199 101 l-33 30 -32 -30 c-44 -40 -167 -99 -213 -102
-28 -1 -40 3 -52 20 -14 21 -13 22 14 28 117 25 197 64 233 115 l21 30 -120 0
-121 0 0 25 0 25 270 0 270 0 0 -25z m1568 -135 l-3 -160 58 0 c54 0 57 -1 57
-25 l0 -25 -165 0 -165 0 0 -180 0 -180 -30 0 -30 0 0 180 0 180 -155 0 -155
0 0 25 0 25 259 0 259 0 6 23 c3 12 6 73 6 135 l0 112 -210 0 -210 0 0 25 0
25 241 0 241 0 -4 -160z m-998 50 l0 -100 -140 0 -140 0 0 -61 0 -61 170 3
c158 4 171 3 176 -14 3 -10 3 -22 -1 -25 -4 -4 -96 -8 -206 -10 l-199 -3 0
110 0 111 140 0 140 0 0 50 0 50 -140 0 -140 0 0 25 0 25 170 0 170 0 0 -100z
m-490 -215 l0 -25 -160 0 -160 0 0 -44 0 -43 49 -6 c59 -7 123 -38 145 -69 9
-12 16 -41 16 -64 0 -84 -91 -134 -240 -134 -149 0 -240 50 -240 134 0 23 7
52 16 64 22 31 86 62 145 69 l49 6 0 43 0 44 -160 0 -160 0 0 25 0 25 350 0
350 0 0 -25z m622 -142 c55 -25 80 -59 80 -108 0 -83 -69 -126 -213 -133 -117
-6 -183 8 -232 49 -82 67 -50 161 69 205 60 22 235 14 296 -13z"/>
<path d="M26285 16819 c-47 -11 -85 -44 -85 -74 0 -60 122 -99 246 -78 103 18
144 72 92 121 -41 37 -161 52 -253 31z"/>
<path d="M27088 16817 c-65 -19 -80 -33 -76 -76 5 -55 54 -76 178 -76 138 0
197 35 176 103 -16 48 -179 77 -278 49z"/>
</g>
</svg>
