<?xml version="1.0" standalone="no"?>
<!DOCTYPE svg PUBLIC "-//W3C//DTD SVG 20010904//EN"
 "http://www.w3.org/TR/2001/REC-SVG-20010904/DTD/svg10.dtd">
<svg version="1.0" xmlns="http://www.w3.org/2000/svg"
 width="3445.000000pt" height="2700.000000pt" viewBox="0 0 3445.000000 2700.000000"
 preserveAspectRatio="xMidYMid meet">

<g transform="translate(0.000000,2700.000000) scale(0.100000,-0.100000)"
fill="#000000" stroke="none">
<path d="M17769 12336 c-2 -3 -137 -7 -299 -10 -162 -3 -419 -14 -570 -25
-151 -12 -349 -26 -440 -32 -91 -6 -166 -12 -168 -14 -2 -2 -17 -50 -33 -107
-92 -319 -263 -636 -500 -929 -107 -132 -390 -418 -564 -570 -66 -57 -216
-185 -334 -283 l-214 -179 179 -177 c98 -96 217 -208 264 -247 47 -39 109 -94
138 -121 28 -27 52 -46 52 -43 0 3 39 -33 88 -80 48 -47 109 -98 136 -114 45
-25 143 -117 262 -245 130 -141 483 -500 533 -543 162 -140 363 -174 961 -164
571 10 645 28 862 205 638 519 862 711 1155 989 531 506 801 725 1100 897 77
44 83 50 77 74 -30 130 -66 265 -131 482 -42 140 -95 324 -117 409 l-41 153
-155 89 c-130 75 -323 169 -393 193 -20 7 -164 12 -557 21 -281 7 -310 12
-414 75 -31 19 -98 70 -149 114 -138 118 -204 167 -240 177 -31 9 -479 13
-488 5z m-199 -1356 l0 -120 60 0 c57 0 60 -1 60 -25 0 -24 -3 -25 -60 -25
l-60 0 0 -130 0 -130 -30 0 -30 0 0 275 0 275 30 0 30 0 0 -120z m-877 71 c71
-34 95 -97 63 -159 -8 -15 -26 -34 -40 -42 -22 -11 -26 -20 -26 -62 l0 -48 95
0 c95 0 95 0 95 -25 l0 -25 -350 0 -350 0 0 25 c0 25 0 25 95 25 l95 0 0 48
c0 42 -4 51 -26 62 -68 37 -71 143 -5 187 50 32 103 43 206 40 81 -2 109 -7
148 -26z m1675 -131 l-3 -160 58 0 c54 0 57 -1 57 -25 l0 -25 -165 0 -165 0 0
-180 0 -180 -30 0 -30 0 0 180 0 180 -155 0 -155 0 0 25 0 25 259 0 259 0 6
23 c3 12 6 73 6 135 l0 112 -210 0 -210 0 0 25 0 25 241 0 241 0 -4 -160z
m-1136 73 c3 -46 12 -92 22 -111 26 -50 85 -111 129 -133 l39 -20 -22 -24
c-19 -20 -26 -22 -43 -14 -25 14 -119 107 -138 137 l-14 24 -33 -50 c-32 -50
-93 -111 -130 -131 -15 -8 -23 -6 -41 13 l-21 23 49 31 c93 61 140 148 141
260 l0 72 29 0 28 0 5 -77z m-574 -368 c72 -22 112 -64 112 -119 0 -51 -19
-80 -73 -109 -37 -19 -57 -22 -167 -22 -110 0 -130 3 -167 22 -54 29 -73 58
-73 109 0 53 40 97 108 118 63 19 196 20 260 1z m522 -110 l0 -95 210 0 210 0
0 -25 0 -25 -245 0 -245 0 0 120 0 120 35 0 35 0 0 -95z"/>
<path d="M16431 11017 c-27 -7 -52 -23 -65 -40 -19 -26 -19 -30 -5 -55 21 -37
58 -53 142 -58 93 -7 163 12 191 49 19 26 19 30 5 55 -8 15 -27 33 -43 41 -39
18 -171 23 -225 8z"/>
<path d="M16430 10778 l0 -38 100 0 100 0 0 38 0 37 -100 0 -100 0 0 -37z"/>
<path d="M16435 10579 c-47 -11 -85 -44 -85 -74 0 -60 122 -99 246 -78 103 18
144 72 92 121 -41 37 -161 52 -253 31z"/>
</g>
</svg>
