<?xml version="1.0" standalone="no"?>
<!DOCTYPE svg PUBLIC "-//W3C//DTD SVG 20010904//EN"
 "http://www.w3.org/TR/2001/REC-SVG-20010904/DTD/svg10.dtd">
<svg version="1.0" xmlns="http://www.w3.org/2000/svg"
 width="3445.000000pt" height="2700.000000pt" viewBox="0 0 3445.000000 2700.000000"
 preserveAspectRatio="xMidYMid meet">

<g transform="translate(0.000000,2700.000000) scale(0.100000,-0.100000)"
fill="#000000" stroke="none">
<path d="M9504 16452 c-34 -31 -95 -88 -136 -127 -94 -87 -118 -132 -118 -219
0 -85 -11 -110 -73 -174 -58 -60 -312 -293 -429 -394 l-76 -66 -109 -7 c-59
-4 -180 -5 -268 -1 -88 3 -218 2 -290 -4 -122 -9 -135 -12 -210 -49 -44 -22
-150 -92 -235 -155 -85 -63 -192 -134 -237 -158 -46 -24 -83 -49 -83 -56 0 -7
21 -22 46 -32 119 -52 217 -135 501 -429 153 -158 295 -312 316 -342 21 -30
64 -117 97 -192 90 -211 116 -245 263 -354 51 -37 153 -115 227 -173 223 -175
376 -292 811 -618 228 -171 470 -357 539 -414 333 -274 433 -332 900 -518 140
-56 354 -145 475 -197 353 -153 485 -202 931 -351 575 -192 878 -308 1192
-458 168 -79 268 -139 495 -297 113 -78 245 -169 293 -202 48 -33 128 -97 177
-142 49 -46 93 -83 97 -83 9 0 228 171 370 289 354 296 774 732 954 989 113
162 269 547 292 721 14 108 -82 412 -218 686 -41 83 -79 165 -86 182 -10 30
-13 32 -44 26 -53 -10 -100 -38 -195 -114 -124 -101 -174 -122 -282 -121 -48
0 -133 8 -191 17 -58 9 -208 25 -335 35 -917 78 -1038 90 -1075 108 -19 9 -69
49 -111 87 -133 122 -212 190 -284 244 -38 30 -95 77 -125 106 -30 28 -91 81
-135 117 -44 36 -89 76 -100 88 -11 12 -36 33 -55 45 -19 12 -87 68 -150 124
-63 57 -186 151 -274 209 -260 175 -328 232 -616 522 -433 434 -451 449 -1071
845 -349 223 -495 323 -569 392 -75 69 -141 150 -181 220 -23 42 -26 43 -75
43 -69 0 -145 24 -195 63 -25 19 -80 87 -133 164 -87 125 -133 183 -145 183
-3 0 -34 -26 -67 -58z m1246 -2892 l0 -150 65 0 c63 0 65 -1 65 -25 0 -24 -2
-25 -65 -25 l-65 0 0 -200 0 -200 -30 0 -30 0 0 375 0 375 30 0 30 0 0 -150z
m1598 -30 l-3 -160 58 0 c54 0 57 -1 57 -25 l0 -25 -165 0 -165 0 0 -180 0
-180 -30 0 -30 0 0 180 0 180 -155 0 -155 0 0 25 0 25 259 0 259 0 6 23 c3 12
6 73 6 135 l0 112 -210 0 -210 0 0 25 0 25 241 0 241 0 -4 -160z m-1778 -120
l0 -230 -180 0 -180 0 0 230 0 230 180 0 180 0 0 -230z m1020 205 l0 -25 -280
0 -280 0 0 25 0 25 280 0 280 0 0 -25z m-390 -117 c0 -29 3 -77 6 -105 l7 -53
97 0 97 0 7 53 c3 28 6 76 6 105 0 52 0 52 31 52 l31 0 -4 -105 -4 -105 63 0
c61 0 63 -1 63 -25 l0 -25 -130 0 -130 0 0 -85 0 -85 160 0 160 0 0 -25 0 -25
-350 0 -350 0 0 25 0 25 160 0 160 0 0 85 0 85 -130 0 -130 0 0 25 c0 24 2 25
63 25 l63 0 -4 105 -4 105 31 0 c31 0 31 0 31 -52z"/>
<path d="M10270 13410 l0 -180 120 0 120 0 0 180 0 180 -120 0 -120 0 0 -180z"/>
</g>
</svg>
