<?xml version="1.0" standalone="no"?>
<!DOCTYPE svg PUBLIC "-//W3C//DTD SVG 20010904//EN"
 "http://www.w3.org/TR/2001/REC-SVG-20010904/DTD/svg10.dtd">
<svg version="1.0" xmlns="http://www.w3.org/2000/svg"
 width="3445.000000pt" height="2700.000000pt" viewBox="0 0 3445.000000 2700.000000"
 preserveAspectRatio="xMidYMid meet">

<g transform="translate(0.000000,2700.000000) scale(0.100000,-0.100000)"
fill="#000000" stroke="none">
<path d="M10255 5761 c-22 -10 -98 -53 -170 -95 -235 -138 -254 -142 -855
-155 -250 -6 -526 -8 -612 -4 -105 4 -158 3 -158 -4 0 -19 66 -173 160 -378
190 -412 213 -463 267 -590 102 -237 168 -445 214 -665 18 -85 48 -277 49
-306 0 -7 46 -13 133 -17 162 -7 209 -19 252 -64 58 -60 94 -162 174 -495 16
-71 129 -442 250 -825 200 -637 320 -1025 384 -1238 l23 -80 155 -7 c85 -4
215 -14 289 -22 175 -20 367 -21 445 -1 33 8 139 54 235 100 105 51 204 92
247 102 l72 17 52 145 c92 260 184 415 297 506 67 53 176 108 248 124 64 15
168 94 172 131 1 14 -16 77 -39 140 -23 63 -51 151 -64 195 l-22 79 -180 55
c-160 48 -181 57 -191 80 -6 14 -49 68 -94 119 -114 129 -164 202 -177 259 -6
26 -18 113 -27 193 -8 80 -31 264 -50 410 -56 419 -111 874 -124 1010 -6 69
-16 152 -22 185 -13 70 -13 75 2 264 8 98 8 147 1 154 -6 6 -81 38 -168 73
l-158 62 -92 143 c-51 79 -94 147 -95 151 -2 4 -28 -1 -58 -13 -43 -16 -72
-20 -130 -17 -97 4 -166 36 -348 161 -138 95 -211 137 -234 137 -7 0 -31 -9
-53 -19z m5 -1206 l0 -45 85 0 c84 0 85 0 85 -25 0 -25 -1 -25 -85 -25 l-85 0
0 -45 c0 -26 6 -58 14 -74 20 -38 100 -110 143 -127 l35 -15 -22 -24 -23 -25
-40 23 c-22 12 -64 49 -93 81 -30 33 -54 55 -54 49 0 -19 -69 -98 -120 -137
l-51 -39 -26 26 -26 25 39 21 c52 27 86 57 123 110 25 36 31 54 31 98 l0 53
-85 0 c-84 0 -85 0 -85 25 0 25 1 25 90 25 l90 0 0 45 c0 43 1 45 30 45 29 0
30 -2 30 -45z m350 -230 l0 -275 -30 0 -30 0 0 140 0 140 -85 0 c-84 0 -85 0
-85 25 0 25 1 25 85 25 l85 0 0 110 0 110 30 0 30 0 0 -275z m-834 120 l-7
-135 61 0 c57 0 60 -1 60 -25 l0 -25 -350 0 -350 0 0 25 0 25 259 0 258 0 6
68 c4 37 7 86 7 110 l0 42 -210 0 -210 0 0 25 0 25 242 0 241 0 -7 -135z
m1602 -25 l-3 -160 58 0 c54 0 57 -1 57 -25 l0 -25 -165 0 -165 0 0 -180 0
-180 -30 0 -30 0 0 180 0 180 -155 0 -155 0 0 25 0 25 259 0 259 0 6 23 c3 12
6 73 6 135 l0 112 -210 0 -210 0 0 25 0 25 241 0 241 0 -4 -160z m-1598 -405
l0 -145 -235 0 -235 0 0 145 0 145 235 0 235 0 0 -145z m430 0 l0 -95 210 0
210 0 0 -25 0 -25 -245 0 -245 0 0 120 0 120 35 0 35 0 0 -95z"/>
<path d="M9370 4015 l0 -95 175 0 175 0 0 95 0 95 -175 0 -175 0 0 -95z"/>
</g>
</svg>
