<?xml version="1.0" standalone="no"?>
<!DOCTYPE svg PUBLIC "-//W3C//DTD SVG 20010904//EN"
 "http://www.w3.org/TR/2001/REC-SVG-20010904/DTD/svg10.dtd">
<svg version="1.0" xmlns="http://www.w3.org/2000/svg"
 width="3445.000000pt" height="2700.000000pt" viewBox="0 0 3445.000000 2700.000000"
 preserveAspectRatio="xMidYMid meet">

<g transform="translate(0.000000,2700.000000) scale(0.100000,-0.100000)"
fill="#000000" stroke="none">
<path d="M18057 20861 c-19 -21 -54 -72 -77 -112 -72 -124 -99 -157 -148 -186
l-47 -28 -210 -1 c-197 -1 -255 -6 -255 -22 1 -17 141 -113 255 -176 125 -67
128 -70 151 -122 50 -114 98 -271 175 -569 96 -375 150 -561 188 -658 16 -39
94 -214 173 -387 167 -364 200 -445 223 -555 22 -105 23 -263 2 -335 -9 -30
-41 -98 -72 -150 -31 -52 -74 -131 -95 -175 -22 -43 -47 -83 -56 -88 -23 -13
-343 -117 -359 -117 -18 0 -21 -12 -44 -175 -35 -257 -36 -242 7 -269 109 -68
254 -102 597 -141 396 -44 468 -60 704 -160 69 -29 158 -63 197 -75 l71 -21
76 -127 c71 -120 116 -202 322 -592 175 -332 316 -546 458 -697 l66 -69 258
-13 c142 -6 323 -21 402 -32 196 -26 323 -26 367 2 56 34 212 208 240 267 14
29 38 110 54 179 58 252 80 287 235 372 44 24 141 83 215 131 254 165 450 263
666 332 117 38 94 13 269 298 216 352 253 396 475 575 153 124 290 195 517
270 151 50 302 85 753 175 217 44 456 94 530 113 l135 33 7 384 c4 212 5 390
3 396 -9 29 -209 78 -460 114 -381 53 -471 88 -597 232 -30 35 -102 126 -159
203 -184 249 -515 665 -529 665 -3 0 -23 -28 -44 -62 -156 -248 -390 -629
-507 -823 -104 -173 -146 -235 -167 -244 -15 -7 -86 -46 -158 -87 -73 -42
-165 -87 -205 -101 -95 -34 -90 -33 -1041 -47 -656 -10 -626 -14 -844 106
l-110 61 -62 226 c-115 419 -240 862 -244 865 -1 2 -111 80 -243 173 -247 174
-339 238 -580 401 -77 53 -201 139 -275 192 -232 167 -265 182 -514 239 -157
36 -257 66 -306 91 -46 24 -115 97 -180 190 -58 83 -138 170 -156 170 -6 0
-27 -17 -47 -39z m2563 -3356 l0 -215 -30 0 -30 0 0 110 0 110 -90 0 c-89 0
-90 0 -90 25 0 25 1 25 90 25 l90 0 0 80 0 80 30 0 30 0 0 -215z m-370 135 c0
-40 7 -75 21 -105 22 -46 101 -127 144 -147 l25 -11 -21 -23 c-20 -21 -24 -22
-48 -9 -30 16 -97 77 -130 120 -18 23 -25 26 -29 15 -8 -23 -106 -123 -140
-142 -28 -17 -30 -17 -52 7 l-22 23 31 16 c48 25 99 75 128 123 20 34 27 63
31 119 5 74 5 74 33 74 29 0 29 -1 29 -60z m720 15 l0 -45 170 0 170 0 0 45
c0 43 1 45 30 45 l30 0 0 -135 0 -135 -230 0 -230 0 0 135 0 135 30 0 c29 0
30 -2 30 -45z m1208 -115 l-3 -160 58 0 c54 0 57 -1 57 -25 l0 -25 -165 0
-165 0 0 -180 0 -180 -30 0 -30 0 0 180 0 180 -155 0 -155 0 0 25 0 25 259 0
259 0 6 23 c3 12 6 73 6 135 l0 112 -210 0 -210 0 0 25 0 25 241 0 241 0 -4
-160z m-688 -205 l0 -25 -160 0 -160 0 0 -45 0 -45 105 0 105 0 0 -125 0 -125
-30 0 -30 0 0 100 0 100 -215 0 -215 0 0 25 0 25 110 0 110 0 0 45 0 45 -160
0 -160 0 0 25 0 25 350 0 350 0 0 -25z m-943 -83 c58 -30 83 -66 83 -117 0
-87 -74 -136 -216 -143 -169 -8 -274 46 -274 141 0 51 24 88 73 114 52 27 87
32 192 29 80 -2 108 -6 142 -24z"/>
<path d="M20970 17520 l0 -40 170 0 170 0 0 40 0 40 -170 0 -170 0 0 -40z"/>
<path d="M20303 17221 c-78 -20 -118 -72 -89 -115 29 -45 72 -60 171 -61 72 0
98 4 130 21 72 37 72 104 0 138 -41 20 -163 29 -212 17z"/>
<path d="M24574 128 c-5 -7 -16 -33 -25 -58 l-16 -45 -191 -5 c-104 -3 -194
-8 -198 -12 -4 -5 85 -8 199 -8 l206 0 20 67 c20 66 21 87 5 61z"/>
</g>
</svg>
