<?xml version="1.0" standalone="no"?>
<!DOCTYPE svg PUBLIC "-//W3C//DTD SVG 20010904//EN"
 "http://www.w3.org/TR/2001/REC-SVG-20010904/DTD/svg10.dtd">
<svg version="1.0" xmlns="http://www.w3.org/2000/svg"
 width="3445.000000pt" height="2700.000000pt" viewBox="0 0 3445.000000 2700.000000"
 preserveAspectRatio="xMidYMid meet">

<g transform="translate(0.000000,2700.000000) scale(0.100000,-0.100000)"
fill="#000000" stroke="none">
<path d="M25641 26909 c-79 -13 -129 -47 -212 -143 -109 -126 -291 -254 -459
-323 -41 -17 -155 -56 -252 -88 -101 -32 -202 -72 -235 -91 -65 -40 -128 -97
-148 -134 -20 -40 -35 -148 -45 -328 -21 -373 -34 -424 -198 -777 -125 -269
-146 -341 -157 -525 -3 -63 -15 -161 -26 -218 -25 -136 -25 -225 2 -299 12
-32 95 -208 185 -391 91 -183 176 -368 191 -410 23 -71 25 -86 20 -192 -3 -63
-24 -257 -46 -430 -22 -173 -47 -431 -56 -572 -16 -269 -35 -449 -56 -533 -6
-27 -36 -106 -66 -175 -141 -322 -143 -331 -163 -618 -11 -166 -40 -346 -58
-364 -12 -12 -150 -25 -349 -33 -103 -4 -173 -11 -173 -17 0 -17 227 -344 390
-563 230 -308 431 -558 743 -922 110 -130 145 -164 173 -172 48 -13 322 -72
629 -135 l259 -53 101 48 c55 26 201 90 325 142 124 52 284 123 355 157 376
178 482 205 870 215 94 2 197 6 230 9 33 2 182 6 330 9 272 5 308 9 445 52 25
8 64 19 88 25 35 9 42 15 42 35 0 13 9 39 20 58 l20 33 -31 30 c-80 74 -129
190 -129 301 0 77 34 159 102 245 81 103 120 123 270 139 156 16 172 22 220
82 92 116 197 287 204 333 15 100 -19 206 -106 334 -59 87 -97 175 -110 250
-6 36 -15 157 -20 270 -9 177 -28 333 -41 344 -12 10 -496 159 -556 171 -39 8
-174 19 -300 24 -267 11 -313 22 -372 86 -44 47 -145 208 -178 283 -36 81 -56
225 -57 413 l-1 165 55 83 54 84 -3 282 c-3 323 -3 322 76 373 26 17 93 50
148 72 117 49 189 85 227 113 28 21 28 21 23 111 -3 50 -7 174 -9 276 -5 274
4 255 -226 480 -143 141 -202 206 -245 272 -112 174 -133 259 -86 349 13 26
97 138 188 250 228 283 263 354 249 498 -5 58 -29 167 -38 176 -12 12 -179 46
-290 60 -326 39 -379 56 -527 168 -58 45 -230 163 -381 262 -151 100 -315 213
-365 250 -131 99 -147 105 -290 104 -66 -1 -145 -5 -174 -10z m449 -4224 l0
-295 -30 0 c-28 0 -30 2 -30 40 l0 40 -80 0 c-79 0 -80 0 -80 25 0 25 1 25 80
25 l80 0 0 230 0 230 30 0 30 0 0 -295z m-283 274 c28 -8 58 -25 79 -46 29
-29 34 -41 34 -81 0 -97 -63 -147 -185 -146 -82 0 -126 20 -162 74 -28 41 -29
85 -3 127 42 70 133 98 237 72z m1041 -159 l-5 -160 58 0 c56 0 59 -1 59 -25
l0 -25 -165 0 -165 0 0 -180 0 -180 -30 0 -30 0 0 180 0 180 -155 0 -155 0 0
25 0 25 263 2 262 3 3 133 3 132 -211 0 -210 0 0 25 0 25 241 0 242 0 -5 -160z
m-2018 -25 l0 -135 215 0 215 0 0 -25 0 -25 -110 0 -110 0 0 -100 0 -100 160
0 160 0 0 -25 0 -25 -350 0 -350 0 0 25 0 25 160 0 160 0 0 100 0 100 -105 0
-105 0 0 160 0 160 30 0 30 0 0 -135z m1150 -170 l0 -25 -105 0 -105 0 0 -85
0 -85 -30 0 -30 0 0 85 0 85 -110 -6 c-76 -5 -110 -4 -110 4 0 6 -3 17 -6 26
-5 14 19 16 213 19 120 1 233 3 251 5 28 2 32 -1 32 -23z m-320 -215 l0 -90
225 0 225 0 0 -25 0 -25 -255 0 -255 0 0 115 0 115 30 0 30 0 0 -90z"/>
<path d="M25662 22900 c-66 -40 -67 -104 -3 -147 93 -62 236 9 202 100 -24 62
-132 87 -199 47z"/>
</g>
</svg>
