<?xml version="1.0" standalone="no"?>
<!DOCTYPE svg PUBLIC "-//W3C//DTD SVG 20010904//EN"
 "http://www.w3.org/TR/2001/REC-SVG-20010904/DTD/svg10.dtd">
<svg version="1.0" xmlns="http://www.w3.org/2000/svg"
 width="3445.000000pt" height="2700.000000pt" viewBox="0 0 3445.000000 2700.000000"
 preserveAspectRatio="xMidYMid meet">

<g transform="translate(0.000000,2700.000000) scale(0.100000,-0.100000)"
fill="#000000" stroke="none">
<path d="M9029 8448 c-18 -24 -60 -102 -94 -173 -123 -258 -201 -383 -267
-431 -30 -23 -39 -24 -187 -24 -86 0 -230 -7 -321 -15 -296 -26 -343 -20 -535
67 -60 28 -121 54 -134 57 -14 4 -28 14 -32 22 -5 7 -47 120 -95 249 -48 129
-90 238 -93 242 -3 3 -145 8 -316 10 -359 4 -333 9 -460 -102 -44 -39 -125
-102 -180 -140 -55 -38 -152 -113 -215 -166 -114 -96 -222 -172 -277 -196 -19
-9 -124 -15 -333 -19 -168 -4 -326 -10 -351 -14 -42 -6 -49 -4 -73 22 -28 29
-105 181 -147 290 -19 50 -29 63 -49 68 -141 30 -547 82 -557 71 -4 -4 21 -33
55 -65 34 -31 62 -64 62 -72 0 -27 -48 -224 -75 -309 -49 -154 -146 -384 -159
-375 -3 3 -4 2 -1 -2 7 -8 -135 -279 -271 -518 -163 -288 -174 -308 -174 -340
0 -58 90 -235 318 -625 155 -267 157 -297 28 -499 -26 -40 -97 -169 -158 -285
-266 -509 -337 -643 -358 -678 -12 -21 -18 -38 -13 -38 5 0 62 -6 128 -14 291
-35 311 -34 625 44 350 87 419 89 610 20 158 -57 210 -67 399 -80 179 -12 354
-2 420 26 21 9 80 60 141 123 98 102 319 299 448 401 31 25 95 84 142 131 74
75 157 150 374 338 28 24 74 61 102 82 66 49 80 85 94 240 13 158 23 191 75
265 86 120 163 189 266 238 161 76 322 144 372 157 62 15 99 5 227 -63 52 -28
138 -73 190 -101 221 -117 225 -123 225 -392 1 -104 2 -209 3 -232 4 -75 -8
-73 365 -73 404 0 931 16 1011 31 90 16 154 43 281 120 64 38 136 79 159 91
l44 21 -5 196 c-3 108 -9 203 -13 211 -8 15 -11 97 -14 420 -2 190 -10 212
-125 325 -77 76 -79 78 -86 139 -10 89 -42 274 -71 406 -39 175 -132 509 -157
560 -28 56 -92 101 -225 155 -96 39 -135 59 -367 181 -66 35 -126 64 -132 64
-7 0 -27 -19 -44 -42z m-3541 -1198 l-3 -160 58 0 c54 0 57 -1 57 -25 l0 -25
-165 0 -165 0 0 -180 0 -180 -30 0 -30 0 0 180 0 180 -155 0 -155 0 0 25 0 25
259 0 259 0 6 23 c3 12 6 73 6 135 l0 112 -210 0 -210 0 0 25 0 25 241 0 241
0 -4 -160z m1600 0 l-3 -160 58 0 c54 0 57 -1 57 -25 l0 -25 -165 0 -165 0 0
-180 0 -180 -30 0 -30 0 0 180 0 180 -155 0 -155 0 0 25 0 25 259 0 259 0 6
23 c3 12 6 73 6 135 l0 112 -210 0 -210 0 0 25 0 25 241 0 241 0 -4 -160z
m-798 5 l0 -105 -210 0 -210 0 0 -60 0 -60 220 0 220 0 0 -25 0 -25 -115 0
-115 0 0 -70 0 -70 160 0 160 0 0 -25 0 -25 -350 0 -350 0 0 25 0 25 160 0
160 0 0 70 0 70 -110 0 -110 0 0 110 0 110 215 0 215 0 0 55 0 55 -210 0 -210
0 0 25 0 25 240 0 240 0 0 -105z"/>
</g>
</svg>
