<?xml version="1.0" standalone="no"?>
<!DOCTYPE svg PUBLIC "-//W3C//DTD SVG 20010904//EN"
 "http://www.w3.org/TR/2001/REC-SVG-20010904/DTD/svg10.dtd">
<svg version="1.0" xmlns="http://www.w3.org/2000/svg"
 width="3445.000000pt" height="2700.000000pt" viewBox="0 0 3445.000000 2700.000000"
 preserveAspectRatio="xMidYMid meet">

<g transform="translate(0.000000,2700.000000) scale(0.100000,-0.100000)"
fill="#000000" stroke="none">
<path d="M14803 22926 c-45 -66 -112 -159 -150 -206 -87 -109 -338 -362 -383
-386 -31 -17 -63 -19 -275 -22 -199 -3 -252 -1 -313 14 -142 33 -218 1 -309
-129 -130 -184 -167 -204 -348 -192 -114 7 -1027 33 -1033 29 -14 -9 -203
-1981 -217 -2254 -10 -206 -13 -217 -53 -262 -20 -22 -68 -62 -107 -88 -38
-26 -80 -58 -93 -70 l-23 -22 6 -391 c4 -216 7 -684 8 -1042 l2 -650 -23 -75
c-41 -128 -132 -286 -219 -381 -79 -85 -362 -357 -456 -439 l-38 -33 -232 6
c-335 10 -573 44 -769 111 -54 18 -94 28 -90 22 30 -48 157 -210 187 -239 49
-47 112 -76 186 -84 74 -7 99 -29 188 -162 90 -133 151 -182 466 -368 94 -56
226 -140 295 -188 268 -187 435 -294 444 -284 2 2 18 90 35 195 42 256 50 282
109 335 26 23 99 91 162 150 150 140 233 210 278 233 34 18 71 20 637 28 330
4 609 10 620 13 46 12 201 250 277 426 l42 97 100 27 c101 28 426 136 586 194
l85 31 54 160 c89 265 182 428 283 498 60 41 332 177 398 199 60 19 196 24
286 10 l51 -9 7 654 c7 597 9 658 26 710 11 32 28 115 40 185 53 331 56 339
140 423 37 36 105 100 153 143 129 117 266 284 401 490 51 78 57 93 51 124 -6
31 2 47 94 184 128 190 145 240 136 391 -4 56 -8 256 -9 443 -1 187 -5 350
-10 362 -11 34 -94 103 -239 199 -72 48 -271 194 -442 324 -287 219 -820 619
-890 667 l-30 21 -82 -122z m-1083 -3576 l0 -220 -30 0 -30 0 0 70 0 70 -70 0
c-68 0 -70 1 -70 25 0 24 2 25 70 25 l70 0 0 35 0 35 -70 0 c-68 0 -70 1 -70
25 0 24 2 25 70 25 l70 0 0 65 0 65 30 0 30 0 0 -220z m-963 185 c90 -27 139
-107 110 -178 -29 -69 -109 -107 -225 -107 -127 0 -211 44 -232 120 -19 71 33
144 120 168 54 15 171 14 227 -3z m1721 -145 l-3 -160 58 0 c54 0 57 -1 57
-25 l0 -25 -165 0 -165 0 0 -180 0 -180 -30 0 -30 0 0 180 0 180 -155 0 -155
0 0 25 0 25 259 0 259 0 6 23 c3 12 6 73 6 135 l0 112 -210 0 -210 0 0 25 0
25 241 0 241 0 -4 -160z m-928 115 l0 -25 -205 0 -205 0 0 25 0 25 205 0 205
0 0 -25z m-276 -101 c3 -26 6 -78 6 -115 l0 -69 60 0 60 0 0 38 c0 22 3 73 6
115 7 77 7 77 36 77 l29 0 -7 -116 -7 -115 62 7 c60 7 61 6 61 -19 0 -14 -7
-28 -16 -31 -9 -3 -112 -6 -230 -6 l-214 0 0 25 c0 23 3 25 51 25 l52 0 -6
115 -5 115 27 0 c26 0 29 -4 35 -46z m-284 -249 l0 -25 -350 0 -350 0 0 25 0
25 350 0 350 0 0 -25z m627 -60 c66 -20 113 -70 113 -122 0 -52 -59 -107 -133
-123 -86 -20 -224 -9 -283 21 -121 62 -100 181 39 225 58 18 202 17 264 -1z
m-1147 -125 l0 -80 210 0 210 0 0 -25 0 -25 -240 0 -240 0 0 105 0 105 30 0
30 0 0 -80z"/>
<path d="M12563 19491 c-103 -26 -126 -117 -43 -165 28 -17 52 -21 120 -21 68
0 92 4 120 21 64 37 66 110 3 146 -36 22 -149 32 -200 19z"/>
<path d="M13397 19051 c-92 -19 -122 -85 -59 -127 57 -39 195 -43 279 -9 67
28 65 93 -4 121 -43 18 -162 26 -216 15z"/>
</g>
</svg>
