<?xml version="1.0" standalone="no"?>
<!DOCTYPE svg PUBLIC "-//W3C//DTD SVG 20010904//EN"
 "http://www.w3.org/TR/2001/REC-SVG-20010904/DTD/svg10.dtd">
<svg version="1.0" xmlns="http://www.w3.org/2000/svg"
 width="3445.000000pt" height="2700.000000pt" viewBox="0 0 3445.000000 2700.000000"
 preserveAspectRatio="xMidYMid meet">

<g transform="translate(0.000000,2700.000000) scale(0.100000,-0.100000)"
fill="#000000" stroke="none">
<path d="M22305 14068 c-5 -5 -25 -18 -43 -29 -18 -10 -54 -49 -80 -86 -26
-37 -61 -82 -78 -100 l-32 -33 -138 0 c-222 0 -271 16 -424 133 -34 26 -68 47
-76 47 -11 0 -14 -22 -15 -97 -1 -54 -3 -123 -5 -153 -2 -30 -7 -143 -11 -250
l-8 -195 -99 -160 c-124 -201 -152 -235 -300 -365 -65 -58 -151 -134 -190
-170 -39 -36 -92 -83 -118 -104 -53 -42 -83 -91 -238 -386 -57 -107 -133 -246
-171 -308 l-68 -114 78 -261 c43 -144 114 -383 156 -532 43 -148 81 -273 84
-277 3 -3 62 5 131 18 420 79 664 98 1145 90 438 -7 568 -17 735 -57 373 -88
609 -185 1340 -548 335 -167 386 -189 392 -174 12 34 101 329 135 448 28 97
37 154 48 298 18 241 20 245 225 447 172 169 232 250 333 447 135 264 216 528
322 1048 25 121 47 230 50 241 4 20 -9 27 -133 74 -75 29 -249 90 -387 135
-223 74 -431 137 -1175 357 l-214 64 -43 124 c-24 69 -64 184 -90 257 l-48
132 -50 6 c-27 3 -245 12 -484 20 -238 9 -436 17 -440 19 -3 2 -10 -1 -16 -6z
m-65 -1843 l0 -215 -30 0 -30 0 0 110 0 110 -90 0 c-89 0 -90 0 -90 25 0 25 1
25 90 25 l90 0 0 80 0 80 30 0 30 0 0 -215z m-370 135 c0 -40 7 -75 21 -105
22 -46 101 -127 144 -147 l25 -11 -21 -23 c-20 -21 -24 -22 -48 -9 -30 16 -97
77 -130 120 -18 23 -25 26 -29 15 -8 -23 -106 -123 -140 -142 -28 -17 -30 -17
-52 7 l-22 23 31 16 c48 25 99 75 128 123 20 34 27 63 31 119 5 74 5 74 33 74
29 0 29 -1 29 -60z m1130 35 l0 -25 -205 0 -205 0 0 -70 0 -70 210 0 210 0 0
-25 0 -25 -110 0 -110 0 0 -50 0 -50 160 0 160 0 0 -25 0 -25 -350 0 -350 0 0
25 0 25 160 0 160 0 0 50 0 50 -100 0 -100 0 0 120 0 120 235 0 235 0 0 -25z
m798 -135 l-3 -160 58 0 c54 0 57 -1 57 -25 l0 -25 -165 0 -165 0 0 -180 0
-180 -30 0 -30 0 0 180 0 180 -155 0 -155 0 0 25 0 25 259 0 259 0 6 23 c3 12
6 73 6 135 l0 112 -210 0 -210 0 0 25 0 25 241 0 241 0 -4 -160z m-1631 -288
c58 -30 83 -66 83 -117 0 -87 -74 -136 -216 -143 -169 -8 -274 46 -274 141 0
51 24 88 73 114 52 27 87 32 192 29 80 -2 108 -6 142 -24z m758 -19 c60 -31
80 -58 80 -108 0 -50 -20 -76 -80 -109 -35 -18 -56 -21 -165 -21 -111 0 -130
3 -168 23 -102 55 -106 158 -7 210 51 26 86 31 195 28 82 -2 114 -7 145 -23z"/>
<path d="M21923 11941 c-78 -20 -118 -72 -89 -115 29 -45 72 -60 171 -61 72 0
98 4 130 21 72 37 72 104 0 138 -41 20 -163 29 -212 17z"/>
<path d="M22656 11916 c-74 -21 -99 -73 -57 -115 42 -42 212 -52 295 -17 62
26 61 97 -2 123 -51 21 -176 26 -236 9z"/>
</g>
</svg>
