<?xml version="1.0" standalone="no"?>
<!DOCTYPE svg PUBLIC "-//W3C//DTD SVG 20010904//EN"
 "http://www.w3.org/TR/2001/REC-SVG-20010904/DTD/svg10.dtd">
<svg version="1.0" xmlns="http://www.w3.org/2000/svg"
 width="3445.000000pt" height="2700.000000pt" viewBox="0 0 3445.000000 2700.000000"
 preserveAspectRatio="xMidYMid meet">

<g transform="translate(0.000000,2700.000000) scale(0.100000,-0.100000)"
fill="#000000" stroke="none">
<path d="M21500 26990 c-362 -7 -414 -13 -625 -65 -122 -30 -197 -58 -206 -76
-4 -8 -26 -57 -49 -109 -123 -273 -130 -303 -130 -550 0 -216 -15 -375 -40
-444 -26 -68 -82 -121 -145 -137 -25 -6 -45 -14 -45 -18 0 -41 39 -241 80
-412 73 -305 86 -405 72 -549 -6 -63 -24 -182 -38 -265 -26 -145 -27 -164 -28
-545 l-1 -395 -53 -159 c-58 -175 -71 -253 -53 -336 12 -52 17 -58 98 -125 47
-38 138 -120 202 -180 64 -61 150 -139 191 -174 41 -35 127 -112 190 -170 173
-160 171 -160 438 -190 244 -27 265 -38 442 -223 74 -78 298 -306 496 -507
376 -380 584 -600 839 -885 l150 -168 110 6 c61 3 180 9 266 12 l156 7 11 76
c7 42 19 153 27 246 24 265 37 325 106 492 136 330 142 363 174 848 18 273 13
235 71 660 53 395 54 437 4 565 -19 47 -112 241 -209 433 l-175 347 -4 83 c-3
55 3 119 16 197 12 63 24 147 27 185 10 112 25 216 40 266 18 61 82 220 140
343 150 322 165 387 185 776 6 113 13 217 16 233 l6 27 -114 0 c-177 0 -261
27 -458 147 -193 118 -164 110 -436 122 -131 6 -349 11 -484 11 -406 0 -419 9
-460 295 -24 174 -48 238 -105 281 l-38 29 -156 1 c-86 0 -311 -2 -501 -6z
m550 -2395 l0 -45 170 0 170 0 0 45 c0 43 1 45 30 45 l30 0 0 -135 0 -135
-100 0 -100 0 0 -35 0 -35 160 0 160 0 0 -25 0 -25 -350 0 -350 0 0 25 0 25
160 0 160 0 0 35 0 35 -100 0 -100 0 0 135 0 135 30 0 c29 0 30 -2 30 -45z
m1208 -115 l-3 -160 58 0 c54 0 57 -1 57 -25 l0 -25 -165 0 -165 0 0 -180 0
-180 -30 0 -30 0 0 180 0 180 -155 0 -155 0 0 25 0 25 259 0 259 0 6 23 c3 12
6 73 6 135 l0 112 -210 0 -210 0 0 25 0 25 241 0 241 0 -4 -160z m-1608 85 l0
-25 -200 0 -200 0 0 -120 0 -120 210 0 210 0 0 -25 0 -25 -110 0 -110 0 0 -90
0 -90 160 0 160 0 0 -25 0 -25 -350 0 -350 0 0 25 0 25 160 0 160 0 0 90 0 90
-100 0 -100 0 0 170 0 170 230 0 230 0 0 -25z m737 -403 c52 -27 73 -56 73
-102 0 -46 -21 -75 -73 -103 -37 -19 -57 -22 -167 -22 -110 0 -130 3 -167 22
-52 28 -73 57 -73 103 0 43 21 75 63 97 56 29 80 32 192 30 90 -2 117 -7 152
-25z"/>
<path d="M22050 24460 l0 -40 170 0 170 0 0 40 0 40 -170 0 -170 0 0 -40z"/>
<path d="M22130 24131 c-71 -15 -99 -46 -85 -91 12 -39 61 -54 175 -54 80 0
113 4 137 17 55 29 56 85 2 113 -34 17 -176 27 -229 15z"/>
</g>
</svg>
