<?xml version="1.0" standalone="no"?>
<!DOCTYPE svg PUBLIC "-//W3C//DTD SVG 20010904//EN"
 "http://www.w3.org/TR/2001/REC-SVG-20010904/DTD/svg10.dtd">
<svg version="1.0" xmlns="http://www.w3.org/2000/svg"
 width="3445.000000pt" height="2700.000000pt" viewBox="0 0 3445.000000 2700.000000"
 preserveAspectRatio="xMidYMid meet">

<g transform="translate(0.000000,2700.000000) scale(0.100000,-0.100000)"
fill="#000000" stroke="none">
<path d="M15145 17671 c-88 -26 -106 -35 -239 -110 -67 -38 -131 -71 -142 -75
-59 -18 -241 -365 -304 -578 l-23 -77 -71 -25 c-39 -13 -152 -53 -251 -89 -99
-35 -242 -82 -317 -103 -76 -21 -138 -42 -138 -47 0 -5 -24 -60 -54 -122 -68
-143 -145 -262 -225 -347 l-61 -66 -113 -7 c-61 -4 -345 -10 -629 -13 l-516
-7 -84 -79 c-46 -43 -114 -108 -153 -145 -38 -37 -96 -86 -127 -109 -100 -73
-118 -111 -158 -332 -49 -275 -42 -289 242 -517 69 -57 180 -153 245 -215 329
-312 508 -459 768 -631 72 -47 167 -118 211 -159 84 -76 242 -210 354 -301 35
-28 76 -63 90 -76 14 -13 54 -48 90 -79 36 -31 101 -91 145 -133 118 -115 181
-138 415 -154 113 -8 578 -51 1030 -95 l325 -32 81 55 c44 31 193 120 330 198
137 78 283 165 324 192 148 99 263 206 340 316 l23 34 -44 39 c-24 21 -114 93
-199 160 -175 137 -235 187 -329 274 -36 33 -91 81 -121 107 -42 35 -60 58
-72 94 -9 26 -40 102 -69 168 -49 108 -54 127 -54 190 1 60 7 84 44 170 57
133 404 1163 402 1195 -2 36 -102 426 -158 620 l-49 165 -149 55 c-83 31 -184
74 -225 96 l-75 40 0 281 0 282 -29 5 c-60 12 -221 5 -281 -13z m-2085 -2446
l0 -375 -30 0 -30 0 0 225 0 225 -90 0 c-89 0 -90 0 -90 25 0 25 1 25 90 25
l90 0 0 125 0 125 30 0 30 0 0 -375z m810 0 l0 -375 -30 0 -30 0 0 195 0 195
-45 0 -45 0 0 -185 0 -185 -30 0 -30 0 0 355 0 355 30 0 30 0 0 -145 0 -145
45 0 45 0 0 155 0 155 30 0 30 0 0 -375z m740 220 l0 -135 -230 0 -230 0 0
135 0 135 230 0 230 0 0 -135z m808 -25 l-3 -160 58 0 c54 0 57 -1 57 -25 l0
-25 -165 0 -165 0 0 -180 0 -180 -30 0 -30 0 0 180 0 180 -155 0 -155 0 0 25
0 25 259 0 259 0 6 23 c3 12 6 73 6 135 l0 112 -210 0 -210 0 0 25 0 25 241 0
241 0 -4 -160z m-2728 66 c0 -146 40 -246 136 -342 l62 -60 -19 -25 -19 -24
-65 67 c-35 37 -77 90 -93 118 l-29 51 -23 -43 c-28 -55 -94 -141 -133 -174
l-30 -25 -23 22 -23 21 63 62 c41 41 75 86 97 131 31 63 34 79 38 177 l3 108
29 0 c29 0 29 0 29 -64z m880 19 l0 -25 -115 0 -115 0 0 -192 0 -191 129 6
129 7 4 -24 c4 -21 1 -24 -40 -30 -25 -3 -98 -6 -163 -6 l-119 0 0 240 0 240
145 0 145 0 0 -25z m1160 -310 l0 -25 -160 0 -160 0 0 -80 0 -80 -30 0 -30 0
0 80 0 80 -160 0 -160 0 0 25 0 25 350 0 350 0 0 -25z m-530 -185 l0 -90 215
0 215 0 0 -25 0 -25 -245 0 -245 0 0 115 0 115 30 0 30 0 0 -90z"/>
<path d="M14210 15445 l0 -85 170 0 170 0 0 85 0 85 -170 0 -170 0 0 -85z"/>
</g>
</svg>
