<?xml version="1.0" standalone="no"?>
<!DOCTYPE svg PUBLIC "-//W3C//DTD SVG 20010904//EN"
 "http://www.w3.org/TR/2001/REC-SVG-20010904/DTD/svg10.dtd">
<svg version="1.0" xmlns="http://www.w3.org/2000/svg"
 width="3445.000000pt" height="2700.000000pt" viewBox="0 0 3445.000000 2700.000000"
 preserveAspectRatio="xMidYMid meet">

<g transform="translate(0.000000,2700.000000) scale(0.100000,-0.100000)"
fill="#000000" stroke="none">
<path d="M28867 11333 c-31 -50 -64 -108 -154 -278 -171 -319 -209 -373 -448
-630 -82 -88 -219 -239 -304 -336 -86 -97 -253 -286 -372 -420 -218 -246 -334
-364 -386 -393 -124 -69 -232 -100 -487 -141 -88 -15 -210 -35 -271 -47 -143
-26 -223 -29 -805 -31 -422 -2 -496 0 -570 15 -46 9 -85 16 -85 15 -2 -3 24
-1245 27 -1307 3 -47 18 -84 108 -260 127 -249 152 -278 385 -432 205 -136
298 -187 525 -291 102 -47 240 -113 307 -146 172 -87 271 -109 678 -156 251
-29 379 -48 484 -70 40 -8 74 -15 76 -15 7 0 208 -175 225 -194 8 -10 37 -86
65 -170 l50 -151 55 -36 c30 -20 150 -89 265 -154 116 -64 267 -151 338 -193
l127 -75 19 -61 c27 -88 48 -198 71 -381 47 -357 66 -409 210 -576 213 -245
433 -576 601 -903 l77 -149 57 98 c32 54 101 188 155 299 53 110 111 215 127
233 49 52 114 65 316 62 95 -1 226 1 292 6 l120 8 55 42 c30 24 71 59 90 80
39 40 38 35 29 260 -3 89 -3 92 50 227 99 256 119 274 345 313 172 31 212 43
230 70 8 12 51 62 96 111 46 48 97 111 116 138 40 62 69 164 84 299 40 355 53
417 117 539 44 83 147 185 236 230 34 17 105 46 157 64 l95 31 0 151 c0 111
-3 154 -13 164 -9 9 -46 13 -120 13 -90 0 -121 5 -192 28 -46 16 -238 66 -425
112 -469 115 -610 169 -755 284 -112 90 -120 111 -100 268 21 172 -1 225 -130
313 -30 21 -64 47 -75 60 -47 52 -6 153 141 350 242 323 373 514 362 526 -3 2
-40 9 -84 14 -171 21 -301 75 -443 184 l-98 73 -119 7 c-167 10 -320 25 -382
37 -51 10 -55 13 -97 79 -25 37 -94 169 -155 293 -126 258 -135 269 -312 374
-162 97 -218 148 -218 200 0 12 25 71 55 130 96 187 181 407 209 547 32 151
17 322 -35 416 l-20 35 -143 3 c-78 1 -154 6 -167 10 -14 4 -58 43 -97 88 -39
45 -87 93 -106 108 l-35 27 -24 -38z m-207 -3433 l0 -150 65 0 c63 0 65 -1 65
-25 0 -24 -2 -25 -65 -25 l-65 0 0 -200 0 -200 -30 0 -30 0 0 375 0 375 30 0
30 0 0 -150z m-1010 104 c0 -59 149 -164 233 -164 38 0 51 -14 36 -39 -17 -26
-31 -26 -105 -1 -63 22 -122 57 -166 98 l-27 25 -43 -37 c-49 -42 -145 -91
-199 -101 -31 -6 -39 -3 -53 16 -18 26 -8 39 31 39 82 0 233 106 233 163 0 23
4 27 30 27 26 0 30 -4 30 -26z m1808 -134 l-3 -160 58 0 c54 0 57 -1 57 -25
l0 -25 -165 0 -165 0 0 -180 0 -180 -30 0 -30 0 0 180 0 180 -155 0 -155 0 0
25 0 25 259 0 259 0 6 23 c3 12 6 73 6 135 l0 112 -210 0 -210 0 0 25 0 25
241 0 241 0 -4 -160z m-938 85 l0 -25 -215 0 -215 0 0 25 0 25 215 0 215 0 0
-25z m-290 -179 c0 -56 3 -131 6 -165 l7 -61 62 0 62 0 6 107 c4 58 7 132 7
165 l0 58 32 0 31 0 -6 -166 -7 -167 65 7 c64 6 65 6 65 -18 0 -13 -7 -27 -16
-30 -9 -3 -121 -6 -250 -6 l-234 0 0 25 c0 24 3 25 55 25 l55 0 0 165 0 165
30 0 30 0 0 -104z m-580 -21 l0 -55 160 0 160 0 0 -25 0 -25 -350 0 -350 0 0
25 0 25 160 0 160 0 0 55 c0 54 0 55 30 55 30 0 30 -1 30 -55z m97 -180 c28
-8 65 -28 82 -44 26 -24 31 -37 31 -74 0 -37 -5 -51 -31 -76 -39 -39 -113 -61
-209 -61 -96 0 -170 22 -209 61 -26 25 -31 39 -31 76 0 37 5 50 31 74 17 16
52 35 78 43 62 19 195 20 258 1z"/>
<path d="M27525 7529 c-47 -11 -85 -44 -85 -74 0 -60 122 -99 246 -78 103 18
144 72 92 121 -41 37 -161 52 -253 31z"/>
</g>
</svg>
