<?xml version="1.0" standalone="no"?>
<!DOCTYPE svg PUBLIC "-//W3C//DTD SVG 20010904//EN"
 "http://www.w3.org/TR/2001/REC-SVG-20010904/DTD/svg10.dtd">
<svg version="1.0" xmlns="http://www.w3.org/2000/svg"
 width="3445.000000pt" height="2700.000000pt" viewBox="0 0 3445.000000 2700.000000"
 preserveAspectRatio="xMidYMid meet">

<g transform="translate(0.000000,2700.000000) scale(0.100000,-0.100000)"
fill="#000000" stroke="none">
<path d="M13310 8834 c-169 -220 -330 -472 -474 -744 -37 -69 -86 -161 -111
-205 -24 -44 -50 -102 -56 -130 -6 -27 -14 -165 -19 -305 -9 -306 -10 -311
-159 -610 -54 -107 -102 -209 -108 -227 -13 -36 -18 -38 -268 -78 -270 -44
-462 -84 -524 -109 -76 -31 -125 -65 -246 -170 -53 -47 -101 -86 -106 -86 -5
0 -14 -11 -19 -24 -8 -22 -90 -489 -90 -515 0 -16 86 -5 168 21 35 11 134 63
220 115 276 168 323 184 603 203 282 18 351 30 441 76 59 30 67 43 129 195 56
136 87 194 125 230 25 24 28 24 232 25 114 0 551 4 972 9 l765 8 126 -36 c70
-20 209 -65 310 -101 101 -35 264 -92 361 -126 l177 -62 65 -202 c96 -300 112
-356 151 -537 71 -336 94 -371 340 -536 77 -51 199 -135 271 -186 l132 -94
233 -7 c314 -9 369 1 636 121 61 27 102 51 100 57 -17 44 -49 176 -62 256 -65
400 13 1029 190 1525 26 72 51 144 57 161 10 29 3 46 -104 250 -155 294 -183
341 -210 347 -13 4 -122 11 -243 17 -209 10 -290 16 -326 26 -20 5 -54 106
-98 284 -17 69 -35 135 -40 146 -11 24 -45 31 -343 64 -211 24 -255 32 -339
60 -173 58 -261 130 -721 593 l-398 400 -37 -7 c-133 -22 -232 -26 -708 -28
-355 -1 -568 2 -645 10 -63 7 -151 14 -195 17 l-80 6 -75 -97z m1660 -1214 l0
-100 60 0 c57 0 60 -1 60 -25 0 -24 -3 -25 -60 -25 l-60 0 0 -90 0 -90 -30 0
-30 0 0 215 0 215 30 0 30 0 0 -100z m-800 55 l0 -25 -205 0 -205 0 0 -70 0
-70 210 0 210 0 0 -25 0 -25 -110 0 -110 0 0 -50 0 -50 160 0 160 0 0 -25 0
-25 -350 0 -350 0 0 25 0 25 160 0 160 0 0 50 0 50 -100 0 -100 0 0 120 0 120
235 0 235 0 0 -25z m1598 -135 l-3 -160 58 0 c54 0 57 -1 57 -25 l0 -25 -165
0 -165 0 0 -180 0 -180 -30 0 -30 0 0 180 0 180 -155 0 -155 0 0 25 0 25 259
0 259 0 6 23 c3 12 6 73 6 135 l0 112 -210 0 -210 0 0 25 0 25 241 0 241 0 -4
-160z m-968 125 c0 -25 -1 -25 -85 -25 -95 0 -95 0 -74 -74 13 -47 88 -130
142 -158 l39 -19 -22 -24 c-19 -20 -26 -22 -44 -13 -42 22 -89 63 -121 105
l-33 43 -21 -33 c-23 -37 -105 -118 -138 -135 -17 -9 -24 -7 -43 13 l-22 23
24 12 c87 46 168 153 168 223 l0 37 -80 0 c-79 0 -80 0 -80 25 l0 25 195 0
195 0 0 -25z m-705 -432 c60 -31 80 -58 80 -108 0 -50 -20 -76 -80 -109 -35
-18 -56 -21 -165 -21 -111 0 -130 3 -168 23 -102 55 -106 158 -7 210 51 26 86
31 195 28 82 -2 114 -7 145 -23z m875 -123 l0 -140 -30 0 -30 0 0 115 0 115
-210 0 -210 0 0 25 0 25 240 0 240 0 0 -140z"/>
<path d="M13826 7196 c-74 -21 -99 -73 -57 -115 42 -42 212 -52 295 -17 62 26
61 97 -2 123 -51 21 -176 26 -236 9z"/>
</g>
</svg>
