<?xml version="1.0" standalone="no"?>
<!DOCTYPE svg PUBLIC "-//W3C//DTD SVG 20010904//EN"
 "http://www.w3.org/TR/2001/REC-SVG-20010904/DTD/svg10.dtd">
<svg version="1.0" xmlns="http://www.w3.org/2000/svg"
 width="3445.000000pt" height="2700.000000pt" viewBox="0 0 3445.000000 2700.000000"
 preserveAspectRatio="xMidYMid meet">

<g transform="translate(0.000000,2700.000000) scale(0.100000,-0.100000)"
fill="#000000" stroke="none">
<path d="M9090 12318 c0 -103 20 -221 55 -315 36 -101 433 -892 491 -978 25
-38 63 -90 83 -115 34 -41 38 -52 43 -120 4 -42 14 -125 24 -185 24 -152 17
-193 -44 -254 -26 -26 -89 -73 -141 -106 -51 -33 -185 -127 -296 -210 l-203
-150 -7 -210 c-3 -115 -5 -416 -3 -669 l3 -459 356 -181 c195 -99 365 -188
377 -196 16 -12 37 -73 96 -285 41 -148 82 -310 90 -360 8 -49 24 -147 36
-217 29 -185 46 -222 147 -330 47 -51 92 -107 100 -126 8 -20 14 -67 14 -111
0 -42 2 -103 4 -136 2 -33 9 -220 15 -415 7 -195 13 -355 14 -356 14 -11 322
-195 408 -244 l118 -68 86 27 c70 22 89 32 96 52 18 46 36 165 48 307 12 158
30 240 61 283 30 43 149 140 161 133 6 -4 8 -2 4 4 -8 13 132 117 199 147 72
32 203 60 415 89 102 14 229 33 283 43 l98 16 33 66 c155 307 236 629 253 996
l6 140 45 90 c128 258 305 542 554 892 59 84 108 156 108 162 0 5 -83 58 -185
117 -308 179 -417 275 -504 443 -89 173 -142 361 -211 741 -58 325 -92 494
-100 503 -4 4 -67 25 -141 47 -368 106 -714 241 -1395 545 -126 57 -317 138
-424 180 -233 92 -327 138 -442 217 -75 51 -354 269 -368 288 -27 36 -379 308
-437 339 -23 12 -23 12 -23 -71z m820 -2943 l0 -215 -30 0 c-30 0 -30 1 -30
55 l0 55 -75 0 c-68 0 -79 -3 -120 -32 -35 -25 -58 -33 -104 -36 -75 -5 -119
9 -165 55 -73 73 -71 189 5 258 22 20 51 40 65 45 64 25 186 0 223 -43 10 -13
31 -17 92 -17 l79 0 0 45 c0 43 1 45 30 45 l30 0 0 -215z m750 170 l0 -25
-200 0 -200 0 0 -75 0 -75 205 0 205 0 0 -25 0 -25 -235 0 -235 0 0 125 0 125
230 0 230 0 0 -25z m1608 -135 l-3 -160 58 0 c54 0 57 -1 57 -25 l0 -25 -165
0 -165 0 0 -180 0 -180 -30 0 -30 0 0 180 0 180 -155 0 -155 0 0 25 0 25 259
0 259 0 6 23 c3 12 6 73 6 135 l0 112 -210 0 -210 0 0 25 0 25 241 0 241 0 -4
-160z m-758 85 l0 -25 -280 0 -280 0 0 25 0 25 280 0 280 0 0 -25z m-390 -117
c0 -29 3 -77 6 -105 l7 -53 97 0 97 0 7 53 c3 28 6 76 6 105 0 52 0 52 31 52
l31 0 -4 -105 -4 -105 63 0 c61 0 63 -1 63 -25 l0 -25 -130 0 -130 0 0 -85 0
-85 160 0 160 0 0 -25 0 -25 -350 0 -350 0 0 25 0 25 160 0 160 0 0 85 0 85
-130 0 -130 0 0 25 c0 24 2 25 63 25 l63 0 -4 105 -4 105 31 0 c31 0 31 0 31
-52z m-340 -163 l0 -25 -350 0 -350 0 0 25 0 25 350 0 350 0 0 -25z m-937 -94
c115 -56 115 -176 1 -232 -35 -16 -72 -24 -132 -27 -115 -6 -180 10 -233 57
-39 34 -42 41 -42 86 0 45 3 52 42 86 54 48 94 58 216 56 82 -2 109 -7 148
-26z m752 -18 c60 -31 80 -58 80 -108 0 -50 -20 -76 -80 -109 -35 -18 -56 -21
-165 -21 -134 0 -178 13 -225 65 -27 30 -27 100 0 130 48 54 109 70 245 66 82
-2 114 -7 145 -23z"/>
<path d="M9474 9506 c-51 -23 -74 -61 -74 -122 0 -63 30 -106 86 -124 92 -31
184 33 184 126 0 37 -27 90 -56 109 -34 22 -103 28 -140 11z"/>
<path d="M9725 9385 l0 -65 62 0 63 0 0 65 0 65 -62 0 -63 0 0 -65z"/>
<path d="M9585 9086 c-81 -23 -110 -82 -61 -130 50 -51 229 -59 298 -12 36 24
50 75 27 102 -37 45 -173 66 -264 40z"/>
<path d="M10326 9066 c-74 -21 -99 -73 -57 -115 42 -42 212 -52 295 -17 62 26
61 97 -2 123 -51 21 -176 26 -236 9z"/>
<path d="M12710 10603 c0 -29 48 -302 76 -435 33 -158 85 -336 131 -454 l37
-95 131 -114 c212 -185 276 -229 395 -269 138 -46 243 -51 728 -37 240 7 440
15 444 17 26 16 -7 57 -174 217 -572 547 -912 800 -1373 1023 -156 75 -364
164 -386 164 -5 0 -9 -8 -9 -17z"/>
</g>
</svg>
