<?xml version="1.0" standalone="no"?>
<!DOCTYPE svg PUBLIC "-//W3C//DTD SVG 20010904//EN"
 "http://www.w3.org/TR/2001/REC-SVG-20010904/DTD/svg10.dtd">
<svg version="1.0" xmlns="http://www.w3.org/2000/svg"
 width="3445.000000pt" height="2700.000000pt" viewBox="0 0 3445.000000 2700.000000"
 preserveAspectRatio="xMidYMid meet">

<g transform="translate(0.000000,2700.000000) scale(0.100000,-0.100000)"
fill="#000000" stroke="none">
<path d="M2536 17702 c-8 -15 -60 -72 -116 -126 -56 -55 -109 -113 -118 -130
-13 -24 -17 -56 -16 -136 0 -113 0 -113 116 -435 l43 -120 1 -255 c1 -173 -2
-271 -11 -305 -24 -101 -75 -155 -273 -294 -79 -55 -340 -261 -395 -311 -5 -4
-15 -61 -23 -126 -8 -66 -25 -198 -38 -294 -14 -96 -27 -215 -31 -265 -9 -121
-30 -225 -53 -272 -41 -78 -103 -116 -292 -178 -154 -50 -603 -215 -614 -225
-27 -26 -224 -722 -257 -910 -11 -63 -28 -133 -38 -156 -23 -51 -79 -91 -181
-129 -99 -37 -190 -82 -217 -107 l-22 -20 85 -171 c102 -202 152 -345 166
-471 5 -50 13 -97 17 -105 4 -8 36 -25 72 -37 35 -12 190 -66 344 -119 329
-114 703 -239 866 -289 181 -56 207 -81 285 -281 25 -66 62 -154 81 -195 43
-95 171 -327 184 -336 17 -10 311 243 419 362 24 27 90 95 146 151 132 132
151 139 374 130 85 -4 216 -13 290 -22 74 -8 272 -21 440 -30 168 -8 326 -17
351 -19 l47 -5 71 121 c40 66 92 151 117 188 l44 67 82 7 c46 3 137 15 203 26
177 29 230 27 304 -12 87 -48 178 -122 211 -174 15 -25 47 -93 71 -152 23 -59
84 -190 134 -292 51 -102 125 -255 164 -340 140 -301 148 -315 202 -364 125
-112 247 -157 642 -238 160 -33 225 -42 312 -42 126 -1 145 4 357 95 139 60
275 109 301 109 8 0 64 80 125 178 60 97 151 235 201 305 l91 128 0 66 c0 56
16 311 36 559 5 70 6 71 107 216 144 205 137 198 187 198 56 0 212 -32 335
-70 99 -30 101 -30 344 -30 l244 0 -7 108 c-9 139 -22 222 -47 299 -24 74 -38
87 -284 268 -683 505 -807 600 -884 676 -91 91 -144 171 -215 325 -90 198 -98
209 -266 374 -86 85 -189 193 -227 240 -80 97 -146 161 -192 185 -17 8 -87 39
-154 68 -68 29 -182 86 -254 126 -73 40 -219 110 -325 155 -238 102 -345 156
-423 211 -78 56 -192 178 -307 329 -253 333 -311 392 -588 592 -236 171 -311
240 -483 442 -165 195 -278 332 -273 332 15 0 -181 173 -234 206 -622 393
-879 544 -1207 708 l-133 66 -14 -28z m644 -3752 l0 -100 60 0 c57 0 60 -1 60
-25 0 -24 -3 -25 -60 -25 l-60 0 0 -85 0 -85 -30 0 -30 0 0 210 0 210 30 0 30
0 0 -100z m840 -275 l0 -375 -30 0 -30 0 0 225 0 225 -90 0 c-89 0 -90 0 -90
25 0 25 1 25 90 25 l90 0 0 125 0 125 30 0 30 0 0 -375z m758 195 l-3 -160 58
0 c54 0 57 -1 57 -25 l0 -25 -165 0 -165 0 0 -180 0 -180 -30 0 -30 0 0 180 0
180 -155 0 -155 0 0 25 0 25 259 0 259 0 6 23 c3 12 6 73 6 135 l0 112 -210 0
-210 0 0 25 0 25 241 0 241 0 -4 -160z m-1803 103 c-17 -93 -47 -147 -119
-218 -65 -64 -184 -145 -212 -145 -6 0 -19 11 -27 24 -16 23 -15 24 56 59 118
59 202 148 232 245 l6 22 -135 0 -136 0 0 25 0 25 171 0 171 0 -7 -37z m675
-37 c0 -146 40 -246 136 -342 l62 -60 -19 -25 -19 -24 -65 67 c-35 37 -77 90
-93 118 l-29 51 -23 -43 c-28 -55 -94 -141 -133 -174 l-30 -25 -23 22 -23 21
63 62 c41 41 75 86 97 131 31 63 34 79 38 177 l3 108 29 0 c29 0 29 0 29 -64z
m-574 -341 c31 -9 63 -28 84 -50 45 -47 49 -108 10 -150 -53 -57 -94 -70 -220
-70 -101 0 -121 3 -163 24 -132 65 -111 200 38 247 55 17 191 17 251 -1z"/>
<path d="M2868 13551 c-80 -17 -124 -70 -94 -115 29 -45 72 -60 171 -61 70 0
99 5 130 20 72 36 71 111 -1 141 -43 18 -154 26 -206 15z"/>
</g>
</svg>
