<?xml version="1.0" standalone="no"?>
<!DOCTYPE svg PUBLIC "-//W3C//DTD SVG 20010904//EN"
 "http://www.w3.org/TR/2001/REC-SVG-20010904/DTD/svg10.dtd">
<svg version="1.0" xmlns="http://www.w3.org/2000/svg"
 width="3445.000000pt" height="2700.000000pt" viewBox="0 0 3445.000000 2700.000000"
 preserveAspectRatio="xMidYMid meet">

<g transform="translate(0.000000,2700.000000) scale(0.100000,-0.100000)"
fill="#000000" stroke="none">
<path d="M17875 14165 c-79 -16 -101 -25 -211 -90 -178 -105 -426 -191 -822
-286 l-222 -54 -34 -51 c-83 -125 -195 -222 -468 -408 l-157 -107 25 -57 c112
-250 194 -467 249 -652 20 -69 39 -131 41 -139 4 -11 20 -13 77 -8 39 3 194
15 342 27 149 11 360 27 470 36 218 17 823 36 1001 32 110 -3 112 -3 165 -40
30 -20 99 -79 154 -129 121 -111 197 -163 282 -189 56 -17 105 -20 436 -25
457 -7 411 4 787 -198 58 -31 123 -63 146 -71 l40 -14 90 161 c49 89 141 265
205 392 l115 230 80 62 c43 35 117 96 164 137 47 41 117 99 155 129 89 70 152
149 253 317 l81 135 7 373 7 374 -184 -5 c-529 -13 -726 -21 -1064 -38 -272
-14 -242 -11 -530 -53 -319 -48 -451 -65 -565 -74 -137 -10 -550 -6 -580 6
-27 11 -163 123 -250 207 -30 28 -66 60 -80 69 -29 19 -116 20 -205 1z m625
-550 l0 -25 -121 0 -120 0 21 -30 c36 -51 117 -90 233 -115 31 -6 32 -12 12
-40 -14 -17 -19 -18 -63 -7 -66 17 -161 65 -199 101 l-33 30 -32 -30 c-44 -40
-167 -99 -213 -102 -28 -1 -40 3 -52 20 -14 21 -13 22 14 28 117 25 197 64
233 115 l21 30 -120 0 -121 0 0 25 0 25 270 0 270 0 0 -25z m768 -135 l-3
-160 58 0 c54 0 57 -1 57 -25 l0 -25 -165 0 -165 0 0 -180 0 -180 -30 0 -30 0
0 180 0 180 -155 0 -155 0 0 25 0 25 259 0 259 0 6 23 c3 12 6 73 6 135 l0
112 -210 0 -210 0 0 25 0 25 241 0 241 0 -4 -160z m-688 -165 l0 -25 -160 0
-160 0 0 -44 0 -43 49 -6 c59 -7 123 -38 145 -69 9 -12 16 -41 16 -64 0 -84
-91 -134 -240 -134 -149 0 -240 50 -240 134 0 23 7 52 16 64 22 31 86 62 145
69 l49 6 0 43 0 44 -160 0 -160 0 0 25 0 25 350 0 350 0 0 -25z"/>
<path d="M18135 13139 c-47 -11 -85 -44 -85 -74 0 -60 122 -99 246 -78 103 18
144 72 92 121 -41 37 -161 52 -253 31z"/>
</g>
</svg>
