<?xml version="1.0" standalone="no"?>
<!DOCTYPE svg PUBLIC "-//W3C//DTD SVG 20010904//EN"
 "http://www.w3.org/TR/2001/REC-SVG-20010904/DTD/svg10.dtd">
<svg version="1.0" xmlns="http://www.w3.org/2000/svg"
 width="3445.000000pt" height="2700.000000pt" viewBox="0 0 3445.000000 2700.000000"
 preserveAspectRatio="xMidYMid meet">

<g transform="translate(0.000000,2700.000000) scale(0.100000,-0.100000)"
fill="#000000" stroke="none">
<path d="M17095 20485 c-55 -7 -201 -30 -325 -50 -124 -20 -276 -43 -339 -51
-130 -16 -116 -6 -198 -144 -133 -226 -140 -235 -354 -412 -163 -135 -202
-186 -247 -328 -57 -178 -73 -423 -89 -1305 -2 -165 -7 -358 -9 -430 -2 -71
-5 -242 -7 -378 l-3 -248 91 -43 c49 -24 143 -62 207 -85 64 -24 121 -48 126
-54 21 -26 161 -484 198 -647 36 -157 33 -219 -20 -375 -42 -125 -267 -749
-326 -905 -47 -126 -70 -210 -70 -259 0 -150 109 -348 265 -481 35 -30 113
-99 172 -152 146 -132 441 -356 462 -352 421 92 784 217 1116 386 l140 71 85
1 c117 0 139 -13 385 -226 l78 -68 363 0 c388 0 385 0 787 65 266 43 493 66
692 70 105 2 219 6 255 8 36 2 235 8 443 12 l377 8 2 259 c1 142 2 282 3 311
l0 52 -150 11 c-82 7 -314 22 -515 33 l-365 22 -58 62 c-81 86 -220 272 -300
400 -71 113 -191 334 -402 737 -70 135 -135 256 -145 270 -11 16 -36 30 -65
38 -27 7 -127 43 -224 81 -97 38 -205 76 -241 85 -81 20 -279 50 -470 71 -339
38 -502 82 -624 168 l-29 20 7 96 c5 81 50 368 58 376 2 2 90 32 196 68 106
35 197 68 202 73 5 5 55 101 111 213 l102 204 -6 81 c-13 186 -74 385 -197
647 -238 504 -248 532 -369 1019 -85 342 -117 450 -183 617 l-41 103 -66 37
c-117 65 -243 145 -297 190 -30 23 -62 42 -71 42 -10 -1 -63 -7 -118 -14z
m255 -4640 l0 -25 -121 0 -122 0 25 -32 c33 -42 125 -93 199 -108 32 -7 59
-15 59 -19 0 -3 -7 -15 -15 -26 -14 -18 -19 -18 -63 -7 -67 18 -147 57 -192
92 l-38 30 -66 -44 c-36 -25 -98 -55 -137 -68 l-71 -23 -20 25 c-23 28 -23 28
67 49 66 16 143 60 173 99 l25 32 -122 0 -121 0 0 25 0 25 270 0 270 0 0 -25z
m1568 -135 l-3 -160 58 0 c54 0 57 -1 57 -25 l0 -25 -165 0 -165 0 0 -180 0
-180 -30 0 -30 0 0 180 0 180 -155 0 -155 0 0 25 0 25 259 0 259 0 6 23 c3 12
6 73 6 135 l0 112 -210 0 -210 0 0 25 0 25 241 0 241 0 -4 -160z m-798 5 l0
-105 -210 0 -210 0 0 -60 0 -60 220 0 220 0 0 -25 0 -25 -115 0 -115 0 0 -70
0 -70 160 0 160 0 0 -25 0 -25 -350 0 -350 0 0 25 0 25 160 0 160 0 0 70 0 70
-110 0 -110 0 0 110 0 110 215 0 215 0 0 55 0 55 -210 0 -210 0 0 25 0 25 240
0 240 0 0 -105z m-1010 -120 l0 -55 160 0 160 0 0 -25 0 -25 -350 0 -350 0 0
25 0 25 160 0 160 0 0 55 c0 54 0 55 30 55 30 0 30 -1 30 -55z m97 -180 c28
-8 65 -28 82 -44 26 -24 31 -37 31 -74 0 -37 -5 -51 -31 -76 -39 -39 -113 -61
-209 -61 -96 0 -170 22 -209 61 -26 25 -31 39 -31 76 0 37 5 50 31 74 17 16
52 35 78 43 62 19 195 20 258 1z"/>
<path d="M16985 15369 c-47 -11 -85 -44 -85 -74 0 -60 122 -99 246 -78 103 18
144 72 92 121 -41 37 -161 52 -253 31z"/>
</g>
</svg>
