<?xml version="1.0" standalone="no"?>
<!DOCTYPE svg PUBLIC "-//W3C//DTD SVG 20010904//EN"
 "http://www.w3.org/TR/2001/REC-SVG-20010904/DTD/svg10.dtd">
<svg version="1.0" xmlns="http://www.w3.org/2000/svg"
 width="3445.000000pt" height="2700.000000pt" viewBox="0 0 3445.000000 2700.000000"
 preserveAspectRatio="xMidYMid meet">

<g transform="translate(0.000000,2700.000000) scale(0.100000,-0.100000)"
fill="#000000" stroke="none">
<path d="M8080 11998 c-125 -140 -160 -194 -182 -278 -5 -19 -13 -163 -18
-320 -6 -217 -12 -297 -24 -336 -20 -64 -84 -161 -215 -329 -56 -71 -120 -167
-142 -211 -38 -75 -44 -82 -82 -94 -23 -7 -118 -45 -212 -85 -381 -164 -409
-167 -831 -80 -281 57 -376 84 -499 145 -163 80 -186 104 -251 249 -30 68
-125 266 -210 440 -86 174 -169 349 -185 389 -73 181 -135 257 -263 322 -71
36 -97 37 -266 10 -69 -11 -151 -20 -182 -20 -54 0 -58 -2 -93 -42 -31 -37
-81 -117 -168 -268 l-26 -46 23 -49 c13 -28 58 -101 101 -163 146 -215 159
-265 158 -602 0 -135 -5 -339 -11 -455 -6 -140 -7 -296 0 -470 5 -143 8 -359
5 -480 -6 -292 -10 -304 -182 -575 -95 -149 -155 -259 -155 -284 0 -10 24 -17
83 -25 440 -63 671 -103 683 -119 14 -18 114 -244 135 -304 l12 -36 346 5
c279 5 352 9 376 21 77 38 267 173 440 313 105 84 231 184 280 222 l90 70 261
-7 c259 -7 432 -20 446 -34 4 -4 45 -107 92 -229 47 -123 91 -235 98 -250 16
-32 114 -85 201 -106 108 -27 272 -39 457 -32 181 6 428 22 467 30 15 4 33 27
58 78 21 39 70 128 110 197 98 170 130 235 165 339 l30 89 0 353 c0 195 3 486
7 647 l6 292 78 63 c42 34 204 156 359 271 l282 209 -7 45 c-4 24 -10 115 -14
202 -9 180 -16 197 -111 300 -92 99 -158 220 -324 595 -36 83 -93 200 -125
260 l-58 110 -44 7 c-24 3 -136 7 -249 7 l-206 1 -130 39 c-135 41 -266 71
-306 71 -16 0 -41 -20 -78 -62z m-1660 -2303 l0 -55 60 0 c57 0 60 -1 60 -25
0 -24 -3 -25 -60 -25 l-60 0 0 -55 0 -55 60 0 c57 0 60 -1 60 -25 0 -24 -3
-25 -60 -25 l-60 0 0 -50 c0 -49 -1 -50 -30 -50 l-30 0 0 210 0 210 30 0 c30
0 30 -1 30 -55z m480 10 l0 -45 85 0 c84 0 85 0 85 -25 0 -25 -1 -25 -85 -25
l-85 0 0 -45 c0 -26 6 -58 14 -74 20 -38 100 -110 143 -127 l35 -15 -22 -24
-23 -25 -40 23 c-22 12 -64 49 -93 81 -30 33 -54 55 -54 49 0 -19 -69 -98
-120 -137 l-51 -39 -26 26 -26 25 39 21 c52 27 86 57 123 110 25 36 31 54 31
98 l0 53 -85 0 c-84 0 -85 0 -85 25 0 25 1 25 90 25 l90 0 0 45 c0 43 1 45 30
45 29 0 30 -2 30 -45z m350 -230 l0 -275 -30 0 -30 0 0 140 0 140 -85 0 c-84
0 -85 0 -85 25 0 25 1 25 85 25 l85 0 0 110 0 110 30 0 30 0 0 -275z m-1083
219 c98 -78 98 -209 1 -287 -66 -52 -181 -50 -244 5 -48 42 -64 77 -64 140 0
114 77 181 202 175 57 -2 72 -7 105 -33z m1851 -124 l-3 -160 58 0 c54 0 57
-1 57 -25 l0 -25 -165 0 -165 0 0 -180 0 -180 -30 0 -30 0 0 180 0 180 -155 0
-155 0 0 25 0 25 259 0 259 0 6 23 c3 12 6 73 6 135 l0 112 -210 0 -210 0 0
25 0 25 241 0 241 0 -4 -160z m-1701 -275 c72 -21 113 -70 113 -132 0 -41 -5
-51 -39 -83 -46 -44 -100 -60 -204 -60 -128 0 -208 38 -236 112 -24 63 26 137
110 163 59 18 194 18 256 0z m533 -130 l0 -95 210 0 210 0 0 -25 0 -25 -245 0
-245 0 0 120 0 120 35 0 35 0 0 -95z"/>
<path d="M5994 9666 c-49 -22 -74 -61 -74 -118 0 -43 5 -55 33 -83 111 -111
288 20 207 153 -34 55 -104 75 -166 48z"/>
<path d="M6108 9251 c-105 -22 -132 -112 -46 -157 50 -27 199 -26 253 1 72 36
71 111 -1 141 -43 18 -154 26 -206 15z"/>
</g>
</svg>
