<?xml version="1.0" standalone="no"?>
<!DOCTYPE svg PUBLIC "-//W3C//DTD SVG 20010904//EN"
 "http://www.w3.org/TR/2001/REC-SVG-20010904/DTD/svg10.dtd">
<svg version="1.0" xmlns="http://www.w3.org/2000/svg"
 width="3445.000000pt" height="2700.000000pt" viewBox="0 0 3445.000000 2700.000000"
 preserveAspectRatio="xMidYMid meet">

<g transform="translate(0.000000,2700.000000) scale(0.100000,-0.100000)"
fill="#000000" stroke="none">
<path d="M20030 25528 c-85 -27 -285 -91 -445 -143 -159 -52 -309 -100 -332
-107 -34 -10 -46 -20 -57 -48 -23 -58 -73 -273 -101 -435 -45 -262 -85 -418
-125 -496 -14 -27 -205 -300 -377 -542 -62 -87 -165 -234 -228 -327 l-116
-169 4 -448 c5 -643 14 -1261 22 -1460 7 -197 4 -210 -79 -322 -25 -35 -46
-67 -46 -72 0 -5 66 -85 147 -179 165 -193 156 -187 363 -244 74 -21 175 -49
224 -63 138 -38 199 -71 361 -193 83 -62 310 -219 505 -348 195 -129 424 -282
508 -341 l152 -106 30 -95 c16 -52 66 -225 110 -385 166 -597 170 -608 199
-632 14 -12 72 -45 129 -73 l104 -51 376 3 c359 4 1010 15 1192 20 84 3 87 4
205 68 66 35 150 80 187 99 59 32 71 43 104 101 80 140 390 644 551 897 57 90
103 165 103 168 0 21 -304 438 -473 650 -326 407 -549 649 -1153 1252 l-503
501 -68 11 c-37 5 -124 15 -193 21 -69 6 -158 20 -198 32 -80 23 -142 69 -397
297 -71 64 -179 159 -239 211 -137 118 -289 273 -298 302 -3 13 -6 59 -7 103
-1 82 12 140 74 340 l28 90 2 330 c3 438 8 503 56 738 52 254 45 328 -69 767
-28 107 -54 223 -58 258 -3 34 -9 64 -13 66 -3 2 -76 -19 -161 -46z m480
-4498 l0 -100 60 0 c57 0 60 -1 60 -25 0 -24 -3 -25 -60 -25 l-60 0 0 -85 0
-85 -30 0 -30 0 0 210 0 210 30 0 30 0 0 -100z m390 35 l0 -45 170 0 170 0 0
45 c0 43 1 45 30 45 l30 0 0 -135 0 -135 -230 0 -230 0 0 135 0 135 30 0 c29
0 30 -2 30 -45z m1208 -115 l-3 -160 58 0 c54 0 57 -1 57 -25 l0 -25 -165 0
-165 0 0 -180 0 -180 -30 0 -30 0 0 180 0 180 -155 0 -155 0 0 25 0 25 259 0
259 0 6 23 c3 12 6 73 6 135 l0 112 -210 0 -210 0 0 25 0 25 241 0 241 0 -4
-160z m-1803 103 c-17 -93 -47 -147 -119 -218 -65 -64 -184 -145 -212 -145 -6
0 -19 11 -27 24 -16 23 -15 24 56 59 118 59 202 148 232 245 l6 22 -135 0
-136 0 0 25 0 25 171 0 171 0 -7 -37z m1115 -308 l0 -25 -160 0 -160 0 0 -45
0 -45 105 0 105 0 0 -125 0 -125 -30 0 -30 0 0 100 0 100 -215 0 -215 0 0 25
0 25 110 0 110 0 0 45 0 45 -160 0 -160 0 0 25 0 25 350 0 350 0 0 -25z
m-1014 -70 c31 -9 63 -28 84 -50 45 -47 49 -108 10 -150 -53 -57 -94 -70 -220
-70 -101 0 -121 3 -163 24 -132 65 -111 200 38 247 55 17 191 17 251 -1z"/>
<path d="M20900 20930 l0 -40 170 0 170 0 0 40 0 40 -170 0 -170 0 0 -40z"/>
<path d="M20198 20631 c-80 -17 -124 -70 -94 -115 29 -45 72 -60 171 -61 70 0
99 5 130 20 72 36 71 111 -1 141 -43 18 -154 26 -206 15z"/>
</g>
</svg>
