<?xml version="1.0" standalone="no"?>
<!DOCTYPE svg PUBLIC "-//W3C//DTD SVG 20010904//EN"
 "http://www.w3.org/TR/2001/REC-SVG-20010904/DTD/svg10.dtd">
<svg version="1.0" xmlns="http://www.w3.org/2000/svg"
 width="3445.000000pt" height="2700.000000pt" viewBox="0 0 3445.000000 2700.000000"
 preserveAspectRatio="xMidYMid meet">

<g transform="translate(0.000000,2700.000000) scale(0.100000,-0.100000)"
fill="#000000" stroke="none">
<path d="M33525 14420 c-44 -22 -179 -79 -300 -127 -282 -112 -429 -187 -695
-353 -342 -213 -528 -302 -752 -361 -78 -21 -114 -22 -573 -29 -471 -6 -493
-7 -560 -29 -85 -27 -162 -69 -320 -171 -66 -43 -208 -124 -315 -180 -242
-127 -312 -173 -420 -275 -47 -45 -114 -104 -150 -132 -253 -198 -329 -376
-455 -1075 l-47 -258 89 -96 c48 -53 87 -100 86 -105 -2 -5 0 -8 5 -7 4 1 18
-3 32 -9 20 -9 255 -33 323 -33 21 0 71 -97 92 -177 19 -72 19 -199 1 -296
-25 -131 -66 -238 -252 -664 -14 -31 -13 -32 31 -77 25 -25 103 -83 173 -129
197 -130 234 -180 351 -472 74 -186 109 -247 146 -257 17 -4 102 -10 190 -13
205 -8 319 -21 364 -45 20 -10 64 -42 97 -72 135 -121 156 -130 354 -153 69
-8 136 -17 150 -21 19 -4 28 0 39 18 15 24 459 650 569 802 82 113 118 181
130 248 6 29 14 190 20 358 8 275 11 310 30 352 31 72 98 100 407 172 174 40
590 157 1040 291 255 76 432 126 649 184 125 34 193 57 202 68 7 10 54 85 104
167 66 106 90 154 86 170 -3 11 -30 55 -60 96 -72 98 -81 135 -73 314 10 223
-1 267 -113 456 -46 78 -50 89 -50 150 0 101 22 168 130 390 113 235 128 278
105 313 -28 44 -56 142 -80 286 -14 79 -27 147 -31 150 -3 3 -45 6 -92 6 -72
0 -93 4 -122 22 -19 12 -82 40 -139 63 -271 108 -293 140 -291 443 0 105 -2
137 -12 136 -7 0 -49 -18 -93 -39z m-2445 -1640 l0 -100 60 0 c57 0 60 -1 60
-25 0 -24 -3 -25 -60 -25 l-60 0 0 -85 0 -85 -30 0 -30 0 0 210 0 210 30 0 30
0 0 -100z m800 55 l0 -25 -205 0 -205 0 0 -70 0 -70 210 0 210 0 0 -25 0 -25
-110 0 -110 0 0 -50 0 -50 160 0 160 0 0 -25 0 -25 -350 0 -350 0 0 25 0 25
160 0 160 0 0 50 0 50 -100 0 -100 0 0 120 0 120 235 0 235 0 0 -25z m798
-135 l-3 -160 58 0 c54 0 57 -1 57 -25 l0 -25 -165 0 -165 0 0 -180 0 -180
-30 0 -30 0 0 180 0 180 -155 0 -155 0 0 25 0 25 259 0 259 0 6 23 c3 12 6 73
6 135 l0 112 -210 0 -210 0 0 25 0 25 241 0 241 0 -4 -160z m-1803 103 c-17
-93 -47 -147 -119 -218 -65 -64 -184 -145 -212 -145 -6 0 -19 11 -27 24 -16
23 -15 24 56 59 118 59 202 148 232 245 l6 22 -135 0 -136 0 0 25 0 25 171 0
171 0 -7 -37z m101 -378 c31 -9 63 -28 84 -50 45 -47 49 -108 10 -150 -53 -57
-94 -70 -220 -70 -101 0 -121 3 -163 24 -132 65 -111 200 38 247 55 17 191 17
251 -1z m829 -32 c60 -31 80 -58 80 -108 0 -50 -20 -76 -80 -109 -35 -18 -56
-21 -165 -21 -111 0 -130 3 -168 23 -102 55 -106 158 -7 210 51 26 86 31 195
28 82 -2 114 -7 145 -23z"/>
<path d="M30768 12381 c-80 -17 -124 -70 -94 -115 29 -45 72 -60 171 -61 70 0
99 5 130 20 72 36 71 111 -1 141 -43 18 -154 26 -206 15z"/>
<path d="M31536 12356 c-74 -21 -99 -73 -57 -115 42 -42 212 -52 295 -17 62
26 61 97 -2 123 -51 21 -176 26 -236 9z"/>
</g>
</svg>
