<?xml version="1.0" standalone="no"?>
<!DOCTYPE svg PUBLIC "-//W3C//DTD SVG 20010904//EN"
 "http://www.w3.org/TR/2001/REC-SVG-20010904/DTD/svg10.dtd">
<svg version="1.0" xmlns="http://www.w3.org/2000/svg"
 width="3445.000000pt" height="2700.000000pt" viewBox="0 0 3445.000000 2700.000000"
 preserveAspectRatio="xMidYMid meet">

<g transform="translate(0.000000,2700.000000) scale(0.100000,-0.100000)"
fill="#000000" stroke="none">
<path d="M21362 10110 c-105 -9 -373 -41 -515 -61 -92 -14 -158 -50 -269 -148
-40 -36 -142 -115 -226 -178 -84 -62 -155 -120 -158 -128 -3 -7 45 -107 107
-222 123 -227 151 -274 259 -438 84 -128 131 -218 154 -294 18 -61 77 -409
101 -601 19 -147 39 -239 61 -282 26 -49 92 -116 201 -200 214 -165 223 -188
243 -573 12 -257 37 -545 55 -660 31 -192 84 -308 179 -388 33 -29 101 -91
151 -139 276 -266 313 -290 583 -385 85 -29 162 -58 173 -63 23 -13 210 -171
326 -278 65 -59 85 -83 94 -116 6 -22 47 -193 90 -379 43 -186 98 -404 120
-485 74 -265 174 -491 280 -636 41 -55 54 -67 72 -63 12 3 90 26 172 51 308
96 531 142 744 153 118 6 126 8 157 35 41 36 155 185 263 345 l83 122 87 31
c336 122 650 176 875 151 204 -23 280 -53 451 -180 l110 -81 6 -68 c4 -37 10
-163 14 -280 l8 -214 34 -56 c54 -90 138 -195 211 -264 56 -52 97 -78 235
-146 186 -92 223 -122 382 -311 44 -52 91 -102 105 -112 21 -15 56 -19 230
-25 l205 -6 122 61 c140 71 183 81 358 81 238 1 330 28 478 140 80 60 113 103
174 225 66 132 98 171 161 202 51 25 63 26 275 33 200 7 257 13 257 27 0 12
-115 245 -157 317 -102 178 -351 526 -561 786 -119 146 -131 179 -172 455 -11
77 -37 227 -58 333 l-38 194 -69 44 c-39 25 -131 80 -205 121 -356 201 -486
276 -501 290 -9 8 -39 80 -65 160 l-49 146 -64 56 c-35 31 -87 77 -115 103
-49 45 -55 47 -161 68 -61 11 -252 38 -426 60 -464 57 -504 67 -729 180 -67
34 -197 90 -289 126 -195 76 -240 101 -381 204 -58 43 -145 104 -195 135 -179
115 -198 134 -266 269 -34 67 -88 165 -121 219 -91 148 -90 140 -95 542 -2
193 -8 362 -13 377 -5 15 -9 153 -10 307 0 154 -3 286 -5 293 -3 8 -52 20
-128 30 -312 45 -567 134 -984 345 -145 73 -381 193 -525 266 -469 237 -715
315 -1143 363 -165 18 -606 26 -753 14z m1168 -3020 l0 -100 60 0 c57 0 60 -1
60 -25 0 -24 -3 -25 -60 -25 l-60 0 0 -85 0 -85 -30 0 -30 0 0 210 0 210 30 0
30 0 0 -100z m800 10 l0 -90 60 0 c57 0 60 -1 60 -25 0 -24 -3 -25 -60 -25
l-60 0 0 -95 0 -95 -30 0 -30 0 0 210 0 210 30 0 30 0 0 -90z m798 -90 l-3
-160 58 0 c54 0 57 -1 57 -25 l0 -25 -165 0 -165 0 0 -180 0 -180 -30 0 -30 0
0 180 0 180 -155 0 -155 0 0 25 0 25 259 0 259 0 6 23 c3 12 6 73 6 135 l0
112 -210 0 -210 0 0 25 0 25 241 0 241 0 -4 -160z m-1268 18 l0 -131 158 6
c86 4 167 10 180 13 21 6 23 4 20 -22 -3 -27 -7 -30 -53 -36 -27 -3 -121 -7
-207 -7 l-158 -1 0 155 0 155 30 0 30 0 0 -132z m-535 85 c-17 -93 -47 -147
-119 -218 -65 -64 -184 -145 -212 -145 -6 0 -19 11 -27 24 -16 23 -15 24 56
59 118 59 202 148 232 245 l6 22 -135 0 -136 0 0 25 0 25 171 0 171 0 -7 -37z
m101 -378 c31 -9 63 -28 84 -50 45 -47 49 -108 10 -150 -53 -57 -94 -70 -220
-70 -101 0 -121 3 -163 24 -132 65 -111 200 38 247 55 17 191 17 251 -1z m904
-140 l0 -135 -230 0 -230 0 0 135 0 135 230 0 230 0 0 -135z"/>
<path d="M22218 6691 c-80 -17 -124 -70 -94 -115 29 -45 72 -60 171 -61 70 0
99 5 130 20 72 36 71 111 -1 141 -43 18 -154 26 -206 15z"/>
<path d="M22930 6595 l0 -85 170 0 170 0 0 85 0 85 -170 0 -170 0 0 -85z"/>
</g>
</svg>
