<?xml version="1.0" standalone="no"?>
<!DOCTYPE svg PUBLIC "-//W3C//DTD SVG 20010904//EN"
 "http://www.w3.org/TR/2001/REC-SVG-20010904/DTD/svg10.dtd">
<svg version="1.0" xmlns="http://www.w3.org/2000/svg"
 width="3445.000000pt" height="2700.000000pt" viewBox="0 0 3445.000000 2700.000000"
 preserveAspectRatio="xMidYMid meet">

<g transform="translate(0.000000,2700.000000) scale(0.100000,-0.100000)"
fill="#000000" stroke="none">
<path d="M27570 14292 c-95 -23 -152 -45 -320 -122 -294 -136 -312 -140 -830
-149 -310 -6 -401 -11 -424 -22 -20 -9 -42 -39 -72 -94 -23 -44 -48 -86 -54
-92 -6 -7 -9 -13 -6 -13 11 0 -161 -375 -252 -552 -56 -106 -115 -228 -132
-270 -38 -96 -85 -291 -145 -603 -93 -484 -153 -652 -323 -906 -54 -80 -286
-369 -321 -399 -3 -3 -38 -41 -77 -85 l-71 -80 -7 -95 c-9 -142 -30 -246 -112
-567 -41 -161 -74 -304 -74 -317 0 -20 9 -29 48 -46 226 -102 508 -167 827
-190 162 -11 1027 3 1198 20 158 15 292 46 367 85 52 27 127 105 261 271 76
94 211 250 301 345 221 236 394 424 449 489 57 68 149 188 149 194 0 3 48 83
107 178 209 339 223 375 273 713 39 272 79 430 145 580 14 30 25 59 25 64 0 4
-136 11 -302 14 l-303 6 -32 36 c-43 50 -61 109 -74 244 -21 219 -32 268 -98
415 -76 169 -88 217 -72 281 16 62 57 125 175 265 128 152 156 208 156 310 0
56 -4 81 -15 90 -9 7 -64 13 -152 16 -108 3 -154 0 -213 -14z m-1440 -2227 l0
-115 55 0 c52 0 55 -1 55 -25 0 -24 -3 -25 -55 -25 l-55 0 0 -80 0 -80 -30 0
-30 0 0 220 0 220 30 0 30 0 0 -115z m820 -150 l0 -265 -30 0 -30 0 0 265 0
265 30 0 30 0 0 -265z m768 85 l-3 -160 58 0 c54 0 57 -1 57 -25 l0 -25 -165
0 -165 0 0 -180 0 -180 -30 0 -30 0 0 180 0 180 -155 0 -155 0 0 25 0 25 259
0 259 0 6 23 c3 12 6 73 6 135 l0 112 -210 0 -210 0 0 25 0 25 241 0 241 0 -4
-160z m-1754 33 c-3 -65 -9 -121 -13 -125 -3 -3 -17 -4 -31 -2 -25 5 -25 6
-22 100 l3 94 -155 0 -156 0 0 25 0 25 190 0 191 0 -7 -117z m816 82 c0 -25
-1 -25 -85 -25 l-85 0 0 -33 c0 -68 77 -176 167 -237 22 -15 22 -15 4 -39
l-19 -25 -55 42 c-30 24 -71 63 -90 87 l-34 44 -38 -55 c-36 -52 -128 -144
-145 -144 -4 0 -16 12 -25 27 -15 22 -15 28 -4 32 7 2 38 27 68 55 61 58 111
151 111 209 l0 37 -85 0 c-84 0 -85 0 -85 25 l0 25 200 0 200 0 0 -25z m-1010
-195 l0 -70 119 0 c112 0 120 -1 126 -21 4 -11 4 -24 0 -27 -4 -4 -114 -8
-245 -10 l-237 -3 -5 26 -5 25 93 0 94 0 0 75 0 75 30 0 30 0 0 -70z m277
-218 c56 -29 83 -66 83 -112 0 -46 -27 -83 -83 -113 -37 -19 -57 -22 -162 -22
-109 0 -125 2 -170 25 -125 64 -104 190 38 236 67 22 241 14 294 -14z m503
-107 l0 -95 210 0 210 0 0 -25 0 -25 -240 0 -240 0 0 120 0 120 30 0 30 0 0
-95z"/>
<path d="M25797 11671 c-93 -20 -125 -93 -59 -137 57 -39 195 -43 279 -8 69
28 66 101 -4 130 -43 18 -162 26 -216 15z"/>
</g>
</svg>
